ISO-10303-21;
HEADER;
FILE_DESCRIPTION(('Open CASCADE Model'),'2;1');
FILE_NAME('Open CASCADE Shape Model','2026-09-09T07:32:22',('Author'),(
    'Open CASCADE'),'Open CASCADE STEP processor 7.9','Open CASCADE 7.9'
  ,'Unknown');
FILE_SCHEMA(('AUTOMOTIVE_DESIGN { 1 0 10303 214 1 1 1 1 }'));
ENDSEC;
DATA;
#1 = APPLICATION_PROTOCOL_DEFINITION('international standard',
  'automotive_design',2000,#2);
#2 = APPLICATION_CONTEXT(
  'core data for automotive mechanical design processes');
#3 = SHAPE_DEFINITION_REPRESENTATION(#4,#10);
#4 = PRODUCT_DEFINITION_SHAPE('','',#5);
#5 = PRODUCT_DEFINITION('design','',#6,#9);
#6 = PRODUCT_DEFINITION_FORMATION('','',#7);
#7 = PRODUCT('Open CASCADE STEP translator 7.9 3',
  'Open CASCADE STEP translator 7.9 3','',(#8));
#8 = PRODUCT_CONTEXT('',#2,'mechanical');
#9 = PRODUCT_DEFINITION_CONTEXT('part definition',#2,'design');
#10 = ADVANCED_BREP_SHAPE_REPRESENTATION('',(#11,#15),#619);
#11 = AXIS2_PLACEMENT_3D('',#12,#13,#14);
#12 = CARTESIAN_POINT('',(0.,0.,0.));
#13 = DIRECTION('',(0.,0.,1.));
#14 = DIRECTION('',(1.,0.,-0.));
#15 = MANIFOLD_SOLID_BREP('',#16);
#16 = CLOSED_SHELL('',(#17,#109,#144,#179,#234,#289,#328,#332,#614));
#17 = ADVANCED_FACE('',(#18),#32,.T.);
#18 = FACE_BOUND('',#19,.F.);
#19 = EDGE_LOOP('',(#20,#50,#77,#78));
#20 = ORIENTED_EDGE('',*,*,#21,.F.);
#21 = EDGE_CURVE('',#22,#24,#26,.T.);
#22 = VERTEX_POINT('',#23);
#23 = CARTESIAN_POINT('',(31.3,-36.3,12.3));
#24 = VERTEX_POINT('',#25);
#25 = CARTESIAN_POINT('',(31.3,-36.3,12.55));
#26 = SEAM_CURVE('',#27,(#31,#43),.PCURVE_S1.);
#27 = LINE('',#28,#29);
#28 = CARTESIAN_POINT('',(31.3,-36.3,12.3));
#29 = VECTOR('',#30,1.);
#30 = DIRECTION('',(0.,0.,1.));
#31 = PCURVE('',#32,#37);
#32 = CYLINDRICAL_SURFACE('',#33,1.3);
#33 = AXIS2_PLACEMENT_3D('',#34,#35,#36);
#34 = CARTESIAN_POINT('',(30.,-36.3,12.3));
#35 = DIRECTION('',(-0.,-0.,-1.));
#36 = DIRECTION('',(1.,0.,0.));
#37 = DEFINITIONAL_REPRESENTATION('',(#38),#42);
#38 = LINE('',#39,#40);
#39 = CARTESIAN_POINT('',(-6.28318530718,0.));
#40 = VECTOR('',#41,1.);
#41 = DIRECTION('',(-0.,-1.));
#42 = ( GEOMETRIC_REPRESENTATION_CONTEXT(2) 
PARAMETRIC_REPRESENTATION_CONTEXT() REPRESENTATION_CONTEXT('2D SPACE',''
  ) );
#43 = PCURVE('',#32,#44);
#44 = DEFINITIONAL_REPRESENTATION('',(#45),#49);
#45 = LINE('',#46,#47);
#46 = CARTESIAN_POINT('',(-0.,0.));
#47 = VECTOR('',#48,1.);
#48 = DIRECTION('',(-0.,-1.));
#49 = ( GEOMETRIC_REPRESENTATION_CONTEXT(2) 
PARAMETRIC_REPRESENTATION_CONTEXT() REPRESENTATION_CONTEXT('2D SPACE',''
  ) );
#50 = ORIENTED_EDGE('',*,*,#51,.F.);
#51 = EDGE_CURVE('',#22,#22,#52,.T.);
#52 = SURFACE_CURVE('',#53,(#58,#65),.PCURVE_S1.);
#53 = CIRCLE('',#54,1.3);
#54 = AXIS2_PLACEMENT_3D('',#55,#56,#57);
#55 = CARTESIAN_POINT('',(30.,-36.3,12.3));
#56 = DIRECTION('',(0.,0.,1.));
#57 = DIRECTION('',(1.,0.,0.));
#58 = PCURVE('',#32,#59);
#59 = DEFINITIONAL_REPRESENTATION('',(#60),#64);
#60 = LINE('',#61,#62);
#61 = CARTESIAN_POINT('',(-0.,0.));
#62 = VECTOR('',#63,1.);
#63 = DIRECTION('',(-1.,0.));
#64 = ( GEOMETRIC_REPRESENTATION_CONTEXT(2) 
PARAMETRIC_REPRESENTATION_CONTEXT() REPRESENTATION_CONTEXT('2D SPACE',''
  ) );
#65 = PCURVE('',#66,#71);
#66 = PLANE('',#67);
#67 = AXIS2_PLACEMENT_3D('',#68,#69,#70);
#68 = CARTESIAN_POINT('',(30.,-36.3,12.3));
#69 = DIRECTION('',(0.,0.,1.));
#70 = DIRECTION('',(1.,0.,-0.));
#71 = DEFINITIONAL_REPRESENTATION('',(#72),#76);
#72 = CIRCLE('',#73,1.3);
#73 = AXIS2_PLACEMENT_2D('',#74,#75);
#74 = CARTESIAN_POINT('',(-3.552713678801E-15,0.));
#75 = DIRECTION('',(1.,0.));
#76 = ( GEOMETRIC_REPRESENTATION_CONTEXT(2) 
PARAMETRIC_REPRESENTATION_CONTEXT() REPRESENTATION_CONTEXT('2D SPACE',''
  ) );
#77 = ORIENTED_EDGE('',*,*,#21,.T.);
#78 = ORIENTED_EDGE('',*,*,#79,.F.);
#79 = EDGE_CURVE('',#24,#24,#80,.T.);
#80 = SURFACE_CURVE('',#81,(#86,#93),.PCURVE_S1.);
#81 = CIRCLE('',#82,1.3);
#82 = AXIS2_PLACEMENT_3D('',#83,#84,#85);
#83 = CARTESIAN_POINT('',(30.,-36.3,12.55));
#84 = DIRECTION('',(0.,0.,-1.));
#85 = DIRECTION('',(1.,0.,0.));
#86 = PCURVE('',#32,#87);
#87 = DEFINITIONAL_REPRESENTATION('',(#88),#92);
#88 = LINE('',#89,#90);
#89 = CARTESIAN_POINT('',(-6.28318530718,-0.25));
#90 = VECTOR('',#91,1.);
#91 = DIRECTION('',(1.,-0.));
#92 = ( GEOMETRIC_REPRESENTATION_CONTEXT(2) 
PARAMETRIC_REPRESENTATION_CONTEXT() REPRESENTATION_CONTEXT('2D SPACE',''
  ) );
#93 = PCURVE('',#94,#99);
#94 = PLANE('',#95);
#95 = AXIS2_PLACEMENT_3D('',#96,#97,#98);
#96 = CARTESIAN_POINT('',(30.,-36.3,12.55));
#97 = DIRECTION('',(0.,0.,1.));
#98 = DIRECTION('',(1.,0.,-0.));
#99 = DEFINITIONAL_REPRESENTATION('',(#100),#108);
#100 = ( BOUNDED_CURVE() B_SPLINE_CURVE(2,(#101,#102,#103,#104,#105,#106
,#107),.UNSPECIFIED.,.T.,.F.) B_SPLINE_CURVE_WITH_KNOTS((1,2,2,2,2,1),(
    -2.094395102393,0.,2.094395102393,4.188790204786,6.28318530718,
8.377580409573),.UNSPECIFIED.) CURVE() GEOMETRIC_REPRESENTATION_ITEM() 
RATIONAL_B_SPLINE_CURVE((1.,0.5,1.,0.5,1.,0.5,1.)) REPRESENTATION_ITEM(
  '') );
#101 = CARTESIAN_POINT('',(1.3,-7.105427357601E-15));
#102 = CARTESIAN_POINT('',(1.3,-2.25166604984));
#103 = CARTESIAN_POINT('',(-0.65,-1.12583302492));
#104 = CARTESIAN_POINT('',(-2.6,-7.423835525379E-15));
#105 = CARTESIAN_POINT('',(-0.65,1.12583302492));
#106 = CARTESIAN_POINT('',(1.3,2.25166604984));
#107 = CARTESIAN_POINT('',(1.3,-7.105427357601E-15));
#108 = ( GEOMETRIC_REPRESENTATION_CONTEXT(2) 
PARAMETRIC_REPRESENTATION_CONTEXT() REPRESENTATION_CONTEXT('2D SPACE',''
  ) );
#109 = ADVANCED_FACE('',(#110,#141),#94,.F.);
#110 = FACE_BOUND('',#111,.F.);
#111 = EDGE_LOOP('',(#112));
#112 = ORIENTED_EDGE('',*,*,#113,.T.);
#113 = EDGE_CURVE('',#114,#114,#116,.T.);
#114 = VERTEX_POINT('',#115);
#115 = CARTESIAN_POINT('',(32.,-36.3,12.55));
#116 = SURFACE_CURVE('',#117,(#122,#129),.PCURVE_S1.);
#117 = CIRCLE('',#118,2.);
#118 = AXIS2_PLACEMENT_3D('',#119,#120,#121);
#119 = CARTESIAN_POINT('',(30.,-36.3,12.55));
#120 = DIRECTION('',(0.,0.,1.));
#121 = DIRECTION('',(1.,0.,0.));
#122 = PCURVE('',#94,#123);
#123 = DEFINITIONAL_REPRESENTATION('',(#124),#128);
#124 = CIRCLE('',#125,2.);
#125 = AXIS2_PLACEMENT_2D('',#126,#127);
#126 = CARTESIAN_POINT('',(0.,-7.105427357601E-15));
#127 = DIRECTION('',(1.,0.));
#128 = ( GEOMETRIC_REPRESENTATION_CONTEXT(2) 
PARAMETRIC_REPRESENTATION_CONTEXT() REPRESENTATION_CONTEXT('2D SPACE',''
  ) );
#129 = PCURVE('',#130,#135);
#130 = CYLINDRICAL_SURFACE('',#131,2.);
#131 = AXIS2_PLACEMENT_3D('',#132,#133,#134);
#132 = CARTESIAN_POINT('',(30.,-36.3,12.55));
#133 = DIRECTION('',(-0.,-0.,-1.));
#134 = DIRECTION('',(1.,0.,0.));
#135 = DEFINITIONAL_REPRESENTATION('',(#136),#140);
#136 = LINE('',#137,#138);
#137 = CARTESIAN_POINT('',(-0.,0.));
#138 = VECTOR('',#139,1.);
#139 = DIRECTION('',(-1.,0.));
#140 = ( GEOMETRIC_REPRESENTATION_CONTEXT(2) 
PARAMETRIC_REPRESENTATION_CONTEXT() REPRESENTATION_CONTEXT('2D SPACE',''
  ) );
#141 = FACE_BOUND('',#142,.F.);
#142 = EDGE_LOOP('',(#143));
#143 = ORIENTED_EDGE('',*,*,#79,.T.);
#144 = ADVANCED_FACE('',(#145,#148),#66,.F.);
#145 = FACE_BOUND('',#146,.F.);
#146 = EDGE_LOOP('',(#147));
#147 = ORIENTED_EDGE('',*,*,#51,.T.);
#148 = FACE_BOUND('',#149,.F.);
#149 = EDGE_LOOP('',(#150));
#150 = ORIENTED_EDGE('',*,*,#151,.F.);
#151 = EDGE_CURVE('',#152,#152,#154,.T.);
#152 = VERTEX_POINT('',#153);
#153 = CARTESIAN_POINT('',(30.7,-36.3,12.3));
#154 = SURFACE_CURVE('',#155,(#160,#167),.PCURVE_S1.);
#155 = CIRCLE('',#156,0.7);
#156 = AXIS2_PLACEMENT_3D('',#157,#158,#159);
#157 = CARTESIAN_POINT('',(30.,-36.3,12.3));
#158 = DIRECTION('',(0.,0.,1.));
#159 = DIRECTION('',(1.,0.,0.));
#160 = PCURVE('',#66,#161);
#161 = DEFINITIONAL_REPRESENTATION('',(#162),#166);
#162 = CIRCLE('',#163,0.7);
#163 = AXIS2_PLACEMENT_2D('',#164,#165);
#164 = CARTESIAN_POINT('',(-3.552713678801E-15,0.));
#165 = DIRECTION('',(1.,0.));
#166 = ( GEOMETRIC_REPRESENTATION_CONTEXT(2) 
PARAMETRIC_REPRESENTATION_CONTEXT() REPRESENTATION_CONTEXT('2D SPACE',''
  ) );
#167 = PCURVE('',#168,#173);
#168 = CYLINDRICAL_SURFACE('',#169,0.7);
#169 = AXIS2_PLACEMENT_3D('',#170,#171,#172);
#170 = CARTESIAN_POINT('',(30.,-36.3,11.8));
#171 = DIRECTION('',(-0.,-0.,-1.));
#172 = DIRECTION('',(1.,0.,0.));
#173 = DEFINITIONAL_REPRESENTATION('',(#174),#178);
#174 = LINE('',#175,#176);
#175 = CARTESIAN_POINT('',(-0.,-0.5));
#176 = VECTOR('',#177,1.);
#177 = DIRECTION('',(-1.,0.));
#178 = ( GEOMETRIC_REPRESENTATION_CONTEXT(2) 
PARAMETRIC_REPRESENTATION_CONTEXT() REPRESENTATION_CONTEXT('2D SPACE',''
  ) );
#179 = ADVANCED_FACE('',(#180),#130,.T.);
#180 = FACE_BOUND('',#181,.F.);
#181 = EDGE_LOOP('',(#182,#205,#232,#233));
#182 = ORIENTED_EDGE('',*,*,#183,.T.);
#183 = EDGE_CURVE('',#114,#184,#186,.T.);
#184 = VERTEX_POINT('',#185);
#185 = CARTESIAN_POINT('',(32.,-36.3,12.95));
#186 = SEAM_CURVE('',#187,(#191,#198),.PCURVE_S1.);
#187 = LINE('',#188,#189);
#188 = CARTESIAN_POINT('',(32.,-36.3,12.55));
#189 = VECTOR('',#190,1.);
#190 = DIRECTION('',(0.,0.,1.));
#191 = PCURVE('',#130,#192);
#192 = DEFINITIONAL_REPRESENTATION('',(#193),#197);
#193 = LINE('',#194,#195);
#194 = CARTESIAN_POINT('',(-0.,0.));
#195 = VECTOR('',#196,1.);
#196 = DIRECTION('',(-0.,-1.));
#197 = ( GEOMETRIC_REPRESENTATION_CONTEXT(2) 
PARAMETRIC_REPRESENTATION_CONTEXT() REPRESENTATION_CONTEXT('2D SPACE',''
  ) );
#198 = PCURVE('',#130,#199);
#199 = DEFINITIONAL_REPRESENTATION('',(#200),#204);
#200 = LINE('',#201,#202);
#201 = CARTESIAN_POINT('',(-6.28318530718,0.));
#202 = VECTOR('',#203,1.);
#203 = DIRECTION('',(-0.,-1.));
#204 = ( GEOMETRIC_REPRESENTATION_CONTEXT(2) 
PARAMETRIC_REPRESENTATION_CONTEXT() REPRESENTATION_CONTEXT('2D SPACE',''
  ) );
#205 = ORIENTED_EDGE('',*,*,#206,.T.);
#206 = EDGE_CURVE('',#184,#184,#207,.T.);
#207 = SURFACE_CURVE('',#208,(#213,#220),.PCURVE_S1.);
#208 = CIRCLE('',#209,2.);
#209 = AXIS2_PLACEMENT_3D('',#210,#211,#212);
#210 = CARTESIAN_POINT('',(30.,-36.3,12.95));
#211 = DIRECTION('',(0.,0.,1.));
#212 = DIRECTION('',(1.,0.,0.));
#213 = PCURVE('',#130,#214);
#214 = DEFINITIONAL_REPRESENTATION('',(#215),#219);
#215 = LINE('',#216,#217);
#216 = CARTESIAN_POINT('',(-0.,-0.4));
#217 = VECTOR('',#218,1.);
#218 = DIRECTION('',(-1.,0.));
#219 = ( GEOMETRIC_REPRESENTATION_CONTEXT(2) 
PARAMETRIC_REPRESENTATION_CONTEXT() REPRESENTATION_CONTEXT('2D SPACE',''
  ) );
#220 = PCURVE('',#221,#226);
#221 = PLANE('',#222);
#222 = AXIS2_PLACEMENT_3D('',#223,#224,#225);
#223 = CARTESIAN_POINT('',(30.,-36.3,12.95));
#224 = DIRECTION('',(0.,0.,1.));
#225 = DIRECTION('',(1.,0.,-0.));
#226 = DEFINITIONAL_REPRESENTATION('',(#227),#231);
#227 = CIRCLE('',#228,2.);
#228 = AXIS2_PLACEMENT_2D('',#229,#230);
#229 = CARTESIAN_POINT('',(0.,-7.105427357601E-15));
#230 = DIRECTION('',(1.,0.));
#231 = ( GEOMETRIC_REPRESENTATION_CONTEXT(2) 
PARAMETRIC_REPRESENTATION_CONTEXT() REPRESENTATION_CONTEXT('2D SPACE',''
  ) );
#232 = ORIENTED_EDGE('',*,*,#183,.F.);
#233 = ORIENTED_EDGE('',*,*,#113,.F.);
#234 = ADVANCED_FACE('',(#235),#168,.T.);
#235 = FACE_BOUND('',#236,.F.);
#236 = EDGE_LOOP('',(#237,#260,#261,#262));
#237 = ORIENTED_EDGE('',*,*,#238,.T.);
#238 = EDGE_CURVE('',#239,#152,#241,.T.);
#239 = VERTEX_POINT('',#240);
#240 = CARTESIAN_POINT('',(30.7,-36.3,11.8));
#241 = SEAM_CURVE('',#242,(#246,#253),.PCURVE_S1.);
#242 = LINE('',#243,#244);
#243 = CARTESIAN_POINT('',(30.7,-36.3,11.8));
#244 = VECTOR('',#245,1.);
#245 = DIRECTION('',(0.,0.,1.));
#246 = PCURVE('',#168,#247);
#247 = DEFINITIONAL_REPRESENTATION('',(#248),#252);
#248 = LINE('',#249,#250);
#249 = CARTESIAN_POINT('',(-0.,0.));
#250 = VECTOR('',#251,1.);
#251 = DIRECTION('',(-0.,-1.));
#252 = ( GEOMETRIC_REPRESENTATION_CONTEXT(2) 
PARAMETRIC_REPRESENTATION_CONTEXT() REPRESENTATION_CONTEXT('2D SPACE',''
  ) );
#253 = PCURVE('',#168,#254);
#254 = DEFINITIONAL_REPRESENTATION('',(#255),#259);
#255 = LINE('',#256,#257);
#256 = CARTESIAN_POINT('',(-6.28318530718,0.));
#257 = VECTOR('',#258,1.);
#258 = DIRECTION('',(-0.,-1.));
#259 = ( GEOMETRIC_REPRESENTATION_CONTEXT(2) 
PARAMETRIC_REPRESENTATION_CONTEXT() REPRESENTATION_CONTEXT('2D SPACE',''
  ) );
#260 = ORIENTED_EDGE('',*,*,#151,.T.);
#261 = ORIENTED_EDGE('',*,*,#238,.F.);
#262 = ORIENTED_EDGE('',*,*,#263,.F.);
#263 = EDGE_CURVE('',#239,#239,#264,.T.);
#264 = SURFACE_CURVE('',#265,(#270,#277),.PCURVE_S1.);
#265 = CIRCLE('',#266,0.7);
#266 = AXIS2_PLACEMENT_3D('',#267,#268,#269);
#267 = CARTESIAN_POINT('',(30.,-36.3,11.8));
#268 = DIRECTION('',(0.,0.,1.));
#269 = DIRECTION('',(1.,0.,0.));
#270 = PCURVE('',#168,#271);
#271 = DEFINITIONAL_REPRESENTATION('',(#272),#276);
#272 = LINE('',#273,#274);
#273 = CARTESIAN_POINT('',(-0.,0.));
#274 = VECTOR('',#275,1.);
#275 = DIRECTION('',(-1.,0.));
#276 = ( GEOMETRIC_REPRESENTATION_CONTEXT(2) 
PARAMETRIC_REPRESENTATION_CONTEXT() REPRESENTATION_CONTEXT('2D SPACE',''
  ) );
#277 = PCURVE('',#278,#283);
#278 = PLANE('',#279);
#279 = AXIS2_PLACEMENT_3D('',#280,#281,#282);
#280 = CARTESIAN_POINT('',(30.,-36.3,11.8));
#281 = DIRECTION('',(0.,0.,1.));
#282 = DIRECTION('',(1.,0.,-0.));
#283 = DEFINITIONAL_REPRESENTATION('',(#284),#288);
#284 = CIRCLE('',#285,0.7);
#285 = AXIS2_PLACEMENT_2D('',#286,#287);
#286 = CARTESIAN_POINT('',(-3.552713678801E-15,0.));
#287 = DIRECTION('',(1.,0.));
#288 = ( GEOMETRIC_REPRESENTATION_CONTEXT(2) 
PARAMETRIC_REPRESENTATION_CONTEXT() REPRESENTATION_CONTEXT('2D SPACE',''
  ) );
#289 = ADVANCED_FACE('',(#290,#293),#221,.T.);
#290 = FACE_BOUND('',#291,.T.);
#291 = EDGE_LOOP('',(#292));
#292 = ORIENTED_EDGE('',*,*,#206,.T.);
#293 = FACE_BOUND('',#294,.T.);
#294 = EDGE_LOOP('',(#295));
#295 = ORIENTED_EDGE('',*,*,#296,.T.);
#296 = EDGE_CURVE('',#297,#297,#299,.T.);
#297 = VERTEX_POINT('',#298);
#298 = CARTESIAN_POINT('',(31.3,-36.3,12.95));
#299 = SURFACE_CURVE('',#300,(#305,#316),.PCURVE_S1.);
#300 = CIRCLE('',#301,1.3);
#301 = AXIS2_PLACEMENT_3D('',#302,#303,#304);
#302 = CARTESIAN_POINT('',(30.,-36.3,12.95));
#303 = DIRECTION('',(0.,0.,-1.));
#304 = DIRECTION('',(1.,0.,0.));
#305 = PCURVE('',#221,#306);
#306 = DEFINITIONAL_REPRESENTATION('',(#307),#315);
#307 = ( BOUNDED_CURVE() B_SPLINE_CURVE(2,(#308,#309,#310,#311,#312,#313
,#314),.UNSPECIFIED.,.T.,.F.) B_SPLINE_CURVE_WITH_KNOTS((1,2,2,2,2,1),(
    -2.094395102393,0.,2.094395102393,4.188790204786,6.28318530718,
8.377580409573),.UNSPECIFIED.) CURVE() GEOMETRIC_REPRESENTATION_ITEM() 
RATIONAL_B_SPLINE_CURVE((1.,0.5,1.,0.5,1.,0.5,1.)) REPRESENTATION_ITEM(
  '') );
#308 = CARTESIAN_POINT('',(1.3,-7.105427357601E-15));
#309 = CARTESIAN_POINT('',(1.3,-2.25166604984));
#310 = CARTESIAN_POINT('',(-0.65,-1.12583302492));
#311 = CARTESIAN_POINT('',(-2.6,-7.423835525379E-15));
#312 = CARTESIAN_POINT('',(-0.65,1.12583302492));
#313 = CARTESIAN_POINT('',(1.3,2.25166604984));
#314 = CARTESIAN_POINT('',(1.3,-7.105427357601E-15));
#315 = ( GEOMETRIC_REPRESENTATION_CONTEXT(2) 
PARAMETRIC_REPRESENTATION_CONTEXT() REPRESENTATION_CONTEXT('2D SPACE',''
  ) );
#316 = PCURVE('',#317,#322);
#317 = CYLINDRICAL_SURFACE('',#318,1.3);
#318 = AXIS2_PLACEMENT_3D('',#319,#320,#321);
#319 = CARTESIAN_POINT('',(30.,-36.3,12.3));
#320 = DIRECTION('',(-0.,-0.,-1.));
#321 = DIRECTION('',(1.,0.,0.));
#322 = DEFINITIONAL_REPRESENTATION('',(#323),#327);
#323 = LINE('',#324,#325);
#324 = CARTESIAN_POINT('',(-6.28318530718,-0.65));
#325 = VECTOR('',#326,1.);
#326 = DIRECTION('',(1.,-0.));
#327 = ( GEOMETRIC_REPRESENTATION_CONTEXT(2) 
PARAMETRIC_REPRESENTATION_CONTEXT() REPRESENTATION_CONTEXT('2D SPACE',''
  ) );
#328 = ADVANCED_FACE('',(#329),#278,.F.);
#329 = FACE_BOUND('',#330,.F.);
#330 = EDGE_LOOP('',(#331));
#331 = ORIENTED_EDGE('',*,*,#263,.T.);
#332 = ADVANCED_FACE('',(#333),#317,.T.);
#333 = FACE_BOUND('',#334,.F.);
#334 = EDGE_LOOP('',(#335,#336,#359,#583,#613));
#335 = ORIENTED_EDGE('',*,*,#296,.T.);
#336 = ORIENTED_EDGE('',*,*,#337,.T.);
#337 = EDGE_CURVE('',#297,#338,#340,.T.);
#338 = VERTEX_POINT('',#339);
#339 = CARTESIAN_POINT('',(31.3,-36.3,14.423444720385));
#340 = SEAM_CURVE('',#341,(#345,#352),.PCURVE_S1.);
#341 = LINE('',#342,#343);
#342 = CARTESIAN_POINT('',(31.3,-36.3,12.3));
#343 = VECTOR('',#344,1.);
#344 = DIRECTION('',(0.,0.,1.));
#345 = PCURVE('',#317,#346);
#346 = DEFINITIONAL_REPRESENTATION('',(#347),#351);
#347 = LINE('',#348,#349);
#348 = CARTESIAN_POINT('',(-6.28318530718,0.));
#349 = VECTOR('',#350,1.);
#350 = DIRECTION('',(-0.,-1.));
#351 = ( GEOMETRIC_REPRESENTATION_CONTEXT(2) 
PARAMETRIC_REPRESENTATION_CONTEXT() REPRESENTATION_CONTEXT('2D SPACE',''
  ) );
#352 = PCURVE('',#317,#353);
#353 = DEFINITIONAL_REPRESENTATION('',(#354),#358);
#354 = LINE('',#355,#356);
#355 = CARTESIAN_POINT('',(-0.,0.));
#356 = VECTOR('',#357,1.);
#357 = DIRECTION('',(-0.,-1.));
#358 = ( GEOMETRIC_REPRESENTATION_CONTEXT(2) 
PARAMETRIC_REPRESENTATION_CONTEXT() REPRESENTATION_CONTEXT('2D SPACE',''
  ) );
#359 = ORIENTED_EDGE('',*,*,#360,.F.);
#360 = EDGE_CURVE('',#361,#338,#363,.T.);
#361 = VERTEX_POINT('',#362);
#362 = CARTESIAN_POINT('',(31.17539857841,-36.85537211117,
    14.377632915211));
#363 = SURFACE_CURVE('',#364,(#423,#485),.PCURVE_S1.);
#364 = B_SPLINE_CURVE_WITH_KNOTS('',8,(#365,#366,#367,#368,#369,#370,
    #371,#372,#373,#374,#375,#376,#377,#378,#379,#380,#381,#382,#383,
    #384,#385,#386,#387,#388,#389,#390,#391,#392,#393,#394,#395,#396,
    #397,#398,#399,#400,#401,#402,#403,#404,#405,#406,#407,#408,#409,
    #410,#411,#412,#413,#414,#415,#416,#417,#418,#419,#420,#421,#422),
  .UNSPECIFIED.,.F.,.F.,(9,7,7,7,7,7,7,7,9),(0.,0.104642624363,
    0.27514964982,0.410418756806,0.473805372846,0.565241456701,
    0.680023732502,0.821966994026,1.),.UNSPECIFIED.);
#365 = CARTESIAN_POINT('',(31.17539857841,-36.85537211117,
    14.377632915211));
#366 = CARTESIAN_POINT('',(31.13307144558,-36.94495394424,
    14.369181599642));
#367 = CARTESIAN_POINT('',(31.082924698918,-37.03088465058,
    14.360636224519));
#368 = CARTESIAN_POINT('',(31.025328790602,-37.11235263646,
    14.352088117191));
#369 = CARTESIAN_POINT('',(30.960748717157,-37.18861148595,
    14.343631542883));
#370 = CARTESIAN_POINT('',(30.889731679392,-37.2589765358,
    14.335361807494));
#371 = CARTESIAN_POINT('',(30.812900981866,-37.32282757641,
    14.327373025154));
#372 = CARTESIAN_POINT('',(30.730956171877,-37.37961767866,
    14.319755550538));
#373 = CARTESIAN_POINT('',(30.5040981514,-37.50917054625,14.300922380106
    ));
#374 = CARTESIAN_POINT('',(30.351829907206,-37.56959434587,
    14.290444310724));
#375 = CARTESIAN_POINT('',(30.191375765259,-37.60798842934,
    14.281540545227));
#376 = CARTESIAN_POINT('',(30.026510777244,-37.62316540377,
    14.274506405835));
#377 = CARTESIAN_POINT('',(29.861093600555,-37.61464018827,
    14.269544216384));
#378 = CARTESIAN_POINT('',(29.699025519969,-37.58266484541,
    14.266751525231));
#379 = CARTESIAN_POINT('',(29.544209807814,-37.52823018924,
    14.266122905897));
#380 = CARTESIAN_POINT('',(29.286198363441,-37.39409149206,
    14.268655507313));
#381 = CARTESIAN_POINT('',(29.178766278554,-37.3218407141,
    14.271062127817));
#382 = CARTESIAN_POINT('',(29.079840993496,-37.2376142402,
    14.274701252056));
#383 = CARTESIAN_POINT('',(28.990961251692,-37.14262682335,
    14.279479110849));
#384 = CARTESIAN_POINT('',(28.913431677224,-37.03828560567,
    14.285276504797));
#385 = CARTESIAN_POINT('',(28.848334480186,-36.92615858626,
    14.291959001831));
#386 = CARTESIAN_POINT('',(28.796511815602,-36.80797117207,
    14.299383280843));
#387 = CARTESIAN_POINT('',(28.740694820203,-36.6282616114,14.31115684531
    ));
#388 = CARTESIAN_POINT('',(28.725915001397,-36.56999066698,
    14.315044421362));
#389 = CARTESIAN_POINT('',(28.714220918106,-36.51097692845,
    14.319047986532));
#390 = CARTESIAN_POINT('',(28.705654407634,-36.45140954322,
    14.323152777748));
#391 = CARTESIAN_POINT('',(28.700243561477,-36.39147948837,
    14.32734424224));
#392 = CARTESIAN_POINT('',(28.698002736666,-36.33137908547,
    14.331608106135));
#393 = CARTESIAN_POINT('',(28.698932567099,-36.27130151555,
    14.335930443052));
#394 = CARTESIAN_POINT('',(28.708916118019,-36.12508973878,
    14.346597633781));
#395 = CARTESIAN_POINT('',(28.721383132562,-36.03918053227,
    14.352991714679));
#396 = CARTESIAN_POINT('',(28.740382796862,-35.95429958392,
    14.359438947179));
#397 = CARTESIAN_POINT('',(28.765814250959,-35.87102002546,
    14.365900950231));
#398 = CARTESIAN_POINT('',(28.797519545253,-35.7899001283,
    14.372342024546));
#399 = CARTESIAN_POINT('',(28.835285754939,-35.71148086617,
    14.37872893419));
#400 = CARTESIAN_POINT('',(28.87884366021,-35.63628216304,
    14.385030445182));
#401 = CARTESIAN_POINT('',(28.989398331998,-35.47506153665,
    14.398982300906));
#402 = CARTESIAN_POINT('',(29.059560474074,-35.39114881286,
    14.40656881456));
#403 = CARTESIAN_POINT('',(29.13769484905,-35.31405831102,
    14.413915368188));
#404 = CARTESIAN_POINT('',(29.223022308863,-35.24466832096,
    14.420969138475));
#405 = CARTESIAN_POINT('',(29.314658791906,-35.18374635319,
    14.427681943467));
#406 = CARTESIAN_POINT('',(29.411626403265,-35.1319458797,
    14.434007781733));
#407 = CARTESIAN_POINT('',(29.512855910116,-35.08979022842,
    14.439901239862));
#408 = CARTESIAN_POINT('',(29.746191808813,-35.01789016915,
    14.452013775889));
#409 = CARTESIAN_POINT('',(29.880034934853,-34.9934126024,14.4579850461)
  );
#410 = CARTESIAN_POINT('',(30.016478837219,-34.98494920353,
    14.463140850912));
#411 = CARTESIAN_POINT('',(30.15325571889,-34.99277703265,
    14.467403276699));
#412 = CARTESIAN_POINT('',(30.288119159629,-35.01680127781,
    14.470697582993));
#413 = CARTESIAN_POINT('',(30.418861408285,-35.05658414845,
    14.472950832625));
#414 = CARTESIAN_POINT('',(30.543337818423,-35.11131617171,
    14.474098896454));
#415 = CARTESIAN_POINT('',(30.805301244171,-35.26554454534,
    14.474108002337));
#416 = CARTESIAN_POINT('',(30.93835896241,-35.37306620036,
    14.472313375787));
#417 = CARTESIAN_POINT('',(31.054639742882,-35.49993802982,
    14.468629464044));
#418 = CARTESIAN_POINT('',(31.151016846568,-35.64297866776,
    14.463030918228));
#419 = CARTESIAN_POINT('',(31.225058425301,-35.79861451349,
    14.455548308823));
#420 = CARTESIAN_POINT('',(31.275054173872,-35.9628953023,
    14.446295089685));
#421 = CARTESIAN_POINT('',(31.3,-36.13154888393,14.435483738746));
#422 = CARTESIAN_POINT('',(31.3,-36.3,14.423444720385));
#423 = PCURVE('',#317,#424);
#424 = DEFINITIONAL_REPRESENTATION('',(#425),#484);
#425 = B_SPLINE_CURVE_WITH_KNOTS('',8,(#426,#427,#428,#429,#430,#431,
    #432,#433,#434,#435,#436,#437,#438,#439,#440,#441,#442,#443,#444,
    #445,#446,#447,#448,#449,#450,#451,#452,#453,#454,#455,#456,#457,
    #458,#459,#460,#461,#462,#463,#464,#465,#466,#467,#468,#469,#470,
    #471,#472,#473,#474,#475,#476,#477,#478,#479,#480,#481,#482,#483),
  .UNSPECIFIED.,.F.,.F.,(9,7,7,7,7,7,7,7,9),(0.,0.104642624363,
    0.27514964982,0.410418756806,0.473805372846,0.565241456701,
    0.680023732502,0.821966994026,1.),.UNSPECIFIED.);
#426 = CARTESIAN_POINT('',(-5.841781307052,-2.077632915211));
#427 = CARTESIAN_POINT('',(-5.765567302103,-2.069181599642));
#428 = CARTESIAN_POINT('',(-5.689323202629,-2.060636224519));
#429 = CARTESIAN_POINT('',(-5.61305951767,-2.052088117191));
#430 = CARTESIAN_POINT('',(-5.536773268267,-2.043631542883));
#431 = CARTESIAN_POINT('',(-5.460454876409,-2.035361807494));
#432 = CARTESIAN_POINT('',(-5.384095465172,-2.027373025154));
#433 = CARTESIAN_POINT('',(-5.307694570042,-2.019755550538));
#434 = CARTESIAN_POINT('',(-5.10673753004,-2.000922380106));
#435 = CARTESIAN_POINT('',(-4.981975715854,-1.990444310724));
#436 = CARTESIAN_POINT('',(-4.857205233909,-1.981540545227));
#437 = CARTESIAN_POINT('',(-4.732418957247,-1.974506405835));
#438 = CARTESIAN_POINT('',(-4.60758108732,-1.969544216384));
#439 = CARTESIAN_POINT('',(-4.482664191269,-1.966751525231));
#440 = CARTESIAN_POINT('',(-4.357687106278,-1.966122905897));
#441 = CARTESIAN_POINT('',(-4.133996841354,-1.968655507313));
#442 = CARTESIAN_POINT('',(-4.035037298024,-1.971062127817));
#443 = CARTESIAN_POINT('',(-3.936157591623,-1.974701252056));
#444 = CARTESIAN_POINT('',(-3.837362749677,-1.979479110849));
#445 = CARTESIAN_POINT('',(-3.738635043891,-1.985276504797));
#446 = CARTESIAN_POINT('',(-3.639953055239,-1.991959001831));
#447 = CARTESIAN_POINT('',(-3.541306810544,-1.999383280843));
#448 = CARTESIAN_POINT('',(-3.396554291332,-2.01115684531));
#449 = CARTESIAN_POINT('',(-3.350375448303,-2.015044421362));
#450 = CARTESIAN_POINT('',(-3.30420485894,-2.019047986532));
#451 = CARTESIAN_POINT('',(-3.258041139697,-2.023152777748));
#452 = CARTESIAN_POINT('',(-3.211882282893,-2.02734424224));
#453 = CARTESIAN_POINT('',(-3.165726208383,-2.031608106135));
#454 = CARTESIAN_POINT('',(-3.119571315236,-2.035930443052));
#455 = CARTESIAN_POINT('',(-3.006838833669,-2.046597633781));
#456 = CARTESIAN_POINT('',(-2.940255137422,-2.052991714679));
#457 = CARTESIAN_POINT('',(-2.873668217852,-2.059438947179));
#458 = CARTESIAN_POINT('',(-2.807073892594,-2.065900950231));
#459 = CARTESIAN_POINT('',(-2.740464881165,-2.072342024546));
#460 = CARTESIAN_POINT('',(-2.673834293045,-2.07872893419));
#461 = CARTESIAN_POINT('',(-2.607179246433,-2.085030445182));
#462 = CARTESIAN_POINT('',(-2.456806089624,-2.098982300906));
#463 = CARTESIAN_POINT('',(-2.373049582126,-2.10656881456));
#464 = CARTESIAN_POINT('',(-2.28925773559,-2.113915368188));
#465 = CARTESIAN_POINT('',(-2.205431745743,-2.120969138475));
#466 = CARTESIAN_POINT('',(-2.121562356534,-2.127681943467));
#467 = CARTESIAN_POINT('',(-2.037641875213,-2.134007781733));
#468 = CARTESIAN_POINT('',(-1.95367720955,-2.139901239862));
#469 = CARTESIAN_POINT('',(-1.765860006237,-2.152013775889));
#470 = CARTESIAN_POINT('',(-1.661924275284,-2.1579850461));
#471 = CARTESIAN_POINT('',(-1.557997886856,-2.163140850912));
#472 = CARTESIAN_POINT('',(-1.454091764121,-2.167403276699));
#473 = CARTESIAN_POINT('',(-1.350196164924,-2.170697582993));
#474 = CARTESIAN_POINT('',(-1.246302972596,-2.172950832625));
#475 = CARTESIAN_POINT('',(-1.142430089106,-2.174098896454));
#476 = CARTESIAN_POINT('',(-0.908589973216,-2.174108002337));
#477 = CARTESIAN_POINT('',(-0.778427186708,-2.172313375787));
#478 = CARTESIAN_POINT('',(-0.648475243621,-2.168629464044));
#479 = CARTESIAN_POINT('',(-0.51869132679,-2.163030918228));
#480 = CARTESIAN_POINT('',(-0.388997953593,-2.155548308823));
#481 = CARTESIAN_POINT('',(-0.259311017038,-2.146295089685));
#482 = CARTESIAN_POINT('',(-0.129577781589,-2.135483738746));
#483 = CARTESIAN_POINT('',(0.,-2.123444720385));
#484 = ( GEOMETRIC_REPRESENTATION_CONTEXT(2) 
PARAMETRIC_REPRESENTATION_CONTEXT() REPRESENTATION_CONTEXT('2D SPACE',''
  ) );
#485 = PCURVE('',#486,#522);
#486 = ( BOUNDED_SURFACE() B_SPLINE_SURFACE(2,2,(
    (#487,#488,#489,#490,#491)
    ,(#492,#493,#494,#495,#496)
    ,(#497,#498,#499,#500,#501)
    ,(#502,#503,#504,#505,#506)
    ,(#507,#508,#509,#510,#511)
    ,(#512,#513,#514,#515,#516)
    ,(#517,#518,#519,#520,#521
)),.UNSPECIFIED.,.T.,.F.,.F.) B_SPLINE_SURFACE_WITH_KNOTS((1,2,2,2,2,1),
  (3,2,3),(-2.094395102393,0.,2.094395102393,4.188790204786,
    6.28318530718,8.377580409573),(-1.570796326795,0.,1.570796326795),
.UNSPECIFIED.) GEOMETRIC_REPRESENTATION_ITEM() RATIONAL_B_SPLINE_SURFACE
((
    (1.,0.707106781187,1.,0.707106781187,1.)
    ,(0.5,0.353553390593,0.5,0.353553390593,0.5)
    ,(1.,0.707106781187,1.,0.707106781187,1.)
    ,(0.5,0.353553390593,0.5,0.353553390593,0.5)
    ,(1.,0.707106781187,1.,0.707106781187,1.)
    ,(0.5,0.353553390593,0.5,0.353553390593,0.5)
,(1.,0.707106781187,1.,0.707106781187,1.
))) REPRESENTATION_ITEM('') SURFACE() );
#487 = CARTESIAN_POINT('',(44.,-31.25,-55.2));
#488 = CARTESIAN_POINT('',(164.,-31.25,-55.2));
#489 = CARTESIAN_POINT('',(164.,-31.25,-20.2));
#490 = CARTESIAN_POINT('',(164.,-31.25,14.8));
#491 = CARTESIAN_POINT('',(44.,-31.25,14.8));
#492 = CARTESIAN_POINT('',(44.,-31.25,-55.2));
#493 = CARTESIAN_POINT('',(164.,55.352540378444,-55.2));
#494 = CARTESIAN_POINT('',(164.,55.352540378444,-20.2));
#495 = CARTESIAN_POINT('',(164.,55.352540378444,14.8));
#496 = CARTESIAN_POINT('',(44.,-31.25,14.8));
#497 = CARTESIAN_POINT('',(44.,-31.25,-55.2));
#498 = CARTESIAN_POINT('',(-16.,12.051270189222,-55.2));
#499 = CARTESIAN_POINT('',(-16.,12.051270189222,-20.2));
#500 = CARTESIAN_POINT('',(-16.,12.051270189222,14.8));
#501 = CARTESIAN_POINT('',(44.,-31.25,14.8));
#502 = CARTESIAN_POINT('',(44.,-31.25,-55.2));
#503 = CARTESIAN_POINT('',(-196.,-31.25,-55.2));
#504 = CARTESIAN_POINT('',(-196.,-31.25,-20.2));
#505 = CARTESIAN_POINT('',(-196.,-31.25,14.8));
#506 = CARTESIAN_POINT('',(44.,-31.25,14.8));
#507 = CARTESIAN_POINT('',(44.,-31.25,-55.2));
#508 = CARTESIAN_POINT('',(-16.,-74.55127018922,-55.2));
#509 = CARTESIAN_POINT('',(-16.,-74.55127018922,-20.2));
#510 = CARTESIAN_POINT('',(-16.,-74.55127018922,14.8));
#511 = CARTESIAN_POINT('',(44.,-31.25,14.8));
#512 = CARTESIAN_POINT('',(44.,-31.25,-55.2));
#513 = CARTESIAN_POINT('',(164.,-117.8525403784,-55.2));
#514 = CARTESIAN_POINT('',(164.,-117.8525403784,-20.2));
#515 = CARTESIAN_POINT('',(164.,-117.8525403784,14.8));
#516 = CARTESIAN_POINT('',(44.,-31.25,14.8));
#517 = CARTESIAN_POINT('',(44.,-31.25,-55.2));
#518 = CARTESIAN_POINT('',(164.,-31.25,-55.2));
#519 = CARTESIAN_POINT('',(164.,-31.25,-20.2));
#520 = CARTESIAN_POINT('',(164.,-31.25,14.8));
#521 = CARTESIAN_POINT('',(44.,-31.25,14.8));
#522 = DEFINITIONAL_REPRESENTATION('',(#523),#582);
#523 = B_SPLINE_CURVE_WITH_KNOTS('',8,(#524,#525,#526,#527,#528,#529,
    #530,#531,#532,#533,#534,#535,#536,#537,#538,#539,#540,#541,#542,
    #543,#544,#545,#546,#547,#548,#549,#550,#551,#552,#553,#554,#555,
    #556,#557,#558,#559,#560,#561,#562,#563,#564,#565,#566,#567,#568,
    #569,#570,#571,#572,#573,#574,#575,#576,#577,#578,#579,#580,#581),
  .UNSPECIFIED.,.F.,.F.,(9,7,7,7,7,7,7,7,9),(0.,0.104642624363,
    0.27514964982,0.410418756806,0.473805372846,0.565241456701,
    0.680023732502,0.821966994026,1.),.UNSPECIFIED.);
#524 = CARTESIAN_POINT('',(3.918419930254,1.403128140881));
#525 = CARTESIAN_POINT('',(3.925217089601,1.401493249536));
#526 = CARTESIAN_POINT('',(3.931204868258,1.399859689428));
#527 = CARTESIAN_POINT('',(3.936346007918,1.398245110281));
#528 = CARTESIAN_POINT('',(3.940620288925,1.396666526141));
#529 = CARTESIAN_POINT('',(3.944020100154,1.395140056097));
#530 = CARTESIAN_POINT('',(3.946547326074,1.393680695618));
#531 = CARTESIAN_POINT('',(3.94821155099,1.392302118547));
#532 = CARTESIAN_POINT('',(3.950362495945,1.388921710024));
#533 = CARTESIAN_POINT('',(3.949450534567,1.387070971696));
#534 = CARTESIAN_POINT('',(3.946354738738,1.385520629491));
#535 = CARTESIAN_POINT('',(3.94120796059,1.384308930539));
#536 = CARTESIAN_POINT('',(3.934155656328,1.383459449337));
#537 = CARTESIAN_POINT('',(3.925359263991,1.382982035904));
#538 = CARTESIAN_POINT('',(3.914997773128,1.38287392254));
#539 = CARTESIAN_POINT('',(3.894040569948,1.383307943208));
#540 = CARTESIAN_POINT('',(3.883921130793,1.383720616963));
#541 = CARTESIAN_POINT('',(3.873062295076,1.384345718359));
#542 = CARTESIAN_POINT('',(3.861576897789,1.385169674915));
#543 = CARTESIAN_POINT('',(3.849581147315,1.386175663303));
#544 = CARTESIAN_POINT('',(3.837198370917,1.38734469345));
#545 = CARTESIAN_POINT('',(3.824564330472,1.388655995551));
#546 = CARTESIAN_POINT('',(3.805864906556,1.390757572634));
#547 = CARTESIAN_POINT('',(3.799875438766,1.391454561532));
#548 = CARTESIAN_POINT('',(3.793878105165,1.392175733885));
#549 = CARTESIAN_POINT('',(3.787888277685,1.392918838801));
#550 = CARTESIAN_POINT('',(3.781921715762,1.393681618474));
#551 = CARTESIAN_POINT('',(3.77599461424,1.39446181314));
#552 = CARTESIAN_POINT('',(3.770123651292,1.395257166043));
#553 = CARTESIAN_POINT('',(3.75596289533,1.397231358201));
#554 = CARTESIAN_POINT('',(3.747751505233,1.398424267757));
#555 = CARTESIAN_POINT('',(3.739744079886,1.399637326803));
#556 = CARTESIAN_POINT('',(3.731993429646,1.40086390262));
#557 = CARTESIAN_POINT('',(3.724553379175,1.402097556069));
#558 = CARTESIAN_POINT('',(3.717478698669,1.403331998662));
#559 = CARTESIAN_POINT('',(3.710824548548,1.404561010672));
#560 = CARTESIAN_POINT('',(3.696888626583,1.40730644311));
#561 = CARTESIAN_POINT('',(3.689877825339,1.408816634603));
#562 = CARTESIAN_POINT('',(3.683723020697,1.410296187255));
#563 = CARTESIAN_POINT('',(3.678527432355,1.411733191203));
#564 = CARTESIAN_POINT('',(3.674387332254,1.413115962185));
#565 = CARTESIAN_POINT('',(3.671388946365,1.414432656972));
#566 = CARTESIAN_POINT('',(3.669602438865,1.415671076289));
#567 = CARTESIAN_POINT('',(3.668418232126,1.418237786291));
#568 = CARTESIAN_POINT('',(3.669685298365,1.41951909387));
#569 = CARTESIAN_POINT('',(3.672964619202,1.420638099307));
#570 = CARTESIAN_POINT('',(3.678283773745,1.421572108775));
#571 = CARTESIAN_POINT('',(3.685604595269,1.422299014466));
#572 = CARTESIAN_POINT('',(3.694811629365,1.422798027261));
#573 = CARTESIAN_POINT('',(3.705703341803,1.423052270583));
#574 = CARTESIAN_POINT('',(3.733417471016,1.423054287155));
#575 = CARTESIAN_POINT('',(3.75107645826,1.422656851527));
#576 = CARTESIAN_POINT('',(3.770429699684,1.42184101163));
#577 = CARTESIAN_POINT('',(3.790789818005,1.420607536003));
#578 = CARTESIAN_POINT('',(3.811404784346,1.418977637994));
#579 = CARTESIAN_POINT('',(3.831562748634,1.416996609699));
#580 = CARTESIAN_POINT('',(3.850653468546,1.414728875734));
#581 = CARTESIAN_POINT('',(3.868187145933,1.412256114098));
#582 = ( GEOMETRIC_REPRESENTATION_CONTEXT(2) 
PARAMETRIC_REPRESENTATION_CONTEXT() REPRESENTATION_CONTEXT('2D SPACE',''
  ) );
#583 = ORIENTED_EDGE('',*,*,#584,.F.);
#584 = EDGE_CURVE('',#338,#361,#585,.T.);
#585 = SURFACE_CURVE('',#586,(#593,#603),.PCURVE_S1.);
#586 = B_SPLINE_CURVE_WITH_KNOTS('',5,(#587,#588,#589,#590,#591,#592),
  .UNSPECIFIED.,.F.,.F.,(6,6),(0.,1.),.PIECEWISE_BEZIER_KNOTS.);
#587 = CARTESIAN_POINT('',(31.3,-36.3,14.423444720385));
#588 = CARTESIAN_POINT('',(31.3,-36.4147470293,14.415243874793));
#589 = CARTESIAN_POINT('',(31.287338802481,-36.52949491652,
    14.406412586545));
#590 = CARTESIAN_POINT('',(31.262020701363,-36.64237485395,
    14.397083475417));
#591 = CARTESIAN_POINT('',(31.224445888164,-36.75156758624,
    14.387426025796));
#592 = CARTESIAN_POINT('',(31.17539857841,-36.85537211117,
    14.377632915211));
#593 = PCURVE('',#317,#594);
#594 = DEFINITIONAL_REPRESENTATION('',(#595),#602);
#595 = B_SPLINE_CURVE_WITH_KNOTS('',5,(#596,#597,#598,#599,#600,#601),
  .UNSPECIFIED.,.F.,.F.,(6,6),(0.,1.),.PIECEWISE_BEZIER_KNOTS.);
#596 = CARTESIAN_POINT('',(-6.28318530718,-2.123444720385));
#597 = CARTESIAN_POINT('',(-6.194918361563,-2.115243874793));
#598 = CARTESIAN_POINT('',(-6.106650688862,-2.106412586545));
#599 = CARTESIAN_POINT('',(-6.018387381587,-2.097083475417));
#600 = CARTESIAN_POINT('',(-5.930095625987,-2.087426025796));
#601 = CARTESIAN_POINT('',(-5.841781307052,-2.077632915211));
#602 = ( GEOMETRIC_REPRESENTATION_CONTEXT(2) 
PARAMETRIC_REPRESENTATION_CONTEXT() REPRESENTATION_CONTEXT('2D SPACE',''
  ) );
#603 = PCURVE('',#486,#604);
#604 = DEFINITIONAL_REPRESENTATION('',(#605),#612);
#605 = B_SPLINE_CURVE_WITH_KNOTS('',5,(#606,#607,#608,#609,#610,#611),
  .UNSPECIFIED.,.F.,.F.,(6,6),(0.,1.),.PIECEWISE_BEZIER_KNOTS.);
#606 = CARTESIAN_POINT('',(3.868187145933,1.412256114098));
#607 = CARTESIAN_POINT('',(3.880130892224,1.410571696336));
#608 = CARTESIAN_POINT('',(3.891295288591,1.408781691721));
#609 = CARTESIAN_POINT('',(3.901476672358,1.406919481236));
#610 = CARTESIAN_POINT('',(3.91054360229,1.405022599988));
#611 = CARTESIAN_POINT('',(3.918419930254,1.403128140881));
#612 = ( GEOMETRIC_REPRESENTATION_CONTEXT(2) 
PARAMETRIC_REPRESENTATION_CONTEXT() REPRESENTATION_CONTEXT('2D SPACE',''
  ) );
#613 = ORIENTED_EDGE('',*,*,#337,.F.);
#614 = ADVANCED_FACE('',(#615),#486,.T.);
#615 = FACE_BOUND('',#616,.T.);
#616 = EDGE_LOOP('',(#617,#618));
#617 = ORIENTED_EDGE('',*,*,#360,.F.);
#618 = ORIENTED_EDGE('',*,*,#584,.F.);
#619 = ( GEOMETRIC_REPRESENTATION_CONTEXT(3) 
GLOBAL_UNCERTAINTY_ASSIGNED_CONTEXT((#623)) GLOBAL_UNIT_ASSIGNED_CONTEXT
((#620,#621,#622)) REPRESENTATION_CONTEXT('Context #1',
  '3D Context with UNIT and UNCERTAINTY') );
#620 = ( LENGTH_UNIT() NAMED_UNIT(*) SI_UNIT(.MILLI.,.METRE.) );
#621 = ( NAMED_UNIT(*) PLANE_ANGLE_UNIT() SI_UNIT($,.RADIAN.) );
#622 = ( NAMED_UNIT(*) SI_UNIT($,.STERADIAN.) SOLID_ANGLE_UNIT() );
#623 = UNCERTAINTY_MEASURE_WITH_UNIT(LENGTH_MEASURE(2.E-06),#620,
  'distance_accuracy_value','confusion accuracy');
#624 = PRODUCT_RELATED_PRODUCT_CATEGORY('part',$,(#7));
ENDSEC;
END-ISO-10303-21;
