ISO-10303-21;
HEADER;
FILE_DESCRIPTION(('Open CASCADE Model'),'2;1');
FILE_NAME('Open CASCADE Shape Model','2026-09-09T07:32:22',('Author'),(
    'Open CASCADE'),'Open CASCADE STEP processor 7.9','Open CASCADE 7.9'
  ,'Unknown');
FILE_SCHEMA(('AUTOMOTIVE_DESIGN { 1 0 10303 214 1 1 1 1 }'));
ENDSEC;
DATA;
#1 = APPLICATION_PROTOCOL_DEFINITION('international standard',
  'automotive_design',2000,#2);
#2 = APPLICATION_CONTEXT(
  'core data for automotive mechanical design processes');
#3 = SHAPE_DEFINITION_REPRESENTATION(#4,#10);
#4 = PRODUCT_DEFINITION_SHAPE('','',#5);
#5 = PRODUCT_DEFINITION('design','',#6,#9);
#6 = PRODUCT_DEFINITION_FORMATION('','',#7);
#7 = PRODUCT('Open CASCADE STEP translator 7.9 4',
  'Open CASCADE STEP translator 7.9 4','',(#8));
#8 = PRODUCT_CONTEXT('',#2,'mechanical');
#9 = PRODUCT_DEFINITION_CONTEXT('part definition',#2,'design');
#10 = ADVANCED_BREP_SHAPE_REPRESENTATION('',(#11,#15),#481);
#11 = AXIS2_PLACEMENT_3D('',#12,#13,#14);
#12 = CARTESIAN_POINT('',(0.,0.,0.));
#13 = DIRECTION('',(0.,0.,1.));
#14 = DIRECTION('',(1.,0.,-0.));
#15 = MANIFOLD_SOLID_BREP('',#16);
#16 = CLOSED_SHELL('',(#17,#109,#144,#148,#203,#242,#476));
#17 = ADVANCED_FACE('',(#18),#32,.T.);
#18 = FACE_BOUND('',#19,.F.);
#19 = EDGE_LOOP('',(#20,#50,#77,#78));
#20 = ORIENTED_EDGE('',*,*,#21,.F.);
#21 = EDGE_CURVE('',#22,#24,#26,.T.);
#22 = VERTEX_POINT('',#23);
#23 = CARTESIAN_POINT('',(34.825,-36.7,10.8));
#24 = VERTEX_POINT('',#25);
#25 = CARTESIAN_POINT('',(34.825,-36.7,11.));
#26 = SEAM_CURVE('',#27,(#31,#43),.PCURVE_S1.);
#27 = LINE('',#28,#29);
#28 = CARTESIAN_POINT('',(34.825,-36.7,10.8));
#29 = VECTOR('',#30,1.);
#30 = DIRECTION('',(0.,0.,1.));
#31 = PCURVE('',#32,#37);
#32 = CYLINDRICAL_SURFACE('',#33,0.825);
#33 = AXIS2_PLACEMENT_3D('',#34,#35,#36);
#34 = CARTESIAN_POINT('',(34.,-36.7,10.8));
#35 = DIRECTION('',(-0.,-0.,-1.));
#36 = DIRECTION('',(1.,0.,0.));
#37 = DEFINITIONAL_REPRESENTATION('',(#38),#42);
#38 = LINE('',#39,#40);
#39 = CARTESIAN_POINT('',(-6.28318530718,0.));
#40 = VECTOR('',#41,1.);
#41 = DIRECTION('',(-0.,-1.));
#42 = ( GEOMETRIC_REPRESENTATION_CONTEXT(2) 
PARAMETRIC_REPRESENTATION_CONTEXT() REPRESENTATION_CONTEXT('2D SPACE',''
  ) );
#43 = PCURVE('',#32,#44);
#44 = DEFINITIONAL_REPRESENTATION('',(#45),#49);
#45 = LINE('',#46,#47);
#46 = CARTESIAN_POINT('',(-0.,0.));
#47 = VECTOR('',#48,1.);
#48 = DIRECTION('',(-0.,-1.));
#49 = ( GEOMETRIC_REPRESENTATION_CONTEXT(2) 
PARAMETRIC_REPRESENTATION_CONTEXT() REPRESENTATION_CONTEXT('2D SPACE',''
  ) );
#50 = ORIENTED_EDGE('',*,*,#51,.F.);
#51 = EDGE_CURVE('',#22,#22,#52,.T.);
#52 = SURFACE_CURVE('',#53,(#58,#65),.PCURVE_S1.);
#53 = CIRCLE('',#54,0.825);
#54 = AXIS2_PLACEMENT_3D('',#55,#56,#57);
#55 = CARTESIAN_POINT('',(34.,-36.7,10.8));
#56 = DIRECTION('',(0.,0.,1.));
#57 = DIRECTION('',(1.,0.,0.));
#58 = PCURVE('',#32,#59);
#59 = DEFINITIONAL_REPRESENTATION('',(#60),#64);
#60 = LINE('',#61,#62);
#61 = CARTESIAN_POINT('',(-0.,0.));
#62 = VECTOR('',#63,1.);
#63 = DIRECTION('',(-1.,0.));
#64 = ( GEOMETRIC_REPRESENTATION_CONTEXT(2) 
PARAMETRIC_REPRESENTATION_CONTEXT() REPRESENTATION_CONTEXT('2D SPACE',''
  ) );
#65 = PCURVE('',#66,#71);
#66 = PLANE('',#67);
#67 = AXIS2_PLACEMENT_3D('',#68,#69,#70);
#68 = CARTESIAN_POINT('',(34.,-36.7,10.8));
#69 = DIRECTION('',(0.,0.,1.));
#70 = DIRECTION('',(1.,0.,-0.));
#71 = DEFINITIONAL_REPRESENTATION('',(#72),#76);
#72 = CIRCLE('',#73,0.825);
#73 = AXIS2_PLACEMENT_2D('',#74,#75);
#74 = CARTESIAN_POINT('',(0.,0.));
#75 = DIRECTION('',(1.,0.));
#76 = ( GEOMETRIC_REPRESENTATION_CONTEXT(2) 
PARAMETRIC_REPRESENTATION_CONTEXT() REPRESENTATION_CONTEXT('2D SPACE',''
  ) );
#77 = ORIENTED_EDGE('',*,*,#21,.T.);
#78 = ORIENTED_EDGE('',*,*,#79,.F.);
#79 = EDGE_CURVE('',#24,#24,#80,.T.);
#80 = SURFACE_CURVE('',#81,(#86,#93),.PCURVE_S1.);
#81 = CIRCLE('',#82,0.825);
#82 = AXIS2_PLACEMENT_3D('',#83,#84,#85);
#83 = CARTESIAN_POINT('',(34.,-36.7,11.));
#84 = DIRECTION('',(0.,0.,-1.));
#85 = DIRECTION('',(1.,0.,0.));
#86 = PCURVE('',#32,#87);
#87 = DEFINITIONAL_REPRESENTATION('',(#88),#92);
#88 = LINE('',#89,#90);
#89 = CARTESIAN_POINT('',(-6.28318530718,-0.2));
#90 = VECTOR('',#91,1.);
#91 = DIRECTION('',(1.,-0.));
#92 = ( GEOMETRIC_REPRESENTATION_CONTEXT(2) 
PARAMETRIC_REPRESENTATION_CONTEXT() REPRESENTATION_CONTEXT('2D SPACE',''
  ) );
#93 = PCURVE('',#94,#99);
#94 = PLANE('',#95);
#95 = AXIS2_PLACEMENT_3D('',#96,#97,#98);
#96 = CARTESIAN_POINT('',(34.,-36.7,11.));
#97 = DIRECTION('',(0.,0.,1.));
#98 = DIRECTION('',(1.,0.,-0.));
#99 = DEFINITIONAL_REPRESENTATION('',(#100),#108);
#100 = ( BOUNDED_CURVE() B_SPLINE_CURVE(2,(#101,#102,#103,#104,#105,#106
,#107),.UNSPECIFIED.,.T.,.F.) B_SPLINE_CURVE_WITH_KNOTS((1,2,2,2,2,1),(
    -2.094395102393,0.,2.094395102393,4.188790204786,6.28318530718,
8.377580409573),.UNSPECIFIED.) CURVE() GEOMETRIC_REPRESENTATION_ITEM() 
RATIONAL_B_SPLINE_CURVE((1.,0.5,1.,0.5,1.,0.5,1.)) REPRESENTATION_ITEM(
  '') );
#101 = CARTESIAN_POINT('',(0.825,-7.105427357601E-15));
#102 = CARTESIAN_POINT('',(0.825,-1.428941916244));
#103 = CARTESIAN_POINT('',(-0.4125,-0.714470958122));
#104 = CARTESIAN_POINT('',(-1.65,-7.30749407946E-15));
#105 = CARTESIAN_POINT('',(-0.4125,0.714470958122));
#106 = CARTESIAN_POINT('',(0.825,1.428941916244));
#107 = CARTESIAN_POINT('',(0.825,-7.105427357601E-15));
#108 = ( GEOMETRIC_REPRESENTATION_CONTEXT(2) 
PARAMETRIC_REPRESENTATION_CONTEXT() REPRESENTATION_CONTEXT('2D SPACE',''
  ) );
#109 = ADVANCED_FACE('',(#110,#141),#94,.F.);
#110 = FACE_BOUND('',#111,.F.);
#111 = EDGE_LOOP('',(#112));
#112 = ORIENTED_EDGE('',*,*,#113,.T.);
#113 = EDGE_CURVE('',#114,#114,#116,.T.);
#114 = VERTEX_POINT('',#115);
#115 = CARTESIAN_POINT('',(35.35,-36.7,11.));
#116 = SURFACE_CURVE('',#117,(#122,#129),.PCURVE_S1.);
#117 = CIRCLE('',#118,1.35);
#118 = AXIS2_PLACEMENT_3D('',#119,#120,#121);
#119 = CARTESIAN_POINT('',(34.,-36.7,11.));
#120 = DIRECTION('',(0.,0.,1.));
#121 = DIRECTION('',(1.,0.,0.));
#122 = PCURVE('',#94,#123);
#123 = DEFINITIONAL_REPRESENTATION('',(#124),#128);
#124 = CIRCLE('',#125,1.35);
#125 = AXIS2_PLACEMENT_2D('',#126,#127);
#126 = CARTESIAN_POINT('',(0.,-7.105427357601E-15));
#127 = DIRECTION('',(1.,0.));
#128 = ( GEOMETRIC_REPRESENTATION_CONTEXT(2) 
PARAMETRIC_REPRESENTATION_CONTEXT() REPRESENTATION_CONTEXT('2D SPACE',''
  ) );
#129 = PCURVE('',#130,#135);
#130 = CYLINDRICAL_SURFACE('',#131,1.35);
#131 = AXIS2_PLACEMENT_3D('',#132,#133,#134);
#132 = CARTESIAN_POINT('',(34.,-36.7,11.));
#133 = DIRECTION('',(-0.,-0.,-1.));
#134 = DIRECTION('',(1.,0.,0.));
#135 = DEFINITIONAL_REPRESENTATION('',(#136),#140);
#136 = LINE('',#137,#138);
#137 = CARTESIAN_POINT('',(-0.,0.));
#138 = VECTOR('',#139,1.);
#139 = DIRECTION('',(-1.,0.));
#140 = ( GEOMETRIC_REPRESENTATION_CONTEXT(2) 
PARAMETRIC_REPRESENTATION_CONTEXT() REPRESENTATION_CONTEXT('2D SPACE',''
  ) );
#141 = FACE_BOUND('',#142,.F.);
#142 = EDGE_LOOP('',(#143));
#143 = ORIENTED_EDGE('',*,*,#79,.T.);
#144 = ADVANCED_FACE('',(#145),#66,.F.);
#145 = FACE_BOUND('',#146,.F.);
#146 = EDGE_LOOP('',(#147));
#147 = ORIENTED_EDGE('',*,*,#51,.T.);
#148 = ADVANCED_FACE('',(#149),#130,.T.);
#149 = FACE_BOUND('',#150,.F.);
#150 = EDGE_LOOP('',(#151,#174,#201,#202));
#151 = ORIENTED_EDGE('',*,*,#152,.T.);
#152 = EDGE_CURVE('',#114,#153,#155,.T.);
#153 = VERTEX_POINT('',#154);
#154 = CARTESIAN_POINT('',(35.35,-36.7,11.4));
#155 = SEAM_CURVE('',#156,(#160,#167),.PCURVE_S1.);
#156 = LINE('',#157,#158);
#157 = CARTESIAN_POINT('',(35.35,-36.7,11.));
#158 = VECTOR('',#159,1.);
#159 = DIRECTION('',(0.,0.,1.));
#160 = PCURVE('',#130,#161);
#161 = DEFINITIONAL_REPRESENTATION('',(#162),#166);
#162 = LINE('',#163,#164);
#163 = CARTESIAN_POINT('',(-0.,0.));
#164 = VECTOR('',#165,1.);
#165 = DIRECTION('',(-0.,-1.));
#166 = ( GEOMETRIC_REPRESENTATION_CONTEXT(2) 
PARAMETRIC_REPRESENTATION_CONTEXT() REPRESENTATION_CONTEXT('2D SPACE',''
  ) );
#167 = PCURVE('',#130,#168);
#168 = DEFINITIONAL_REPRESENTATION('',(#169),#173);
#169 = LINE('',#170,#171);
#170 = CARTESIAN_POINT('',(-6.28318530718,0.));
#171 = VECTOR('',#172,1.);
#172 = DIRECTION('',(-0.,-1.));
#173 = ( GEOMETRIC_REPRESENTATION_CONTEXT(2) 
PARAMETRIC_REPRESENTATION_CONTEXT() REPRESENTATION_CONTEXT('2D SPACE',''
  ) );
#174 = ORIENTED_EDGE('',*,*,#175,.T.);
#175 = EDGE_CURVE('',#153,#153,#176,.T.);
#176 = SURFACE_CURVE('',#177,(#182,#189),.PCURVE_S1.);
#177 = CIRCLE('',#178,1.35);
#178 = AXIS2_PLACEMENT_3D('',#179,#180,#181);
#179 = CARTESIAN_POINT('',(34.,-36.7,11.4));
#180 = DIRECTION('',(0.,0.,1.));
#181 = DIRECTION('',(1.,0.,0.));
#182 = PCURVE('',#130,#183);
#183 = DEFINITIONAL_REPRESENTATION('',(#184),#188);
#184 = LINE('',#185,#186);
#185 = CARTESIAN_POINT('',(-0.,-0.4));
#186 = VECTOR('',#187,1.);
#187 = DIRECTION('',(-1.,0.));
#188 = ( GEOMETRIC_REPRESENTATION_CONTEXT(2) 
PARAMETRIC_REPRESENTATION_CONTEXT() REPRESENTATION_CONTEXT('2D SPACE',''
  ) );
#189 = PCURVE('',#190,#195);
#190 = PLANE('',#191);
#191 = AXIS2_PLACEMENT_3D('',#192,#193,#194);
#192 = CARTESIAN_POINT('',(34.,-36.7,11.4));
#193 = DIRECTION('',(0.,0.,1.));
#194 = DIRECTION('',(1.,0.,-0.));
#195 = DEFINITIONAL_REPRESENTATION('',(#196),#200);
#196 = CIRCLE('',#197,1.35);
#197 = AXIS2_PLACEMENT_2D('',#198,#199);
#198 = CARTESIAN_POINT('',(0.,-7.105427357601E-15));
#199 = DIRECTION('',(1.,0.));
#200 = ( GEOMETRIC_REPRESENTATION_CONTEXT(2) 
PARAMETRIC_REPRESENTATION_CONTEXT() REPRESENTATION_CONTEXT('2D SPACE',''
  ) );
#201 = ORIENTED_EDGE('',*,*,#152,.F.);
#202 = ORIENTED_EDGE('',*,*,#113,.F.);
#203 = ADVANCED_FACE('',(#204,#207),#190,.T.);
#204 = FACE_BOUND('',#205,.T.);
#205 = EDGE_LOOP('',(#206));
#206 = ORIENTED_EDGE('',*,*,#175,.T.);
#207 = FACE_BOUND('',#208,.T.);
#208 = EDGE_LOOP('',(#209));
#209 = ORIENTED_EDGE('',*,*,#210,.T.);
#210 = EDGE_CURVE('',#211,#211,#213,.T.);
#211 = VERTEX_POINT('',#212);
#212 = CARTESIAN_POINT('',(34.825,-36.7,11.4));
#213 = SURFACE_CURVE('',#214,(#219,#230),.PCURVE_S1.);
#214 = CIRCLE('',#215,0.825);
#215 = AXIS2_PLACEMENT_3D('',#216,#217,#218);
#216 = CARTESIAN_POINT('',(34.,-36.7,11.4));
#217 = DIRECTION('',(0.,0.,-1.));
#218 = DIRECTION('',(1.,0.,0.));
#219 = PCURVE('',#190,#220);
#220 = DEFINITIONAL_REPRESENTATION('',(#221),#229);
#221 = ( BOUNDED_CURVE() B_SPLINE_CURVE(2,(#222,#223,#224,#225,#226,#227
,#228),.UNSPECIFIED.,.T.,.F.) B_SPLINE_CURVE_WITH_KNOTS((1,2,2,2,2,1),(
    -2.094395102393,0.,2.094395102393,4.188790204786,6.28318530718,
8.377580409573),.UNSPECIFIED.) CURVE() GEOMETRIC_REPRESENTATION_ITEM() 
RATIONAL_B_SPLINE_CURVE((1.,0.5,1.,0.5,1.,0.5,1.)) REPRESENTATION_ITEM(
  '') );
#222 = CARTESIAN_POINT('',(0.825,-7.105427357601E-15));
#223 = CARTESIAN_POINT('',(0.825,-1.428941916244));
#224 = CARTESIAN_POINT('',(-0.4125,-0.714470958122));
#225 = CARTESIAN_POINT('',(-1.65,-7.30749407946E-15));
#226 = CARTESIAN_POINT('',(-0.4125,0.714470958122));
#227 = CARTESIAN_POINT('',(0.825,1.428941916244));
#228 = CARTESIAN_POINT('',(0.825,-7.105427357601E-15));
#229 = ( GEOMETRIC_REPRESENTATION_CONTEXT(2) 
PARAMETRIC_REPRESENTATION_CONTEXT() REPRESENTATION_CONTEXT('2D SPACE',''
  ) );
#230 = PCURVE('',#231,#236);
#231 = CYLINDRICAL_SURFACE('',#232,0.825);
#232 = AXIS2_PLACEMENT_3D('',#233,#234,#235);
#233 = CARTESIAN_POINT('',(34.,-36.7,10.8));
#234 = DIRECTION('',(-0.,-0.,-1.));
#235 = DIRECTION('',(1.,0.,0.));
#236 = DEFINITIONAL_REPRESENTATION('',(#237),#241);
#237 = LINE('',#238,#239);
#238 = CARTESIAN_POINT('',(-6.28318530718,-0.6));
#239 = VECTOR('',#240,1.);
#240 = DIRECTION('',(1.,-0.));
#241 = ( GEOMETRIC_REPRESENTATION_CONTEXT(2) 
PARAMETRIC_REPRESENTATION_CONTEXT() REPRESENTATION_CONTEXT('2D SPACE',''
  ) );
#242 = ADVANCED_FACE('',(#243),#231,.T.);
#243 = FACE_BOUND('',#244,.F.);
#244 = EDGE_LOOP('',(#245,#246,#269,#415,#475));
#245 = ORIENTED_EDGE('',*,*,#210,.T.);
#246 = ORIENTED_EDGE('',*,*,#247,.T.);
#247 = EDGE_CURVE('',#211,#248,#250,.T.);
#248 = VERTEX_POINT('',#249);
#249 = CARTESIAN_POINT('',(34.825,-36.7,14.488392525429));
#250 = SEAM_CURVE('',#251,(#255,#262),.PCURVE_S1.);
#251 = LINE('',#252,#253);
#252 = CARTESIAN_POINT('',(34.825,-36.7,10.8));
#253 = VECTOR('',#254,1.);
#254 = DIRECTION('',(0.,0.,1.));
#255 = PCURVE('',#231,#256);
#256 = DEFINITIONAL_REPRESENTATION('',(#257),#261);
#257 = LINE('',#258,#259);
#258 = CARTESIAN_POINT('',(-6.28318530718,0.));
#259 = VECTOR('',#260,1.);
#260 = DIRECTION('',(-0.,-1.));
#261 = ( GEOMETRIC_REPRESENTATION_CONTEXT(2) 
PARAMETRIC_REPRESENTATION_CONTEXT() REPRESENTATION_CONTEXT('2D SPACE',''
  ) );
#262 = PCURVE('',#231,#263);
#263 = DEFINITIONAL_REPRESENTATION('',(#264),#268);
#264 = LINE('',#265,#266);
#265 = CARTESIAN_POINT('',(-0.,0.));
#266 = VECTOR('',#267,1.);
#267 = DIRECTION('',(-0.,-1.));
#268 = ( GEOMETRIC_REPRESENTATION_CONTEXT(2) 
PARAMETRIC_REPRESENTATION_CONTEXT() REPRESENTATION_CONTEXT('2D SPACE',''
  ) );
#269 = ORIENTED_EDGE('',*,*,#270,.F.);
#270 = EDGE_CURVE('',#271,#248,#273,.T.);
#271 = VERTEX_POINT('',#272);
#272 = CARTESIAN_POINT('',(33.47426828016,-37.33579175738,
    14.403858263702));
#273 = SURFACE_CURVE('',#274,(#307,#343),.PCURVE_S1.);
#274 = B_SPLINE_CURVE_WITH_KNOTS('',7,(#275,#276,#277,#278,#279,#280,
    #281,#282,#283,#284,#285,#286,#287,#288,#289,#290,#291,#292,#293,
    #294,#295,#296,#297,#298,#299,#300,#301,#302,#303,#304,#305,#306),
  .UNSPECIFIED.,.F.,.F.,(8,6,6,6,6,8),(0.,0.204719076239,0.394120941639,
    0.585720657469,0.863547580617,1.),.UNSPECIFIED.);
#275 = CARTESIAN_POINT('',(33.47426828016,-37.33579175738,
    14.403858263702));
#276 = CARTESIAN_POINT('',(33.399461786987,-37.27393479579,
    14.407253165941));
#277 = CARTESIAN_POINT('',(33.33316114594,-37.20182148238,
    14.411672373204));
#278 = CARTESIAN_POINT('',(33.27710098709,-37.12089877161,
    14.417004499636));
#279 = CARTESIAN_POINT('',(33.232622611188,-37.03294184269,
    14.423100152558));
#280 = CARTESIAN_POINT('',(33.200692774596,-36.93991308362,
    14.429793464153));
#281 = CARTESIAN_POINT('',(33.181899329081,-36.84393832377,
    14.436912386305));
#282 = CARTESIAN_POINT('',(33.171222460045,-36.65777047571,
    14.451103455613));
#283 = CARTESIAN_POINT('',(33.177427995999,-36.56763012956,
    14.458143222714));
#284 = CARTESIAN_POINT('',(33.195080268729,-36.47856796902,
    14.465266464808));
#285 = CARTESIAN_POINT('',(33.223942123631,-36.39230301781,
    14.472343834968));
#286 = CARTESIAN_POINT('',(33.263478172734,-36.31048981269,
    14.479256534609));
#287 = CARTESIAN_POINT('',(33.312864495611,-36.23467039017,
    14.48589666955));
#288 = CARTESIAN_POINT('',(33.429727400111,-36.09695423343,
    14.498505238187));
#289 = CARTESIAN_POINT('',(33.497443399293,-36.03518664726,
    14.504468916528));
#290 = CARTESIAN_POINT('',(33.572932075192,-35.98234633615,
    14.509950576199));
#291 = CARTESIAN_POINT('',(33.654760136677,-35.93958045463,
    14.514864001556));
#292 = CARTESIAN_POINT('',(33.741305272406,-35.9077553518,
    14.519134542597));
#293 = CARTESIAN_POINT('',(33.830805514549,-35.88742465846,
    14.522697198392));
#294 = CARTESIAN_POINT('',(34.052737289713,-35.86618085662,
    14.529564288114));
#295 = CARTESIAN_POINT('',(34.186607188216,-35.87810034834,
    14.532038576444));
#296 = CARTESIAN_POINT('',(34.317115855324,-35.91519200137,
    14.532748988182));
#297 = CARTESIAN_POINT('',(34.43863438424,-35.97611470121,
    14.531619786919));
#298 = CARTESIAN_POINT('',(34.546269168031,-36.0583155303,
    14.528621741173));
#299 = CARTESIAN_POINT('',(34.635763656568,-36.15803682354,
    14.523816653586));
#300 = CARTESIAN_POINT('',(34.737901244176,-36.3254355318,
    14.514281868873));
#301 = CARTESIAN_POINT('',(34.766501461136,-36.3836366508,14.51075577691
    ));
#302 = CARTESIAN_POINT('',(34.789724203534,-36.44434474326,
    14.506867527001));
#303 = CARTESIAN_POINT('',(34.807316554523,-36.50696503443,
    14.502647059177));
#304 = CARTESIAN_POINT('',(34.81910543535,-36.57087590142,
    14.498131041307));
#305 = CARTESIAN_POINT('',(34.825,-36.63543769621,14.493362880632));
#306 = CARTESIAN_POINT('',(34.825,-36.7,14.488392525429));
#307 = PCURVE('',#231,#308);
#308 = DEFINITIONAL_REPRESENTATION('',(#309),#342);
#309 = B_SPLINE_CURVE_WITH_KNOTS('',7,(#310,#311,#312,#313,#314,#315,
    #316,#317,#318,#319,#320,#321,#322,#323,#324,#325,#326,#327,#328,
    #329,#330,#331,#332,#333,#334,#335,#336,#337,#338,#339,#340,#341),
  .UNSPECIFIED.,.F.,.F.,(8,6,6,6,6,8),(0.,0.204719076239,0.394120941639,
    0.585720657469,0.863547580617,1.),.UNSPECIFIED.);
#310 = CARTESIAN_POINT('',(-4.021463646725,-3.603858263702));
#311 = CARTESIAN_POINT('',(-3.90380484995,-3.607253165941));
#312 = CARTESIAN_POINT('',(-3.786169386629,-3.611672373204));
#313 = CARTESIAN_POINT('',(-3.668634623766,-3.617004499636));
#314 = CARTESIAN_POINT('',(-3.551170264363,-3.623100152558));
#315 = CARTESIAN_POINT('',(-3.433733794541,-3.629793464153));
#316 = CARTESIAN_POINT('',(-3.316287286351,-3.636912386305));
#317 = CARTESIAN_POINT('',(-3.090258486305,-3.651103455613));
#318 = CARTESIAN_POINT('',(-2.981608300702,-3.658143222714));
#319 = CARTESIAN_POINT('',(-2.872959828237,-3.665266464808));
#320 = CARTESIAN_POINT('',(-2.764290815932,-3.672343834968));
#321 = CARTESIAN_POINT('',(-2.65556257738,-3.679256534609));
#322 = CARTESIAN_POINT('',(-2.546758382174,-3.68589666955));
#323 = CARTESIAN_POINT('',(-2.327828089313,-3.698505238187));
#324 = CARTESIAN_POINT('',(-2.217635576168,-3.704468916528));
#325 = CARTESIAN_POINT('',(-2.10741332658,-3.709950576199));
#326 = CARTESIAN_POINT('',(-1.997163119108,-3.714864001556));
#327 = CARTESIAN_POINT('',(-1.886865743974,-3.719134542597));
#328 = CARTESIAN_POINT('',(-1.776527213645,-3.722697198392));
#329 = CARTESIAN_POINT('',(-1.506289384999,-3.729564288114));
#330 = CARTESIAN_POINT('',(-1.346138252561,-3.732038576444));
#331 = CARTESIAN_POINT('',(-1.186264594775,-3.732748988182));
#332 = CARTESIAN_POINT('',(-1.026560318152,-3.731619786919));
#333 = CARTESIAN_POINT('',(-0.866935482758,-3.728621741173));
#334 = CARTESIAN_POINT('',(-0.707250494238,-3.723816653586));
#335 = CARTESIAN_POINT('',(-0.469555983626,-3.714281868873));
#336 = CARTESIAN_POINT('',(-0.391277651322,-3.71075577691));
#337 = CARTESIAN_POINT('',(-0.313016041794,-3.706867527001));
#338 = CARTESIAN_POINT('',(-0.23476481366,-3.702647059177));
#339 = CARTESIAN_POINT('',(-0.156513966897,-3.698131041307));
#340 = CARTESIAN_POINT('',(-7.82573379261E-02,-3.693362880632));
#341 = CARTESIAN_POINT('',(0.,-3.688392525429));
#342 = ( GEOMETRIC_REPRESENTATION_CONTEXT(2) 
PARAMETRIC_REPRESENTATION_CONTEXT() REPRESENTATION_CONTEXT('2D SPACE',''
  ) );
#343 = PCURVE('',#344,#380);
#344 = ( BOUNDED_SURFACE() B_SPLINE_SURFACE(2,2,(
    (#345,#346,#347,#348,#349)
    ,(#350,#351,#352,#353,#354)
    ,(#355,#356,#357,#358,#359)
    ,(#360,#361,#362,#363,#364)
    ,(#365,#366,#367,#368,#369)
    ,(#370,#371,#372,#373,#374)
    ,(#375,#376,#377,#378,#379
)),.UNSPECIFIED.,.T.,.F.,.F.) B_SPLINE_SURFACE_WITH_KNOTS((1,2,2,2,2,1),
  (3,2,3),(-2.094395102393,0.,2.094395102393,4.188790204786,
    6.28318530718,8.377580409573),(-1.570796326795,0.,1.570796326795),
.UNSPECIFIED.) GEOMETRIC_REPRESENTATION_ITEM() RATIONAL_B_SPLINE_SURFACE
((
    (1.,0.707106781187,1.,0.707106781187,1.)
    ,(0.5,0.353553390593,0.5,0.353553390593,0.5)
    ,(1.,0.707106781187,1.,0.707106781187,1.)
    ,(0.5,0.353553390593,0.5,0.353553390593,0.5)
    ,(1.,0.707106781187,1.,0.707106781187,1.)
    ,(0.5,0.353553390593,0.5,0.353553390593,0.5)
,(1.,0.707106781187,1.,0.707106781187,1.
))) REPRESENTATION_ITEM('') SURFACE() );
#345 = CARTESIAN_POINT('',(44.,-31.25,-55.2));
#346 = CARTESIAN_POINT('',(164.,-31.25,-55.2));
#347 = CARTESIAN_POINT('',(164.,-31.25,-20.2));
#348 = CARTESIAN_POINT('',(164.,-31.25,14.8));
#349 = CARTESIAN_POINT('',(44.,-31.25,14.8));
#350 = CARTESIAN_POINT('',(44.,-31.25,-55.2));
#351 = CARTESIAN_POINT('',(164.,55.352540378444,-55.2));
#352 = CARTESIAN_POINT('',(164.,55.352540378444,-20.2));
#353 = CARTESIAN_POINT('',(164.,55.352540378444,14.8));
#354 = CARTESIAN_POINT('',(44.,-31.25,14.8));
#355 = CARTESIAN_POINT('',(44.,-31.25,-55.2));
#356 = CARTESIAN_POINT('',(-16.,12.051270189222,-55.2));
#357 = CARTESIAN_POINT('',(-16.,12.051270189222,-20.2));
#358 = CARTESIAN_POINT('',(-16.,12.051270189222,14.8));
#359 = CARTESIAN_POINT('',(44.,-31.25,14.8));
#360 = CARTESIAN_POINT('',(44.,-31.25,-55.2));
#361 = CARTESIAN_POINT('',(-196.,-31.25,-55.2));
#362 = CARTESIAN_POINT('',(-196.,-31.25,-20.2));
#363 = CARTESIAN_POINT('',(-196.,-31.25,14.8));
#364 = CARTESIAN_POINT('',(44.,-31.25,14.8));
#365 = CARTESIAN_POINT('',(44.,-31.25,-55.2));
#366 = CARTESIAN_POINT('',(-16.,-74.55127018922,-55.2));
#367 = CARTESIAN_POINT('',(-16.,-74.55127018922,-20.2));
#368 = CARTESIAN_POINT('',(-16.,-74.55127018922,14.8));
#369 = CARTESIAN_POINT('',(44.,-31.25,14.8));
#370 = CARTESIAN_POINT('',(44.,-31.25,-55.2));
#371 = CARTESIAN_POINT('',(164.,-117.8525403784,-55.2));
#372 = CARTESIAN_POINT('',(164.,-117.8525403784,-20.2));
#373 = CARTESIAN_POINT('',(164.,-117.8525403784,14.8));
#374 = CARTESIAN_POINT('',(44.,-31.25,14.8));
#375 = CARTESIAN_POINT('',(44.,-31.25,-55.2));
#376 = CARTESIAN_POINT('',(164.,-31.25,-55.2));
#377 = CARTESIAN_POINT('',(164.,-31.25,-20.2));
#378 = CARTESIAN_POINT('',(164.,-31.25,14.8));
#379 = CARTESIAN_POINT('',(44.,-31.25,14.8));
#380 = DEFINITIONAL_REPRESENTATION('',(#381),#414);
#381 = B_SPLINE_CURVE_WITH_KNOTS('',7,(#382,#383,#384,#385,#386,#387,
    #388,#389,#390,#391,#392,#393,#394,#395,#396,#397,#398,#399,#400,
    #401,#402,#403,#404,#405,#406,#407,#408,#409,#410,#411,#412,#413),
  .UNSPECIFIED.,.F.,.F.,(8,6,6,6,6,8),(0.,0.204719076239,0.394120941639,
    0.585720657469,0.863547580617,1.),.UNSPECIFIED.);
#382 = CARTESIAN_POINT('',(4.070192535368,1.408286332983));
#383 = CARTESIAN_POINT('',(4.060815888676,1.408965424072));
#384 = CARTESIAN_POINT('',(4.050915674184,1.409852953834));
#385 = CARTESIAN_POINT('',(4.040656837866,1.410930551288));
#386 = CARTESIAN_POINT('',(4.030211614142,1.412173481318));
#387 = CARTESIAN_POINT('',(4.019760655923,1.41355365704));
#388 = CARTESIAN_POINT('',(4.009502833129,1.415040254632));
#389 = CARTESIAN_POINT('',(3.990535252782,1.418042861435));
#390 = CARTESIAN_POINT('',(3.981761784747,1.419549187578));
#391 = CARTESIAN_POINT('',(3.973498547492,1.42109263643));
#392 = CARTESIAN_POINT('',(3.965913344997,1.422646795882));
#393 = CARTESIAN_POINT('',(3.959176228098,1.424185419152));
#394 = CARTESIAN_POINT('',(3.953451761926,1.425682549593));
#395 = CARTESIAN_POINT('',(3.944256451857,1.428558922878));
#396 = CARTESIAN_POINT('',(3.940809733188,1.429937492413));
#397 = CARTESIAN_POINT('',(3.938688755668,1.431221099996));
#398 = CARTESIAN_POINT('',(3.938010071768,1.432385193577));
#399 = CARTESIAN_POINT('',(3.938847830143,1.43340683931));
#400 = CARTESIAN_POINT('',(3.941218224653,1.434265283193));
#401 = CARTESIAN_POINT('',(3.950628433054,1.43592804917));
#402 = CARTESIAN_POINT('',(3.95930025705,1.436535989601));
#403 = CARTESIAN_POINT('',(3.970897086525,1.436713523954));
#404 = CARTESIAN_POINT('',(3.984912281259,1.436434161213));
#405 = CARTESIAN_POINT('',(4.000554759872,1.435694917292));
#406 = CARTESIAN_POINT('',(4.016906827323,1.434527918902));
#407 = CARTESIAN_POINT('',(4.041048726955,1.432253741177));
#408 = CARTESIAN_POINT('',(4.048967027058,1.431417768086));
#409 = CARTESIAN_POINT('',(4.056752052342,1.430502571798));
#410 = CARTESIAN_POINT('',(4.064309822503,1.429517477439));
#411 = CARTESIAN_POINT('',(4.071556001833,1.428473159976));
#412 = CARTESIAN_POINT('',(4.078417884046,1.42738136832));
#413 = CARTESIAN_POINT('',(4.084834622641,1.426254651597));
#414 = ( GEOMETRIC_REPRESENTATION_CONTEXT(2) 
PARAMETRIC_REPRESENTATION_CONTEXT() REPRESENTATION_CONTEXT('2D SPACE',''
  ) );
#415 = ORIENTED_EDGE('',*,*,#416,.F.);
#416 = EDGE_CURVE('',#248,#271,#417,.T.);
#417 = SURFACE_CURVE('',#418,(#435,#455),.PCURVE_S1.);
#418 = B_SPLINE_CURVE_WITH_KNOTS('',8,(#419,#420,#421,#422,#423,#424,
    #425,#426,#427,#428,#429,#430,#431,#432,#433,#434),.UNSPECIFIED.,.F.
  ,.F.,(9,7,9),(0.,0.35786453367,1.),.UNSPECIFIED.);
#419 = CARTESIAN_POINT('',(34.825,-36.7,14.488392525429));
#420 = CARTESIAN_POINT('',(34.825,-36.78321994202,14.481985804362));
#421 = CARTESIAN_POINT('',(34.81540594478,-36.86647313328,
    14.475247506667));
#422 = CARTESIAN_POINT('',(34.796205599111,-36.94843737818,
    14.468278690483));
#423 = CARTESIAN_POINT('',(34.767611305878,-37.02782802094,
    14.461191500343));
#424 = CARTESIAN_POINT('',(34.730031399293,-37.10341193346,
    14.454106825859));
#425 = CARTESIAN_POINT('',(34.684055445397,-37.17402823227,
    14.447150709147));
#426 = CARTESIAN_POINT('',(34.630453309887,-37.2386157245,
    14.440449500975));
#427 = CARTESIAN_POINT('',(34.462050881098,-37.39965811075,
    14.422773160567));
#428 = CARTESIAN_POINT('',(34.332070736542,-37.48104545039,
    14.412590592556));
#429 = CARTESIAN_POINT('',(34.185956123526,-37.53438985791,
    14.404330363608));
#430 = CARTESIAN_POINT('',(34.031024778887,-37.55636376318,
    14.398576395796));
#431 = CARTESIAN_POINT('',(33.874857115389,-37.54569023026,
    14.39568468916));
#432 = CARTESIAN_POINT('',(33.725146870021,-37.50301406899,
    14.395754122506));
#433 = CARTESIAN_POINT('',(33.589554740966,-37.43112131868,
    14.398626281193));
#434 = CARTESIAN_POINT('',(33.47426828016,-37.33579175738,
    14.403858263702));
#435 = PCURVE('',#231,#436);
#436 = DEFINITIONAL_REPRESENTATION('',(#437),#454);
#437 = B_SPLINE_CURVE_WITH_KNOTS('',8,(#438,#439,#440,#441,#442,#443,
    #444,#445,#446,#447,#448,#449,#450,#451,#452,#453),.UNSPECIFIED.,.F.
  ,.F.,(9,7,9),(0.,0.35786453367,1.),.UNSPECIFIED.);
#438 = CARTESIAN_POINT('',(-6.28318530718,-3.688392525429));
#439 = CARTESIAN_POINT('',(-6.182312650183,-3.681985804362));
#440 = CARTESIAN_POINT('',(-6.081400742711,-3.675247506667));
#441 = CARTESIAN_POINT('',(-5.980483328832,-3.668278690483));
#442 = CARTESIAN_POINT('',(-5.879556749189,-3.661191500343));
#443 = CARTESIAN_POINT('',(-5.778598745566,-3.654106825859));
#444 = CARTESIAN_POINT('',(-5.677588000913,-3.647150709147));
#445 = CARTESIAN_POINT('',(-5.576524414858,-3.640449500975));
#446 = CARTESIAN_POINT('',(-5.29408709382,-3.622773160567));
#447 = CARTESIAN_POINT('',(-5.112040776898,-3.612590592556));
#448 = CARTESIAN_POINT('',(-4.930250676328,-3.604330363608));
#449 = CARTESIAN_POINT('',(-4.748594306081,-3.598576395796));
#450 = CARTESIAN_POINT('',(-4.566892309638,-3.59568468916));
#451 = CARTESIAN_POINT('',(-4.384981108914,-3.595754122506));
#452 = CARTESIAN_POINT('',(-4.202791038072,-3.598626281193));
#453 = CARTESIAN_POINT('',(-4.021463646725,-3.603858263702));
#454 = ( GEOMETRIC_REPRESENTATION_CONTEXT(2) 
PARAMETRIC_REPRESENTATION_CONTEXT() REPRESENTATION_CONTEXT('2D SPACE',''
  ) );
#455 = PCURVE('',#344,#456);
#456 = DEFINITIONAL_REPRESENTATION('',(#457),#474);
#457 = B_SPLINE_CURVE_WITH_KNOTS('',8,(#458,#459,#460,#461,#462,#463,
    #464,#465,#466,#467,#468,#469,#470,#471,#472,#473),.UNSPECIFIED.,.F.
  ,.F.,(9,7,9),(0.,0.35786453367,1.),.UNSPECIFIED.);
#458 = CARTESIAN_POINT('',(4.084834622641,1.426254651597));
#459 = CARTESIAN_POINT('',(4.093105712465,1.424802328883));
#460 = CARTESIAN_POINT('',(4.10065558108,1.423292597486));
#461 = CARTESIAN_POINT('',(4.107359177615,1.421750858674));
#462 = CARTESIAN_POINT('',(4.113127580071,1.420203409395));
#463 = CARTESIAN_POINT('',(4.11790248352,1.418676537507));
#464 = CARTESIAN_POINT('',(4.121651485671,1.417195719648));
#465 = CARTESIAN_POINT('',(4.124364169832,1.415784921763));
#466 = CARTESIAN_POINT('',(4.129072139584,1.412099394515));
#467 = CARTESIAN_POINT('',(4.128797009847,1.410020070043));
#468 = CARTESIAN_POINT('',(4.125222196513,1.408366851209));
#469 = CARTESIAN_POINT('',(4.118652184308,1.407231520153));
#470 = CARTESIAN_POINT('',(4.109430173352,1.406662829288));
#471 = CARTESIAN_POINT('',(4.097940228799,1.406673490664));
#472 = CARTESIAN_POINT('',(4.084643158108,1.407239765969));
#473 = CARTESIAN_POINT('',(4.070192535368,1.408286332983));
#474 = ( GEOMETRIC_REPRESENTATION_CONTEXT(2) 
PARAMETRIC_REPRESENTATION_CONTEXT() REPRESENTATION_CONTEXT('2D SPACE',''
  ) );
#475 = ORIENTED_EDGE('',*,*,#247,.F.);
#476 = ADVANCED_FACE('',(#477),#344,.T.);
#477 = FACE_BOUND('',#478,.T.);
#478 = EDGE_LOOP('',(#479,#480));
#479 = ORIENTED_EDGE('',*,*,#270,.F.);
#480 = ORIENTED_EDGE('',*,*,#416,.F.);
#481 = ( GEOMETRIC_REPRESENTATION_CONTEXT(3) 
GLOBAL_UNCERTAINTY_ASSIGNED_CONTEXT((#485)) GLOBAL_UNIT_ASSIGNED_CONTEXT
((#482,#483,#484)) REPRESENTATION_CONTEXT('Context #1',
  '3D Context with UNIT and UNCERTAINTY') );
#482 = ( LENGTH_UNIT() NAMED_UNIT(*) SI_UNIT(.MILLI.,.METRE.) );
#483 = ( NAMED_UNIT(*) PLANE_ANGLE_UNIT() SI_UNIT($,.RADIAN.) );
#484 = ( NAMED_UNIT(*) SI_UNIT($,.STERADIAN.) SOLID_ANGLE_UNIT() );
#485 = UNCERTAINTY_MEASURE_WITH_UNIT(LENGTH_MEASURE(2.E-06),#482,
  'distance_accuracy_value','confusion accuracy');
#486 = PRODUCT_RELATED_PRODUCT_CATEGORY('part',$,(#7));
ENDSEC;
END-ISO-10303-21;
