%TF.GenerationSoftware,KiCad,Pcbnew,10.0.6*%
%TF.CreationDate,2026-09-09T07:02:47-07:00*%
%TF.ProjectId,Anticipy_R1_E1_PROTOTYPE,416e7469-6369-4707-995f-52315f45315f,E1P1*%
%TF.SameCoordinates,Original*%
%TF.FileFunction,Copper,L4,Bot*%
%TF.FilePolarity,Positive*%
%FSLAX46Y46*%
G04 Gerber Fmt 4.6, Leading zero omitted, Abs format (unit mm)*
G04 Created by KiCad (PCBNEW 10.0.6) date 2026-09-09 07:02:47*
%MOMM*%
%LPD*%
G01*
G04 APERTURE LIST*
G04 Aperture macros list*
%AMRoundRect*
0 Rectangle with rounded corners*
0 $1 Rounding radius*
0 $2 $3 $4 $5 $6 $7 $8 $9 X,Y pos of 4 corners*
0 Add a 4 corners polygon primitive as box body*
4,1,4,$2,$3,$4,$5,$6,$7,$8,$9,$2,$3,0*
0 Add four circle primitives for the rounded corners*
1,1,$1+$1,$2,$3*
1,1,$1+$1,$4,$5*
1,1,$1+$1,$6,$7*
1,1,$1+$1,$8,$9*
0 Add four rect primitives between the rounded corners*
20,1,$1+$1,$2,$3,$4,$5,0*
20,1,$1+$1,$4,$5,$6,$7,0*
20,1,$1+$1,$6,$7,$8,$9,0*
20,1,$1+$1,$8,$9,$2,$3,0*%
G04 Aperture macros list end*
%TA.AperFunction,ComponentPad*%
%ADD10O,1.800000X1.000000*%
%TD*%
%TA.AperFunction,ComponentPad*%
%ADD11O,2.200000X1.000000*%
%TD*%
%TA.AperFunction,SMDPad,CuDef*%
%ADD12C,1.000000*%
%TD*%
%TA.AperFunction,SMDPad,CuDef*%
%ADD13RoundRect,0.162000X0.738000X-0.288000X0.738000X0.288000X-0.738000X0.288000X-0.738000X-0.288000X0*%
%TD*%
%TA.AperFunction,SMDPad,CuDef*%
%ADD14RoundRect,0.100000X-0.130000X-0.100000X0.130000X-0.100000X0.130000X0.100000X-0.130000X0.100000X0*%
%TD*%
%TA.AperFunction,SMDPad,CuDef*%
%ADD15RoundRect,0.140000X0.140000X0.170000X-0.140000X0.170000X-0.140000X-0.170000X0.140000X-0.170000X0*%
%TD*%
%TA.AperFunction,ViaPad*%
%ADD16C,0.450000*%
%TD*%
%TA.AperFunction,ViaPad*%
%ADD17C,0.609600*%
%TD*%
%TA.AperFunction,Conductor*%
%ADD18C,0.150000*%
%TD*%
%TA.AperFunction,Conductor*%
%ADD19C,0.127000*%
%TD*%
%TA.AperFunction,Conductor*%
%ADD20C,0.300000*%
%TD*%
%TA.AperFunction,Conductor*%
%ADD21C,0.225000*%
%TD*%
%TA.AperFunction,Conductor*%
%ADD22C,0.250000*%
%TD*%
%TA.AperFunction,Conductor*%
%ADD23C,0.187400*%
%TD*%
%TA.AperFunction,Conductor*%
%ADD24C,0.135000*%
%TD*%
G04 APERTURE END LIST*
D10*
%TO.P,J1,S1*%
%TO.N,/GND*%
X25600000Y-35620000D03*
%TO.P,J1,S2*%
X25600000Y-24380000D03*
D11*
%TO.P,J1,S3*%
X21600000Y-35620000D03*
%TO.P,J1,S4*%
X21600000Y-24380000D03*
%TD*%
D12*
%TO.P,TP14,1*%
%TO.N,/PMIC_INT*%
X45000000Y-37200000D03*
%TD*%
%TO.P,TP13,1*%
%TO.N,/3V_MIC*%
X39500000Y-31500000D03*
%TD*%
%TO.P,TP7,1*%
%TO.N,/UART_RX*%
X29500000Y-37300000D03*
%TD*%
D13*
%TO.P,M1,1*%
%TO.N,/3V_MAIN*%
X54900000Y-36735000D03*
%TO.P,M1,2*%
%TO.N,/HAPTIC_NEG*%
X54900000Y-35465000D03*
%TD*%
D12*
%TO.P,TP11,1*%
%TO.N,/VBUSOUT*%
X38700000Y-37300000D03*
%TD*%
%TO.P,TP10,1*%
%TO.N,/VSYS*%
X36400000Y-37300000D03*
%TD*%
%TO.P,TP5,1*%
%TO.N,/GND*%
X38700000Y-35000000D03*
%TD*%
%TO.P,TP12,1,2V5_AUX*%
%TO.N,/2V5_AUX*%
X41000000Y-37300000D03*
%TD*%
%TO.P,TP2,1*%
%TO.N,/SWDCLK*%
X31800000Y-35000000D03*
%TD*%
D13*
%TO.P,TH1,1*%
%TO.N,/NTC*%
X54900000Y-32735000D03*
%TO.P,TH1,2*%
%TO.N,/GND*%
X54900000Y-31465000D03*
%TD*%
D12*
%TO.P,TP3,1*%
%TO.N,/RESET*%
X34100000Y-35000000D03*
%TD*%
%TO.P,TP6,1*%
%TO.N,/UART_TX*%
X41000000Y-35000000D03*
%TD*%
D14*
%TO.P,R11,1*%
%TO.N,/USB_D-*%
X62980000Y-35400000D03*
%TO.P,R11,2*%
%TO.N,/USB_MCU_D-*%
X63620000Y-35400000D03*
%TD*%
D12*
%TO.P,TP9,1*%
%TO.N,/VBUS*%
X34100000Y-37300000D03*
%TD*%
D14*
%TO.P,R10,1*%
%TO.N,/USB_D+*%
X62980000Y-34600000D03*
%TO.P,R10,2*%
%TO.N,/USB_MCU_D+*%
X63620000Y-34600000D03*
%TD*%
D13*
%TO.P,BT1,1*%
%TO.N,/VBAT*%
X54900000Y-28935000D03*
%TO.P,BT1,2*%
%TO.N,/GND*%
X54900000Y-27665000D03*
%TD*%
D12*
%TO.P,TP1,1*%
%TO.N,/SWDIO*%
X29500000Y-35000000D03*
%TD*%
D15*
%TO.P,C25,1*%
%TO.N,/3V_MAIN*%
X58980000Y-38000000D03*
%TO.P,C25,2*%
%TO.N,/GND*%
X58020000Y-38000000D03*
%TD*%
D12*
%TO.P,TP4,1*%
%TO.N,/3V_MAIN*%
X36400000Y-35000000D03*
%TD*%
%TO.P,TP8,1*%
%TO.N,/VBAT*%
X31800000Y-37300000D03*
%TD*%
D16*
%TO.N,/3V_MAIN*%
X36950000Y-31500000D03*
X36948500Y-25270000D03*
X35750000Y-34650000D03*
X34262400Y-32457200D03*
X53040300Y-37072600D03*
X61250000Y-37400000D03*
%TO.N,/FLASH_IO3*%
X62839500Y-29493200D03*
X51662300Y-34045800D03*
X50253100Y-27818000D03*
%TO.N,/GND*%
X25750000Y-23450000D03*
X56175000Y-36000000D03*
X30026200Y-33110300D03*
X62928600Y-25997800D03*
X58475000Y-28175000D03*
D17*
X36400000Y-27400000D03*
D16*
X48939800Y-23576500D03*
D17*
X35200000Y-29800000D03*
D16*
X28225000Y-23075000D03*
X52368700Y-27823300D03*
X52275000Y-22550000D03*
D17*
X36400000Y-28600000D03*
X34000000Y-28600000D03*
D16*
X45763600Y-35634800D03*
X41005000Y-26650000D03*
X40750000Y-31900000D03*
X60325000Y-30750000D03*
X43600000Y-22600000D03*
D17*
X35200000Y-27400000D03*
D16*
X25175000Y-36500000D03*
D17*
X34000000Y-29800000D03*
D16*
X37457700Y-37592300D03*
D17*
X34000000Y-27400000D03*
X36400000Y-29800000D03*
D16*
X55767000Y-26119100D03*
D17*
X35200000Y-28600000D03*
D16*
X43087500Y-29298400D03*
X64400000Y-38050000D03*
X58181300Y-33614400D03*
X30750000Y-26500000D03*
X28710000Y-29960000D03*
X30000000Y-31300000D03*
X36300000Y-24280000D03*
X29950000Y-26175000D03*
X28850000Y-25500000D03*
X65150000Y-33975000D03*
X48050000Y-37450000D03*
X44539600Y-23080700D03*
%TO.N,/2V5_AUX*%
X42500000Y-33750000D03*
%TO.N,/VBAT*%
X30500000Y-25950000D03*
X32000000Y-26450000D03*
%TO.N,/USB_D+*%
X27650000Y-29040000D03*
X27560000Y-30340000D03*
%TO.N,/USB_D-*%
X28150000Y-30950000D03*
X27470000Y-29720000D03*
%TO.N,/I2C_SDA*%
X35600000Y-23600000D03*
X51662300Y-37815600D03*
X34950000Y-25525000D03*
X43796000Y-26514800D03*
X37883700Y-23347100D03*
%TO.N,/I2C_SCL*%
X60424300Y-34042600D03*
X36328800Y-22184000D03*
%TO.N,/UART_RX*%
X54942300Y-37636500D03*
X42350000Y-32900000D03*
X44550000Y-30700000D03*
X45144700Y-31144700D03*
%TO.N,/UART_TX*%
X42500000Y-32049999D03*
X43600000Y-29750000D03*
X58702100Y-35094200D03*
%TO.N,/HAPTIC_PWM*%
X45936900Y-35000000D03*
X56850200Y-37597500D03*
%TO.N,/VBUSOUT*%
X39602900Y-35645100D03*
X63000000Y-38450000D03*
X63491900Y-35978000D03*
X36141300Y-32531800D03*
X62150000Y-38050000D03*
X31916900Y-29436300D03*
%TO.N,/USB_MCU_D-*%
X64950000Y-35650000D03*
%TO.N,/USB_MCU_D+*%
X64950000Y-34850000D03*
%TO.N,/PDM_CLK*%
X60620700Y-33396000D03*
X49624100Y-21982800D03*
%TO.N,/PDM_DATA*%
X65058500Y-33273300D03*
X61351000Y-27696400D03*
%TO.N,/RESET*%
X44900000Y-34150000D03*
X37525000Y-33100000D03*
X35400000Y-35575000D03*
X54850000Y-34500000D03*
%TO.N,/PMIC_INT*%
X43825000Y-36050000D03*
X48925000Y-25000000D03*
X39193200Y-25050000D03*
X38500000Y-26400000D03*
X42450000Y-29250000D03*
X64391800Y-31850000D03*
%TO.N,/FLASH_SCK*%
X51269000Y-30273500D03*
X62831900Y-31885600D03*
%TO.N,/FLASH_IO0*%
X51438300Y-32093300D03*
X62819700Y-31250000D03*
%TO.N,/FLASH_CS*%
X47281300Y-27726300D03*
X58950000Y-33500000D03*
X57100000Y-34650000D03*
X64200000Y-31200000D03*
X54291000Y-34232200D03*
%TO.N,/FLASH_IO2*%
X51000000Y-32500000D03*
X59400000Y-32500000D03*
%TO.N,/FLASH_IO1*%
X45385300Y-29129700D03*
X65058500Y-29895200D03*
%TO.N,/SWDIO*%
X28833900Y-34451600D03*
X53550000Y-38350000D03*
X62700000Y-30100000D03*
X45091800Y-35661300D03*
%TO.N,/SWDCLK*%
X64250000Y-26500000D03*
X30600000Y-35550000D03*
%TO.N,/LED_BLUE_K*%
X34300000Y-35900000D03*
X33181819Y-31418180D03*
%TO.N,/VSYS*%
X28093000Y-28609100D03*
X30130100Y-36244200D03*
X38874400Y-29272300D03*
X35451000Y-33710800D03*
X38650000Y-33100000D03*
%TO.N,/SHPHLD_BTN*%
X33700000Y-24250000D03*
X30790000Y-34956700D03*
%TO.N,/3V_MIC*%
X39499500Y-34215200D03*
X49092800Y-26272800D03*
X44416000Y-25444800D03*
X47900000Y-26000000D03*
X52800000Y-26000000D03*
%TO.N,/HAPTIC_NEG*%
X46637900Y-36256800D03*
%TO.N,/NTC*%
X32150000Y-27350000D03*
X45450000Y-28425000D03*
%TO.N,/VBUS*%
X28050000Y-27050000D03*
X28100000Y-32350000D03*
X30950000Y-28850000D03*
X27596000Y-34309400D03*
X34724600Y-37924600D03*
%TO.N,/USB_CC1*%
X30544500Y-22167500D03*
X31433800Y-32194000D03*
%TO.N,/USB_CC2*%
X31892300Y-33032600D03*
X28599200Y-26305400D03*
%TD*%
%TO.N,/3V_MAIN*%
D18*
X36100000Y-35000000D02*
X35750000Y-34650000D01*
D19*
X60950000Y-37525000D02*
X61000000Y-37525000D01*
D20*
X36400000Y-34952800D02*
X36400000Y-35000000D01*
X35088500Y-34212800D02*
X35088500Y-34213000D01*
D19*
X60025000Y-37950000D02*
X60050000Y-37950000D01*
D20*
X54900000Y-36735000D02*
X54562400Y-37072600D01*
D19*
X60050000Y-37950000D02*
X60075000Y-37925000D01*
X61000000Y-37525000D02*
X61025000Y-37500000D01*
X58980000Y-38000000D02*
X58975000Y-38000000D01*
X58975000Y-38000000D02*
X59950000Y-38000000D01*
X60850000Y-37575000D02*
X60875000Y-37575000D01*
D21*
X34877200Y-33847100D02*
X35088500Y-34058400D01*
D20*
X34262400Y-32457200D02*
X34262400Y-33232300D01*
D19*
X60575000Y-37750000D02*
X60600000Y-37725000D01*
X60100000Y-37925000D02*
X60125000Y-37900000D01*
X60200000Y-37875000D02*
X60225000Y-37875000D01*
X60700000Y-37650000D02*
X60725000Y-37650000D01*
X61025000Y-37500000D02*
X61050000Y-37500000D01*
X60175000Y-37900000D02*
X60200000Y-37875000D01*
X60125000Y-37900000D02*
X60175000Y-37900000D01*
X60075000Y-37925000D02*
X60100000Y-37925000D01*
X60800000Y-37600000D02*
X60825000Y-37600000D01*
D20*
X34262400Y-33232300D02*
X34877200Y-33847100D01*
D19*
X60375000Y-37800000D02*
X60400000Y-37775000D01*
X60550000Y-37750000D02*
X60575000Y-37750000D01*
X60775000Y-37625000D02*
X60800000Y-37600000D01*
X60300000Y-37825000D02*
X60325000Y-37825000D01*
D21*
X35828300Y-34952800D02*
X36400000Y-34952800D01*
D19*
X59975000Y-37975000D02*
X60000000Y-37975000D01*
X61050000Y-37500000D02*
X61250000Y-37400000D01*
X60900000Y-37550000D02*
X60925000Y-37550000D01*
X60400000Y-37775000D02*
X60525000Y-37775000D01*
X60925000Y-37550000D02*
X60950000Y-37525000D01*
X60225000Y-37875000D02*
X60250000Y-37850000D01*
X60325000Y-37825000D02*
X60350000Y-37800000D01*
D21*
X35088500Y-34213000D02*
X35828300Y-34952800D01*
D19*
X60275000Y-37850000D02*
X60300000Y-37825000D01*
X60600000Y-37725000D02*
X60625000Y-37725000D01*
X60750000Y-37625000D02*
X60775000Y-37625000D01*
X60825000Y-37600000D02*
X60850000Y-37575000D01*
X60000000Y-37975000D02*
X60025000Y-37950000D01*
D20*
X54562400Y-37072600D02*
X53040300Y-37072600D01*
D19*
X59950000Y-38000000D02*
X59975000Y-37975000D01*
X60875000Y-37575000D02*
X60900000Y-37550000D01*
D18*
X36400000Y-35000000D02*
X36100000Y-35000000D01*
D19*
X60250000Y-37850000D02*
X60275000Y-37850000D01*
X60725000Y-37650000D02*
X60750000Y-37625000D01*
D21*
X35088500Y-34058400D02*
X35088500Y-34212800D01*
D19*
X60625000Y-37725000D02*
X60700000Y-37650000D01*
X60525000Y-37775000D02*
X60550000Y-37750000D01*
X60350000Y-37800000D02*
X60375000Y-37800000D01*
%TO.N,/GND*%
X29950000Y-28275000D02*
X29950000Y-28250000D01*
X30475000Y-27125000D02*
X30475000Y-27100000D01*
X57950000Y-37850000D02*
X57975000Y-37875000D01*
X56175000Y-36000000D02*
X57900000Y-37725000D01*
X29675000Y-28875000D02*
X29675000Y-28850000D01*
X30200000Y-27725000D02*
X30200000Y-27700000D01*
X30125000Y-27850000D02*
X30150000Y-27825000D01*
X29650000Y-28925000D02*
X29650000Y-28900000D01*
X30600000Y-26850000D02*
X30600000Y-26825000D01*
X30275000Y-27550000D02*
X30275000Y-27525000D01*
X30100000Y-27925000D02*
X30125000Y-27900000D01*
X30650000Y-26725000D02*
X30650000Y-26700000D01*
X30025000Y-28100000D02*
X30025000Y-28075000D01*
X30350000Y-27375000D02*
X30375000Y-27350000D01*
X30425000Y-27200000D02*
X30450000Y-27175000D01*
X57925000Y-37800000D02*
X57950000Y-37825000D01*
X28710000Y-29960000D02*
X29600000Y-29050000D01*
X30450000Y-27150000D02*
X30475000Y-27125000D01*
X57975000Y-37875000D02*
X57975000Y-37900000D01*
X30625000Y-26750000D02*
X30650000Y-26725000D01*
X30250000Y-27625000D02*
X30250000Y-27575000D01*
X58025000Y-38000000D02*
X58020000Y-38000000D01*
X30375000Y-27350000D02*
X30375000Y-27300000D01*
X30425000Y-27225000D02*
X30425000Y-27200000D01*
X30000000Y-28125000D02*
X30025000Y-28100000D01*
X30550000Y-26925000D02*
X30575000Y-26900000D01*
X58000000Y-37975000D02*
X58025000Y-38000000D01*
D22*
X53747200Y-27823300D02*
X52368700Y-27823300D01*
D19*
X58100000Y-38000000D02*
X58600000Y-38500000D01*
X29700000Y-28825000D02*
X29700000Y-28800000D01*
X62775000Y-38075000D02*
X62800000Y-38050000D01*
X30300000Y-27500000D02*
X30300000Y-27475000D01*
X30400000Y-27250000D02*
X30425000Y-27225000D01*
X29975000Y-28225000D02*
X29975000Y-28200000D01*
X29600000Y-29000000D02*
X29625000Y-28975000D01*
X30550000Y-26950000D02*
X30550000Y-26925000D01*
X29825000Y-28525000D02*
X29850000Y-28500000D01*
X30100000Y-27950000D02*
X30100000Y-27925000D01*
X29975000Y-28200000D02*
X30000000Y-28175000D01*
D22*
X37457700Y-37592300D02*
X37457700Y-36242300D01*
D19*
X58600000Y-38500000D02*
X62325000Y-38500000D01*
X30575000Y-26900000D02*
X30575000Y-26875000D01*
X30175000Y-27750000D02*
X30200000Y-27725000D01*
X30650000Y-26700000D02*
X30750000Y-26500000D01*
X30000000Y-28175000D02*
X30000000Y-28125000D01*
X29900000Y-28375000D02*
X29900000Y-28350000D01*
X30175000Y-27775000D02*
X30175000Y-27750000D01*
X62325000Y-38500000D02*
X62750000Y-38075000D01*
X29825000Y-28550000D02*
X29825000Y-28525000D01*
X30575000Y-26875000D02*
X30600000Y-26850000D01*
X29875000Y-28400000D02*
X29900000Y-28375000D01*
X57900000Y-37725000D02*
X57900000Y-37750000D01*
D22*
X37457700Y-36242300D02*
X38700000Y-35000000D01*
D23*
X53747200Y-27665000D02*
X53747200Y-27823300D01*
D19*
X62750000Y-38075000D02*
X62775000Y-38075000D01*
X29625000Y-28975000D02*
X29625000Y-28950000D01*
X29925000Y-28325000D02*
X29925000Y-28300000D01*
X30625000Y-26800000D02*
X30625000Y-26750000D01*
X57925000Y-37775000D02*
X57925000Y-37800000D01*
X30075000Y-27975000D02*
X30100000Y-27950000D01*
X30475000Y-27100000D02*
X30500000Y-27075000D01*
X30375000Y-27300000D02*
X30400000Y-27275000D01*
X30325000Y-27450000D02*
X30325000Y-27425000D01*
X29850000Y-28500000D02*
X29850000Y-28475000D01*
D22*
X53747200Y-30312200D02*
X54900000Y-31465000D01*
D19*
X30500000Y-27025000D02*
X30525000Y-27000000D01*
X30250000Y-27575000D02*
X30275000Y-27550000D01*
X30200000Y-27700000D02*
X30225000Y-27675000D01*
X57975000Y-37900000D02*
X58000000Y-37925000D01*
X29775000Y-28625000D02*
X29800000Y-28600000D01*
X30525000Y-26975000D02*
X30550000Y-26950000D01*
X29900000Y-28350000D02*
X29925000Y-28325000D01*
X29875000Y-28450000D02*
X29875000Y-28400000D01*
X29625000Y-28950000D02*
X29650000Y-28925000D01*
X30600000Y-26825000D02*
X30625000Y-26800000D01*
X29925000Y-28300000D02*
X29950000Y-28275000D01*
X30150000Y-27825000D02*
X30150000Y-27800000D01*
X29800000Y-28600000D02*
X29800000Y-28575000D01*
X62825000Y-38050000D02*
X62850000Y-38025000D01*
X57900000Y-37750000D02*
X57925000Y-37775000D01*
X30325000Y-27425000D02*
X30350000Y-27400000D01*
X58020000Y-38000000D02*
X58100000Y-38000000D01*
X30025000Y-28075000D02*
X30050000Y-28050000D01*
X29600000Y-29050000D02*
X29600000Y-29000000D01*
X30050000Y-28025000D02*
X30075000Y-28000000D01*
X57950000Y-37825000D02*
X57950000Y-37850000D01*
X29800000Y-28575000D02*
X29825000Y-28550000D01*
X29750000Y-28675000D02*
X29775000Y-28650000D01*
X30150000Y-27800000D02*
X30175000Y-27775000D01*
X29950000Y-28250000D02*
X29975000Y-28225000D01*
X30500000Y-27075000D02*
X30500000Y-27025000D01*
X29675000Y-28850000D02*
X29700000Y-28825000D01*
D23*
X53747200Y-27823300D02*
X53747200Y-29554000D01*
D19*
X30525000Y-27000000D02*
X30525000Y-26975000D01*
X30275000Y-27525000D02*
X30300000Y-27500000D01*
D22*
X53747200Y-29554000D02*
X53747200Y-30312200D01*
D19*
X30450000Y-27175000D02*
X30450000Y-27150000D01*
X30075000Y-28000000D02*
X30075000Y-27975000D01*
X30400000Y-27275000D02*
X30400000Y-27250000D01*
X30225000Y-27650000D02*
X30250000Y-27625000D01*
X29850000Y-28475000D02*
X29875000Y-28450000D01*
X29650000Y-28900000D02*
X29675000Y-28875000D01*
X30225000Y-27675000D02*
X30225000Y-27650000D01*
X58000000Y-37925000D02*
X58000000Y-37975000D01*
X29725000Y-28725000D02*
X29750000Y-28700000D01*
X62800000Y-38050000D02*
X62825000Y-38050000D01*
X30050000Y-28050000D02*
X30050000Y-28025000D01*
X29700000Y-28800000D02*
X29725000Y-28775000D01*
X29775000Y-28650000D02*
X29775000Y-28625000D01*
X62850000Y-38025000D02*
X64400000Y-38050000D01*
X30125000Y-27900000D02*
X30125000Y-27850000D01*
D22*
X54900000Y-27665000D02*
X53747200Y-27665000D01*
D19*
X29750000Y-28700000D02*
X29750000Y-28675000D01*
X30300000Y-27475000D02*
X30325000Y-27450000D01*
X30350000Y-27400000D02*
X30350000Y-27375000D01*
X29725000Y-28775000D02*
X29725000Y-28725000D01*
%TO.N,/2V5_AUX*%
D22*
X44350000Y-33900000D02*
X44500000Y-33650000D01*
D20*
X41000000Y-37300000D02*
X44550500Y-33749500D01*
D22*
X44500000Y-33650000D02*
X44550500Y-32933500D01*
D20*
X44550500Y-33749500D02*
X44550500Y-32933500D01*
D22*
X44050000Y-34050000D02*
X44350000Y-33900000D01*
X42500000Y-33750000D02*
X44050000Y-34050000D01*
%TO.N,/VBAT*%
X28050000Y-27900000D02*
X27150000Y-28850000D01*
D18*
X55050000Y-28900000D02*
X54950000Y-28900000D01*
X38950000Y-25500000D02*
X39000000Y-25550000D01*
X55700000Y-28600000D02*
X55650000Y-28600000D01*
X36750000Y-24700000D02*
X38100000Y-24700000D01*
X55950000Y-26950000D02*
X56000000Y-26950000D01*
X43500000Y-26950000D02*
X43550000Y-26950000D01*
D22*
X29600000Y-25750000D02*
X28050000Y-27900000D01*
D18*
X56100000Y-28200000D02*
X56050000Y-28250000D01*
X38100000Y-24700000D02*
X38900000Y-25500000D01*
X55350000Y-28750000D02*
X55300000Y-28750000D01*
X55100000Y-28850000D02*
X55050000Y-28900000D01*
X43550000Y-26950000D02*
X43600000Y-27000000D01*
X55900000Y-26900000D02*
X55950000Y-26950000D01*
X55150000Y-28850000D02*
X55100000Y-28850000D01*
X53750000Y-27000000D02*
X53800000Y-26950000D01*
X38900000Y-25500000D02*
X38950000Y-25500000D01*
X55250000Y-28800000D02*
X55200000Y-28800000D01*
X55400000Y-28700000D02*
X55350000Y-28750000D01*
X54950000Y-28900000D02*
X54900000Y-28950000D01*
D22*
X30500000Y-25950000D02*
X30050000Y-25650000D01*
D18*
X55550000Y-28650000D02*
X55500000Y-28700000D01*
X39000000Y-25550000D02*
X42100000Y-25550000D01*
X53850000Y-26950000D02*
X53900000Y-26900000D01*
X53900000Y-26900000D02*
X55900000Y-26900000D01*
D22*
X32500000Y-34600000D02*
X32600000Y-35150000D01*
D18*
X56050000Y-27050000D02*
X56100000Y-27100000D01*
X55650000Y-28600000D02*
X55600000Y-28650000D01*
D22*
X32600000Y-35150000D02*
X31800000Y-37300000D01*
X30200000Y-32600000D02*
X32500000Y-34600000D01*
X26950000Y-29850000D02*
X27100000Y-30600000D01*
D18*
X55800000Y-28550000D02*
X55750000Y-28550000D01*
X55500000Y-28700000D02*
X55400000Y-28700000D01*
X55600000Y-28650000D02*
X55550000Y-28650000D01*
X56050000Y-27000000D02*
X56050000Y-27050000D01*
X56000000Y-26950000D02*
X56050000Y-27000000D01*
X56050000Y-28250000D02*
X56050000Y-28300000D01*
X53800000Y-26950000D02*
X53850000Y-26950000D01*
D22*
X27150000Y-28850000D02*
X26950000Y-29850000D01*
D18*
X42100000Y-25550000D02*
X43500000Y-26950000D01*
X56050000Y-28300000D02*
X55800000Y-28550000D01*
X32000000Y-26450000D02*
X34950000Y-26450000D01*
X36650000Y-24750000D02*
X36700000Y-24750000D01*
D22*
X27100000Y-30600000D02*
X29100000Y-32600000D01*
D18*
X55200000Y-28800000D02*
X55150000Y-28850000D01*
X54900000Y-28950000D02*
X54900000Y-28935000D01*
X55750000Y-28550000D02*
X55700000Y-28600000D01*
X56100000Y-27100000D02*
X56100000Y-28200000D01*
X43600000Y-27000000D02*
X53750000Y-27000000D01*
X55300000Y-28750000D02*
X55250000Y-28800000D01*
D22*
X29100000Y-32600000D02*
X30200000Y-32600000D01*
D18*
X34950000Y-26450000D02*
X36650000Y-24750000D01*
D22*
X30050000Y-25650000D02*
X29600000Y-25750000D01*
D18*
X36700000Y-24750000D02*
X36750000Y-24700000D01*
%TO.N,/USB_D+*%
D24*
X28547709Y-30457657D02*
X43653034Y-30507674D01*
X58060995Y-34066307D02*
X62525696Y-34884836D01*
X28385500Y-30336000D02*
X28547709Y-30457657D01*
X43653034Y-30507674D02*
X46506675Y-32960804D01*
D19*
X27950000Y-29250000D02*
X27650000Y-29040000D01*
D24*
X27650000Y-29040000D02*
X28385500Y-30336000D01*
X46506675Y-32960804D02*
X57553897Y-33660628D01*
D19*
X27560000Y-30340000D02*
X27950000Y-30340000D01*
X27950000Y-30340000D02*
X27950000Y-29250000D01*
D24*
X62525696Y-34884836D02*
X62980000Y-34600000D01*
X57553897Y-33660628D02*
X58060995Y-34066307D01*
%TO.N,/USB_D-*%
X28214500Y-30564000D02*
X28452290Y-30742342D01*
X57939004Y-34333692D02*
X62474303Y-35165163D01*
X46393324Y-33239195D02*
X57446102Y-33939371D01*
X57446102Y-33939371D02*
X57939004Y-34333692D01*
X43546965Y-30792325D02*
X46393324Y-33239195D01*
X28452290Y-30742342D02*
X43546965Y-30792325D01*
X62474303Y-35165163D02*
X62980000Y-35450000D01*
X28150000Y-30950000D02*
X28214500Y-30564000D01*
%TO.N,/I2C_SDA*%
D18*
X40628300Y-23347100D02*
X37883700Y-23347100D01*
X43796000Y-26514800D02*
X40628300Y-23347100D01*
%TO.N,/UART_RX*%
X31350000Y-38150000D02*
X31300000Y-38100000D01*
X44000000Y-30150000D02*
X44550000Y-30700000D01*
X30150000Y-37600000D02*
X30100000Y-37550000D01*
X29550000Y-37350000D02*
X29500000Y-37300000D01*
X30950000Y-37950000D02*
X30900000Y-37950000D01*
X41150000Y-35750000D02*
X39450000Y-37450000D01*
X30500000Y-37750000D02*
X30450000Y-37750000D01*
X30200000Y-37600000D02*
X30150000Y-37600000D01*
X31100000Y-38050000D02*
X31050000Y-38000000D01*
X31600000Y-38250000D02*
X31550000Y-38250000D01*
X29900000Y-37500000D02*
X29850000Y-37450000D01*
X30300000Y-37650000D02*
X30250000Y-37650000D01*
X31550000Y-38250000D02*
X31500000Y-38200000D01*
X39450000Y-37950000D02*
X39350000Y-38050000D01*
X29650000Y-37350000D02*
X29550000Y-37350000D01*
X41950000Y-33950000D02*
X41750000Y-34150000D01*
X30550000Y-37800000D02*
X30500000Y-37750000D01*
X30900000Y-37950000D02*
X30850000Y-37900000D01*
X30850000Y-37900000D02*
X30800000Y-37900000D01*
X44000000Y-30000000D02*
X44000000Y-30150000D01*
X31400000Y-38150000D02*
X31350000Y-38150000D01*
X30650000Y-37800000D02*
X30550000Y-37800000D01*
X29950000Y-37500000D02*
X29900000Y-37500000D01*
X30350000Y-37700000D02*
X30300000Y-37650000D01*
X41750000Y-34150000D02*
X41750000Y-35650000D01*
X31200000Y-38050000D02*
X31100000Y-38050000D01*
X31650000Y-38300000D02*
X31600000Y-38250000D01*
X30700000Y-37850000D02*
X30650000Y-37800000D01*
X35230000Y-38050000D02*
X34900000Y-38380000D01*
X39450000Y-37450000D02*
X39450000Y-37950000D01*
X29700000Y-37400000D02*
X29650000Y-37350000D01*
X31500000Y-38200000D02*
X31450000Y-38200000D01*
X31250000Y-38100000D02*
X31200000Y-38050000D01*
X41950000Y-33299999D02*
X41950000Y-33950000D01*
X31050000Y-38000000D02*
X31000000Y-38000000D01*
X31800000Y-38350000D02*
X31750000Y-38300000D01*
X30400000Y-37700000D02*
X30350000Y-37700000D01*
X41650000Y-35750000D02*
X41150000Y-35750000D01*
X44000000Y-30000000D02*
X45144700Y-31144700D01*
X30450000Y-37750000D02*
X30400000Y-37700000D01*
X31450000Y-38200000D02*
X31400000Y-38150000D01*
X30000000Y-37550000D02*
X29950000Y-37500000D01*
X30800000Y-37900000D02*
X30750000Y-37850000D01*
X31300000Y-38100000D02*
X31250000Y-38100000D01*
X29850000Y-37450000D02*
X29800000Y-37450000D01*
X29800000Y-37450000D02*
X29750000Y-37400000D01*
X31000000Y-38000000D02*
X30950000Y-37950000D01*
X41750000Y-35650000D02*
X41650000Y-35750000D01*
X39350000Y-38050000D02*
X35230000Y-38050000D01*
X31750000Y-38300000D02*
X31650000Y-38300000D01*
X30250000Y-37650000D02*
X30200000Y-37600000D01*
X30100000Y-37550000D02*
X30000000Y-37550000D01*
X34900000Y-38380000D02*
X31800000Y-38350000D01*
X29750000Y-37400000D02*
X29700000Y-37400000D01*
X42350000Y-32900000D02*
X41950000Y-33299999D01*
X30750000Y-37850000D02*
X30700000Y-37850000D01*
%TO.N,/UART_TX*%
X43100000Y-32799999D02*
X42950000Y-32799999D01*
X42550000Y-32400000D02*
X42100000Y-32400000D01*
X42100000Y-32400000D02*
X41000000Y-33500000D01*
D19*
X42500000Y-32049999D02*
X43100000Y-32799999D01*
D18*
X42950000Y-32799999D02*
X42550000Y-32400000D01*
X41000000Y-33500000D02*
X41000000Y-35000000D01*
%TO.N,/VBUSOUT*%
D20*
X39602900Y-36397100D02*
X38700000Y-37300000D01*
X39602900Y-35645100D02*
X39602900Y-36397100D01*
%TO.N,/USB_MCU_D-*%
D24*
X63620000Y-35450000D02*
X64950000Y-35650000D01*
%TO.N,/USB_MCU_D+*%
X63620000Y-34600000D02*
X64950000Y-34850000D01*
%TO.N,/RESET*%
D19*
X54250000Y-34700000D02*
X47900000Y-34150000D01*
X34100000Y-35000000D02*
X34825000Y-35000000D01*
X34825000Y-35000000D02*
X35400000Y-35575000D01*
X54850000Y-34500000D02*
X54250000Y-34700000D01*
X47900000Y-34150000D02*
X47250000Y-33600000D01*
X47250000Y-33600000D02*
X45150000Y-33900000D01*
X45150000Y-33900000D02*
X44900000Y-34150000D01*
%TO.N,/PMIC_INT*%
X45000000Y-37200000D02*
X43825000Y-36050000D01*
X38500000Y-26400000D02*
X42450000Y-29250000D01*
%TO.N,/FLASH_CS*%
X62000000Y-30800000D02*
X63800000Y-30850000D01*
X58950000Y-33500000D02*
X62000000Y-30800000D01*
X63800000Y-30850000D02*
X64200000Y-31200000D01*
%TO.N,/SWDIO*%
X52850000Y-38350000D02*
X53550000Y-38350000D01*
X45091800Y-35661300D02*
X47900000Y-37900000D01*
X47900000Y-37900000D02*
X52850000Y-38350000D01*
D18*
X29500000Y-35000000D02*
X28833900Y-34451600D01*
%TO.N,/SWDCLK*%
X31000000Y-35400000D02*
X30950000Y-35450000D01*
X31800000Y-35000000D02*
X31450000Y-35000000D01*
X30950000Y-35450000D02*
X30600000Y-35550000D01*
X31050000Y-35400000D02*
X31000000Y-35400000D01*
X31450000Y-35000000D02*
X31050000Y-35400000D01*
%TO.N,/LED_BLUE_K*%
X33299999Y-33450000D02*
X33299999Y-33500000D01*
X33600000Y-35900000D02*
X34300000Y-35900000D01*
X33200000Y-33250000D02*
X33200000Y-33299999D01*
X33350000Y-35650000D02*
X33600000Y-35900000D01*
X33200000Y-33299999D02*
X33250000Y-33350000D01*
X33150000Y-33200000D02*
X33200000Y-33250000D01*
X33181819Y-31418180D02*
X33150000Y-33200000D01*
X33250000Y-33350000D02*
X33250000Y-33400000D01*
X33250000Y-33400000D02*
X33299999Y-33450000D01*
X33299999Y-33500000D02*
X33350000Y-33549999D01*
X33350000Y-33549999D02*
X33350000Y-35650000D01*
%TO.N,/VSYS*%
D20*
X36400000Y-37300000D02*
X36400000Y-36181700D01*
X37218700Y-34716400D02*
X36213100Y-33710800D01*
X37218700Y-35363000D02*
X37218700Y-34716400D01*
X36213100Y-33710800D02*
X35451000Y-33710800D01*
X36400000Y-36181700D02*
X37218700Y-35363000D01*
%TO.N,/SHPHLD_BTN*%
D19*
X28850000Y-25050000D02*
X33700000Y-24250000D01*
X26700000Y-30500000D02*
X26600000Y-29700000D01*
X27600000Y-32500000D02*
X26700000Y-30500000D01*
X26600000Y-29700000D02*
X26850000Y-28600000D01*
X26850000Y-28600000D02*
X27700000Y-26750000D01*
X27700000Y-26750000D02*
X28550000Y-25150000D01*
X30790000Y-34956700D02*
X27600000Y-32500000D01*
X28550000Y-25150000D02*
X28850000Y-25050000D01*
%TO.N,/3V_MIC*%
D20*
X39500000Y-31500000D02*
X39499500Y-34215200D01*
%TO.N,/HAPTIC_NEG*%
X46938100Y-36007200D02*
X46887500Y-36007200D01*
D21*
X46938100Y-36007200D02*
X54357800Y-36007200D01*
D20*
X46887500Y-36007200D02*
X46637900Y-36256800D01*
D21*
X54357800Y-36007200D02*
X54900000Y-35465000D01*
%TO.N,/NTC*%
D19*
X54325000Y-32475000D02*
X54375000Y-32475000D01*
X54800000Y-32674999D02*
X54825000Y-32700000D01*
X54525000Y-32549999D02*
X54550000Y-32575000D01*
X54600000Y-32600000D02*
X54650000Y-32600000D01*
X54225000Y-32424999D02*
X54250000Y-32424999D01*
X54775000Y-32674999D02*
X54800000Y-32674999D01*
X54300000Y-32450000D02*
X54325000Y-32475000D01*
X54025000Y-32325000D02*
X54050000Y-32350000D01*
X51325000Y-29850000D02*
X51425000Y-29850000D01*
X49950000Y-28475000D02*
X51325000Y-29850000D01*
X54725000Y-32650000D02*
X54750000Y-32650000D01*
X51525000Y-29900000D02*
X53900000Y-32275000D01*
X54150000Y-32375000D02*
X54175000Y-32400000D01*
X51425000Y-29850000D02*
X51450000Y-29875000D01*
X54000000Y-32325000D02*
X54025000Y-32325000D01*
X54100000Y-32350000D02*
X54125000Y-32375000D01*
X54450000Y-32525000D02*
X54475000Y-32525000D01*
X54750000Y-32650000D02*
X54775000Y-32674999D01*
X54700000Y-32625000D02*
X54725000Y-32650000D01*
X53900000Y-32275000D02*
X53925000Y-32275000D01*
X54275000Y-32450000D02*
X54300000Y-32450000D01*
X45450000Y-28425000D02*
X49950000Y-28475000D01*
X53950000Y-32299999D02*
X53975000Y-32299999D01*
X54200000Y-32400000D02*
X54225000Y-32424999D01*
X54900000Y-32725000D02*
X54900000Y-32735000D01*
X54550000Y-32575000D02*
X54575000Y-32575000D01*
X51450000Y-29875000D02*
X51475000Y-29875000D01*
X54875000Y-32700000D02*
X54900000Y-32725000D01*
X54650000Y-32600000D02*
X54675000Y-32625000D01*
X54400000Y-32500000D02*
X54425000Y-32500000D01*
X53975000Y-32299999D02*
X54000000Y-32325000D01*
X51500000Y-29900000D02*
X51525000Y-29900000D01*
X54125000Y-32375000D02*
X54150000Y-32375000D01*
X54825000Y-32700000D02*
X54875000Y-32700000D01*
X54375000Y-32475000D02*
X54400000Y-32500000D01*
X54425000Y-32500000D02*
X54450000Y-32525000D01*
X54475000Y-32525000D02*
X54500000Y-32549999D01*
X51475000Y-29875000D02*
X51500000Y-29900000D01*
X54575000Y-32575000D02*
X54600000Y-32600000D01*
X54050000Y-32350000D02*
X54100000Y-32350000D01*
X54675000Y-32625000D02*
X54700000Y-32625000D01*
X53925000Y-32275000D02*
X53950000Y-32299999D01*
X54500000Y-32549999D02*
X54525000Y-32549999D01*
X54175000Y-32400000D02*
X54200000Y-32400000D01*
X54250000Y-32424999D02*
X54275000Y-32450000D01*
%TO.N,/VBUS*%
D21*
X34100000Y-37300000D02*
X34724600Y-37924600D01*
%TD*%
%TA.AperFunction,Conductor*%
%TO.N,/GND*%
G36*
X26607194Y-30769107D02*
G01*
X26619994Y-30787651D01*
X26879324Y-31363940D01*
X27410434Y-32544186D01*
X27415417Y-32561773D01*
X27415481Y-32562267D01*
X27415483Y-32562274D01*
X27428158Y-32584316D01*
X27430972Y-32589824D01*
X27441411Y-32613022D01*
X27441412Y-32613024D01*
X27441771Y-32613362D01*
X27453115Y-32627719D01*
X27453360Y-32628145D01*
X27458456Y-32632070D01*
X27473511Y-32643664D01*
X27478216Y-32647673D01*
X27496738Y-32665110D01*
X27497192Y-32665282D01*
X27513167Y-32674203D01*
X28695524Y-33584766D01*
X29572934Y-34260482D01*
X29596779Y-34301951D01*
X29584317Y-34348135D01*
X29542848Y-34371980D01*
X29534799Y-34372500D01*
X29438197Y-34372500D01*
X29316968Y-34396614D01*
X29316966Y-34396614D01*
X29316965Y-34396615D01*
X29263217Y-34418878D01*
X29215382Y-34418877D01*
X29181557Y-34385052D01*
X29178930Y-34377311D01*
X29162378Y-34315540D01*
X29162377Y-34315537D01*
X29115970Y-34235160D01*
X29115965Y-34235154D01*
X29050345Y-34169534D01*
X29050339Y-34169529D01*
X28969962Y-34123122D01*
X28969959Y-34123121D01*
X28880314Y-34099101D01*
X28880309Y-34099100D01*
X28880308Y-34099100D01*
X28787492Y-34099100D01*
X28787491Y-34099100D01*
X28787485Y-34099101D01*
X28697840Y-34123121D01*
X28697837Y-34123122D01*
X28617460Y-34169529D01*
X28617454Y-34169534D01*
X28551834Y-34235154D01*
X28551829Y-34235160D01*
X28505422Y-34315537D01*
X28505421Y-34315540D01*
X28481401Y-34405185D01*
X28481400Y-34405193D01*
X28481400Y-34498006D01*
X28481401Y-34498014D01*
X28505421Y-34587659D01*
X28505422Y-34587662D01*
X28551829Y-34668039D01*
X28551834Y-34668045D01*
X28617454Y-34733665D01*
X28617460Y-34733670D01*
X28697837Y-34780077D01*
X28697840Y-34780078D01*
X28787492Y-34804100D01*
X28787493Y-34804100D01*
X28823017Y-34804100D01*
X28867211Y-34822406D01*
X28885517Y-34866600D01*
X28884316Y-34878793D01*
X28872500Y-34938196D01*
X28872500Y-35061803D01*
X28892977Y-35164749D01*
X28896615Y-35183035D01*
X28914049Y-35225125D01*
X28943916Y-35297231D01*
X28943917Y-35297234D01*
X29012588Y-35400007D01*
X29099992Y-35487411D01*
X29202765Y-35556082D01*
X29202766Y-35556082D01*
X29202767Y-35556083D01*
X29316965Y-35603385D01*
X29438197Y-35627500D01*
X29561803Y-35627500D01*
X29683035Y-35603385D01*
X29797233Y-35556083D01*
X29900008Y-35487411D01*
X29987411Y-35400008D01*
X30056083Y-35297233D01*
X30103385Y-35183035D01*
X30127500Y-35061803D01*
X30127500Y-34938197D01*
X30103385Y-34816965D01*
X30102960Y-34815941D01*
X30102960Y-34815567D01*
X30102495Y-34814032D01*
X30102960Y-34813890D01*
X30102960Y-34768108D01*
X30136784Y-34734282D01*
X30184619Y-34734281D01*
X30198836Y-34742504D01*
X30413135Y-34907542D01*
X30436980Y-34949010D01*
X30437500Y-34957059D01*
X30437500Y-35003106D01*
X30437501Y-35003114D01*
X30461521Y-35092759D01*
X30461522Y-35092762D01*
X30486631Y-35136250D01*
X30492876Y-35183677D01*
X30463756Y-35221627D01*
X30383560Y-35267929D01*
X30383554Y-35267934D01*
X30317934Y-35333554D01*
X30317929Y-35333560D01*
X30271522Y-35413937D01*
X30271521Y-35413940D01*
X30247501Y-35503585D01*
X30247500Y-35503593D01*
X30247500Y-35596406D01*
X30247501Y-35596414D01*
X30271521Y-35686059D01*
X30271522Y-35686062D01*
X30317929Y-35766439D01*
X30317934Y-35766445D01*
X30383554Y-35832065D01*
X30383560Y-35832070D01*
X30463937Y-35878477D01*
X30463940Y-35878478D01*
X30553592Y-35902500D01*
X30553593Y-35902500D01*
X30646407Y-35902500D01*
X30646408Y-35902500D01*
X30736060Y-35878478D01*
X30816440Y-35832070D01*
X30882070Y-35766440D01*
X30928478Y-35686060D01*
X30928478Y-35686056D01*
X30929183Y-35684837D01*
X30966146Y-35655990D01*
X30969952Y-35654903D01*
X30987116Y-35652500D01*
X30990279Y-35652500D01*
X30990280Y-35652500D01*
X31013476Y-35642891D01*
X31020218Y-35640541D01*
X31029114Y-35637998D01*
X31044361Y-35633643D01*
X31046839Y-35631674D01*
X31061785Y-35622881D01*
X31064707Y-35621671D01*
X31070561Y-35615816D01*
X31090831Y-35602271D01*
X31164707Y-35571671D01*
X31280286Y-35456091D01*
X31324478Y-35437786D01*
X31368671Y-35456090D01*
X31368673Y-35456092D01*
X31399992Y-35487411D01*
X31502765Y-35556082D01*
X31502766Y-35556082D01*
X31502767Y-35556083D01*
X31616965Y-35603385D01*
X31738197Y-35627500D01*
X31861803Y-35627500D01*
X31983035Y-35603385D01*
X32061961Y-35570693D01*
X32109795Y-35570694D01*
X32143620Y-35604519D01*
X32144453Y-35650232D01*
X31778309Y-36634244D01*
X31745741Y-36669280D01*
X31731927Y-36673747D01*
X31616967Y-36696614D01*
X31502768Y-36743916D01*
X31502765Y-36743917D01*
X31399992Y-36812588D01*
X31312588Y-36899992D01*
X31243917Y-37002765D01*
X31243916Y-37002768D01*
X31217629Y-37066233D01*
X31207607Y-37090429D01*
X31196614Y-37116968D01*
X31172500Y-37238196D01*
X31172500Y-37361803D01*
X31192775Y-37463733D01*
X31196615Y-37483035D01*
X31233507Y-37572100D01*
X31243916Y-37597231D01*
X31243917Y-37597234D01*
X31312588Y-37700007D01*
X31397014Y-37784433D01*
X31415320Y-37828627D01*
X31397014Y-37872821D01*
X31352820Y-37891127D01*
X31318096Y-37880593D01*
X31314706Y-37878328D01*
X31240282Y-37847500D01*
X31240280Y-37847500D01*
X31209766Y-37847500D01*
X31170238Y-37831126D01*
X31169823Y-37831748D01*
X31166700Y-37829661D01*
X31165572Y-37829194D01*
X31164708Y-37828330D01*
X31164703Y-37828326D01*
X31090835Y-37797729D01*
X31070559Y-37784181D01*
X31064708Y-37778330D01*
X31064703Y-37778326D01*
X30990835Y-37747729D01*
X30970559Y-37734181D01*
X30964708Y-37728330D01*
X30964703Y-37728326D01*
X30890835Y-37697729D01*
X30870559Y-37684181D01*
X30864708Y-37678330D01*
X30864703Y-37678326D01*
X30790835Y-37647729D01*
X30770559Y-37634181D01*
X30764708Y-37628330D01*
X30764703Y-37628326D01*
X30690282Y-37597500D01*
X30690280Y-37597500D01*
X30659766Y-37597500D01*
X30620238Y-37581126D01*
X30619823Y-37581748D01*
X30616700Y-37579661D01*
X30615572Y-37579194D01*
X30614708Y-37578330D01*
X30614703Y-37578326D01*
X30540835Y-37547729D01*
X30520559Y-37534181D01*
X30514708Y-37528330D01*
X30514703Y-37528326D01*
X30440835Y-37497729D01*
X30420559Y-37484181D01*
X30414708Y-37478330D01*
X30414703Y-37478326D01*
X30340835Y-37447729D01*
X30320559Y-37434181D01*
X30314708Y-37428330D01*
X30314703Y-37428326D01*
X30240835Y-37397729D01*
X30220559Y-37384181D01*
X30214708Y-37378330D01*
X30214703Y-37378326D01*
X30166082Y-37358187D01*
X30132257Y-37324363D01*
X30127500Y-37300445D01*
X30127500Y-37238197D01*
X30103385Y-37116965D01*
X30056083Y-37002767D01*
X29987411Y-36899992D01*
X29900008Y-36812589D01*
X29900007Y-36812588D01*
X29797234Y-36743917D01*
X29797231Y-36743916D01*
X29769911Y-36732600D01*
X29683035Y-36696615D01*
X29683031Y-36696614D01*
X29561803Y-36672500D01*
X29438197Y-36672500D01*
X29316968Y-36696614D01*
X29316966Y-36696614D01*
X29316965Y-36696615D01*
X29294469Y-36705933D01*
X29202768Y-36743916D01*
X29202765Y-36743917D01*
X29099992Y-36812588D01*
X29012588Y-36899992D01*
X28943917Y-37002765D01*
X28943916Y-37002768D01*
X28917629Y-37066233D01*
X28907607Y-37090429D01*
X28896614Y-37116968D01*
X28872500Y-37238196D01*
X28872500Y-37361803D01*
X28892775Y-37463733D01*
X28896615Y-37483035D01*
X28933507Y-37572100D01*
X28943916Y-37597231D01*
X28943917Y-37597234D01*
X29012588Y-37700007D01*
X29099992Y-37787411D01*
X29202765Y-37856082D01*
X29202766Y-37856082D01*
X29202767Y-37856083D01*
X29316965Y-37903385D01*
X29438197Y-37927500D01*
X29561803Y-37927500D01*
X29683035Y-37903385D01*
X29797233Y-37856083D01*
X29900008Y-37787411D01*
X29916613Y-37770806D01*
X29960807Y-37752500D01*
X29990233Y-37752500D01*
X30029760Y-37768872D01*
X30030175Y-37768252D01*
X30033296Y-37770337D01*
X30034427Y-37770806D01*
X30035293Y-37771672D01*
X30081957Y-37791000D01*
X30109164Y-37802269D01*
X30129438Y-37815817D01*
X30135293Y-37821672D01*
X30181549Y-37840831D01*
X30209164Y-37852269D01*
X30229438Y-37865817D01*
X30235293Y-37871672D01*
X30283905Y-37891807D01*
X30309164Y-37902269D01*
X30329438Y-37915817D01*
X30335293Y-37921672D01*
X30380653Y-37940460D01*
X30409164Y-37952269D01*
X30429438Y-37965817D01*
X30435293Y-37971672D01*
X30481957Y-37991000D01*
X30509720Y-38002500D01*
X30509721Y-38002500D01*
X30540233Y-38002500D01*
X30579760Y-38018872D01*
X30580175Y-38018252D01*
X30583296Y-38020337D01*
X30584427Y-38020806D01*
X30585293Y-38021672D01*
X30631957Y-38041000D01*
X30659164Y-38052269D01*
X30679438Y-38065817D01*
X30685293Y-38071672D01*
X30731957Y-38091000D01*
X30759164Y-38102269D01*
X30779438Y-38115817D01*
X30785293Y-38121672D01*
X30831957Y-38141000D01*
X30859164Y-38152269D01*
X30879438Y-38165817D01*
X30885293Y-38171672D01*
X30931957Y-38191000D01*
X30959164Y-38202269D01*
X30979438Y-38215817D01*
X30985293Y-38221672D01*
X31033905Y-38241807D01*
X31059720Y-38252500D01*
X31059721Y-38252500D01*
X31090233Y-38252500D01*
X31129760Y-38268872D01*
X31130175Y-38268252D01*
X31133296Y-38270337D01*
X31134427Y-38270806D01*
X31135293Y-38271672D01*
X31187921Y-38293470D01*
X31187922Y-38293471D01*
X31209162Y-38302269D01*
X31229438Y-38315817D01*
X31235293Y-38321672D01*
X31283601Y-38341681D01*
X31309164Y-38352269D01*
X31329438Y-38365817D01*
X31335293Y-38371672D01*
X31387027Y-38393100D01*
X31409164Y-38402269D01*
X31429438Y-38415817D01*
X31435293Y-38421672D01*
X31473507Y-38437500D01*
X31509164Y-38452269D01*
X31529438Y-38465817D01*
X31535293Y-38471672D01*
X31580811Y-38490525D01*
X31587921Y-38493470D01*
X31587923Y-38493471D01*
X31609719Y-38502500D01*
X31609720Y-38502500D01*
X31609721Y-38502500D01*
X31639687Y-38502500D01*
X31677741Y-38518262D01*
X31678547Y-38517081D01*
X31680487Y-38518404D01*
X31680840Y-38518697D01*
X31684275Y-38520992D01*
X31684765Y-38521322D01*
X31685254Y-38521655D01*
X31685291Y-38521670D01*
X31685293Y-38521672D01*
X31721448Y-38536647D01*
X31721714Y-38536758D01*
X31757762Y-38552101D01*
X31757764Y-38552101D01*
X31757800Y-38552116D01*
X31758418Y-38552240D01*
X31758969Y-38552353D01*
X31759674Y-38552500D01*
X31759721Y-38552500D01*
X31798698Y-38552500D01*
X31799303Y-38552503D01*
X32005975Y-38554503D01*
X32049990Y-38573236D01*
X32067867Y-38617605D01*
X32049134Y-38661620D01*
X32005370Y-38679500D01*
X28530634Y-38679500D01*
X28520159Y-38678616D01*
X24608401Y-38013616D01*
X24589464Y-38007147D01*
X21680498Y-36455699D01*
X21668100Y-36447008D01*
X21438260Y-36240152D01*
X21391194Y-36197793D01*
X29777600Y-36197793D01*
X29777600Y-36290606D01*
X29777601Y-36290614D01*
X29801621Y-36380259D01*
X29801622Y-36380262D01*
X29848029Y-36460639D01*
X29848034Y-36460645D01*
X29913654Y-36526265D01*
X29913660Y-36526270D01*
X29994037Y-36572677D01*
X29994040Y-36572678D01*
X30083692Y-36596700D01*
X30083693Y-36596700D01*
X30176507Y-36596700D01*
X30176508Y-36596700D01*
X30266160Y-36572678D01*
X30266469Y-36572500D01*
X30324716Y-36538870D01*
X30346540Y-36526270D01*
X30412170Y-36460640D01*
X30458578Y-36380260D01*
X30482600Y-36290608D01*
X30482600Y-36197792D01*
X30458578Y-36108140D01*
X30458577Y-36108137D01*
X30412170Y-36027760D01*
X30412165Y-36027754D01*
X30346545Y-35962134D01*
X30346539Y-35962129D01*
X30266162Y-35915722D01*
X30266159Y-35915721D01*
X30176514Y-35891701D01*
X30176509Y-35891700D01*
X30176508Y-35891700D01*
X30083692Y-35891700D01*
X30083691Y-35891700D01*
X30083685Y-35891701D01*
X29994040Y-35915721D01*
X29994037Y-35915722D01*
X29913660Y-35962129D01*
X29913654Y-35962134D01*
X29848034Y-36027754D01*
X29848029Y-36027760D01*
X29801622Y-36108137D01*
X29801621Y-36108140D01*
X29777601Y-36197785D01*
X29777600Y-36197793D01*
X21391194Y-36197793D01*
X20760962Y-35630584D01*
X20745225Y-35608512D01*
X20737464Y-35590197D01*
X20490509Y-35007383D01*
X20490123Y-34959550D01*
X20523673Y-34925453D01*
X20548057Y-34920500D01*
X26239562Y-34920500D01*
X26239567Y-34920499D01*
X26262704Y-34914299D01*
X26315989Y-34900021D01*
X26384511Y-34860460D01*
X26440460Y-34804511D01*
X26480021Y-34735989D01*
X26496461Y-34674634D01*
X26500499Y-34659567D01*
X26500500Y-34659561D01*
X26500500Y-34262993D01*
X27243500Y-34262993D01*
X27243500Y-34355806D01*
X27243501Y-34355814D01*
X27267521Y-34445459D01*
X27267522Y-34445462D01*
X27313929Y-34525839D01*
X27313934Y-34525845D01*
X27379554Y-34591465D01*
X27379560Y-34591470D01*
X27459937Y-34637877D01*
X27459940Y-34637878D01*
X27549592Y-34661900D01*
X27549593Y-34661900D01*
X27642407Y-34661900D01*
X27642408Y-34661900D01*
X27732060Y-34637878D01*
X27735206Y-34636062D01*
X27756556Y-34623735D01*
X27812440Y-34591470D01*
X27878070Y-34525840D01*
X27924478Y-34445460D01*
X27948500Y-34355808D01*
X27948500Y-34262992D01*
X27924478Y-34173340D01*
X27924477Y-34173337D01*
X27878070Y-34092960D01*
X27878065Y-34092954D01*
X27812445Y-34027334D01*
X27812439Y-34027329D01*
X27732062Y-33980922D01*
X27732059Y-33980921D01*
X27642414Y-33956901D01*
X27642409Y-33956900D01*
X27642408Y-33956900D01*
X27549592Y-33956900D01*
X27549591Y-33956900D01*
X27549585Y-33956901D01*
X27459940Y-33980921D01*
X27459937Y-33980922D01*
X27379560Y-34027329D01*
X27379554Y-34027334D01*
X27313934Y-34092954D01*
X27313929Y-34092960D01*
X27267522Y-34173337D01*
X27267521Y-34173340D01*
X27243501Y-34262985D01*
X27243500Y-34262993D01*
X26500500Y-34262993D01*
X26500500Y-30813301D01*
X26518806Y-30769107D01*
X26563000Y-30750801D01*
X26607194Y-30769107D01*
G37*
%TD.AperFunction*%
%TA.AperFunction,Conductor*%
G36*
X47210656Y-33817051D02*
G01*
X47213527Y-33819339D01*
X47760178Y-34281890D01*
X47767650Y-34289386D01*
X47774470Y-34297500D01*
X47778238Y-34301982D01*
X47786754Y-34306405D01*
X47798301Y-34314148D01*
X47805627Y-34320347D01*
X47821303Y-34325360D01*
X47831063Y-34329422D01*
X47845668Y-34337009D01*
X47855219Y-34337835D01*
X47868869Y-34340574D01*
X47878001Y-34343495D01*
X47894397Y-34342128D01*
X47904974Y-34342144D01*
X53030192Y-34786062D01*
X53921095Y-34863227D01*
X53963545Y-34885278D01*
X53977969Y-34930887D01*
X53959897Y-34969688D01*
X53919026Y-35010559D01*
X53875307Y-35109573D01*
X53875306Y-35109576D01*
X53872500Y-35133764D01*
X53872500Y-35704700D01*
X53854194Y-35748894D01*
X53810000Y-35767200D01*
X47094155Y-35767200D01*
X47062907Y-35758827D01*
X47052167Y-35752627D01*
X47045210Y-35748610D01*
X47045206Y-35748609D01*
X46974640Y-35729701D01*
X46974635Y-35729700D01*
X46974634Y-35729700D01*
X46974633Y-35729700D01*
X46927875Y-35729700D01*
X46927859Y-35729699D01*
X46924034Y-35729699D01*
X46850966Y-35729699D01*
X46850963Y-35729699D01*
X46804859Y-35742054D01*
X46787976Y-35746578D01*
X46787975Y-35746578D01*
X46780393Y-35748609D01*
X46780386Y-35748612D01*
X46717114Y-35785141D01*
X46669007Y-35833248D01*
X46669006Y-35833247D01*
X46669004Y-35833250D01*
X46669004Y-35833251D01*
X46665444Y-35836811D01*
X46665442Y-35836812D01*
X46647304Y-35854951D01*
X46612162Y-35890092D01*
X46584145Y-35906267D01*
X46501839Y-35928322D01*
X46501837Y-35928322D01*
X46421460Y-35974729D01*
X46421454Y-35974734D01*
X46355834Y-36040354D01*
X46355829Y-36040360D01*
X46309422Y-36120737D01*
X46309421Y-36120740D01*
X46285401Y-36210385D01*
X46285400Y-36210393D01*
X46285400Y-36238818D01*
X46267094Y-36283012D01*
X46222900Y-36301318D01*
X46183940Y-36287689D01*
X45467840Y-35716814D01*
X45444694Y-35674951D01*
X45444300Y-35667943D01*
X45444300Y-35614893D01*
X45444298Y-35614885D01*
X45441520Y-35604519D01*
X45420278Y-35525240D01*
X45420277Y-35525237D01*
X45373870Y-35444860D01*
X45373865Y-35444854D01*
X45308245Y-35379234D01*
X45308239Y-35379229D01*
X45227862Y-35332822D01*
X45227859Y-35332821D01*
X45138214Y-35308801D01*
X45138209Y-35308800D01*
X45138208Y-35308800D01*
X45045392Y-35308800D01*
X45045391Y-35308800D01*
X45045385Y-35308801D01*
X44955740Y-35332821D01*
X44955737Y-35332822D01*
X44875360Y-35379229D01*
X44875354Y-35379234D01*
X44809734Y-35444854D01*
X44809729Y-35444860D01*
X44763322Y-35525237D01*
X44763321Y-35525240D01*
X44739301Y-35614885D01*
X44739300Y-35614893D01*
X44739300Y-35707706D01*
X44739301Y-35707714D01*
X44763321Y-35797359D01*
X44763322Y-35797362D01*
X44809729Y-35877739D01*
X44809734Y-35877745D01*
X44875354Y-35943365D01*
X44875360Y-35943370D01*
X44955737Y-35989777D01*
X44955740Y-35989778D01*
X45045392Y-36013800D01*
X45045393Y-36013800D01*
X45138208Y-36013800D01*
X45174616Y-36004044D01*
X45222043Y-36010287D01*
X45229754Y-36015543D01*
X47760745Y-38033251D01*
X47769797Y-38042108D01*
X47777592Y-38051462D01*
X47789886Y-38057915D01*
X47799793Y-38064380D01*
X47801596Y-38065817D01*
X47810646Y-38073032D01*
X47822342Y-38076399D01*
X47834090Y-38081117D01*
X47844872Y-38086776D01*
X47858696Y-38088032D01*
X47870318Y-38090213D01*
X47883664Y-38094056D01*
X47895768Y-38092689D01*
X47908422Y-38092553D01*
X52794289Y-38536722D01*
X52810109Y-38540622D01*
X52812008Y-38541000D01*
X52838506Y-38541000D01*
X52844164Y-38541256D01*
X52870543Y-38543655D01*
X52872464Y-38543451D01*
X52888576Y-38541000D01*
X53217587Y-38541000D01*
X53261781Y-38559306D01*
X53267171Y-38565452D01*
X53267929Y-38566440D01*
X53274295Y-38572806D01*
X53292601Y-38617000D01*
X53274295Y-38661194D01*
X53230101Y-38679500D01*
X35020871Y-38679500D01*
X34976677Y-38661194D01*
X34958371Y-38617000D01*
X34976677Y-38572806D01*
X34997513Y-38559029D01*
X34998468Y-38558643D01*
X35013040Y-38552773D01*
X35013042Y-38552770D01*
X35013076Y-38552757D01*
X35013628Y-38552390D01*
X35014109Y-38552072D01*
X35014675Y-38551701D01*
X35014703Y-38551672D01*
X35014707Y-38551671D01*
X35042448Y-38523928D01*
X35042578Y-38523800D01*
X35070553Y-38496363D01*
X35070553Y-38496360D01*
X35073019Y-38493943D01*
X35075846Y-38490530D01*
X35295572Y-38270806D01*
X35339766Y-38252500D01*
X39390280Y-38252500D01*
X39436005Y-38233560D01*
X39464703Y-38221673D01*
X39464703Y-38221672D01*
X39464707Y-38221671D01*
X39621671Y-38064707D01*
X39621807Y-38064380D01*
X39643537Y-38011918D01*
X39652500Y-37990280D01*
X39652500Y-37909721D01*
X39652500Y-37909720D01*
X39652500Y-37559766D01*
X39670806Y-37515572D01*
X41215572Y-35970806D01*
X41259766Y-35952500D01*
X41690280Y-35952500D01*
X41740756Y-35931592D01*
X41764703Y-35921673D01*
X41764703Y-35921672D01*
X41764707Y-35921671D01*
X41921671Y-35764707D01*
X41926675Y-35752628D01*
X41943893Y-35711059D01*
X41952500Y-35690280D01*
X41952500Y-35609721D01*
X41952500Y-35609720D01*
X41952500Y-34259766D01*
X41970806Y-34215572D01*
X42025081Y-34161297D01*
X42121672Y-34064707D01*
X42142851Y-34013573D01*
X42176674Y-33979750D01*
X42224510Y-33979749D01*
X42244787Y-33993298D01*
X42283554Y-34032065D01*
X42283560Y-34032070D01*
X42363937Y-34078477D01*
X42363940Y-34078478D01*
X42453592Y-34102500D01*
X42453593Y-34102500D01*
X42546407Y-34102500D01*
X42546408Y-34102500D01*
X42620124Y-34082748D01*
X42636057Y-34078479D01*
X42636057Y-34078478D01*
X42636060Y-34078478D01*
X42674165Y-34056476D01*
X42717291Y-34049242D01*
X43557766Y-34211914D01*
X43597677Y-34238284D01*
X43607251Y-34285151D01*
X43590084Y-34317469D01*
X41229931Y-36677622D01*
X41185737Y-36695928D01*
X41173544Y-36694727D01*
X41061803Y-36672500D01*
X40938197Y-36672500D01*
X40816968Y-36696614D01*
X40816966Y-36696614D01*
X40816965Y-36696615D01*
X40794469Y-36705933D01*
X40702768Y-36743916D01*
X40702765Y-36743917D01*
X40599992Y-36812588D01*
X40512588Y-36899992D01*
X40443917Y-37002765D01*
X40443916Y-37002768D01*
X40417629Y-37066233D01*
X40407607Y-37090429D01*
X40396614Y-37116968D01*
X40372500Y-37238196D01*
X40372500Y-37361803D01*
X40392775Y-37463733D01*
X40396615Y-37483035D01*
X40433507Y-37572100D01*
X40443916Y-37597231D01*
X40443917Y-37597234D01*
X40512588Y-37700007D01*
X40599992Y-37787411D01*
X40702765Y-37856082D01*
X40702766Y-37856082D01*
X40702767Y-37856083D01*
X40816965Y-37903385D01*
X40938197Y-37927500D01*
X41061803Y-37927500D01*
X41183035Y-37903385D01*
X41297233Y-37856083D01*
X41400008Y-37787411D01*
X41487411Y-37700008D01*
X41556083Y-37597233D01*
X41603385Y-37483035D01*
X41627500Y-37361803D01*
X41627500Y-37238197D01*
X41605272Y-37126452D01*
X41614604Y-37079537D01*
X41622372Y-37070071D01*
X42688850Y-36003593D01*
X43472500Y-36003593D01*
X43472500Y-36096406D01*
X43472501Y-36096414D01*
X43496521Y-36186059D01*
X43496522Y-36186062D01*
X43542929Y-36266439D01*
X43542934Y-36266445D01*
X43608554Y-36332065D01*
X43608560Y-36332070D01*
X43688937Y-36378477D01*
X43688940Y-36378478D01*
X43778592Y-36402500D01*
X43778593Y-36402500D01*
X43871406Y-36402500D01*
X43871408Y-36402500D01*
X43871409Y-36402499D01*
X43875468Y-36401965D01*
X43875745Y-36404069D01*
X43916327Y-36409392D01*
X43928819Y-36418866D01*
X44352743Y-36833771D01*
X44407757Y-36887614D01*
X44426537Y-36931609D01*
X44421784Y-36956198D01*
X44396615Y-37016964D01*
X44372500Y-37138196D01*
X44372500Y-37261803D01*
X44393325Y-37366498D01*
X44396615Y-37383035D01*
X44434119Y-37473578D01*
X44443916Y-37497231D01*
X44443917Y-37497234D01*
X44512588Y-37600007D01*
X44599992Y-37687411D01*
X44702765Y-37756082D01*
X44702766Y-37756082D01*
X44702767Y-37756083D01*
X44816965Y-37803385D01*
X44938197Y-37827500D01*
X45061803Y-37827500D01*
X45183035Y-37803385D01*
X45297233Y-37756083D01*
X45400008Y-37687411D01*
X45487411Y-37600008D01*
X45556083Y-37497233D01*
X45603385Y-37383035D01*
X45627500Y-37261803D01*
X45627500Y-37138197D01*
X45603385Y-37016965D01*
X45556083Y-36902767D01*
X45487411Y-36799992D01*
X45400008Y-36712589D01*
X45400007Y-36712588D01*
X45297234Y-36643917D01*
X45297231Y-36643916D01*
X45257601Y-36627501D01*
X45183035Y-36596615D01*
X45183031Y-36596614D01*
X45061803Y-36572500D01*
X44938197Y-36572500D01*
X44816964Y-36596615D01*
X44742396Y-36627501D01*
X44694561Y-36627500D01*
X44674763Y-36614425D01*
X44196172Y-36146017D01*
X44177392Y-36102022D01*
X44177500Y-36100238D01*
X44177500Y-36003593D01*
X44177498Y-36003585D01*
X44173798Y-35989778D01*
X44153478Y-35913940D01*
X44153477Y-35913937D01*
X44107070Y-35833560D01*
X44107065Y-35833554D01*
X44041445Y-35767934D01*
X44041439Y-35767929D01*
X43961062Y-35721522D01*
X43961059Y-35721521D01*
X43871414Y-35697501D01*
X43871409Y-35697500D01*
X43871408Y-35697500D01*
X43778592Y-35697500D01*
X43778591Y-35697500D01*
X43778585Y-35697501D01*
X43688940Y-35721521D01*
X43688937Y-35721522D01*
X43608560Y-35767929D01*
X43608554Y-35767934D01*
X43542934Y-35833554D01*
X43542929Y-35833560D01*
X43496522Y-35913937D01*
X43496521Y-35913940D01*
X43472501Y-36003585D01*
X43472500Y-36003593D01*
X42688850Y-36003593D01*
X43738850Y-34953593D01*
X45584400Y-34953593D01*
X45584400Y-35046406D01*
X45584401Y-35046414D01*
X45608421Y-35136059D01*
X45608422Y-35136062D01*
X45654829Y-35216439D01*
X45654834Y-35216445D01*
X45720454Y-35282065D01*
X45720460Y-35282070D01*
X45800837Y-35328477D01*
X45800840Y-35328478D01*
X45890492Y-35352500D01*
X45890493Y-35352500D01*
X45983307Y-35352500D01*
X45983308Y-35352500D01*
X46072960Y-35328478D01*
X46153340Y-35282070D01*
X46218970Y-35216440D01*
X46262753Y-35140606D01*
X46265377Y-35136062D01*
X46265378Y-35136059D01*
X46265399Y-35135982D01*
X46289400Y-35046408D01*
X46289400Y-34953592D01*
X46265378Y-34863940D01*
X46265377Y-34863937D01*
X46218970Y-34783560D01*
X46218965Y-34783554D01*
X46153345Y-34717934D01*
X46153339Y-34717929D01*
X46072962Y-34671522D01*
X46072959Y-34671521D01*
X45983314Y-34647501D01*
X45983309Y-34647500D01*
X45983308Y-34647500D01*
X45890492Y-34647500D01*
X45890491Y-34647500D01*
X45890485Y-34647501D01*
X45800840Y-34671521D01*
X45800837Y-34671522D01*
X45720460Y-34717929D01*
X45720454Y-34717934D01*
X45654834Y-34783554D01*
X45654829Y-34783560D01*
X45608422Y-34863937D01*
X45608421Y-34863940D01*
X45584401Y-34953585D01*
X45584400Y-34953593D01*
X43738850Y-34953593D01*
X44460078Y-34232365D01*
X44504271Y-34214060D01*
X44548465Y-34232366D01*
X44564641Y-34260382D01*
X44571522Y-34286062D01*
X44617929Y-34366439D01*
X44617934Y-34366445D01*
X44683554Y-34432065D01*
X44683560Y-34432070D01*
X44763937Y-34478477D01*
X44763940Y-34478478D01*
X44853592Y-34502500D01*
X44853593Y-34502500D01*
X44946407Y-34502500D01*
X44946408Y-34502500D01*
X45036060Y-34478478D01*
X45041875Y-34475121D01*
X45076979Y-34454853D01*
X45116440Y-34432070D01*
X45182070Y-34366440D01*
X45220839Y-34299291D01*
X45228477Y-34286062D01*
X45228478Y-34286059D01*
X45228574Y-34285700D01*
X45252500Y-34196408D01*
X45252500Y-34132501D01*
X45270806Y-34088307D01*
X45306159Y-34070629D01*
X47164317Y-33805179D01*
X47210656Y-33817051D01*
G37*
%TD.AperFunction*%
%TA.AperFunction,Conductor*%
G36*
X54481694Y-21418806D02*
G01*
X54500000Y-21463000D01*
X54500000Y-21687500D01*
X54481694Y-21731694D01*
X54437500Y-21750000D01*
X53550000Y-21750000D01*
X53550000Y-25550000D01*
X54500000Y-25550000D01*
X65387000Y-25550000D01*
X65431194Y-25568306D01*
X65449500Y-25612500D01*
X65449500Y-29636801D01*
X65431194Y-29680995D01*
X65387000Y-29699301D01*
X65342806Y-29680995D01*
X65274945Y-29613134D01*
X65274939Y-29613129D01*
X65194562Y-29566722D01*
X65194559Y-29566721D01*
X65104914Y-29542701D01*
X65104909Y-29542700D01*
X65104908Y-29542700D01*
X65012092Y-29542700D01*
X65012091Y-29542700D01*
X65012085Y-29542701D01*
X64922440Y-29566721D01*
X64922437Y-29566722D01*
X64842060Y-29613129D01*
X64842054Y-29613134D01*
X64776434Y-29678754D01*
X64776429Y-29678760D01*
X64730022Y-29759137D01*
X64730021Y-29759140D01*
X64706001Y-29848785D01*
X64706000Y-29848793D01*
X64706000Y-29941606D01*
X64706001Y-29941614D01*
X64730021Y-30031259D01*
X64730022Y-30031262D01*
X64776429Y-30111639D01*
X64776434Y-30111645D01*
X64842054Y-30177265D01*
X64842060Y-30177270D01*
X64922437Y-30223677D01*
X64922440Y-30223678D01*
X65012092Y-30247700D01*
X65012093Y-30247700D01*
X65104907Y-30247700D01*
X65104908Y-30247700D01*
X65194560Y-30223678D01*
X65274940Y-30177270D01*
X65305804Y-30146406D01*
X65342806Y-30109405D01*
X65387000Y-30091099D01*
X65431194Y-30109405D01*
X65449500Y-30153599D01*
X65449500Y-33014901D01*
X65431194Y-33059095D01*
X65387000Y-33077401D01*
X65342806Y-33059095D01*
X65274945Y-32991234D01*
X65274939Y-32991229D01*
X65194562Y-32944822D01*
X65194559Y-32944821D01*
X65104914Y-32920801D01*
X65104909Y-32920800D01*
X65104908Y-32920800D01*
X65012092Y-32920800D01*
X65012091Y-32920800D01*
X65012085Y-32920801D01*
X64922440Y-32944821D01*
X64922437Y-32944822D01*
X64842060Y-32991229D01*
X64842054Y-32991234D01*
X64776434Y-33056854D01*
X64776429Y-33056860D01*
X64730022Y-33137237D01*
X64730021Y-33137240D01*
X64706001Y-33226885D01*
X64706000Y-33226893D01*
X64706000Y-33319706D01*
X64706001Y-33319714D01*
X64730021Y-33409359D01*
X64730022Y-33409362D01*
X64776429Y-33489739D01*
X64776434Y-33489745D01*
X64842054Y-33555365D01*
X64842060Y-33555370D01*
X64922437Y-33601777D01*
X64922440Y-33601778D01*
X65012092Y-33625800D01*
X65012093Y-33625800D01*
X65104907Y-33625800D01*
X65104908Y-33625800D01*
X65194560Y-33601778D01*
X65274940Y-33555370D01*
X65299022Y-33531288D01*
X65342806Y-33487505D01*
X65387000Y-33469199D01*
X65431194Y-33487505D01*
X65449500Y-33531699D01*
X65449500Y-37556451D01*
X65432596Y-37599197D01*
X64835919Y-38235653D01*
X64813535Y-38250937D01*
X63753305Y-38675030D01*
X63730093Y-38679500D01*
X63382784Y-38679500D01*
X63338590Y-38661194D01*
X63320284Y-38617000D01*
X63327494Y-38590091D01*
X63326909Y-38589849D01*
X63328478Y-38586059D01*
X63332029Y-38572806D01*
X63352500Y-38496408D01*
X63352500Y-38403592D01*
X63328478Y-38313940D01*
X63328477Y-38313937D01*
X63282070Y-38233560D01*
X63282065Y-38233554D01*
X63216445Y-38167934D01*
X63216439Y-38167929D01*
X63136062Y-38121522D01*
X63136059Y-38121521D01*
X63046414Y-38097501D01*
X63046409Y-38097500D01*
X63046408Y-38097500D01*
X62953592Y-38097500D01*
X62953591Y-38097500D01*
X62953585Y-38097501D01*
X62863940Y-38121521D01*
X62863937Y-38121522D01*
X62783560Y-38167929D01*
X62783554Y-38167934D01*
X62717934Y-38233554D01*
X62717929Y-38233560D01*
X62671522Y-38313937D01*
X62671521Y-38313940D01*
X62647501Y-38403585D01*
X62647500Y-38403593D01*
X62647500Y-38496406D01*
X62647501Y-38496414D01*
X62671521Y-38586059D01*
X62673091Y-38589849D01*
X62671944Y-38590323D01*
X62677587Y-38633175D01*
X62648467Y-38671126D01*
X62617216Y-38679500D01*
X53869899Y-38679500D01*
X53825705Y-38661194D01*
X53807399Y-38617000D01*
X53825705Y-38572806D01*
X53832065Y-38566445D01*
X53832070Y-38566440D01*
X53872505Y-38496406D01*
X53878477Y-38486062D01*
X53878478Y-38486059D01*
X53887532Y-38452269D01*
X53902500Y-38396408D01*
X53902500Y-38303592D01*
X53878478Y-38213940D01*
X53878477Y-38213937D01*
X53832070Y-38133560D01*
X53832065Y-38133554D01*
X53766445Y-38067934D01*
X53766439Y-38067929D01*
X53686062Y-38021522D01*
X53686059Y-38021521D01*
X53596414Y-37997501D01*
X53596409Y-37997500D01*
X53596408Y-37997500D01*
X53503592Y-37997500D01*
X53503591Y-37997500D01*
X53503585Y-37997501D01*
X53413940Y-38021521D01*
X53413937Y-38021522D01*
X53333560Y-38067929D01*
X53333554Y-38067934D01*
X53267929Y-38133559D01*
X53267171Y-38134548D01*
X53266626Y-38134862D01*
X53265033Y-38136456D01*
X53264605Y-38136028D01*
X53225744Y-38158465D01*
X53217587Y-38159000D01*
X52861496Y-38159000D01*
X52855837Y-38158743D01*
X52017657Y-38082544D01*
X51975302Y-38060312D01*
X51961073Y-38014642D01*
X51969189Y-37989052D01*
X51990778Y-37951660D01*
X52014800Y-37862008D01*
X52014800Y-37769192D01*
X51990778Y-37679540D01*
X51990777Y-37679537D01*
X51944370Y-37599160D01*
X51944365Y-37599154D01*
X51878745Y-37533534D01*
X51878739Y-37533529D01*
X51798362Y-37487122D01*
X51798359Y-37487121D01*
X51708714Y-37463101D01*
X51708709Y-37463100D01*
X51708708Y-37463100D01*
X51615892Y-37463100D01*
X51615891Y-37463100D01*
X51615885Y-37463101D01*
X51526240Y-37487121D01*
X51526237Y-37487122D01*
X51445860Y-37533529D01*
X51445854Y-37533534D01*
X51380234Y-37599154D01*
X51380229Y-37599160D01*
X51333822Y-37679537D01*
X51333821Y-37679540D01*
X51309801Y-37769185D01*
X51309800Y-37769193D01*
X51309800Y-37862006D01*
X51309801Y-37862014D01*
X51329508Y-37935563D01*
X51323264Y-37982989D01*
X51285314Y-38012109D01*
X51263480Y-38013982D01*
X47992956Y-37716662D01*
X47959654Y-37703290D01*
X46997850Y-36936540D01*
X46708578Y-36705932D01*
X46685433Y-36664070D01*
X46698668Y-36618102D01*
X46731363Y-36596692D01*
X46752102Y-36591134D01*
X46773960Y-36585278D01*
X46854340Y-36538870D01*
X46919970Y-36473240D01*
X46960081Y-36403766D01*
X46966377Y-36392862D01*
X46966378Y-36392859D01*
X46969754Y-36380262D01*
X46987623Y-36313572D01*
X47016743Y-36275622D01*
X47031820Y-36269377D01*
X47042429Y-36266534D01*
X47045211Y-36265789D01*
X47062906Y-36255572D01*
X47094155Y-36247200D01*
X53837838Y-36247200D01*
X53882032Y-36265506D01*
X53900338Y-36309700D01*
X53895013Y-36334941D01*
X53878036Y-36373391D01*
X53875307Y-36379573D01*
X53875306Y-36379576D01*
X53872500Y-36403764D01*
X53872500Y-36732600D01*
X53854194Y-36776794D01*
X53810000Y-36795100D01*
X53281402Y-36795100D01*
X53250151Y-36786726D01*
X53176362Y-36744122D01*
X53176359Y-36744121D01*
X53086714Y-36720101D01*
X53086709Y-36720100D01*
X53086708Y-36720100D01*
X52993892Y-36720100D01*
X52993891Y-36720100D01*
X52993885Y-36720101D01*
X52904240Y-36744121D01*
X52904237Y-36744122D01*
X52823860Y-36790529D01*
X52823854Y-36790534D01*
X52758234Y-36856154D01*
X52758229Y-36856160D01*
X52711822Y-36936537D01*
X52711821Y-36936540D01*
X52687801Y-37026185D01*
X52687800Y-37026193D01*
X52687800Y-37119006D01*
X52687801Y-37119014D01*
X52711821Y-37208659D01*
X52711822Y-37208662D01*
X52758229Y-37289039D01*
X52758234Y-37289045D01*
X52823854Y-37354665D01*
X52823860Y-37354670D01*
X52904237Y-37401077D01*
X52904240Y-37401078D01*
X52993892Y-37425100D01*
X52993893Y-37425100D01*
X53086707Y-37425100D01*
X53086708Y-37425100D01*
X53176360Y-37401078D01*
X53186195Y-37395400D01*
X53232947Y-37368407D01*
X53250151Y-37358473D01*
X53281402Y-37350100D01*
X54522025Y-37350100D01*
X54522041Y-37350101D01*
X54592367Y-37350101D01*
X54636561Y-37368407D01*
X54654867Y-37412601D01*
X54646493Y-37443851D01*
X54613824Y-37500434D01*
X54613821Y-37500440D01*
X54589801Y-37590085D01*
X54589800Y-37590093D01*
X54589800Y-37682906D01*
X54589801Y-37682914D01*
X54613821Y-37772559D01*
X54613822Y-37772562D01*
X54660229Y-37852939D01*
X54660234Y-37852945D01*
X54725854Y-37918565D01*
X54725860Y-37918570D01*
X54806237Y-37964977D01*
X54806240Y-37964978D01*
X54895892Y-37989000D01*
X54895893Y-37989000D01*
X54988707Y-37989000D01*
X54988708Y-37989000D01*
X55078360Y-37964978D01*
X55158740Y-37918570D01*
X55224370Y-37852940D01*
X55270778Y-37772560D01*
X55294800Y-37682908D01*
X55294800Y-37590092D01*
X55291648Y-37578330D01*
X55287587Y-37563173D01*
X55287587Y-37563172D01*
X55284350Y-37551093D01*
X56497700Y-37551093D01*
X56497700Y-37643906D01*
X56497701Y-37643914D01*
X56521721Y-37733559D01*
X56521722Y-37733562D01*
X56568129Y-37813939D01*
X56568134Y-37813945D01*
X56633754Y-37879565D01*
X56633760Y-37879570D01*
X56714137Y-37925977D01*
X56714140Y-37925978D01*
X56803792Y-37950000D01*
X56803793Y-37950000D01*
X56896607Y-37950000D01*
X56896608Y-37950000D01*
X56986260Y-37925978D01*
X57066640Y-37879570D01*
X57132270Y-37813940D01*
X57138211Y-37803651D01*
X58572500Y-37803651D01*
X58572500Y-38196348D01*
X58588019Y-38274371D01*
X58588020Y-38274373D01*
X58647143Y-38362857D01*
X58735627Y-38421980D01*
X58813652Y-38437500D01*
X59146348Y-38437500D01*
X59224373Y-38421980D01*
X59312857Y-38362857D01*
X59371980Y-38274373D01*
X59378557Y-38241306D01*
X59405133Y-38201533D01*
X59439856Y-38191000D01*
X59987989Y-38191000D01*
X59987992Y-38191000D01*
X60058193Y-38161922D01*
X60058195Y-38161919D01*
X60058197Y-38161919D01*
X60063313Y-38158501D01*
X60063539Y-38158839D01*
X60077002Y-38149840D01*
X60098251Y-38141040D01*
X60108189Y-38136924D01*
X60108190Y-38136923D01*
X60108193Y-38136922D01*
X60108195Y-38136919D01*
X60113312Y-38133501D01*
X60113538Y-38133839D01*
X60127002Y-38124840D01*
X60141988Y-38118633D01*
X60158189Y-38111924D01*
X60158190Y-38111923D01*
X60158193Y-38111922D01*
X60158195Y-38111919D01*
X60163312Y-38108501D01*
X60163537Y-38108838D01*
X60177003Y-38099840D01*
X60186865Y-38095755D01*
X60210779Y-38091000D01*
X60212989Y-38091000D01*
X60212992Y-38091000D01*
X60283193Y-38061922D01*
X60283195Y-38061919D01*
X60283197Y-38061919D01*
X60288313Y-38058501D01*
X60288539Y-38058839D01*
X60302002Y-38049840D01*
X60320670Y-38042109D01*
X60333189Y-38036924D01*
X60333190Y-38036923D01*
X60333193Y-38036922D01*
X60333195Y-38036919D01*
X60338312Y-38033501D01*
X60338538Y-38033839D01*
X60352002Y-38024840D01*
X60367910Y-38018252D01*
X60383189Y-38011924D01*
X60383190Y-38011923D01*
X60383193Y-38011922D01*
X60383195Y-38011919D01*
X60388312Y-38008501D01*
X60388538Y-38008839D01*
X60396387Y-38003593D01*
X61797500Y-38003593D01*
X61797500Y-38096406D01*
X61797501Y-38096414D01*
X61821521Y-38186059D01*
X61821522Y-38186062D01*
X61867929Y-38266439D01*
X61867934Y-38266445D01*
X61933554Y-38332065D01*
X61933560Y-38332070D01*
X62013937Y-38378477D01*
X62013940Y-38378478D01*
X62103592Y-38402500D01*
X62103593Y-38402500D01*
X62196407Y-38402500D01*
X62196408Y-38402500D01*
X62286060Y-38378478D01*
X62366440Y-38332070D01*
X62432070Y-38266440D01*
X62475626Y-38191000D01*
X62478477Y-38186062D01*
X62478478Y-38186059D01*
X62502500Y-38096408D01*
X62502500Y-38003592D01*
X62478478Y-37913940D01*
X62478477Y-37913937D01*
X62432070Y-37833560D01*
X62432065Y-37833554D01*
X62366445Y-37767934D01*
X62366439Y-37767929D01*
X62286062Y-37721522D01*
X62286059Y-37721521D01*
X62196414Y-37697501D01*
X62196409Y-37697500D01*
X62196408Y-37697500D01*
X62103592Y-37697500D01*
X62103591Y-37697500D01*
X62103585Y-37697501D01*
X62013940Y-37721521D01*
X62013937Y-37721522D01*
X61933560Y-37767929D01*
X61933554Y-37767934D01*
X61867934Y-37833554D01*
X61867929Y-37833560D01*
X61821522Y-37913937D01*
X61821521Y-37913940D01*
X61797501Y-38003585D01*
X61797500Y-38003593D01*
X60396387Y-38003593D01*
X60402002Y-37999840D01*
X60416988Y-37993633D01*
X60433189Y-37986924D01*
X60433190Y-37986923D01*
X60433193Y-37986922D01*
X60433195Y-37986919D01*
X60438312Y-37983501D01*
X60438537Y-37983838D01*
X60452003Y-37974840D01*
X60461865Y-37970755D01*
X60485779Y-37966000D01*
X60562990Y-37966000D01*
X60562992Y-37966000D01*
X60633193Y-37936922D01*
X60637926Y-37932188D01*
X60645590Y-37927935D01*
X60647741Y-37927688D01*
X60652002Y-37924840D01*
X60672087Y-37916522D01*
X60683189Y-37911924D01*
X60683190Y-37911923D01*
X60683193Y-37911922D01*
X60683195Y-37911919D01*
X60688312Y-37908501D01*
X60688538Y-37908839D01*
X60702000Y-37899841D01*
X60733193Y-37886922D01*
X60781724Y-37838389D01*
X60802002Y-37824841D01*
X60833193Y-37811922D01*
X60833197Y-37811917D01*
X60838312Y-37808501D01*
X60838538Y-37808839D01*
X60852002Y-37799840D01*
X60872145Y-37791498D01*
X60883189Y-37786924D01*
X60883190Y-37786923D01*
X60883193Y-37786922D01*
X60883195Y-37786919D01*
X60888312Y-37783501D01*
X60888538Y-37783839D01*
X60902002Y-37774840D01*
X60922145Y-37766498D01*
X60933189Y-37761924D01*
X60933190Y-37761923D01*
X60933193Y-37761922D01*
X60933195Y-37761919D01*
X60938312Y-37758501D01*
X60938538Y-37758839D01*
X60952002Y-37749840D01*
X60972145Y-37741498D01*
X60983189Y-37736924D01*
X60983190Y-37736923D01*
X60983193Y-37736922D01*
X60983195Y-37736919D01*
X60988312Y-37733501D01*
X60988537Y-37733838D01*
X61002003Y-37724840D01*
X61011865Y-37720755D01*
X61035779Y-37716000D01*
X61037991Y-37716000D01*
X61037992Y-37716000D01*
X61041149Y-37714691D01*
X61088983Y-37714687D01*
X61096321Y-37718306D01*
X61113934Y-37728475D01*
X61113937Y-37728476D01*
X61113940Y-37728478D01*
X61113941Y-37728478D01*
X61113943Y-37728479D01*
X61155306Y-37739562D01*
X61203592Y-37752500D01*
X61203593Y-37752500D01*
X61296407Y-37752500D01*
X61296408Y-37752500D01*
X61386060Y-37728478D01*
X61386317Y-37728330D01*
X61421251Y-37708160D01*
X61466440Y-37682070D01*
X61532070Y-37616440D01*
X61571873Y-37547500D01*
X61578477Y-37536062D01*
X61578478Y-37536059D01*
X61578981Y-37534181D01*
X61602500Y-37446408D01*
X61602500Y-37353592D01*
X61578478Y-37263940D01*
X61578477Y-37263937D01*
X61532070Y-37183560D01*
X61532065Y-37183554D01*
X61466445Y-37117934D01*
X61466439Y-37117929D01*
X61386062Y-37071522D01*
X61386059Y-37071521D01*
X61296414Y-37047501D01*
X61296409Y-37047500D01*
X61296408Y-37047500D01*
X61203592Y-37047500D01*
X61203591Y-37047500D01*
X61203585Y-37047501D01*
X61113940Y-37071521D01*
X61113937Y-37071522D01*
X61033560Y-37117929D01*
X61033554Y-37117934D01*
X60967934Y-37183554D01*
X60967929Y-37183560D01*
X60921522Y-37263937D01*
X60921521Y-37263941D01*
X60909570Y-37308542D01*
X60880449Y-37346492D01*
X60873120Y-37350107D01*
X60841805Y-37363079D01*
X60836688Y-37366498D01*
X60836463Y-37366162D01*
X60823000Y-37375157D01*
X60791806Y-37388078D01*
X60786688Y-37391498D01*
X60786463Y-37391162D01*
X60773000Y-37400157D01*
X60741806Y-37413078D01*
X60736688Y-37416498D01*
X60736463Y-37416162D01*
X60723000Y-37425157D01*
X60691806Y-37438078D01*
X60686688Y-37441498D01*
X60686463Y-37441162D01*
X60673000Y-37450157D01*
X60641806Y-37463078D01*
X60640825Y-37463733D01*
X60636581Y-37467414D01*
X60630275Y-37472143D01*
X60591807Y-37488078D01*
X60540135Y-37539748D01*
X60536579Y-37542416D01*
X60533343Y-37543244D01*
X60522997Y-37550158D01*
X60491808Y-37563077D01*
X60486688Y-37566498D01*
X60486463Y-37566162D01*
X60473003Y-37575155D01*
X60463140Y-37579241D01*
X60439219Y-37584000D01*
X60437992Y-37584000D01*
X60362008Y-37584000D01*
X60323364Y-37600007D01*
X60291805Y-37613079D01*
X60286688Y-37616498D01*
X60286463Y-37616162D01*
X60273000Y-37625157D01*
X60241806Y-37638078D01*
X60236688Y-37641498D01*
X60236463Y-37641162D01*
X60223000Y-37650157D01*
X60191806Y-37663078D01*
X60186688Y-37666498D01*
X60186463Y-37666162D01*
X60173000Y-37675157D01*
X60141806Y-37688078D01*
X60136688Y-37691498D01*
X60136463Y-37691162D01*
X60123003Y-37700155D01*
X60113140Y-37704241D01*
X60089219Y-37709000D01*
X60087008Y-37709000D01*
X60026216Y-37734181D01*
X60016805Y-37738079D01*
X60011688Y-37741498D01*
X60011463Y-37741162D01*
X59998000Y-37750157D01*
X59966806Y-37763078D01*
X59961688Y-37766498D01*
X59961463Y-37766162D01*
X59948000Y-37775157D01*
X59916806Y-37788078D01*
X59911688Y-37791498D01*
X59911463Y-37791162D01*
X59898003Y-37800155D01*
X59888140Y-37804241D01*
X59864219Y-37809000D01*
X59439856Y-37809000D01*
X59395662Y-37790694D01*
X59378557Y-37758693D01*
X59374457Y-37738079D01*
X59371980Y-37725627D01*
X59312857Y-37637143D01*
X59233323Y-37584000D01*
X59224375Y-37578021D01*
X59224371Y-37578019D01*
X59146348Y-37562500D01*
X58813652Y-37562500D01*
X58735628Y-37578019D01*
X58735624Y-37578021D01*
X58647143Y-37637143D01*
X58588021Y-37725624D01*
X58588019Y-37725628D01*
X58572500Y-37803651D01*
X57138211Y-37803651D01*
X57152830Y-37778330D01*
X57158026Y-37769331D01*
X57158027Y-37769330D01*
X57178675Y-37733565D01*
X57178677Y-37733562D01*
X57178678Y-37733560D01*
X57202700Y-37643908D01*
X57202700Y-37551092D01*
X57178678Y-37461440D01*
X57178677Y-37461437D01*
X57132270Y-37381060D01*
X57132265Y-37381054D01*
X57066645Y-37315434D01*
X57066639Y-37315429D01*
X56986262Y-37269022D01*
X56986259Y-37269021D01*
X56896614Y-37245001D01*
X56896609Y-37245000D01*
X56896608Y-37245000D01*
X56803792Y-37245000D01*
X56803791Y-37245000D01*
X56803785Y-37245001D01*
X56714140Y-37269021D01*
X56714137Y-37269022D01*
X56633760Y-37315429D01*
X56633754Y-37315434D01*
X56568134Y-37381054D01*
X56568129Y-37381060D01*
X56521722Y-37461437D01*
X56521721Y-37461440D01*
X56497701Y-37551085D01*
X56497700Y-37551093D01*
X55284350Y-37551093D01*
X55270778Y-37500440D01*
X55270777Y-37500437D01*
X55224370Y-37420060D01*
X55224365Y-37420054D01*
X55223505Y-37419194D01*
X55223269Y-37418626D01*
X55221874Y-37416807D01*
X55222361Y-37416433D01*
X55205199Y-37375000D01*
X55223505Y-37330806D01*
X55267699Y-37312500D01*
X55681233Y-37312500D01*
X55681235Y-37312499D01*
X55705423Y-37309693D01*
X55705424Y-37309692D01*
X55705429Y-37309692D01*
X55804441Y-37265974D01*
X55880974Y-37189441D01*
X55924692Y-37090429D01*
X55927055Y-37070066D01*
X55927499Y-37066235D01*
X55927500Y-37066233D01*
X55927500Y-36403766D01*
X55927499Y-36403764D01*
X55924693Y-36379576D01*
X55924692Y-36379573D01*
X55924692Y-36379571D01*
X55880974Y-36280559D01*
X55804441Y-36204026D01*
X55705429Y-36160308D01*
X55705425Y-36160307D01*
X55705423Y-36160306D01*
X55701129Y-36158410D01*
X55701598Y-36157347D01*
X55667588Y-36131041D01*
X55661527Y-36083591D01*
X55690794Y-36045753D01*
X55705424Y-36039692D01*
X55705429Y-36039692D01*
X55804441Y-35995974D01*
X55880974Y-35919441D01*
X55924692Y-35820429D01*
X55924917Y-35818494D01*
X55927499Y-35796235D01*
X55927500Y-35796233D01*
X55927500Y-35133766D01*
X55927499Y-35133764D01*
X55924693Y-35109576D01*
X55924692Y-35109573D01*
X55924692Y-35109571D01*
X55880974Y-35010559D01*
X55804441Y-34934026D01*
X55705429Y-34890308D01*
X55705428Y-34890307D01*
X55705426Y-34890307D01*
X55705423Y-34890306D01*
X55681234Y-34887500D01*
X55681226Y-34887500D01*
X55111899Y-34887500D01*
X55067705Y-34869194D01*
X55049399Y-34825000D01*
X55067705Y-34780806D01*
X55132065Y-34716445D01*
X55132070Y-34716440D01*
X55169670Y-34651315D01*
X55178477Y-34636062D01*
X55178478Y-34636059D01*
X55183427Y-34617589D01*
X55202500Y-34546408D01*
X55202500Y-34453592D01*
X55178478Y-34363940D01*
X55178477Y-34363937D01*
X55132070Y-34283560D01*
X55132065Y-34283554D01*
X55118807Y-34270296D01*
X55100501Y-34226102D01*
X55118807Y-34181908D01*
X55163001Y-34163602D01*
X55166936Y-34163726D01*
X56835265Y-34269412D01*
X56878213Y-34290475D01*
X56893688Y-34335738D01*
X56875508Y-34375981D01*
X56817929Y-34433560D01*
X56771522Y-34513937D01*
X56771521Y-34513940D01*
X56747501Y-34603585D01*
X56747500Y-34603593D01*
X56747500Y-34696406D01*
X56747501Y-34696414D01*
X56771521Y-34786059D01*
X56771522Y-34786062D01*
X56817929Y-34866439D01*
X56817934Y-34866445D01*
X56883554Y-34932065D01*
X56883560Y-34932070D01*
X56963937Y-34978477D01*
X56963940Y-34978478D01*
X57053592Y-35002500D01*
X57053593Y-35002500D01*
X57146407Y-35002500D01*
X57146408Y-35002500D01*
X57236060Y-34978478D01*
X57316440Y-34932070D01*
X57382070Y-34866440D01*
X57425803Y-34790694D01*
X57428477Y-34786062D01*
X57428478Y-34786059D01*
X57430081Y-34780077D01*
X57452500Y-34696408D01*
X57452500Y-34603592D01*
X57446296Y-34580438D01*
X57437725Y-34548449D01*
X57443968Y-34501023D01*
X57481919Y-34471903D01*
X57529345Y-34478146D01*
X57537136Y-34483468D01*
X57704042Y-34616992D01*
X57705481Y-34618179D01*
X57710505Y-34622453D01*
X57737451Y-34645377D01*
X57737457Y-34645379D01*
X57740893Y-34647602D01*
X57740823Y-34647709D01*
X57743372Y-34649304D01*
X57743439Y-34649195D01*
X57746945Y-34651315D01*
X57746946Y-34651315D01*
X57746948Y-34651317D01*
X57785412Y-34668168D01*
X57787054Y-34668918D01*
X57824990Y-34686923D01*
X57824994Y-34686923D01*
X57828892Y-34688182D01*
X57828852Y-34688305D01*
X57831725Y-34689184D01*
X57831762Y-34689060D01*
X57835690Y-34690197D01*
X57835700Y-34690202D01*
X57863508Y-34694437D01*
X57877188Y-34696521D01*
X57879017Y-34696828D01*
X58375544Y-34787857D01*
X58415712Y-34813832D01*
X58425748Y-34860602D01*
X58418400Y-34880582D01*
X58373621Y-34958140D01*
X58349601Y-35047785D01*
X58349600Y-35047793D01*
X58349600Y-35140606D01*
X58349601Y-35140614D01*
X58373621Y-35230259D01*
X58373622Y-35230262D01*
X58420029Y-35310639D01*
X58420034Y-35310645D01*
X58485654Y-35376265D01*
X58485660Y-35376270D01*
X58566037Y-35422677D01*
X58566040Y-35422678D01*
X58655692Y-35446700D01*
X58655693Y-35446700D01*
X58748507Y-35446700D01*
X58748508Y-35446700D01*
X58838160Y-35422678D01*
X58918540Y-35376270D01*
X58984170Y-35310640D01*
X59030578Y-35230260D01*
X59054600Y-35140608D01*
X59054600Y-35047792D01*
X59042016Y-35000828D01*
X59048259Y-34953403D01*
X59086209Y-34924282D01*
X59113652Y-34923177D01*
X62337073Y-35514137D01*
X62356474Y-35521156D01*
X62390345Y-35540234D01*
X62841612Y-35794413D01*
X62935469Y-35818494D01*
X63032359Y-35817464D01*
X63075563Y-35805393D01*
X63123052Y-35811132D01*
X63152575Y-35848770D01*
X63152751Y-35881764D01*
X63139400Y-35931592D01*
X63139400Y-36024406D01*
X63139401Y-36024414D01*
X63163421Y-36114059D01*
X63163422Y-36114062D01*
X63209829Y-36194439D01*
X63209834Y-36194445D01*
X63275454Y-36260065D01*
X63275460Y-36260070D01*
X63355837Y-36306477D01*
X63355840Y-36306478D01*
X63445492Y-36330500D01*
X63445493Y-36330500D01*
X63538307Y-36330500D01*
X63538308Y-36330500D01*
X63627960Y-36306478D01*
X63708340Y-36260070D01*
X63773970Y-36194440D01*
X63819004Y-36116440D01*
X63820377Y-36114062D01*
X63820378Y-36114059D01*
X63823475Y-36102500D01*
X63844400Y-36024408D01*
X63844400Y-35931592D01*
X63844400Y-35928482D01*
X63862706Y-35884288D01*
X63906900Y-35865982D01*
X63916182Y-35866676D01*
X64943187Y-36021113D01*
X65039470Y-36010231D01*
X65129656Y-35974800D01*
X65207599Y-35917234D01*
X65267986Y-35841458D01*
X65306705Y-35752632D01*
X65321113Y-35656814D01*
X65310231Y-35560530D01*
X65274800Y-35470345D01*
X65217235Y-35392402D01*
X65141458Y-35332014D01*
X65141456Y-35332013D01*
X65141455Y-35332012D01*
X65084977Y-35307393D01*
X65051780Y-35272953D01*
X65052659Y-35225125D01*
X65087099Y-35191928D01*
X65089207Y-35191144D01*
X65117668Y-35181147D01*
X65197662Y-35126467D01*
X65260778Y-35052948D01*
X65302716Y-34965596D01*
X65303436Y-34961770D01*
X65313111Y-34910292D01*
X65320616Y-34870368D01*
X65313259Y-34773751D01*
X65281146Y-34682331D01*
X65236475Y-34616979D01*
X65226466Y-34602335D01*
X65152946Y-34539220D01*
X65065592Y-34497282D01*
X65065594Y-34497282D01*
X63640371Y-34229384D01*
X63640366Y-34229384D01*
X63543749Y-34236741D01*
X63452330Y-34268853D01*
X63452329Y-34268853D01*
X63449081Y-34271074D01*
X63426012Y-34280771D01*
X63401234Y-34285700D01*
X63401232Y-34285700D01*
X63334723Y-34330141D01*
X63287807Y-34339473D01*
X63265277Y-34330141D01*
X63198766Y-34285700D01*
X63166197Y-34279221D01*
X63149133Y-34273151D01*
X63109465Y-34252136D01*
X63109455Y-34252132D01*
X63015020Y-34230481D01*
X63015017Y-34230481D01*
X62973518Y-34231992D01*
X62918182Y-34234008D01*
X62918180Y-34234009D01*
X62825571Y-34262475D01*
X62825562Y-34262480D01*
X62810945Y-34271644D01*
X62789942Y-34279989D01*
X62761233Y-34285700D01*
X62761232Y-34285700D01*
X62685981Y-34335982D01*
X62677300Y-34348973D01*
X62658536Y-34367199D01*
X62471963Y-34484175D01*
X62427493Y-34492697D01*
X60817622Y-34197554D01*
X60777453Y-34171579D01*
X60767417Y-34124809D01*
X60768522Y-34119902D01*
X60776799Y-34089012D01*
X60776800Y-34089006D01*
X60776800Y-33996193D01*
X60776798Y-33996185D01*
X60776252Y-33994149D01*
X60752778Y-33906540D01*
X60752777Y-33906537D01*
X60704322Y-33822613D01*
X60705733Y-33821797D01*
X60694808Y-33781020D01*
X60718726Y-33739594D01*
X60740597Y-33728809D01*
X60746866Y-33727128D01*
X60756760Y-33724478D01*
X60837140Y-33678070D01*
X60902770Y-33612440D01*
X60944432Y-33540280D01*
X60949177Y-33532062D01*
X60949178Y-33532059D01*
X60973200Y-33442408D01*
X60973200Y-33349592D01*
X60949178Y-33259940D01*
X60949177Y-33259937D01*
X60902770Y-33179560D01*
X60902765Y-33179554D01*
X60837145Y-33113934D01*
X60837139Y-33113929D01*
X60756762Y-33067522D01*
X60756759Y-33067521D01*
X60667114Y-33043501D01*
X60667109Y-33043500D01*
X60667108Y-33043500D01*
X60574292Y-33043500D01*
X60574291Y-33043500D01*
X60574285Y-33043501D01*
X60484640Y-33067521D01*
X60484637Y-33067522D01*
X60404260Y-33113929D01*
X60404254Y-33113934D01*
X60338634Y-33179554D01*
X60338629Y-33179560D01*
X60292222Y-33259937D01*
X60292221Y-33259940D01*
X60268201Y-33349585D01*
X60268200Y-33349593D01*
X60268200Y-33442406D01*
X60268201Y-33442414D01*
X60292221Y-33532059D01*
X60292222Y-33532062D01*
X60340678Y-33615987D01*
X60339267Y-33616801D01*
X60350191Y-33657583D01*
X60326269Y-33699008D01*
X60304405Y-33709790D01*
X60292057Y-33713099D01*
X60288240Y-33714122D01*
X60288239Y-33714122D01*
X60288237Y-33714123D01*
X60207860Y-33760529D01*
X60207854Y-33760534D01*
X60142234Y-33826154D01*
X60142229Y-33826160D01*
X60095822Y-33906537D01*
X60095821Y-33906540D01*
X60070739Y-34000149D01*
X60068883Y-33999651D01*
X60048148Y-34035558D01*
X60001941Y-34047933D01*
X59998836Y-34047444D01*
X59185328Y-33898301D01*
X59145159Y-33872326D01*
X59135123Y-33825556D01*
X59161098Y-33785387D01*
X59165340Y-33782704D01*
X59166440Y-33782070D01*
X59232070Y-33716440D01*
X59278478Y-33636060D01*
X59302500Y-33546408D01*
X59302500Y-33471180D01*
X59320806Y-33426986D01*
X59323563Y-33424391D01*
X62051628Y-31009382D01*
X62094788Y-30993705D01*
X62448463Y-31003530D01*
X62492131Y-31023056D01*
X62509203Y-31067742D01*
X62500854Y-31097255D01*
X62491223Y-31113936D01*
X62491221Y-31113940D01*
X62467201Y-31203585D01*
X62467200Y-31203593D01*
X62467200Y-31296406D01*
X62467201Y-31296414D01*
X62491221Y-31386059D01*
X62491222Y-31386062D01*
X62537629Y-31466439D01*
X62537634Y-31466445D01*
X62600895Y-31529706D01*
X62619201Y-31573900D01*
X62600895Y-31618094D01*
X62549834Y-31669154D01*
X62549829Y-31669160D01*
X62503422Y-31749537D01*
X62503421Y-31749540D01*
X62479401Y-31839185D01*
X62479400Y-31839193D01*
X62479400Y-31932006D01*
X62479401Y-31932014D01*
X62503421Y-32021659D01*
X62503422Y-32021662D01*
X62549829Y-32102039D01*
X62549834Y-32102045D01*
X62615454Y-32167665D01*
X62615460Y-32167670D01*
X62695837Y-32214077D01*
X62695840Y-32214078D01*
X62785492Y-32238100D01*
X62785493Y-32238100D01*
X62878307Y-32238100D01*
X62878308Y-32238100D01*
X62967960Y-32214078D01*
X63048340Y-32167670D01*
X63113970Y-32102040D01*
X63160378Y-32021660D01*
X63184400Y-31932008D01*
X63184400Y-31839192D01*
X63160378Y-31749540D01*
X63160377Y-31749537D01*
X63113970Y-31669160D01*
X63113965Y-31669154D01*
X63050705Y-31605894D01*
X63032399Y-31561700D01*
X63050705Y-31517506D01*
X63101765Y-31466445D01*
X63101770Y-31466440D01*
X63148178Y-31386060D01*
X63172200Y-31296408D01*
X63172200Y-31203592D01*
X63148178Y-31113940D01*
X63148175Y-31113935D01*
X63146949Y-31110973D01*
X63146954Y-31063137D01*
X63180781Y-31029315D01*
X63206426Y-31024584D01*
X63703477Y-31038391D01*
X63742899Y-31053831D01*
X63826157Y-31126682D01*
X63847362Y-31169561D01*
X63847500Y-31173718D01*
X63847500Y-31246406D01*
X63847501Y-31246414D01*
X63871521Y-31336059D01*
X63871522Y-31336062D01*
X63917929Y-31416439D01*
X63917934Y-31416445D01*
X63983554Y-31482065D01*
X63983560Y-31482070D01*
X64063935Y-31528476D01*
X64063937Y-31528476D01*
X64063940Y-31528478D01*
X64078451Y-31532366D01*
X64116400Y-31561485D01*
X64122645Y-31608912D01*
X64111866Y-31630774D01*
X64109733Y-31633554D01*
X64063322Y-31713937D01*
X64063321Y-31713940D01*
X64039301Y-31803585D01*
X64039300Y-31803593D01*
X64039300Y-31896406D01*
X64039301Y-31896414D01*
X64063321Y-31986059D01*
X64063322Y-31986062D01*
X64109729Y-32066439D01*
X64109734Y-32066445D01*
X64175354Y-32132065D01*
X64175360Y-32132070D01*
X64255737Y-32178477D01*
X64255740Y-32178478D01*
X64345392Y-32202500D01*
X64345393Y-32202500D01*
X64438207Y-32202500D01*
X64438208Y-32202500D01*
X64527860Y-32178478D01*
X64608240Y-32132070D01*
X64673870Y-32066440D01*
X64720278Y-31986060D01*
X64744300Y-31896408D01*
X64744300Y-31803592D01*
X64720278Y-31713940D01*
X64720277Y-31713937D01*
X64673870Y-31633560D01*
X64673865Y-31633554D01*
X64608245Y-31567934D01*
X64608239Y-31567929D01*
X64527862Y-31521522D01*
X64513347Y-31517633D01*
X64475398Y-31488512D01*
X64469155Y-31441085D01*
X64479940Y-31419216D01*
X64482065Y-31416444D01*
X64482070Y-31416440D01*
X64528478Y-31336060D01*
X64552500Y-31246408D01*
X64552500Y-31153592D01*
X64528478Y-31063940D01*
X64528477Y-31063937D01*
X64482070Y-30983560D01*
X64482065Y-30983554D01*
X64416445Y-30917934D01*
X64416439Y-30917929D01*
X64336062Y-30871522D01*
X64336059Y-30871521D01*
X64246414Y-30847501D01*
X64246409Y-30847500D01*
X64246408Y-30847500D01*
X64153592Y-30847500D01*
X64153591Y-30847500D01*
X64153585Y-30847501D01*
X64134981Y-30852485D01*
X64087555Y-30846239D01*
X64077652Y-30839150D01*
X63934780Y-30714138D01*
X63930539Y-30710060D01*
X63912647Y-30691145D01*
X63912646Y-30691144D01*
X63912644Y-30691142D01*
X63912387Y-30690960D01*
X63897457Y-30681398D01*
X63897181Y-30681239D01*
X63872520Y-30672898D01*
X63867033Y-30670749D01*
X63843281Y-30660128D01*
X63842975Y-30660058D01*
X63825543Y-30656940D01*
X63825203Y-30656896D01*
X63825202Y-30656896D01*
X63799225Y-30658627D01*
X63793335Y-30658741D01*
X62009497Y-30609189D01*
X62007438Y-30609098D01*
X61975740Y-30607170D01*
X61973682Y-30607045D01*
X61973681Y-30607045D01*
X61971722Y-30607312D01*
X61971333Y-30607333D01*
X61969656Y-30607589D01*
X61969285Y-30607684D01*
X61967328Y-30608017D01*
X61935737Y-30620085D01*
X61933803Y-30620788D01*
X61901839Y-30631805D01*
X61900142Y-30632796D01*
X61899804Y-30632958D01*
X61898323Y-30633854D01*
X61898010Y-30634089D01*
X61896348Y-30635134D01*
X61896346Y-30635135D01*
X61896345Y-30635136D01*
X61871784Y-30658369D01*
X61870262Y-30659761D01*
X59845671Y-32452022D01*
X59800447Y-32467609D01*
X59757446Y-32446651D01*
X59743875Y-32421404D01*
X59728478Y-32363940D01*
X59728476Y-32363937D01*
X59728476Y-32363935D01*
X59682070Y-32283560D01*
X59682065Y-32283554D01*
X59616445Y-32217934D01*
X59616439Y-32217929D01*
X59536062Y-32171522D01*
X59536059Y-32171521D01*
X59446414Y-32147501D01*
X59446409Y-32147500D01*
X59446408Y-32147500D01*
X59353592Y-32147500D01*
X59353591Y-32147500D01*
X59353585Y-32147501D01*
X59263940Y-32171521D01*
X59263937Y-32171522D01*
X59183560Y-32217929D01*
X59183554Y-32217934D01*
X59117934Y-32283554D01*
X59117929Y-32283560D01*
X59071522Y-32363937D01*
X59071521Y-32363940D01*
X59047501Y-32453585D01*
X59047500Y-32453593D01*
X59047500Y-32546406D01*
X59047501Y-32546414D01*
X59071521Y-32636059D01*
X59071522Y-32636062D01*
X59117929Y-32716439D01*
X59117934Y-32716445D01*
X59183554Y-32782065D01*
X59183560Y-32782070D01*
X59263937Y-32828477D01*
X59263940Y-32828478D01*
X59271743Y-32830569D01*
X59309693Y-32859689D01*
X59315937Y-32907115D01*
X59296994Y-32937737D01*
X59070408Y-33138320D01*
X59025183Y-33153907D01*
X59012807Y-33151893D01*
X58996412Y-33147500D01*
X58996408Y-33147500D01*
X58903592Y-33147500D01*
X58903591Y-33147500D01*
X58903585Y-33147501D01*
X58813940Y-33171521D01*
X58813937Y-33171522D01*
X58733560Y-33217929D01*
X58733554Y-33217934D01*
X58667934Y-33283554D01*
X58667929Y-33283560D01*
X58621524Y-33363936D01*
X58621521Y-33363940D01*
X58597501Y-33453585D01*
X58597500Y-33453593D01*
X58597500Y-33546406D01*
X58597501Y-33546414D01*
X58621521Y-33636059D01*
X58621524Y-33636065D01*
X58656493Y-33696633D01*
X58662737Y-33744059D01*
X58633617Y-33782009D01*
X58591096Y-33789358D01*
X58233994Y-33723889D01*
X58206222Y-33711218D01*
X57813094Y-33396715D01*
X57805238Y-33389224D01*
X57798020Y-33381030D01*
X57798018Y-33381028D01*
X57773437Y-33364681D01*
X57769004Y-33361443D01*
X57745956Y-33343005D01*
X57745952Y-33343002D01*
X57735952Y-33338621D01*
X57726427Y-33333418D01*
X57717340Y-33327375D01*
X57717334Y-33327372D01*
X57689362Y-33317945D01*
X57684244Y-33315965D01*
X57657204Y-33304118D01*
X57657196Y-33304116D01*
X57646406Y-33302473D01*
X57635857Y-33299913D01*
X57625512Y-33296426D01*
X57625513Y-33296426D01*
X57596046Y-33294559D01*
X57590593Y-33293972D01*
X57561410Y-33289529D01*
X57561405Y-33289528D01*
X57550558Y-33290733D01*
X57539712Y-33290990D01*
X55971899Y-33191672D01*
X55928950Y-33170609D01*
X55913475Y-33125346D01*
X55918675Y-33104054D01*
X55924692Y-33090429D01*
X55927500Y-33066226D01*
X55927500Y-32403774D01*
X55927500Y-32403766D01*
X55927499Y-32403764D01*
X55924693Y-32379576D01*
X55924692Y-32379573D01*
X55924692Y-32379571D01*
X55880974Y-32280559D01*
X55804441Y-32204026D01*
X55705429Y-32160308D01*
X55705428Y-32160307D01*
X55705426Y-32160307D01*
X55705423Y-32160306D01*
X55681234Y-32157500D01*
X55681226Y-32157500D01*
X54132159Y-32157500D01*
X54108237Y-32152741D01*
X54102000Y-32150157D01*
X54088537Y-32141160D01*
X54088312Y-32141497D01*
X54084120Y-32138696D01*
X54083280Y-32138113D01*
X54068692Y-32132070D01*
X54051997Y-32125154D01*
X54038534Y-32116157D01*
X54038308Y-32116496D01*
X54036399Y-32115221D01*
X54036325Y-32115321D01*
X54036317Y-32115315D01*
X54035567Y-32114664D01*
X54034128Y-32113703D01*
X54033274Y-32113110D01*
X54001999Y-32100156D01*
X53981723Y-32086608D01*
X51948708Y-30053593D01*
X62347500Y-30053593D01*
X62347500Y-30146406D01*
X62347501Y-30146414D01*
X62371521Y-30236059D01*
X62371522Y-30236062D01*
X62417929Y-30316439D01*
X62417934Y-30316445D01*
X62483554Y-30382065D01*
X62483560Y-30382070D01*
X62563937Y-30428477D01*
X62563940Y-30428478D01*
X62653592Y-30452500D01*
X62653593Y-30452500D01*
X62746407Y-30452500D01*
X62746408Y-30452500D01*
X62836060Y-30428478D01*
X62916440Y-30382070D01*
X62982070Y-30316440D01*
X63028478Y-30236060D01*
X63052500Y-30146408D01*
X63052500Y-30053592D01*
X63028478Y-29963940D01*
X63015588Y-29941614D01*
X62984897Y-29888455D01*
X62978653Y-29841029D01*
X63007772Y-29803080D01*
X63055940Y-29775270D01*
X63121570Y-29709640D01*
X63158169Y-29646248D01*
X63167977Y-29629262D01*
X63167978Y-29629259D01*
X63169173Y-29624800D01*
X63192000Y-29539608D01*
X63192000Y-29446792D01*
X63167978Y-29357140D01*
X63167977Y-29357137D01*
X63121570Y-29276760D01*
X63121565Y-29276754D01*
X63055945Y-29211134D01*
X63055939Y-29211129D01*
X62975562Y-29164722D01*
X62975559Y-29164721D01*
X62885914Y-29140701D01*
X62885909Y-29140700D01*
X62885908Y-29140700D01*
X62793092Y-29140700D01*
X62793091Y-29140700D01*
X62793085Y-29140701D01*
X62703440Y-29164721D01*
X62703437Y-29164722D01*
X62623060Y-29211129D01*
X62623054Y-29211134D01*
X62557434Y-29276754D01*
X62557429Y-29276760D01*
X62511022Y-29357137D01*
X62511021Y-29357140D01*
X62487001Y-29446785D01*
X62487000Y-29446793D01*
X62487000Y-29539606D01*
X62487001Y-29539614D01*
X62511021Y-29629259D01*
X62511022Y-29629262D01*
X62554602Y-29704742D01*
X62560847Y-29752169D01*
X62531727Y-29790119D01*
X62483561Y-29817929D01*
X62483554Y-29817934D01*
X62417934Y-29883554D01*
X62417929Y-29883560D01*
X62371522Y-29963937D01*
X62371521Y-29963940D01*
X62347501Y-30053585D01*
X62347500Y-30053593D01*
X51948708Y-30053593D01*
X51633194Y-29738079D01*
X51633193Y-29738078D01*
X51601999Y-29725157D01*
X51588534Y-29716159D01*
X51588309Y-29716497D01*
X51583194Y-29713079D01*
X51583193Y-29713078D01*
X51551999Y-29700157D01*
X51538534Y-29691159D01*
X51538309Y-29691497D01*
X51533194Y-29688079D01*
X51533193Y-29688078D01*
X51462992Y-29659000D01*
X51462991Y-29659000D01*
X51430003Y-29659000D01*
X51385809Y-29640694D01*
X50086082Y-28340967D01*
X50085594Y-28340474D01*
X50059945Y-28314248D01*
X50059411Y-28313892D01*
X50058822Y-28313494D01*
X50058244Y-28313098D01*
X50024393Y-28299077D01*
X50023753Y-28298808D01*
X49990056Y-28284409D01*
X49989408Y-28284281D01*
X49988711Y-28284138D01*
X49988056Y-28284000D01*
X49987992Y-28284000D01*
X49951386Y-28284000D01*
X49950692Y-28283996D01*
X45784288Y-28237702D01*
X45740300Y-28218906D01*
X45734783Y-28211636D01*
X45734561Y-28211807D01*
X45732065Y-28208554D01*
X45666445Y-28142934D01*
X45666439Y-28142929D01*
X45586062Y-28096522D01*
X45586059Y-28096521D01*
X45496414Y-28072501D01*
X45496409Y-28072500D01*
X45496408Y-28072500D01*
X45403592Y-28072500D01*
X45403591Y-28072500D01*
X45403585Y-28072501D01*
X45313940Y-28096521D01*
X45313937Y-28096522D01*
X45233560Y-28142929D01*
X45233554Y-28142934D01*
X45167934Y-28208554D01*
X45167929Y-28208560D01*
X45121522Y-28288937D01*
X45121521Y-28288940D01*
X45097501Y-28378585D01*
X45097500Y-28378593D01*
X45097500Y-28471406D01*
X45097501Y-28471414D01*
X45121521Y-28561059D01*
X45121522Y-28561062D01*
X45167929Y-28641439D01*
X45167934Y-28641445D01*
X45233556Y-28707067D01*
X45236100Y-28709019D01*
X45260019Y-28750445D01*
X45247640Y-28796651D01*
X45229305Y-28812731D01*
X45168860Y-28847629D01*
X45168854Y-28847634D01*
X45103234Y-28913254D01*
X45103229Y-28913260D01*
X45056822Y-28993637D01*
X45056821Y-28993640D01*
X45032801Y-29083285D01*
X45032800Y-29083293D01*
X45032800Y-29176106D01*
X45032801Y-29176114D01*
X45056821Y-29265759D01*
X45056822Y-29265762D01*
X45103229Y-29346139D01*
X45103234Y-29346145D01*
X45168854Y-29411765D01*
X45168860Y-29411770D01*
X45249237Y-29458177D01*
X45249240Y-29458178D01*
X45338892Y-29482200D01*
X45338893Y-29482200D01*
X45431707Y-29482200D01*
X45431708Y-29482200D01*
X45521360Y-29458178D01*
X45601740Y-29411770D01*
X45667370Y-29346140D01*
X45713778Y-29265760D01*
X45737800Y-29176108D01*
X45737800Y-29083292D01*
X45713778Y-28993640D01*
X45713777Y-28993637D01*
X45667370Y-28913260D01*
X45667365Y-28913254D01*
X45601742Y-28847631D01*
X45599198Y-28845679D01*
X45575280Y-28804253D01*
X45587660Y-28758047D01*
X45605990Y-28741971D01*
X45666440Y-28707070D01*
X45732070Y-28641440D01*
X45732070Y-28641439D01*
X45734967Y-28638543D01*
X45736711Y-28640287D01*
X45771330Y-28620224D01*
X45780275Y-28619680D01*
X49844527Y-28664838D01*
X49888025Y-28683140D01*
X51086102Y-29881217D01*
X51104408Y-29925411D01*
X51086102Y-29969605D01*
X51073159Y-29979537D01*
X51052560Y-29991429D01*
X51052554Y-29991434D01*
X50986934Y-30057054D01*
X50986929Y-30057060D01*
X50940522Y-30137437D01*
X50940521Y-30137440D01*
X50916501Y-30227085D01*
X50916500Y-30227093D01*
X50916500Y-30319906D01*
X50916501Y-30319914D01*
X50940521Y-30409559D01*
X50940522Y-30409562D01*
X50986929Y-30489939D01*
X50986934Y-30489945D01*
X51052554Y-30555565D01*
X51052560Y-30555570D01*
X51132937Y-30601977D01*
X51132940Y-30601978D01*
X51222592Y-30626000D01*
X51222593Y-30626000D01*
X51315407Y-30626000D01*
X51315408Y-30626000D01*
X51405060Y-30601978D01*
X51485440Y-30555570D01*
X51551070Y-30489940D01*
X51597478Y-30409560D01*
X51604744Y-30382439D01*
X51633863Y-30344491D01*
X51681289Y-30338246D01*
X51709308Y-30354423D01*
X53738078Y-32383193D01*
X53791807Y-32436922D01*
X53823001Y-32449843D01*
X53835540Y-32458221D01*
X53835618Y-32458096D01*
X53840878Y-32461347D01*
X53842730Y-32462537D01*
X53844711Y-32463860D01*
X53846657Y-32466771D01*
X53846953Y-32467067D01*
X53846894Y-32467125D01*
X53871296Y-32503628D01*
X53872500Y-32515835D01*
X53872500Y-32992094D01*
X53854194Y-33036288D01*
X53810000Y-33054594D01*
X53806049Y-33054469D01*
X51252280Y-32892692D01*
X51209331Y-32871629D01*
X51193856Y-32826366D01*
X51213956Y-32785379D01*
X51213544Y-32784967D01*
X51214750Y-32783760D01*
X51214919Y-32783417D01*
X51215902Y-32782608D01*
X51282065Y-32716445D01*
X51282070Y-32716440D01*
X51328478Y-32636060D01*
X51352500Y-32546408D01*
X51352500Y-32508300D01*
X51370806Y-32464106D01*
X51415000Y-32445800D01*
X51484707Y-32445800D01*
X51484708Y-32445800D01*
X51574360Y-32421778D01*
X51654740Y-32375370D01*
X51720370Y-32309740D01*
X51766778Y-32229360D01*
X51790800Y-32139708D01*
X51790800Y-32046892D01*
X51766778Y-31957240D01*
X51766777Y-31957237D01*
X51720370Y-31876860D01*
X51720365Y-31876854D01*
X51654745Y-31811234D01*
X51654739Y-31811229D01*
X51574362Y-31764822D01*
X51574359Y-31764821D01*
X51484714Y-31740801D01*
X51484709Y-31740800D01*
X51484708Y-31740800D01*
X51391892Y-31740800D01*
X51391891Y-31740800D01*
X51391885Y-31740801D01*
X51302240Y-31764821D01*
X51302237Y-31764822D01*
X51221860Y-31811229D01*
X51221854Y-31811234D01*
X51156234Y-31876854D01*
X51156229Y-31876860D01*
X51109822Y-31957237D01*
X51109821Y-31957240D01*
X51085801Y-32046885D01*
X51085800Y-32046893D01*
X51085800Y-32085000D01*
X51067494Y-32129194D01*
X51023300Y-32147500D01*
X50953592Y-32147500D01*
X50953591Y-32147500D01*
X50953585Y-32147501D01*
X50863940Y-32171521D01*
X50863937Y-32171522D01*
X50783560Y-32217929D01*
X50783554Y-32217934D01*
X50717934Y-32283554D01*
X50717929Y-32283560D01*
X50671522Y-32363937D01*
X50671521Y-32363940D01*
X50647501Y-32453585D01*
X50647500Y-32453593D01*
X50647500Y-32546406D01*
X50647501Y-32546414D01*
X50671521Y-32636059D01*
X50671522Y-32636062D01*
X50717929Y-32716439D01*
X50717934Y-32716445D01*
X50752929Y-32751440D01*
X50771235Y-32795634D01*
X50752929Y-32839828D01*
X50708735Y-32858134D01*
X50704784Y-32858009D01*
X46673942Y-32602661D01*
X46637150Y-32587681D01*
X46636361Y-32587003D01*
X45377835Y-31505113D01*
X45356256Y-31462423D01*
X45371184Y-31416976D01*
X45374372Y-31413537D01*
X45426770Y-31361140D01*
X45464807Y-31295258D01*
X45473177Y-31280762D01*
X45473178Y-31280759D01*
X45474001Y-31277687D01*
X45497200Y-31191108D01*
X45497200Y-31098292D01*
X45473178Y-31008640D01*
X45473177Y-31008637D01*
X45426770Y-30928260D01*
X45426765Y-30928254D01*
X45361145Y-30862634D01*
X45361139Y-30862629D01*
X45280762Y-30816222D01*
X45280759Y-30816221D01*
X45191114Y-30792201D01*
X45191109Y-30792200D01*
X45191108Y-30792200D01*
X45104466Y-30792200D01*
X45060272Y-30773894D01*
X44900626Y-30614248D01*
X44884450Y-30586231D01*
X44878478Y-30563940D01*
X44832070Y-30483560D01*
X44832065Y-30483554D01*
X44766445Y-30417934D01*
X44766439Y-30417929D01*
X44686062Y-30371522D01*
X44686058Y-30371521D01*
X44663767Y-30365548D01*
X44635750Y-30349372D01*
X44114708Y-29828330D01*
X44114703Y-29828326D01*
X44040282Y-29797500D01*
X44040280Y-29797500D01*
X44015000Y-29797500D01*
X43970806Y-29779194D01*
X43952500Y-29735000D01*
X43952500Y-29703593D01*
X43952498Y-29703585D01*
X43928478Y-29613940D01*
X43928477Y-29613937D01*
X43882070Y-29533560D01*
X43882065Y-29533554D01*
X43816445Y-29467934D01*
X43816439Y-29467929D01*
X43736062Y-29421522D01*
X43736059Y-29421521D01*
X43646414Y-29397501D01*
X43646409Y-29397500D01*
X43646408Y-29397500D01*
X43553592Y-29397500D01*
X43553591Y-29397500D01*
X43553585Y-29397501D01*
X43463940Y-29421521D01*
X43463937Y-29421522D01*
X43383560Y-29467929D01*
X43383554Y-29467934D01*
X43317934Y-29533554D01*
X43317929Y-29533560D01*
X43271522Y-29613937D01*
X43271521Y-29613940D01*
X43247501Y-29703585D01*
X43247500Y-29703593D01*
X43247500Y-29796406D01*
X43247501Y-29796414D01*
X43271521Y-29886059D01*
X43271522Y-29886062D01*
X43317929Y-29966439D01*
X43317934Y-29966445D01*
X43383426Y-30031937D01*
X43401732Y-30076131D01*
X43383426Y-30120325D01*
X43339232Y-30138631D01*
X43339025Y-30138631D01*
X28705310Y-30090176D01*
X28661177Y-30071724D01*
X28651160Y-30058524D01*
X28322143Y-29478773D01*
X28314000Y-29447925D01*
X28314000Y-29389893D01*
X31564400Y-29389893D01*
X31564400Y-29482706D01*
X31564401Y-29482714D01*
X31588421Y-29572359D01*
X31588422Y-29572362D01*
X31634829Y-29652739D01*
X31634834Y-29652745D01*
X31700454Y-29718365D01*
X31700460Y-29718370D01*
X31780837Y-29764777D01*
X31780840Y-29764778D01*
X31870492Y-29788800D01*
X31870493Y-29788800D01*
X31963307Y-29788800D01*
X31963308Y-29788800D01*
X32052960Y-29764778D01*
X32061548Y-29759820D01*
X32099205Y-29738078D01*
X32133340Y-29718370D01*
X32198970Y-29652740D01*
X32245378Y-29572360D01*
X32269400Y-29482708D01*
X32269400Y-29389892D01*
X32245378Y-29300240D01*
X32245377Y-29300237D01*
X32218131Y-29253047D01*
X32202453Y-29225893D01*
X38521900Y-29225893D01*
X38521900Y-29318706D01*
X38521901Y-29318714D01*
X38545921Y-29408359D01*
X38545922Y-29408362D01*
X38592329Y-29488739D01*
X38592334Y-29488745D01*
X38657954Y-29554365D01*
X38657960Y-29554370D01*
X38738337Y-29600777D01*
X38738340Y-29600778D01*
X38827992Y-29624800D01*
X38827993Y-29624800D01*
X38920807Y-29624800D01*
X38920808Y-29624800D01*
X39010460Y-29600778D01*
X39090840Y-29554370D01*
X39156470Y-29488740D01*
X39202878Y-29408360D01*
X39226900Y-29318708D01*
X39226900Y-29225892D01*
X39202878Y-29136240D01*
X39202877Y-29136237D01*
X39156470Y-29055860D01*
X39156465Y-29055854D01*
X39090845Y-28990234D01*
X39090839Y-28990229D01*
X39010462Y-28943822D01*
X39010459Y-28943821D01*
X38920814Y-28919801D01*
X38920809Y-28919800D01*
X38920808Y-28919800D01*
X38827992Y-28919800D01*
X38827991Y-28919800D01*
X38827985Y-28919801D01*
X38738340Y-28943821D01*
X38738337Y-28943822D01*
X38657960Y-28990229D01*
X38657954Y-28990234D01*
X38592334Y-29055854D01*
X38592329Y-29055860D01*
X38545922Y-29136237D01*
X38545921Y-29136240D01*
X38521901Y-29225885D01*
X38521900Y-29225893D01*
X32202453Y-29225893D01*
X32198970Y-29219860D01*
X32198965Y-29219854D01*
X32133345Y-29154234D01*
X32133339Y-29154229D01*
X32052962Y-29107822D01*
X32052959Y-29107821D01*
X31963314Y-29083801D01*
X31963309Y-29083800D01*
X31963308Y-29083800D01*
X31870492Y-29083800D01*
X31870491Y-29083800D01*
X31870485Y-29083801D01*
X31780840Y-29107821D01*
X31780837Y-29107822D01*
X31700460Y-29154229D01*
X31700454Y-29154234D01*
X31634834Y-29219854D01*
X31634829Y-29219860D01*
X31588422Y-29300237D01*
X31588421Y-29300240D01*
X31564401Y-29389885D01*
X31564400Y-29389893D01*
X28314000Y-29389893D01*
X28314000Y-29268600D01*
X28314237Y-29263162D01*
X28314271Y-29262770D01*
X28316790Y-29233935D01*
X28314951Y-29223513D01*
X28314000Y-29212652D01*
X28314000Y-29202079D01*
X28313999Y-29202073D01*
X28306412Y-29173759D01*
X28305233Y-29168444D01*
X28302725Y-29154230D01*
X28300134Y-29139549D01*
X28295657Y-29129953D01*
X28291930Y-29119717D01*
X28289194Y-29109501D01*
X28274517Y-29084079D01*
X28272028Y-29079298D01*
X28259617Y-29052693D01*
X28252814Y-29044588D01*
X28246562Y-29035661D01*
X28241273Y-29026499D01*
X28238023Y-29023249D01*
X28219717Y-28979055D01*
X28238023Y-28934861D01*
X28250961Y-28924933D01*
X28309440Y-28891170D01*
X28375070Y-28825540D01*
X28387741Y-28803593D01*
X30597500Y-28803593D01*
X30597500Y-28896406D01*
X30597501Y-28896414D01*
X30621521Y-28986059D01*
X30621522Y-28986062D01*
X30667929Y-29066439D01*
X30667934Y-29066445D01*
X30733554Y-29132065D01*
X30733560Y-29132070D01*
X30813937Y-29178477D01*
X30813940Y-29178478D01*
X30903592Y-29202500D01*
X30903593Y-29202500D01*
X30996407Y-29202500D01*
X30996408Y-29202500D01*
X31086060Y-29178478D01*
X31090169Y-29176106D01*
X31109886Y-29164722D01*
X31166440Y-29132070D01*
X31232070Y-29066440D01*
X31276068Y-28990234D01*
X31278477Y-28986062D01*
X31278478Y-28986059D01*
X31283336Y-28967929D01*
X31302500Y-28896408D01*
X31302500Y-28803592D01*
X31278478Y-28713940D01*
X31278477Y-28713937D01*
X31232070Y-28633560D01*
X31232065Y-28633554D01*
X31166445Y-28567934D01*
X31166439Y-28567929D01*
X31086062Y-28521522D01*
X31086059Y-28521521D01*
X30996414Y-28497501D01*
X30996409Y-28497500D01*
X30996408Y-28497500D01*
X30903592Y-28497500D01*
X30903591Y-28497500D01*
X30903585Y-28497501D01*
X30813940Y-28521521D01*
X30813937Y-28521522D01*
X30733560Y-28567929D01*
X30733554Y-28567934D01*
X30667934Y-28633554D01*
X30667929Y-28633560D01*
X30621522Y-28713937D01*
X30621521Y-28713940D01*
X30597501Y-28803585D01*
X30597500Y-28803593D01*
X28387741Y-28803593D01*
X28402806Y-28777500D01*
X28408150Y-28768245D01*
X28421477Y-28745162D01*
X28421478Y-28745159D01*
X28445500Y-28655508D01*
X28445500Y-28562692D01*
X28421478Y-28473040D01*
X28421477Y-28473037D01*
X28375070Y-28392660D01*
X28375065Y-28392654D01*
X28309445Y-28327034D01*
X28309439Y-28327029D01*
X28229061Y-28280622D01*
X28177441Y-28266790D01*
X28139491Y-28237669D01*
X28133248Y-28190243D01*
X28148244Y-28163439D01*
X28205102Y-28103422D01*
X28217607Y-28093249D01*
X28225450Y-28088404D01*
X28242489Y-28064766D01*
X28247804Y-28058347D01*
X28267845Y-28037195D01*
X28271136Y-28028596D01*
X28278805Y-28014393D01*
X28791242Y-27303593D01*
X31797500Y-27303593D01*
X31797500Y-27396406D01*
X31797501Y-27396414D01*
X31821521Y-27486059D01*
X31821522Y-27486062D01*
X31867929Y-27566439D01*
X31867934Y-27566445D01*
X31933554Y-27632065D01*
X31933560Y-27632070D01*
X32013937Y-27678477D01*
X32013940Y-27678478D01*
X32103592Y-27702500D01*
X32103593Y-27702500D01*
X32196407Y-27702500D01*
X32196408Y-27702500D01*
X32286060Y-27678478D01*
X32366440Y-27632070D01*
X32432070Y-27566440D01*
X32478478Y-27486060D01*
X32502500Y-27396408D01*
X32502500Y-27303592D01*
X32478478Y-27213940D01*
X32478477Y-27213937D01*
X32432070Y-27133560D01*
X32432065Y-27133554D01*
X32366445Y-27067934D01*
X32366439Y-27067929D01*
X32286062Y-27021522D01*
X32286059Y-27021521D01*
X32196414Y-26997501D01*
X32196409Y-26997500D01*
X32196408Y-26997500D01*
X32103592Y-26997500D01*
X32103591Y-26997500D01*
X32103585Y-26997501D01*
X32013940Y-27021521D01*
X32013937Y-27021522D01*
X31933560Y-27067929D01*
X31933554Y-27067934D01*
X31867934Y-27133554D01*
X31867929Y-27133560D01*
X31821522Y-27213937D01*
X31821521Y-27213940D01*
X31797501Y-27303585D01*
X31797500Y-27303593D01*
X28791242Y-27303593D01*
X29440080Y-26403593D01*
X31647500Y-26403593D01*
X31647500Y-26496406D01*
X31647501Y-26496414D01*
X31671521Y-26586059D01*
X31671522Y-26586062D01*
X31717929Y-26666439D01*
X31717934Y-26666445D01*
X31783554Y-26732065D01*
X31783560Y-26732070D01*
X31863937Y-26778477D01*
X31863940Y-26778478D01*
X31953592Y-26802500D01*
X31953593Y-26802500D01*
X32046407Y-26802500D01*
X32046408Y-26802500D01*
X32136060Y-26778478D01*
X32136317Y-26778330D01*
X32153048Y-26768669D01*
X32216440Y-26732070D01*
X32277704Y-26670805D01*
X32321898Y-26652500D01*
X34990280Y-26652500D01*
X35015089Y-26642223D01*
X35064703Y-26621673D01*
X35064703Y-26621672D01*
X35064707Y-26621671D01*
X35332785Y-26353593D01*
X38147500Y-26353593D01*
X38147500Y-26446406D01*
X38147501Y-26446414D01*
X38171521Y-26536059D01*
X38171522Y-26536062D01*
X38217929Y-26616439D01*
X38217934Y-26616445D01*
X38283554Y-26682065D01*
X38283560Y-26682070D01*
X38363937Y-26728477D01*
X38363940Y-26728478D01*
X38453592Y-26752500D01*
X38453593Y-26752500D01*
X38546406Y-26752500D01*
X38546408Y-26752500D01*
X38546416Y-26752498D01*
X38578813Y-26743817D01*
X38602111Y-26737574D01*
X38649537Y-26743817D01*
X38654856Y-26747259D01*
X41893224Y-29083801D01*
X42071570Y-29212481D01*
X42096698Y-29253184D01*
X42097500Y-29263165D01*
X42097500Y-29296406D01*
X42097501Y-29296414D01*
X42121521Y-29386059D01*
X42121522Y-29386062D01*
X42167929Y-29466439D01*
X42167934Y-29466445D01*
X42233554Y-29532065D01*
X42233560Y-29532070D01*
X42313937Y-29578477D01*
X42313940Y-29578478D01*
X42403592Y-29602500D01*
X42403593Y-29602500D01*
X42496407Y-29602500D01*
X42496408Y-29602500D01*
X42586060Y-29578478D01*
X42666440Y-29532070D01*
X42732070Y-29466440D01*
X42768669Y-29403048D01*
X42778477Y-29386062D01*
X42778478Y-29386059D01*
X42789174Y-29346140D01*
X42802500Y-29296408D01*
X42802500Y-29203592D01*
X42778478Y-29113940D01*
X42778477Y-29113937D01*
X42732070Y-29033560D01*
X42732065Y-29033554D01*
X42666445Y-28967934D01*
X42666439Y-28967929D01*
X42586062Y-28921522D01*
X42586059Y-28921521D01*
X42496414Y-28897501D01*
X42496409Y-28897500D01*
X42496408Y-28897500D01*
X42403592Y-28897500D01*
X42384040Y-28902739D01*
X42347886Y-28912426D01*
X42300459Y-28906181D01*
X42295140Y-28902739D01*
X40664887Y-27726480D01*
X40600319Y-27679893D01*
X46928800Y-27679893D01*
X46928800Y-27772706D01*
X46928801Y-27772714D01*
X46952821Y-27862359D01*
X46952822Y-27862362D01*
X46999229Y-27942739D01*
X46999234Y-27942745D01*
X47064854Y-28008365D01*
X47064860Y-28008370D01*
X47145237Y-28054777D01*
X47145240Y-28054778D01*
X47234892Y-28078800D01*
X47234893Y-28078800D01*
X47327707Y-28078800D01*
X47327708Y-28078800D01*
X47417360Y-28054778D01*
X47497740Y-28008370D01*
X47563370Y-27942740D01*
X47609778Y-27862360D01*
X47633800Y-27772708D01*
X47633800Y-27771593D01*
X49900600Y-27771593D01*
X49900600Y-27864406D01*
X49900601Y-27864414D01*
X49924621Y-27954059D01*
X49924622Y-27954062D01*
X49971029Y-28034439D01*
X49971034Y-28034445D01*
X50036654Y-28100065D01*
X50036660Y-28100070D01*
X50117037Y-28146477D01*
X50117040Y-28146478D01*
X50206692Y-28170500D01*
X50206693Y-28170500D01*
X50299507Y-28170500D01*
X50299508Y-28170500D01*
X50389160Y-28146478D01*
X50469540Y-28100070D01*
X50535170Y-28034440D01*
X50581578Y-27954060D01*
X50605600Y-27864408D01*
X50605600Y-27771592D01*
X50581578Y-27681940D01*
X50581577Y-27681937D01*
X50535170Y-27601560D01*
X50535165Y-27601554D01*
X50469545Y-27535934D01*
X50469539Y-27535929D01*
X50389162Y-27489522D01*
X50389159Y-27489521D01*
X50299514Y-27465501D01*
X50299509Y-27465500D01*
X50299508Y-27465500D01*
X50206692Y-27465500D01*
X50206691Y-27465500D01*
X50206685Y-27465501D01*
X50117040Y-27489521D01*
X50117037Y-27489522D01*
X50036660Y-27535929D01*
X50036654Y-27535934D01*
X49971034Y-27601554D01*
X49971029Y-27601560D01*
X49924622Y-27681937D01*
X49924621Y-27681940D01*
X49900601Y-27771585D01*
X49900600Y-27771593D01*
X47633800Y-27771593D01*
X47633800Y-27679892D01*
X47609778Y-27590240D01*
X47609777Y-27590237D01*
X47563370Y-27509860D01*
X47563365Y-27509854D01*
X47497745Y-27444234D01*
X47497739Y-27444229D01*
X47417362Y-27397822D01*
X47417359Y-27397821D01*
X47327714Y-27373801D01*
X47327709Y-27373800D01*
X47327708Y-27373800D01*
X47234892Y-27373800D01*
X47234891Y-27373800D01*
X47234885Y-27373801D01*
X47145240Y-27397821D01*
X47145237Y-27397822D01*
X47064860Y-27444229D01*
X47064854Y-27444234D01*
X46999234Y-27509854D01*
X46999229Y-27509860D01*
X46952822Y-27590237D01*
X46952821Y-27590240D01*
X46928801Y-27679885D01*
X46928800Y-27679893D01*
X40600319Y-27679893D01*
X38878430Y-26437517D01*
X38853302Y-26396814D01*
X38852500Y-26386833D01*
X38852500Y-26353593D01*
X38852498Y-26353585D01*
X38845770Y-26328477D01*
X38828478Y-26263940D01*
X38828477Y-26263937D01*
X38782070Y-26183560D01*
X38782065Y-26183554D01*
X38716445Y-26117934D01*
X38716439Y-26117929D01*
X38636062Y-26071522D01*
X38636059Y-26071521D01*
X38546414Y-26047501D01*
X38546409Y-26047500D01*
X38546408Y-26047500D01*
X38453592Y-26047500D01*
X38453591Y-26047500D01*
X38453585Y-26047501D01*
X38363940Y-26071521D01*
X38363937Y-26071522D01*
X38283560Y-26117929D01*
X38283554Y-26117934D01*
X38217934Y-26183554D01*
X38217929Y-26183560D01*
X38171522Y-26263937D01*
X38171521Y-26263940D01*
X38147501Y-26353585D01*
X38147500Y-26353593D01*
X35332785Y-26353593D01*
X36489306Y-25197072D01*
X36533500Y-25178766D01*
X36577694Y-25197072D01*
X36596000Y-25241266D01*
X36596000Y-25316406D01*
X36596001Y-25316414D01*
X36620021Y-25406059D01*
X36620022Y-25406062D01*
X36666429Y-25486439D01*
X36666434Y-25486445D01*
X36732054Y-25552065D01*
X36732060Y-25552070D01*
X36812437Y-25598477D01*
X36812440Y-25598478D01*
X36902092Y-25622500D01*
X36902093Y-25622500D01*
X36994907Y-25622500D01*
X36994908Y-25622500D01*
X37084560Y-25598478D01*
X37088288Y-25596326D01*
X37115075Y-25580860D01*
X37164940Y-25552070D01*
X37230570Y-25486440D01*
X37273330Y-25412378D01*
X37276977Y-25406062D01*
X37276978Y-25406059D01*
X37277817Y-25402929D01*
X37301000Y-25316408D01*
X37301000Y-25223592D01*
X37276978Y-25133940D01*
X37276977Y-25133937D01*
X37230570Y-25053560D01*
X37230565Y-25053554D01*
X37186205Y-25009194D01*
X37167899Y-24965000D01*
X37186205Y-24920806D01*
X37230399Y-24902500D01*
X37990234Y-24902500D01*
X38034428Y-24920806D01*
X38728329Y-25614707D01*
X38785293Y-25671671D01*
X38859165Y-25702270D01*
X38879438Y-25715817D01*
X38885293Y-25721672D01*
X38930054Y-25740212D01*
X38930055Y-25740213D01*
X38952998Y-25749715D01*
X38959720Y-25752500D01*
X38959721Y-25752500D01*
X39040280Y-25752500D01*
X41990234Y-25752500D01*
X42034428Y-25770806D01*
X43385293Y-27121671D01*
X43459165Y-27152270D01*
X43479438Y-27165817D01*
X43485293Y-27171672D01*
X43514763Y-27183878D01*
X43537921Y-27193470D01*
X43537923Y-27193471D01*
X43559719Y-27202500D01*
X43559720Y-27202500D01*
X53790280Y-27202500D01*
X53835237Y-27183878D01*
X53864703Y-27171673D01*
X53864703Y-27171672D01*
X53864707Y-27171671D01*
X53870560Y-27165817D01*
X53890833Y-27152270D01*
X53964707Y-27121671D01*
X53965572Y-27120806D01*
X53966700Y-27120338D01*
X53969823Y-27118252D01*
X53970238Y-27118873D01*
X54009766Y-27102500D01*
X55790233Y-27102500D01*
X55829760Y-27118872D01*
X55830175Y-27118252D01*
X55833296Y-27120337D01*
X55834427Y-27120806D01*
X55835293Y-27121672D01*
X55841803Y-27124368D01*
X55875629Y-27158189D01*
X55875630Y-27158193D01*
X55878326Y-27164702D01*
X55878330Y-27164708D01*
X55879194Y-27165572D01*
X55879661Y-27166700D01*
X55881748Y-27169823D01*
X55881126Y-27170238D01*
X55897500Y-27209766D01*
X55897500Y-28090234D01*
X55881126Y-28129761D01*
X55881748Y-28130177D01*
X55879661Y-28133299D01*
X55879194Y-28134428D01*
X55878330Y-28135291D01*
X55878326Y-28135297D01*
X55847729Y-28209164D01*
X55834181Y-28229440D01*
X55729439Y-28334182D01*
X55709163Y-28347730D01*
X55697063Y-28352742D01*
X55673145Y-28357500D01*
X54118766Y-28357500D01*
X54094576Y-28360306D01*
X54094573Y-28360307D01*
X53995557Y-28404027D01*
X53919027Y-28480557D01*
X53919026Y-28480558D01*
X53919026Y-28480559D01*
X53901336Y-28520624D01*
X53875307Y-28579573D01*
X53875306Y-28579576D01*
X53872500Y-28603764D01*
X53872500Y-29266235D01*
X53875306Y-29290423D01*
X53875307Y-29290426D01*
X53875307Y-29290428D01*
X53875308Y-29290429D01*
X53919026Y-29389441D01*
X53995559Y-29465974D01*
X54094571Y-29509692D01*
X54094574Y-29509692D01*
X54094576Y-29509693D01*
X54118764Y-29512499D01*
X54118767Y-29512500D01*
X54118774Y-29512500D01*
X55681233Y-29512500D01*
X55681235Y-29512499D01*
X55705423Y-29509693D01*
X55705424Y-29509692D01*
X55705429Y-29509692D01*
X55804441Y-29465974D01*
X55880974Y-29389441D01*
X55924692Y-29290429D01*
X55927499Y-29266235D01*
X55927500Y-29266233D01*
X55927500Y-28734766D01*
X55945806Y-28690572D01*
X56081600Y-28554778D01*
X56221671Y-28414707D01*
X56252271Y-28340831D01*
X56265815Y-28320563D01*
X56271672Y-28314707D01*
X56294447Y-28259721D01*
X56302500Y-28240280D01*
X56302500Y-27649993D01*
X60998500Y-27649993D01*
X60998500Y-27742806D01*
X60998501Y-27742814D01*
X61022521Y-27832459D01*
X61022522Y-27832462D01*
X61068929Y-27912839D01*
X61068934Y-27912845D01*
X61134554Y-27978465D01*
X61134560Y-27978470D01*
X61214937Y-28024877D01*
X61214940Y-28024878D01*
X61304592Y-28048900D01*
X61304593Y-28048900D01*
X61397407Y-28048900D01*
X61397408Y-28048900D01*
X61487060Y-28024878D01*
X61567440Y-27978470D01*
X61633070Y-27912840D01*
X61679478Y-27832460D01*
X61703500Y-27742808D01*
X61703500Y-27649992D01*
X61679478Y-27560340D01*
X61679477Y-27560337D01*
X61633070Y-27479960D01*
X61633065Y-27479954D01*
X61567445Y-27414334D01*
X61567439Y-27414329D01*
X61487062Y-27367922D01*
X61487059Y-27367921D01*
X61397414Y-27343901D01*
X61397409Y-27343900D01*
X61397408Y-27343900D01*
X61304592Y-27343900D01*
X61304591Y-27343900D01*
X61304585Y-27343901D01*
X61214940Y-27367921D01*
X61214937Y-27367922D01*
X61134560Y-27414329D01*
X61134554Y-27414334D01*
X61068934Y-27479954D01*
X61068929Y-27479960D01*
X61022522Y-27560337D01*
X61022521Y-27560340D01*
X60998501Y-27649985D01*
X60998500Y-27649993D01*
X56302500Y-27649993D01*
X56302500Y-27059720D01*
X56283855Y-27014707D01*
X56271672Y-26985293D01*
X56265817Y-26979438D01*
X56252269Y-26959162D01*
X56233857Y-26914712D01*
X56233856Y-26914710D01*
X56221672Y-26885293D01*
X56221671Y-26885292D01*
X56114708Y-26778330D01*
X56114703Y-26778326D01*
X56040835Y-26747729D01*
X56020559Y-26734181D01*
X56014708Y-26728330D01*
X56014703Y-26728326D01*
X55940282Y-26697500D01*
X55940280Y-26697500D01*
X53859720Y-26697500D01*
X53859717Y-26697500D01*
X53854890Y-26699500D01*
X53813997Y-26716439D01*
X53785291Y-26728329D01*
X53785290Y-26728329D01*
X53779436Y-26734184D01*
X53759162Y-26747730D01*
X53737922Y-26756528D01*
X53737921Y-26756529D01*
X53685294Y-26778327D01*
X53685291Y-26778329D01*
X53684427Y-26779194D01*
X53683297Y-26779661D01*
X53680177Y-26781747D01*
X53679762Y-26781126D01*
X53640233Y-26797500D01*
X44148068Y-26797500D01*
X44103874Y-26779194D01*
X44085568Y-26735000D01*
X44093942Y-26703749D01*
X44124477Y-26650862D01*
X44124478Y-26650859D01*
X44128443Y-26636062D01*
X44148500Y-26561208D01*
X44148500Y-26468392D01*
X44124478Y-26378740D01*
X44124477Y-26378737D01*
X44078070Y-26298360D01*
X44078065Y-26298354D01*
X44012445Y-26232734D01*
X44012439Y-26232729D01*
X43932062Y-26186322D01*
X43932059Y-26186321D01*
X43842414Y-26162301D01*
X43842409Y-26162300D01*
X43842408Y-26162300D01*
X43755766Y-26162300D01*
X43711572Y-26143994D01*
X43521171Y-25953593D01*
X47547500Y-25953593D01*
X47547500Y-26046406D01*
X47547501Y-26046414D01*
X47571521Y-26136059D01*
X47571522Y-26136062D01*
X47617929Y-26216439D01*
X47617934Y-26216445D01*
X47683554Y-26282065D01*
X47683560Y-26282070D01*
X47763937Y-26328477D01*
X47763940Y-26328478D01*
X47853592Y-26352500D01*
X47853593Y-26352500D01*
X47946407Y-26352500D01*
X47946408Y-26352500D01*
X48036060Y-26328478D01*
X48116440Y-26282070D01*
X48172117Y-26226393D01*
X48740300Y-26226393D01*
X48740300Y-26319206D01*
X48740301Y-26319214D01*
X48764321Y-26408859D01*
X48764322Y-26408862D01*
X48810729Y-26489239D01*
X48810734Y-26489245D01*
X48876354Y-26554865D01*
X48876360Y-26554870D01*
X48956737Y-26601277D01*
X48956740Y-26601278D01*
X49046392Y-26625300D01*
X49046393Y-26625300D01*
X49139207Y-26625300D01*
X49139208Y-26625300D01*
X49228860Y-26601278D01*
X49309240Y-26554870D01*
X49374870Y-26489240D01*
X49395451Y-26453593D01*
X63897500Y-26453593D01*
X63897500Y-26546406D01*
X63897501Y-26546414D01*
X63921521Y-26636059D01*
X63921522Y-26636062D01*
X63967929Y-26716439D01*
X63967934Y-26716445D01*
X64033554Y-26782065D01*
X64033560Y-26782070D01*
X64113937Y-26828477D01*
X64113940Y-26828478D01*
X64203592Y-26852500D01*
X64203593Y-26852500D01*
X64296407Y-26852500D01*
X64296408Y-26852500D01*
X64386060Y-26828478D01*
X64466440Y-26782070D01*
X64532070Y-26716440D01*
X64578478Y-26636060D01*
X64602500Y-26546408D01*
X64602500Y-26453592D01*
X64578478Y-26363940D01*
X64578477Y-26363937D01*
X64532070Y-26283560D01*
X64532065Y-26283554D01*
X64466445Y-26217934D01*
X64466439Y-26217929D01*
X64386062Y-26171522D01*
X64386059Y-26171521D01*
X64296414Y-26147501D01*
X64296409Y-26147500D01*
X64296408Y-26147500D01*
X64203592Y-26147500D01*
X64203591Y-26147500D01*
X64203585Y-26147501D01*
X64113940Y-26171521D01*
X64113937Y-26171522D01*
X64033560Y-26217929D01*
X64033554Y-26217934D01*
X63967934Y-26283554D01*
X63967929Y-26283560D01*
X63921522Y-26363937D01*
X63921521Y-26363940D01*
X63897501Y-26453585D01*
X63897500Y-26453593D01*
X49395451Y-26453593D01*
X49415534Y-26418809D01*
X49415860Y-26418245D01*
X49415861Y-26418244D01*
X49421275Y-26408865D01*
X49421277Y-26408862D01*
X49421278Y-26408860D01*
X49445300Y-26319208D01*
X49445300Y-26226392D01*
X49421278Y-26136740D01*
X49421277Y-26136737D01*
X49374870Y-26056360D01*
X49374865Y-26056354D01*
X49309245Y-25990734D01*
X49309239Y-25990729D01*
X49244919Y-25953593D01*
X52447500Y-25953593D01*
X52447500Y-26046406D01*
X52447501Y-26046414D01*
X52471521Y-26136059D01*
X52471522Y-26136062D01*
X52517929Y-26216439D01*
X52517934Y-26216445D01*
X52583554Y-26282065D01*
X52583560Y-26282070D01*
X52663937Y-26328477D01*
X52663940Y-26328478D01*
X52753592Y-26352500D01*
X52753593Y-26352500D01*
X52846407Y-26352500D01*
X52846408Y-26352500D01*
X52936060Y-26328478D01*
X53016440Y-26282070D01*
X53082070Y-26216440D01*
X53120233Y-26150340D01*
X53128477Y-26136062D01*
X53128478Y-26136059D01*
X53152500Y-26046408D01*
X53152500Y-25953592D01*
X53128478Y-25863940D01*
X53128477Y-25863937D01*
X53082070Y-25783560D01*
X53082065Y-25783554D01*
X53016445Y-25717934D01*
X53016439Y-25717929D01*
X52936062Y-25671522D01*
X52936059Y-25671521D01*
X52846414Y-25647501D01*
X52846409Y-25647500D01*
X52846408Y-25647500D01*
X52753592Y-25647500D01*
X52753591Y-25647500D01*
X52753585Y-25647501D01*
X52663940Y-25671521D01*
X52663937Y-25671522D01*
X52583560Y-25717929D01*
X52583554Y-25717934D01*
X52517934Y-25783554D01*
X52517929Y-25783560D01*
X52471522Y-25863937D01*
X52471521Y-25863940D01*
X52447501Y-25953585D01*
X52447500Y-25953593D01*
X49244919Y-25953593D01*
X49228862Y-25944322D01*
X49228859Y-25944321D01*
X49139214Y-25920301D01*
X49139209Y-25920300D01*
X49139208Y-25920300D01*
X49046392Y-25920300D01*
X49046391Y-25920300D01*
X49046385Y-25920301D01*
X48956740Y-25944321D01*
X48956737Y-25944322D01*
X48876360Y-25990729D01*
X48876354Y-25990734D01*
X48810734Y-26056354D01*
X48810729Y-26056360D01*
X48764322Y-26136737D01*
X48764321Y-26136740D01*
X48740301Y-26226385D01*
X48740300Y-26226393D01*
X48172117Y-26226393D01*
X48182070Y-26216440D01*
X48187158Y-26207626D01*
X48196732Y-26191046D01*
X48196732Y-26191045D01*
X48228477Y-26136062D01*
X48228478Y-26136059D01*
X48252500Y-26046408D01*
X48252500Y-25953592D01*
X48228478Y-25863940D01*
X48228477Y-25863937D01*
X48182070Y-25783560D01*
X48182065Y-25783554D01*
X48116445Y-25717934D01*
X48116439Y-25717929D01*
X48036062Y-25671522D01*
X48036059Y-25671521D01*
X47946414Y-25647501D01*
X47946409Y-25647500D01*
X47946408Y-25647500D01*
X47853592Y-25647500D01*
X47853591Y-25647500D01*
X47853585Y-25647501D01*
X47763940Y-25671521D01*
X47763937Y-25671522D01*
X47683560Y-25717929D01*
X47683554Y-25717934D01*
X47617934Y-25783554D01*
X47617929Y-25783560D01*
X47571522Y-25863937D01*
X47571521Y-25863940D01*
X47547501Y-25953585D01*
X47547500Y-25953593D01*
X43521171Y-25953593D01*
X42965971Y-25398393D01*
X44063500Y-25398393D01*
X44063500Y-25491206D01*
X44063501Y-25491214D01*
X44087521Y-25580859D01*
X44087522Y-25580862D01*
X44133929Y-25661239D01*
X44133934Y-25661245D01*
X44199554Y-25726865D01*
X44199560Y-25726870D01*
X44279937Y-25773277D01*
X44279940Y-25773278D01*
X44369592Y-25797300D01*
X44369593Y-25797300D01*
X44462407Y-25797300D01*
X44462408Y-25797300D01*
X44552060Y-25773278D01*
X44632440Y-25726870D01*
X44698070Y-25661240D01*
X44744478Y-25580860D01*
X44768500Y-25491208D01*
X44768500Y-25398392D01*
X44744478Y-25308740D01*
X44744477Y-25308737D01*
X44698070Y-25228360D01*
X44698065Y-25228354D01*
X44632445Y-25162734D01*
X44632439Y-25162729D01*
X44552062Y-25116322D01*
X44552059Y-25116321D01*
X44462414Y-25092301D01*
X44462409Y-25092300D01*
X44462408Y-25092300D01*
X44369592Y-25092300D01*
X44369591Y-25092300D01*
X44369585Y-25092301D01*
X44279940Y-25116321D01*
X44279937Y-25116322D01*
X44199560Y-25162729D01*
X44199554Y-25162734D01*
X44133934Y-25228354D01*
X44133929Y-25228360D01*
X44087522Y-25308737D01*
X44087521Y-25308740D01*
X44063501Y-25398385D01*
X44063500Y-25398393D01*
X42965971Y-25398393D01*
X42521171Y-24953593D01*
X48572500Y-24953593D01*
X48572500Y-25046406D01*
X48572501Y-25046414D01*
X48596521Y-25136059D01*
X48596522Y-25136062D01*
X48642929Y-25216439D01*
X48642934Y-25216445D01*
X48708554Y-25282065D01*
X48708560Y-25282070D01*
X48788937Y-25328477D01*
X48788940Y-25328478D01*
X48878592Y-25352500D01*
X48878593Y-25352500D01*
X48971407Y-25352500D01*
X48971408Y-25352500D01*
X49061060Y-25328478D01*
X49141440Y-25282070D01*
X49207070Y-25216440D01*
X49243669Y-25153048D01*
X49253477Y-25136062D01*
X49253478Y-25136059D01*
X49254047Y-25133937D01*
X49277500Y-25046408D01*
X49277500Y-24953592D01*
X49253478Y-24863940D01*
X49253477Y-24863937D01*
X49207070Y-24783560D01*
X49207065Y-24783554D01*
X49141445Y-24717934D01*
X49141439Y-24717929D01*
X49061062Y-24671522D01*
X49061059Y-24671521D01*
X48971414Y-24647501D01*
X48971409Y-24647500D01*
X48971408Y-24647500D01*
X48878592Y-24647500D01*
X48878591Y-24647500D01*
X48878585Y-24647501D01*
X48788940Y-24671521D01*
X48788937Y-24671522D01*
X48708560Y-24717929D01*
X48708554Y-24717934D01*
X48642934Y-24783554D01*
X48642929Y-24783560D01*
X48596522Y-24863937D01*
X48596521Y-24863940D01*
X48572501Y-24953585D01*
X48572500Y-24953593D01*
X42521171Y-24953593D01*
X40743008Y-23175430D01*
X40743003Y-23175426D01*
X40668582Y-23144600D01*
X40668580Y-23144600D01*
X38205598Y-23144600D01*
X38161404Y-23126294D01*
X38100140Y-23065030D01*
X38100139Y-23065029D01*
X38019762Y-23018622D01*
X38019759Y-23018621D01*
X37930114Y-22994601D01*
X37930109Y-22994600D01*
X37930108Y-22994600D01*
X37837292Y-22994600D01*
X37837291Y-22994600D01*
X37837285Y-22994601D01*
X37747640Y-23018621D01*
X37747637Y-23018622D01*
X37667260Y-23065029D01*
X37667254Y-23065034D01*
X37601634Y-23130654D01*
X37601629Y-23130660D01*
X37555222Y-23211037D01*
X37555221Y-23211040D01*
X37531201Y-23300685D01*
X37531200Y-23300693D01*
X37531200Y-23393506D01*
X37531201Y-23393514D01*
X37555221Y-23483159D01*
X37555222Y-23483162D01*
X37601629Y-23563539D01*
X37601634Y-23563545D01*
X37667254Y-23629165D01*
X37667260Y-23629170D01*
X37747637Y-23675577D01*
X37747640Y-23675578D01*
X37837292Y-23699600D01*
X37837293Y-23699600D01*
X37930107Y-23699600D01*
X37930108Y-23699600D01*
X38019760Y-23675578D01*
X38100140Y-23629170D01*
X38161404Y-23567905D01*
X38205598Y-23549600D01*
X40518534Y-23549600D01*
X40562728Y-23567906D01*
X42263008Y-25268186D01*
X42281314Y-25312380D01*
X42263008Y-25356574D01*
X42218814Y-25374880D01*
X42194897Y-25370123D01*
X42162186Y-25356574D01*
X42140280Y-25347500D01*
X42140279Y-25347500D01*
X39536723Y-25347500D01*
X39492529Y-25329194D01*
X39474223Y-25285000D01*
X39482597Y-25253749D01*
X39488844Y-25242930D01*
X39521678Y-25186060D01*
X39545700Y-25096408D01*
X39545700Y-25003592D01*
X39521678Y-24913940D01*
X39521677Y-24913937D01*
X39475270Y-24833560D01*
X39475265Y-24833554D01*
X39409645Y-24767934D01*
X39409639Y-24767929D01*
X39329262Y-24721522D01*
X39329259Y-24721521D01*
X39239614Y-24697501D01*
X39239609Y-24697500D01*
X39239608Y-24697500D01*
X39146792Y-24697500D01*
X39146791Y-24697500D01*
X39146785Y-24697501D01*
X39057140Y-24721521D01*
X39057137Y-24721522D01*
X38976760Y-24767929D01*
X38976754Y-24767934D01*
X38911134Y-24833554D01*
X38911129Y-24833560D01*
X38864722Y-24913937D01*
X38864721Y-24913940D01*
X38840701Y-25003585D01*
X38840166Y-25007651D01*
X38839015Y-25007499D01*
X38822394Y-25047628D01*
X38778200Y-25065934D01*
X38734006Y-25047628D01*
X38214708Y-24528330D01*
X38214703Y-24528326D01*
X38140282Y-24497500D01*
X38140280Y-24497500D01*
X36709720Y-24497500D01*
X36709718Y-24497500D01*
X36687920Y-24506528D01*
X36687921Y-24506529D01*
X36635294Y-24528327D01*
X36635290Y-24528329D01*
X36629436Y-24534184D01*
X36609162Y-24547730D01*
X36535297Y-24578326D01*
X36535291Y-24578330D01*
X35376363Y-25737258D01*
X35332169Y-25755564D01*
X35287975Y-25737258D01*
X35269669Y-25693064D01*
X35277199Y-25664969D01*
X35276909Y-25664849D01*
X35277822Y-25662642D01*
X35278047Y-25661806D01*
X35278478Y-25661060D01*
X35302500Y-25571408D01*
X35302500Y-25478592D01*
X35278478Y-25388940D01*
X35278477Y-25388937D01*
X35232070Y-25308560D01*
X35232065Y-25308554D01*
X35166445Y-25242934D01*
X35166439Y-25242929D01*
X35086062Y-25196522D01*
X35086059Y-25196521D01*
X34996414Y-25172501D01*
X34996409Y-25172500D01*
X34996408Y-25172500D01*
X34903592Y-25172500D01*
X34903591Y-25172500D01*
X34903585Y-25172501D01*
X34813940Y-25196521D01*
X34813937Y-25196522D01*
X34733560Y-25242929D01*
X34733554Y-25242934D01*
X34667934Y-25308554D01*
X34667929Y-25308560D01*
X34621522Y-25388937D01*
X34621521Y-25388940D01*
X34597501Y-25478585D01*
X34597500Y-25478593D01*
X34597500Y-25571406D01*
X34597501Y-25571414D01*
X34621521Y-25661059D01*
X34621522Y-25661062D01*
X34667929Y-25741439D01*
X34667934Y-25741445D01*
X34733554Y-25807065D01*
X34733560Y-25807070D01*
X34813937Y-25853477D01*
X34813940Y-25853478D01*
X34903592Y-25877500D01*
X34903593Y-25877500D01*
X34996407Y-25877500D01*
X34996408Y-25877500D01*
X35086060Y-25853478D01*
X35086806Y-25853046D01*
X35087238Y-25852989D01*
X35089849Y-25851909D01*
X35090138Y-25852607D01*
X35134232Y-25846796D01*
X35172186Y-25875911D01*
X35178437Y-25923337D01*
X35162258Y-25951363D01*
X34884428Y-26229194D01*
X34840234Y-26247500D01*
X32321898Y-26247500D01*
X32277704Y-26229194D01*
X32216440Y-26167930D01*
X32216439Y-26167929D01*
X32136062Y-26121522D01*
X32136059Y-26121521D01*
X32046414Y-26097501D01*
X32046409Y-26097500D01*
X32046408Y-26097500D01*
X31953592Y-26097500D01*
X31953591Y-26097500D01*
X31953585Y-26097501D01*
X31863940Y-26121521D01*
X31863937Y-26121522D01*
X31783560Y-26167929D01*
X31783554Y-26167934D01*
X31717934Y-26233554D01*
X31717929Y-26233560D01*
X31671522Y-26313937D01*
X31671521Y-26313940D01*
X31647501Y-26403585D01*
X31647500Y-26403593D01*
X29440080Y-26403593D01*
X29734695Y-25994933D01*
X29771833Y-25970473D01*
X29973556Y-25925646D01*
X30020667Y-25933929D01*
X30021781Y-25934655D01*
X30135093Y-26010196D01*
X30160794Y-26046023D01*
X30171521Y-26086059D01*
X30171522Y-26086062D01*
X30217929Y-26166439D01*
X30217934Y-26166445D01*
X30283554Y-26232065D01*
X30283560Y-26232070D01*
X30363937Y-26278477D01*
X30363940Y-26278478D01*
X30453592Y-26302500D01*
X30453593Y-26302500D01*
X30546407Y-26302500D01*
X30546408Y-26302500D01*
X30636060Y-26278478D01*
X30716440Y-26232070D01*
X30782070Y-26166440D01*
X30818669Y-26103048D01*
X30828477Y-26086062D01*
X30828478Y-26086059D01*
X30832373Y-26071522D01*
X30852500Y-25996408D01*
X30852500Y-25903592D01*
X30828478Y-25813940D01*
X30828477Y-25813937D01*
X30782070Y-25733560D01*
X30782065Y-25733554D01*
X30716445Y-25667934D01*
X30716439Y-25667929D01*
X30636062Y-25621522D01*
X30636059Y-25621521D01*
X30546414Y-25597501D01*
X30546409Y-25597500D01*
X30546408Y-25597500D01*
X30453592Y-25597500D01*
X30449496Y-25597500D01*
X30449496Y-25596326D01*
X30411385Y-25587455D01*
X30236689Y-25470991D01*
X30228160Y-25464157D01*
X30227936Y-25463942D01*
X30227934Y-25463940D01*
X30188361Y-25438756D01*
X30187333Y-25438087D01*
X30148272Y-25412047D01*
X30148270Y-25412046D01*
X30148265Y-25412043D01*
X30147967Y-25411920D01*
X30147559Y-25411708D01*
X30146398Y-25411257D01*
X30145195Y-25410775D01*
X30143948Y-25410260D01*
X30143476Y-25410123D01*
X30143189Y-25410011D01*
X30143188Y-25410011D01*
X30120728Y-25406062D01*
X30097030Y-25401895D01*
X30095726Y-25401651D01*
X30049729Y-25392552D01*
X30049399Y-25392553D01*
X30048932Y-25392512D01*
X30047655Y-25392541D01*
X30046334Y-25392556D01*
X30045054Y-25392557D01*
X30044586Y-25392609D01*
X30044256Y-25392616D01*
X29998493Y-25402785D01*
X29997195Y-25403059D01*
X29951230Y-25412253D01*
X29950930Y-25412378D01*
X29940517Y-25415669D01*
X29554127Y-25501533D01*
X29550575Y-25502215D01*
X29510005Y-25508794D01*
X29504240Y-25510946D01*
X29504128Y-25510646D01*
X29501697Y-25511634D01*
X29501826Y-25511927D01*
X29496197Y-25514407D01*
X29462539Y-25537999D01*
X29459520Y-25539987D01*
X29424550Y-25561595D01*
X29420047Y-25565789D01*
X29419829Y-25565555D01*
X29417965Y-25567396D01*
X29418195Y-25567616D01*
X29413940Y-25572065D01*
X29413940Y-25572066D01*
X29406708Y-25583429D01*
X29391864Y-25606755D01*
X29389834Y-25609749D01*
X29010304Y-26136192D01*
X28969610Y-26161336D01*
X28923056Y-26150340D01*
X28905481Y-26130894D01*
X28881270Y-26088960D01*
X28881268Y-26088958D01*
X28881265Y-26088954D01*
X28815645Y-26023334D01*
X28815639Y-26023329D01*
X28735262Y-25976922D01*
X28735259Y-25976921D01*
X28645614Y-25952901D01*
X28645609Y-25952900D01*
X28645608Y-25952900D01*
X28552792Y-25952900D01*
X28552791Y-25952900D01*
X28552785Y-25952901D01*
X28463140Y-25976921D01*
X28463133Y-25976924D01*
X28455367Y-25981408D01*
X28407940Y-25987649D01*
X28369992Y-25958527D01*
X28363751Y-25911100D01*
X28368923Y-25897962D01*
X28671122Y-25329116D01*
X28706551Y-25299147D01*
X28891330Y-25237554D01*
X28900908Y-25235183D01*
X33406578Y-24491979D01*
X33453160Y-24502848D01*
X33460943Y-24509453D01*
X33483555Y-24532066D01*
X33483560Y-24532070D01*
X33563937Y-24578477D01*
X33563940Y-24578478D01*
X33653592Y-24602500D01*
X33653593Y-24602500D01*
X33746407Y-24602500D01*
X33746408Y-24602500D01*
X33836060Y-24578478D01*
X33836317Y-24578330D01*
X33889316Y-24547730D01*
X33916440Y-24532070D01*
X33982070Y-24466440D01*
X34028478Y-24386060D01*
X34052500Y-24296408D01*
X34052500Y-24203592D01*
X34028478Y-24113940D01*
X34028477Y-24113937D01*
X33982070Y-24033560D01*
X33982065Y-24033554D01*
X33916445Y-23967934D01*
X33916439Y-23967929D01*
X33836062Y-23921522D01*
X33836059Y-23921521D01*
X33746414Y-23897501D01*
X33746409Y-23897500D01*
X33746408Y-23897500D01*
X33653592Y-23897500D01*
X33653591Y-23897500D01*
X33653585Y-23897501D01*
X33563940Y-23921521D01*
X33563937Y-23921522D01*
X33483560Y-23967929D01*
X33483554Y-23967934D01*
X33417934Y-24033554D01*
X33417929Y-24033560D01*
X33388435Y-24084644D01*
X33350484Y-24113764D01*
X33344481Y-24115060D01*
X28848367Y-24856688D01*
X28833767Y-24857364D01*
X28825643Y-24856786D01*
X28825640Y-24856787D01*
X28808662Y-24862446D01*
X28799075Y-24864818D01*
X28781433Y-24867728D01*
X28781427Y-24867730D01*
X28774512Y-24872029D01*
X28761284Y-24878239D01*
X28492561Y-24967813D01*
X28491094Y-24968282D01*
X28457599Y-24978537D01*
X28457405Y-24978620D01*
X28456305Y-24979248D01*
X28454986Y-24979979D01*
X28453863Y-24980583D01*
X28453682Y-24980707D01*
X28427204Y-25003670D01*
X28426030Y-25004663D01*
X28399027Y-25026939D01*
X28398861Y-25027110D01*
X28398088Y-25028107D01*
X28397147Y-25029289D01*
X28396351Y-25030263D01*
X28396223Y-25030460D01*
X28380568Y-25061772D01*
X28379862Y-25063143D01*
X27551433Y-26622537D01*
X27545399Y-26630385D01*
X27545911Y-26630756D01*
X27542303Y-26635735D01*
X27529490Y-26663623D01*
X27527893Y-26666851D01*
X27513501Y-26693942D01*
X27511730Y-26699834D01*
X27511123Y-26699651D01*
X27508545Y-26709206D01*
X26686285Y-28498832D01*
X26680503Y-28508853D01*
X26672170Y-28520622D01*
X26672168Y-28520626D01*
X26669590Y-28531968D01*
X26665440Y-28544201D01*
X26660581Y-28554778D01*
X26660580Y-28554780D01*
X26660032Y-28569186D01*
X26658523Y-28580658D01*
X26623946Y-28732802D01*
X26596301Y-28771840D01*
X26549149Y-28779897D01*
X26510111Y-28752252D01*
X26500500Y-28718951D01*
X26500500Y-25340438D01*
X26500499Y-25340432D01*
X26484860Y-25282070D01*
X26480021Y-25264011D01*
X26440460Y-25195489D01*
X26440458Y-25195487D01*
X26440455Y-25195483D01*
X26384516Y-25139544D01*
X26384512Y-25139541D01*
X26384511Y-25139540D01*
X26315989Y-25099979D01*
X26315988Y-25099978D01*
X26315987Y-25099978D01*
X26239567Y-25079500D01*
X26239562Y-25079500D01*
X20548057Y-25079500D01*
X20503863Y-25061194D01*
X20485557Y-25017000D01*
X20490510Y-24992616D01*
X20495865Y-24979979D01*
X20745226Y-24391484D01*
X20760960Y-24369416D01*
X21667431Y-23553593D01*
X35247500Y-23553593D01*
X35247500Y-23646406D01*
X35247501Y-23646414D01*
X35271521Y-23736059D01*
X35271522Y-23736062D01*
X35317929Y-23816439D01*
X35317934Y-23816445D01*
X35383554Y-23882065D01*
X35383560Y-23882070D01*
X35463937Y-23928477D01*
X35463940Y-23928478D01*
X35553592Y-23952500D01*
X35553593Y-23952500D01*
X35646407Y-23952500D01*
X35646408Y-23952500D01*
X35736060Y-23928478D01*
X35816440Y-23882070D01*
X35882070Y-23816440D01*
X35928478Y-23736060D01*
X35952500Y-23646408D01*
X35952500Y-23553592D01*
X35928478Y-23463940D01*
X35928477Y-23463937D01*
X35882070Y-23383560D01*
X35882065Y-23383554D01*
X35816445Y-23317934D01*
X35816439Y-23317929D01*
X35736062Y-23271522D01*
X35736059Y-23271521D01*
X35646414Y-23247501D01*
X35646409Y-23247500D01*
X35646408Y-23247500D01*
X35553592Y-23247500D01*
X35553591Y-23247500D01*
X35553585Y-23247501D01*
X35463940Y-23271521D01*
X35463937Y-23271522D01*
X35383560Y-23317929D01*
X35383554Y-23317934D01*
X35317934Y-23383554D01*
X35317929Y-23383560D01*
X35271522Y-23463937D01*
X35271521Y-23463940D01*
X35247501Y-23553585D01*
X35247500Y-23553593D01*
X21667431Y-23553593D01*
X21668105Y-23552986D01*
X21680493Y-23544302D01*
X24349010Y-22121093D01*
X30192000Y-22121093D01*
X30192000Y-22213906D01*
X30192001Y-22213914D01*
X30216021Y-22303559D01*
X30216022Y-22303562D01*
X30262429Y-22383939D01*
X30262434Y-22383945D01*
X30328054Y-22449565D01*
X30328060Y-22449570D01*
X30408437Y-22495977D01*
X30408440Y-22495978D01*
X30498092Y-22520000D01*
X30498093Y-22520000D01*
X30590907Y-22520000D01*
X30590908Y-22520000D01*
X30680560Y-22495978D01*
X30760940Y-22449570D01*
X30826570Y-22383940D01*
X30872978Y-22303560D01*
X30897000Y-22213908D01*
X30897000Y-22137593D01*
X35976300Y-22137593D01*
X35976300Y-22230406D01*
X35976301Y-22230414D01*
X36000321Y-22320059D01*
X36000322Y-22320062D01*
X36046729Y-22400439D01*
X36046734Y-22400445D01*
X36112354Y-22466065D01*
X36112360Y-22466070D01*
X36192737Y-22512477D01*
X36192740Y-22512478D01*
X36282392Y-22536500D01*
X36282393Y-22536500D01*
X36375207Y-22536500D01*
X36375208Y-22536500D01*
X36464860Y-22512478D01*
X36545240Y-22466070D01*
X36610870Y-22400440D01*
X36657278Y-22320060D01*
X36681300Y-22230408D01*
X36681300Y-22137592D01*
X36657278Y-22047940D01*
X36657277Y-22047937D01*
X36610870Y-21967560D01*
X36610866Y-21967555D01*
X36579704Y-21936393D01*
X49271600Y-21936393D01*
X49271600Y-22029206D01*
X49271601Y-22029214D01*
X49295621Y-22118859D01*
X49295622Y-22118862D01*
X49342029Y-22199239D01*
X49342034Y-22199245D01*
X49407654Y-22264865D01*
X49407660Y-22264870D01*
X49488037Y-22311277D01*
X49488040Y-22311278D01*
X49577692Y-22335300D01*
X49577693Y-22335300D01*
X49670507Y-22335300D01*
X49670508Y-22335300D01*
X49760160Y-22311278D01*
X49840540Y-22264870D01*
X49906170Y-22199240D01*
X49951289Y-22121092D01*
X49952577Y-22118862D01*
X49952578Y-22118859D01*
X49967854Y-22061849D01*
X49976600Y-22029208D01*
X49976600Y-21936392D01*
X49952578Y-21846740D01*
X49952577Y-21846737D01*
X49906170Y-21766360D01*
X49906165Y-21766354D01*
X49840545Y-21700734D01*
X49840539Y-21700729D01*
X49760162Y-21654322D01*
X49760159Y-21654321D01*
X49670514Y-21630301D01*
X49670509Y-21630300D01*
X49670508Y-21630300D01*
X49577692Y-21630300D01*
X49577691Y-21630300D01*
X49577685Y-21630301D01*
X49488040Y-21654321D01*
X49488037Y-21654322D01*
X49407660Y-21700729D01*
X49407654Y-21700734D01*
X49342034Y-21766354D01*
X49342029Y-21766360D01*
X49295622Y-21846737D01*
X49295621Y-21846740D01*
X49271601Y-21936385D01*
X49271600Y-21936393D01*
X36579704Y-21936393D01*
X36545245Y-21901934D01*
X36545239Y-21901929D01*
X36464862Y-21855522D01*
X36464859Y-21855521D01*
X36375214Y-21831501D01*
X36375209Y-21831500D01*
X36375208Y-21831500D01*
X36282392Y-21831500D01*
X36282391Y-21831500D01*
X36282385Y-21831501D01*
X36192740Y-21855521D01*
X36192737Y-21855522D01*
X36112360Y-21901929D01*
X36112354Y-21901934D01*
X36046734Y-21967554D01*
X36046729Y-21967560D01*
X36000322Y-22047937D01*
X36000321Y-22047940D01*
X35976301Y-22137585D01*
X35976300Y-22137593D01*
X30897000Y-22137593D01*
X30897000Y-22121092D01*
X30872978Y-22031440D01*
X30872977Y-22031437D01*
X30826570Y-21951060D01*
X30826565Y-21951054D01*
X30760945Y-21885434D01*
X30760939Y-21885429D01*
X30680562Y-21839022D01*
X30680559Y-21839021D01*
X30590914Y-21815001D01*
X30590909Y-21815000D01*
X30590908Y-21815000D01*
X30498092Y-21815000D01*
X30498091Y-21815000D01*
X30498085Y-21815001D01*
X30408440Y-21839021D01*
X30408437Y-21839022D01*
X30328060Y-21885429D01*
X30328054Y-21885434D01*
X30262434Y-21951054D01*
X30262429Y-21951060D01*
X30216022Y-22031437D01*
X30216021Y-22031440D01*
X30192001Y-22121085D01*
X30192000Y-22121093D01*
X24349010Y-22121093D01*
X24586256Y-21994562D01*
X24606391Y-21987902D01*
X28517807Y-21401190D01*
X28527078Y-21400500D01*
X54437500Y-21400500D01*
X54481694Y-21418806D01*
G37*
%TD.AperFunction*%
%TA.AperFunction,Conductor*%
G36*
X32836089Y-31124860D02*
G01*
X32880222Y-31143312D01*
X32898382Y-31187567D01*
X32890008Y-31218610D01*
X32853343Y-31282114D01*
X32853340Y-31282120D01*
X32829320Y-31371765D01*
X32829319Y-31371773D01*
X32829319Y-31464586D01*
X32829320Y-31464594D01*
X32853340Y-31554239D01*
X32853341Y-31554242D01*
X32899748Y-31634619D01*
X32899753Y-31634625D01*
X32955322Y-31690194D01*
X32973628Y-31734388D01*
X32973618Y-31735504D01*
X32948353Y-33150341D01*
X32947500Y-33158294D01*
X32947500Y-33197629D01*
X32947490Y-33198745D01*
X32946874Y-33233198D01*
X32946874Y-33233199D01*
X32946813Y-33236658D01*
X32947500Y-33238404D01*
X32947500Y-33240280D01*
X32962217Y-33275809D01*
X32976308Y-33311624D01*
X32977611Y-33312974D01*
X32978329Y-33314707D01*
X32991845Y-33328223D01*
X32996481Y-33338018D01*
X32996531Y-33339040D01*
X32997729Y-33340833D01*
X33007301Y-33363940D01*
X33028327Y-33414704D01*
X33034181Y-33420558D01*
X33047729Y-33440834D01*
X33060268Y-33471105D01*
X33060268Y-33471107D01*
X33060269Y-33471107D01*
X33078327Y-33514705D01*
X33083921Y-33520299D01*
X33095629Y-33536542D01*
X33096507Y-33538298D01*
X33098346Y-33542328D01*
X33104558Y-33557323D01*
X33104559Y-33557325D01*
X33128327Y-33614707D01*
X33129189Y-33615569D01*
X33129654Y-33616692D01*
X33129914Y-33617081D01*
X33130568Y-33617835D01*
X33130574Y-33617843D01*
X33130473Y-33617918D01*
X33131744Y-33619819D01*
X33131122Y-33620234D01*
X33147500Y-33659761D01*
X33147500Y-35690282D01*
X33178326Y-35764703D01*
X33178328Y-35764706D01*
X33178329Y-35764707D01*
X33485293Y-36071671D01*
X33485294Y-36071671D01*
X33485296Y-36071673D01*
X33559717Y-36102499D01*
X33559720Y-36102500D01*
X33640279Y-36102500D01*
X33978102Y-36102500D01*
X34022296Y-36120806D01*
X34058837Y-36157347D01*
X34083559Y-36182069D01*
X34083560Y-36182070D01*
X34163937Y-36228477D01*
X34163940Y-36228478D01*
X34253592Y-36252500D01*
X34253593Y-36252500D01*
X34346407Y-36252500D01*
X34346408Y-36252500D01*
X34436060Y-36228478D01*
X34516440Y-36182070D01*
X34582070Y-36116440D01*
X34628478Y-36036060D01*
X34652500Y-35946408D01*
X34652500Y-35853592D01*
X34628478Y-35763940D01*
X34628477Y-35763937D01*
X34582070Y-35683560D01*
X34582065Y-35683554D01*
X34516445Y-35617934D01*
X34516439Y-35617929D01*
X34489876Y-35602593D01*
X34460756Y-35564643D01*
X34467001Y-35517216D01*
X34486404Y-35496500D01*
X34500008Y-35487411D01*
X34587411Y-35400008D01*
X34656083Y-35297233D01*
X34677705Y-35245031D01*
X34711529Y-35211208D01*
X34759365Y-35211208D01*
X34779641Y-35224756D01*
X35029891Y-35475006D01*
X35048197Y-35519200D01*
X35047663Y-35527355D01*
X35047500Y-35528593D01*
X35047500Y-35621406D01*
X35047501Y-35621414D01*
X35071521Y-35711059D01*
X35071522Y-35711062D01*
X35117929Y-35791439D01*
X35117934Y-35791445D01*
X35183554Y-35857065D01*
X35183560Y-35857070D01*
X35263937Y-35903477D01*
X35263940Y-35903478D01*
X35353592Y-35927500D01*
X35353593Y-35927500D01*
X35446407Y-35927500D01*
X35446408Y-35927500D01*
X35536060Y-35903478D01*
X35537758Y-35902498D01*
X35559245Y-35890092D01*
X35616440Y-35857070D01*
X35682070Y-35791440D01*
X35728478Y-35711060D01*
X35752500Y-35621408D01*
X35752500Y-35528592D01*
X35728478Y-35438940D01*
X35728477Y-35438937D01*
X35682070Y-35358560D01*
X35682065Y-35358554D01*
X35616445Y-35292934D01*
X35616439Y-35292929D01*
X35536062Y-35246522D01*
X35536059Y-35246521D01*
X35446414Y-35222501D01*
X35446409Y-35222500D01*
X35446408Y-35222500D01*
X35353592Y-35222500D01*
X35353590Y-35222500D01*
X35352355Y-35222663D01*
X35351747Y-35222500D01*
X35349496Y-35222500D01*
X35349496Y-35221896D01*
X35306150Y-35210280D01*
X35300006Y-35204891D01*
X34933194Y-34838079D01*
X34933193Y-34838078D01*
X34862992Y-34809000D01*
X34862991Y-34809000D01*
X34741847Y-34809000D01*
X34697653Y-34790694D01*
X34684105Y-34770418D01*
X34671613Y-34740260D01*
X34656083Y-34702767D01*
X34587411Y-34599992D01*
X34500008Y-34512589D01*
X34494926Y-34509193D01*
X34397234Y-34443917D01*
X34397231Y-34443916D01*
X34368632Y-34432070D01*
X34283035Y-34396615D01*
X34283031Y-34396614D01*
X34161803Y-34372500D01*
X34038197Y-34372500D01*
X33916968Y-34396614D01*
X33916966Y-34396614D01*
X33916965Y-34396615D01*
X33896275Y-34405185D01*
X33802768Y-34443916D01*
X33802765Y-34443917D01*
X33699992Y-34512588D01*
X33699990Y-34512590D01*
X33659194Y-34553387D01*
X33615000Y-34571693D01*
X33570806Y-34553387D01*
X33552500Y-34509193D01*
X33552500Y-33590277D01*
X33552501Y-33590275D01*
X33552500Y-33531288D01*
X33552500Y-33509719D01*
X33550805Y-33505628D01*
X33536739Y-33471670D01*
X33521671Y-33435292D01*
X33521670Y-33435291D01*
X33521670Y-33435290D01*
X33515814Y-33429434D01*
X33502267Y-33409160D01*
X33483854Y-33364707D01*
X33483843Y-33364681D01*
X33471674Y-33335298D01*
X33471671Y-33335293D01*
X33465816Y-33329438D01*
X33452270Y-33309164D01*
X33426402Y-33246714D01*
X33426401Y-33246713D01*
X33423736Y-33240280D01*
X33422560Y-33237441D01*
X33422560Y-33237438D01*
X33421672Y-33235294D01*
X33415818Y-33229440D01*
X33402270Y-33209165D01*
X33393470Y-33187921D01*
X33393469Y-33187919D01*
X33392381Y-33185292D01*
X33371672Y-33135293D01*
X33371671Y-33135292D01*
X33368252Y-33130175D01*
X33369774Y-33129157D01*
X33354466Y-33092199D01*
X33354475Y-33091189D01*
X33378518Y-31744771D01*
X33396814Y-31701693D01*
X33398254Y-31700252D01*
X33398259Y-31700250D01*
X33463889Y-31634620D01*
X33502394Y-31567929D01*
X33510296Y-31554242D01*
X33510297Y-31554239D01*
X33512394Y-31546414D01*
X33534319Y-31464588D01*
X33534319Y-31371772D01*
X33510297Y-31282120D01*
X33474953Y-31220904D01*
X33468709Y-31173480D01*
X33497829Y-31135529D01*
X33529286Y-31127155D01*
X36663276Y-31137532D01*
X36707408Y-31155984D01*
X36725568Y-31200239D01*
X36707263Y-31244226D01*
X36667929Y-31283560D01*
X36621522Y-31363937D01*
X36621521Y-31363940D01*
X36597501Y-31453585D01*
X36597500Y-31453593D01*
X36597500Y-31546406D01*
X36597501Y-31546414D01*
X36621521Y-31636059D01*
X36621522Y-31636062D01*
X36667929Y-31716439D01*
X36667934Y-31716445D01*
X36733554Y-31782065D01*
X36733560Y-31782070D01*
X36813937Y-31828477D01*
X36813940Y-31828478D01*
X36903592Y-31852500D01*
X36903593Y-31852500D01*
X36996407Y-31852500D01*
X36996408Y-31852500D01*
X37086060Y-31828478D01*
X37166440Y-31782070D01*
X37232070Y-31716440D01*
X37278478Y-31636060D01*
X37302500Y-31546408D01*
X37302500Y-31453592D01*
X37278478Y-31363940D01*
X37278477Y-31363937D01*
X37232070Y-31283560D01*
X37232065Y-31283554D01*
X37194644Y-31246133D01*
X37176338Y-31201939D01*
X37194644Y-31157745D01*
X37238838Y-31139439D01*
X37238965Y-31139439D01*
X38874574Y-31144855D01*
X38918707Y-31163307D01*
X38936867Y-31207562D01*
X38932110Y-31231271D01*
X38905128Y-31296414D01*
X38896614Y-31316968D01*
X38874773Y-31426770D01*
X38872500Y-31438197D01*
X38872500Y-31561803D01*
X38896615Y-31683035D01*
X38922187Y-31744772D01*
X38943916Y-31797231D01*
X38943917Y-31797234D01*
X39012588Y-31900007D01*
X39099992Y-31987411D01*
X39194611Y-32050634D01*
X39221187Y-32090408D01*
X39222388Y-32102613D01*
X39222043Y-33974034D01*
X39213669Y-34005272D01*
X39171024Y-34079134D01*
X39171021Y-34079140D01*
X39147001Y-34168785D01*
X39147000Y-34168793D01*
X39147000Y-34261606D01*
X39147001Y-34261614D01*
X39171021Y-34351259D01*
X39171022Y-34351262D01*
X39217429Y-34431639D01*
X39217434Y-34431645D01*
X39283054Y-34497265D01*
X39283060Y-34497270D01*
X39363437Y-34543677D01*
X39363440Y-34543678D01*
X39453092Y-34567700D01*
X39453093Y-34567700D01*
X39545907Y-34567700D01*
X39545908Y-34567700D01*
X39635560Y-34543678D01*
X39643282Y-34539220D01*
X39666456Y-34525840D01*
X39715940Y-34497270D01*
X39781570Y-34431640D01*
X39818354Y-34367929D01*
X39827977Y-34351262D01*
X39827978Y-34351259D01*
X39828815Y-34348135D01*
X39852000Y-34261608D01*
X39852000Y-34168792D01*
X39827978Y-34079140D01*
X39827977Y-34079137D01*
X39798065Y-34027330D01*
X39785416Y-34005422D01*
X39777043Y-33974163D01*
X39777388Y-32102734D01*
X39795702Y-32058547D01*
X39805158Y-32050787D01*
X39900008Y-31987411D01*
X39987411Y-31900008D01*
X40056083Y-31797233D01*
X40103385Y-31683035D01*
X40127500Y-31561803D01*
X40127500Y-31438197D01*
X40103385Y-31316965D01*
X40069608Y-31235419D01*
X40069609Y-31187585D01*
X40103434Y-31153760D01*
X40127555Y-31149003D01*
X43386952Y-31159796D01*
X43427486Y-31174900D01*
X44823951Y-32375370D01*
X46094327Y-33467447D01*
X46115907Y-33510138D01*
X46100979Y-33555585D01*
X46062423Y-33576714D01*
X45140825Y-33708372D01*
X45131986Y-33709000D01*
X45112008Y-33709000D01*
X45112007Y-33709000D01*
X45112002Y-33709001D01*
X45106428Y-33711310D01*
X45091356Y-33715438D01*
X45085380Y-33716292D01*
X45085378Y-33716292D01*
X45068183Y-33726473D01*
X45060263Y-33730432D01*
X45054795Y-33732697D01*
X45041805Y-33738078D01*
X45037534Y-33742349D01*
X45025194Y-33751926D01*
X45019996Y-33755004D01*
X45008008Y-33770988D01*
X45002203Y-33777680D01*
X44999993Y-33779890D01*
X44955799Y-33798196D01*
X44947654Y-33797663D01*
X44946414Y-33797500D01*
X44946408Y-33797500D01*
X44890500Y-33797500D01*
X44846306Y-33779194D01*
X44828000Y-33735000D01*
X44828000Y-32896967D01*
X44827998Y-32896959D01*
X44818169Y-32860278D01*
X44809089Y-32826389D01*
X44772556Y-32763111D01*
X44720889Y-32711444D01*
X44720888Y-32711443D01*
X44657613Y-32674912D01*
X44657606Y-32674909D01*
X44587040Y-32656001D01*
X44587035Y-32656000D01*
X44587034Y-32656000D01*
X44513966Y-32656000D01*
X44513965Y-32656000D01*
X44513959Y-32656001D01*
X44443393Y-32674909D01*
X44443386Y-32674912D01*
X44380111Y-32711443D01*
X44328443Y-32763111D01*
X44291912Y-32826386D01*
X44291909Y-32826393D01*
X44273001Y-32896959D01*
X44273000Y-32896967D01*
X44273000Y-33277123D01*
X44272845Y-33281517D01*
X44253428Y-33557004D01*
X44244676Y-33584766D01*
X44180676Y-33691432D01*
X44155034Y-33715178D01*
X44032768Y-33776311D01*
X43992941Y-33781770D01*
X42817826Y-33554328D01*
X42786476Y-33534946D01*
X42784967Y-33536456D01*
X42716445Y-33467934D01*
X42716439Y-33467929D01*
X42636062Y-33421522D01*
X42636059Y-33421521D01*
X42546414Y-33397501D01*
X42546409Y-33397500D01*
X42546408Y-33397500D01*
X42453592Y-33397500D01*
X42453591Y-33397500D01*
X42453585Y-33397501D01*
X42363940Y-33421521D01*
X42363937Y-33421522D01*
X42283560Y-33467929D01*
X42283554Y-33467934D01*
X42259194Y-33492295D01*
X42215000Y-33510601D01*
X42170806Y-33492295D01*
X42152500Y-33448101D01*
X42152500Y-33409765D01*
X42170805Y-33365572D01*
X42265571Y-33270805D01*
X42309765Y-33252500D01*
X42396407Y-33252500D01*
X42396408Y-33252500D01*
X42486060Y-33228478D01*
X42566440Y-33182070D01*
X42632070Y-33116440D01*
X42674182Y-33043501D01*
X42678477Y-33036062D01*
X42678478Y-33036059D01*
X42687471Y-33002499D01*
X42697206Y-32966164D01*
X42726326Y-32928215D01*
X42773752Y-32921971D01*
X42801770Y-32938147D01*
X42835294Y-32971671D01*
X42869620Y-32985889D01*
X42909720Y-33002499D01*
X43140280Y-33002499D01*
X43167476Y-32991234D01*
X43214703Y-32971672D01*
X43214703Y-32971671D01*
X43214707Y-32971670D01*
X43271671Y-32914706D01*
X43274816Y-32907115D01*
X43295156Y-32858009D01*
X43302500Y-32840279D01*
X43302500Y-32759719D01*
X43299071Y-32751440D01*
X43271673Y-32685295D01*
X43271669Y-32685290D01*
X43214706Y-32628327D01*
X43209587Y-32624906D01*
X43210332Y-32623791D01*
X43193534Y-32611166D01*
X43067469Y-32453585D01*
X42854489Y-32187361D01*
X42841176Y-32141417D01*
X42842924Y-32132142D01*
X42852500Y-32096407D01*
X42852500Y-32003591D01*
X42828478Y-31913939D01*
X42828477Y-31913936D01*
X42782070Y-31833559D01*
X42782065Y-31833553D01*
X42716445Y-31767933D01*
X42716439Y-31767928D01*
X42636062Y-31721521D01*
X42636059Y-31721520D01*
X42546414Y-31697500D01*
X42546409Y-31697499D01*
X42546408Y-31697499D01*
X42453592Y-31697499D01*
X42453591Y-31697499D01*
X42453585Y-31697500D01*
X42363940Y-31721520D01*
X42363937Y-31721521D01*
X42283560Y-31767928D01*
X42283554Y-31767933D01*
X42217934Y-31833553D01*
X42217929Y-31833559D01*
X42171522Y-31913936D01*
X42171521Y-31913939D01*
X42147501Y-32003584D01*
X42147500Y-32003592D01*
X42147500Y-32096405D01*
X42147501Y-32096413D01*
X42153506Y-32118824D01*
X42147263Y-32166250D01*
X42109312Y-32195370D01*
X42093136Y-32197500D01*
X42059717Y-32197500D01*
X41985296Y-32228326D01*
X41985291Y-32228330D01*
X40828330Y-33385291D01*
X40828326Y-33385296D01*
X40797500Y-33459717D01*
X40797500Y-34362916D01*
X40779194Y-34407110D01*
X40758918Y-34420658D01*
X40702769Y-34443915D01*
X40702765Y-34443918D01*
X40599992Y-34512588D01*
X40512588Y-34599992D01*
X40443917Y-34702765D01*
X40443916Y-34702768D01*
X40422593Y-34754248D01*
X40397039Y-34815943D01*
X40396614Y-34816968D01*
X40372500Y-34938196D01*
X40372500Y-35061803D01*
X40392977Y-35164749D01*
X40396615Y-35183035D01*
X40414049Y-35225125D01*
X40443916Y-35297231D01*
X40443917Y-35297234D01*
X40512588Y-35400007D01*
X40599992Y-35487411D01*
X40702765Y-35556082D01*
X40702766Y-35556082D01*
X40702767Y-35556083D01*
X40816965Y-35603385D01*
X40863488Y-35612639D01*
X40903262Y-35639215D01*
X40912594Y-35686131D01*
X40895489Y-35718132D01*
X39418132Y-37195489D01*
X39373938Y-37213795D01*
X39329744Y-37195489D01*
X39312639Y-37163488D01*
X39305272Y-37126454D01*
X39305272Y-37126451D01*
X39314604Y-37079536D01*
X39322372Y-37070070D01*
X39768142Y-36624301D01*
X39768147Y-36624297D01*
X39773287Y-36619156D01*
X39773289Y-36619156D01*
X39824956Y-36567489D01*
X39861489Y-36504211D01*
X39880400Y-36433634D01*
X39880400Y-35886202D01*
X39888774Y-35854951D01*
X39901305Y-35833248D01*
X39922674Y-35796235D01*
X39931377Y-35781162D01*
X39931378Y-35781159D01*
X39934923Y-35767929D01*
X39955400Y-35691508D01*
X39955400Y-35598692D01*
X39931378Y-35509040D01*
X39931377Y-35509037D01*
X39884970Y-35428660D01*
X39884965Y-35428654D01*
X39819345Y-35363034D01*
X39819339Y-35363029D01*
X39738962Y-35316622D01*
X39738959Y-35316621D01*
X39649314Y-35292601D01*
X39649309Y-35292600D01*
X39649308Y-35292600D01*
X39556492Y-35292600D01*
X39556491Y-35292600D01*
X39556485Y-35292601D01*
X39466840Y-35316621D01*
X39466837Y-35316622D01*
X39386460Y-35363029D01*
X39386454Y-35363034D01*
X39320834Y-35428654D01*
X39320829Y-35428660D01*
X39274422Y-35509037D01*
X39274421Y-35509040D01*
X39250401Y-35598685D01*
X39250400Y-35598693D01*
X39250400Y-35691506D01*
X39250401Y-35691514D01*
X39274421Y-35781159D01*
X39274422Y-35781162D01*
X39317026Y-35854951D01*
X39325400Y-35886202D01*
X39325400Y-36256267D01*
X39307094Y-36300461D01*
X38929932Y-36677622D01*
X38885738Y-36695928D01*
X38873545Y-36694727D01*
X38761803Y-36672500D01*
X38638197Y-36672500D01*
X38516968Y-36696614D01*
X38516966Y-36696614D01*
X38516965Y-36696615D01*
X38494469Y-36705933D01*
X38402768Y-36743916D01*
X38402765Y-36743917D01*
X38299992Y-36812588D01*
X38212588Y-36899992D01*
X38143917Y-37002765D01*
X38143916Y-37002768D01*
X38117629Y-37066233D01*
X38107607Y-37090429D01*
X38096614Y-37116968D01*
X38072500Y-37238196D01*
X38072500Y-37361803D01*
X38092775Y-37463733D01*
X38096615Y-37483035D01*
X38133507Y-37572100D01*
X38143916Y-37597231D01*
X38143917Y-37597234D01*
X38212588Y-37700007D01*
X38253387Y-37740806D01*
X38271693Y-37785000D01*
X38253387Y-37829194D01*
X38209193Y-37847500D01*
X36890807Y-37847500D01*
X36846613Y-37829194D01*
X36828307Y-37785000D01*
X36846613Y-37740806D01*
X36866663Y-37720756D01*
X36887411Y-37700008D01*
X36956083Y-37597233D01*
X37003385Y-37483035D01*
X37027500Y-37361803D01*
X37027500Y-37238197D01*
X37003385Y-37116965D01*
X36956083Y-37002767D01*
X36887411Y-36899992D01*
X36800008Y-36812589D01*
X36800007Y-36812588D01*
X36705277Y-36749291D01*
X36678701Y-36709517D01*
X36677500Y-36697324D01*
X36677500Y-36322531D01*
X36695805Y-36278338D01*
X37383942Y-35590200D01*
X37383947Y-35590197D01*
X37389087Y-35585056D01*
X37389089Y-35585056D01*
X37440756Y-35533389D01*
X37477289Y-35470111D01*
X37485219Y-35440517D01*
X37496201Y-35399534D01*
X37496201Y-35326466D01*
X37496201Y-35322642D01*
X37496200Y-35322624D01*
X37496200Y-34679867D01*
X37496198Y-34679859D01*
X37493062Y-34668157D01*
X37477289Y-34609289D01*
X37440756Y-34546011D01*
X37389089Y-34494344D01*
X37386911Y-34492166D01*
X37386900Y-34492156D01*
X36383488Y-33488743D01*
X36320211Y-33452211D01*
X36320209Y-33452210D01*
X36249639Y-33433299D01*
X36249634Y-33433299D01*
X36176566Y-33433299D01*
X36172741Y-33433299D01*
X36172725Y-33433300D01*
X35692102Y-33433300D01*
X35660851Y-33424926D01*
X35654955Y-33421522D01*
X35649546Y-33418399D01*
X35587062Y-33382322D01*
X35587059Y-33382321D01*
X35497414Y-33358301D01*
X35497409Y-33358300D01*
X35497408Y-33358300D01*
X35404592Y-33358300D01*
X35404591Y-33358300D01*
X35404585Y-33358301D01*
X35314940Y-33382321D01*
X35314937Y-33382322D01*
X35234560Y-33428729D01*
X35234554Y-33428734D01*
X35168934Y-33494354D01*
X35168929Y-33494360D01*
X35122519Y-33574743D01*
X35121633Y-33576883D01*
X35120807Y-33577708D01*
X35120473Y-33578288D01*
X35120317Y-33578198D01*
X35087806Y-33610705D01*
X35039970Y-33610700D01*
X35019699Y-33597154D01*
X34558206Y-33135661D01*
X34539900Y-33091467D01*
X34539900Y-33053593D01*
X37172500Y-33053593D01*
X37172500Y-33146406D01*
X37172501Y-33146414D01*
X37196521Y-33236059D01*
X37196522Y-33236062D01*
X37242929Y-33316439D01*
X37242934Y-33316445D01*
X37308554Y-33382065D01*
X37308560Y-33382070D01*
X37388937Y-33428477D01*
X37388940Y-33428478D01*
X37478592Y-33452500D01*
X37478593Y-33452500D01*
X37571407Y-33452500D01*
X37571408Y-33452500D01*
X37661060Y-33428478D01*
X37668155Y-33424382D01*
X37694173Y-33409360D01*
X37741440Y-33382070D01*
X37807070Y-33316440D01*
X37845984Y-33249040D01*
X37853477Y-33236062D01*
X37853478Y-33236059D01*
X37853683Y-33235294D01*
X37877500Y-33146408D01*
X37877500Y-33053593D01*
X38297500Y-33053593D01*
X38297500Y-33146406D01*
X38297501Y-33146414D01*
X38321521Y-33236059D01*
X38321522Y-33236062D01*
X38367929Y-33316439D01*
X38367934Y-33316445D01*
X38433554Y-33382065D01*
X38433560Y-33382070D01*
X38513937Y-33428477D01*
X38513940Y-33428478D01*
X38603592Y-33452500D01*
X38603593Y-33452500D01*
X38696407Y-33452500D01*
X38696408Y-33452500D01*
X38786060Y-33428478D01*
X38793155Y-33424382D01*
X38819173Y-33409360D01*
X38866440Y-33382070D01*
X38932070Y-33316440D01*
X38970984Y-33249040D01*
X38978477Y-33236062D01*
X38978478Y-33236059D01*
X38978683Y-33235294D01*
X39002500Y-33146408D01*
X39002500Y-33053592D01*
X38978478Y-32963940D01*
X38978477Y-32963937D01*
X38932070Y-32883560D01*
X38932065Y-32883554D01*
X38866445Y-32817934D01*
X38866439Y-32817929D01*
X38786062Y-32771522D01*
X38786059Y-32771521D01*
X38696414Y-32747501D01*
X38696409Y-32747500D01*
X38696408Y-32747500D01*
X38603592Y-32747500D01*
X38603591Y-32747500D01*
X38603585Y-32747501D01*
X38513940Y-32771521D01*
X38513937Y-32771522D01*
X38433560Y-32817929D01*
X38433554Y-32817934D01*
X38367934Y-32883554D01*
X38367929Y-32883560D01*
X38321522Y-32963937D01*
X38321521Y-32963940D01*
X38297501Y-33053585D01*
X38297500Y-33053593D01*
X37877500Y-33053593D01*
X37877500Y-33053592D01*
X37853478Y-32963940D01*
X37853477Y-32963937D01*
X37807070Y-32883560D01*
X37807065Y-32883554D01*
X37741445Y-32817934D01*
X37741439Y-32817929D01*
X37661062Y-32771522D01*
X37661059Y-32771521D01*
X37571414Y-32747501D01*
X37571409Y-32747500D01*
X37571408Y-32747500D01*
X37478592Y-32747500D01*
X37478591Y-32747500D01*
X37478585Y-32747501D01*
X37388940Y-32771521D01*
X37388937Y-32771522D01*
X37308560Y-32817929D01*
X37308554Y-32817934D01*
X37242934Y-32883554D01*
X37242929Y-32883560D01*
X37196522Y-32963937D01*
X37196521Y-32963940D01*
X37172501Y-33053585D01*
X37172500Y-33053593D01*
X34539900Y-33053593D01*
X34539900Y-32698302D01*
X34548274Y-32667051D01*
X34551240Y-32661915D01*
X34590878Y-32593260D01*
X34614900Y-32503608D01*
X34614900Y-32485393D01*
X35788800Y-32485393D01*
X35788800Y-32578206D01*
X35788801Y-32578214D01*
X35812821Y-32667859D01*
X35812822Y-32667862D01*
X35859229Y-32748239D01*
X35859234Y-32748245D01*
X35924854Y-32813865D01*
X35924860Y-32813870D01*
X36005237Y-32860277D01*
X36005240Y-32860278D01*
X36094892Y-32884300D01*
X36094893Y-32884300D01*
X36187707Y-32884300D01*
X36187708Y-32884300D01*
X36277360Y-32860278D01*
X36281074Y-32858134D01*
X36311999Y-32840279D01*
X36357740Y-32813870D01*
X36423370Y-32748240D01*
X36463977Y-32677907D01*
X36469777Y-32667862D01*
X36469778Y-32667859D01*
X36471371Y-32661915D01*
X36493800Y-32578208D01*
X36493800Y-32485392D01*
X36469778Y-32395740D01*
X36469777Y-32395737D01*
X36423370Y-32315360D01*
X36423365Y-32315354D01*
X36357745Y-32249734D01*
X36357739Y-32249729D01*
X36277362Y-32203322D01*
X36277359Y-32203321D01*
X36187714Y-32179301D01*
X36187709Y-32179300D01*
X36187708Y-32179300D01*
X36094892Y-32179300D01*
X36094891Y-32179300D01*
X36094885Y-32179301D01*
X36005240Y-32203321D01*
X36005237Y-32203322D01*
X35924860Y-32249729D01*
X35924854Y-32249734D01*
X35859234Y-32315354D01*
X35859229Y-32315360D01*
X35812822Y-32395737D01*
X35812821Y-32395740D01*
X35788801Y-32485385D01*
X35788800Y-32485393D01*
X34614900Y-32485393D01*
X34614900Y-32410792D01*
X34590878Y-32321140D01*
X34590877Y-32321137D01*
X34544470Y-32240760D01*
X34544465Y-32240754D01*
X34478845Y-32175134D01*
X34478839Y-32175129D01*
X34398462Y-32128722D01*
X34398459Y-32128721D01*
X34308814Y-32104701D01*
X34308809Y-32104700D01*
X34308808Y-32104700D01*
X34215992Y-32104700D01*
X34215991Y-32104700D01*
X34215985Y-32104701D01*
X34126340Y-32128721D01*
X34126337Y-32128722D01*
X34045960Y-32175129D01*
X34045954Y-32175134D01*
X33980334Y-32240754D01*
X33980329Y-32240760D01*
X33933922Y-32321137D01*
X33933921Y-32321140D01*
X33909901Y-32410785D01*
X33909900Y-32410793D01*
X33909900Y-32503606D01*
X33909901Y-32503614D01*
X33933921Y-32593259D01*
X33933922Y-32593262D01*
X33956326Y-32632065D01*
X33973560Y-32661915D01*
X33976526Y-32667051D01*
X33984900Y-32698302D01*
X33984900Y-33191924D01*
X33984899Y-33191942D01*
X33984899Y-33268839D01*
X34003810Y-33339409D01*
X34003811Y-33339411D01*
X34040343Y-33402688D01*
X34706805Y-34069150D01*
X34706814Y-34069157D01*
X34766457Y-34103592D01*
X34770089Y-34105689D01*
X34770096Y-34105691D01*
X34773382Y-34107052D01*
X34807210Y-34140873D01*
X34811436Y-34172949D01*
X34811000Y-34176263D01*
X34811000Y-34249532D01*
X34811001Y-34249540D01*
X34829909Y-34320106D01*
X34829912Y-34320113D01*
X34864221Y-34379540D01*
X34866444Y-34383389D01*
X34918111Y-34435056D01*
X34933455Y-34443915D01*
X34981386Y-34471587D01*
X34981385Y-34471587D01*
X34981389Y-34471589D01*
X35001126Y-34476877D01*
X35029142Y-34493053D01*
X35692351Y-35156262D01*
X35780561Y-35192800D01*
X35780563Y-35192800D01*
X35780903Y-35192941D01*
X35814728Y-35226766D01*
X35843913Y-35297226D01*
X35843917Y-35297234D01*
X35912588Y-35400007D01*
X35999992Y-35487411D01*
X36102765Y-35556082D01*
X36102766Y-35556082D01*
X36102767Y-35556083D01*
X36216965Y-35603385D01*
X36338197Y-35627500D01*
X36410867Y-35627500D01*
X36455061Y-35645806D01*
X36473367Y-35690000D01*
X36455061Y-35734194D01*
X36177943Y-36011311D01*
X36141411Y-36074588D01*
X36141410Y-36074590D01*
X36122499Y-36145160D01*
X36122499Y-36223265D01*
X36122500Y-36223278D01*
X36122500Y-36697324D01*
X36104194Y-36741518D01*
X36094723Y-36749291D01*
X35999992Y-36812588D01*
X35912588Y-36899992D01*
X35843917Y-37002765D01*
X35843916Y-37002768D01*
X35817629Y-37066233D01*
X35807607Y-37090429D01*
X35796614Y-37116968D01*
X35772500Y-37238196D01*
X35772500Y-37361803D01*
X35792775Y-37463733D01*
X35796615Y-37483035D01*
X35833507Y-37572100D01*
X35843916Y-37597231D01*
X35843917Y-37597234D01*
X35912588Y-37700007D01*
X35953387Y-37740806D01*
X35971693Y-37785000D01*
X35953387Y-37829194D01*
X35909193Y-37847500D01*
X35189720Y-37847500D01*
X35146790Y-37865282D01*
X35098955Y-37865281D01*
X35065130Y-37831456D01*
X35062506Y-37823729D01*
X35053078Y-37788540D01*
X35053076Y-37788537D01*
X35053076Y-37788535D01*
X35006670Y-37708160D01*
X35006665Y-37708154D01*
X34941045Y-37642534D01*
X34941039Y-37642529D01*
X34860662Y-37596122D01*
X34860659Y-37596121D01*
X34771014Y-37572101D01*
X34771009Y-37572100D01*
X34771008Y-37572100D01*
X34771007Y-37572100D01*
X34760031Y-37572100D01*
X34715837Y-37553794D01*
X34697531Y-37509600D01*
X34702288Y-37485683D01*
X34702910Y-37484181D01*
X34703385Y-37483035D01*
X34727500Y-37361803D01*
X34727500Y-37238197D01*
X34703385Y-37116965D01*
X34656083Y-37002767D01*
X34587411Y-36899992D01*
X34500008Y-36812589D01*
X34500007Y-36812588D01*
X34397234Y-36743917D01*
X34397231Y-36743916D01*
X34369911Y-36732600D01*
X34283035Y-36696615D01*
X34283031Y-36696614D01*
X34161803Y-36672500D01*
X34038197Y-36672500D01*
X33916968Y-36696614D01*
X33916966Y-36696614D01*
X33916965Y-36696615D01*
X33894469Y-36705933D01*
X33802768Y-36743916D01*
X33802765Y-36743917D01*
X33699992Y-36812588D01*
X33612588Y-36899992D01*
X33543917Y-37002765D01*
X33543916Y-37002768D01*
X33517629Y-37066233D01*
X33507607Y-37090429D01*
X33496614Y-37116968D01*
X33472500Y-37238196D01*
X33472500Y-37361803D01*
X33492775Y-37463733D01*
X33496615Y-37483035D01*
X33533507Y-37572100D01*
X33543916Y-37597231D01*
X33543917Y-37597234D01*
X33612588Y-37700007D01*
X33699992Y-37787411D01*
X33802765Y-37856082D01*
X33802766Y-37856082D01*
X33802767Y-37856083D01*
X33916965Y-37903385D01*
X34038197Y-37927500D01*
X34161803Y-37927500D01*
X34283035Y-37903385D01*
X34285676Y-37902290D01*
X34333510Y-37902284D01*
X34367339Y-37936104D01*
X34372100Y-37960030D01*
X34372100Y-37971006D01*
X34372101Y-37971014D01*
X34396121Y-38060659D01*
X34396124Y-38060665D01*
X34406384Y-38078436D01*
X34412628Y-38125862D01*
X34383508Y-38163812D01*
X34351653Y-38172183D01*
X31910221Y-38148557D01*
X31869903Y-38131627D01*
X31869823Y-38131748D01*
X31869202Y-38131333D01*
X31866632Y-38130254D01*
X31864708Y-38128330D01*
X31864703Y-38128326D01*
X31790282Y-38097500D01*
X31790280Y-38097500D01*
X31759766Y-38097500D01*
X31720238Y-38081126D01*
X31719823Y-38081748D01*
X31716700Y-38079661D01*
X31715572Y-38079194D01*
X31714708Y-38078330D01*
X31714703Y-38078326D01*
X31640835Y-38047729D01*
X31620559Y-38034181D01*
X31614708Y-38028330D01*
X31609587Y-38024908D01*
X31611173Y-38022533D01*
X31584744Y-37996102D01*
X31584745Y-37948267D01*
X31618571Y-37914443D01*
X31654679Y-37910887D01*
X31738197Y-37927500D01*
X31861803Y-37927500D01*
X31983035Y-37903385D01*
X32097233Y-37856083D01*
X32200008Y-37787411D01*
X32287411Y-37700008D01*
X32356083Y-37597233D01*
X32403385Y-37483035D01*
X32427500Y-37361803D01*
X32427500Y-37238197D01*
X32403385Y-37116965D01*
X32356083Y-37002767D01*
X32287411Y-36899992D01*
X32265384Y-36877965D01*
X32247078Y-36833771D01*
X32251001Y-36811977D01*
X32822883Y-35275047D01*
X32830069Y-35261273D01*
X32836192Y-35252431D01*
X32842025Y-35225438D01*
X32844534Y-35216860D01*
X32854164Y-35190983D01*
X32853771Y-35180234D01*
X32855140Y-35164756D01*
X32857412Y-35154246D01*
X32852471Y-35127075D01*
X32851506Y-35118176D01*
X32850500Y-35090601D01*
X32850500Y-35090599D01*
X32846024Y-35080819D01*
X32841367Y-35066002D01*
X32751533Y-34571921D01*
X32750677Y-34565092D01*
X32748392Y-34532323D01*
X32745969Y-34527461D01*
X32740413Y-34510754D01*
X32739443Y-34505417D01*
X32721643Y-34477802D01*
X32718237Y-34471818D01*
X32703585Y-34442419D01*
X32699485Y-34438854D01*
X32687964Y-34425552D01*
X32685020Y-34420985D01*
X32658001Y-34402280D01*
X32652574Y-34398062D01*
X31078451Y-33029259D01*
X31028925Y-32986193D01*
X31539800Y-32986193D01*
X31539800Y-33079006D01*
X31539801Y-33079014D01*
X31563821Y-33168659D01*
X31563822Y-33168662D01*
X31610229Y-33249039D01*
X31610234Y-33249045D01*
X31675854Y-33314665D01*
X31675860Y-33314670D01*
X31756237Y-33361077D01*
X31756240Y-33361078D01*
X31845892Y-33385100D01*
X31845893Y-33385100D01*
X31938707Y-33385100D01*
X31938708Y-33385100D01*
X32028360Y-33361078D01*
X32108740Y-33314670D01*
X32174370Y-33249040D01*
X32220778Y-33168660D01*
X32244800Y-33079008D01*
X32244800Y-32986192D01*
X32220778Y-32896540D01*
X32220777Y-32896537D01*
X32174370Y-32816160D01*
X32174365Y-32816154D01*
X32108745Y-32750534D01*
X32108739Y-32750529D01*
X32028362Y-32704122D01*
X32028359Y-32704121D01*
X31938714Y-32680101D01*
X31938709Y-32680100D01*
X31938708Y-32680100D01*
X31845892Y-32680100D01*
X31845891Y-32680100D01*
X31845885Y-32680101D01*
X31756240Y-32704121D01*
X31756237Y-32704122D01*
X31675860Y-32750529D01*
X31675854Y-32750534D01*
X31610234Y-32816154D01*
X31610229Y-32816160D01*
X31563822Y-32896537D01*
X31563821Y-32896540D01*
X31539801Y-32986185D01*
X31539800Y-32986193D01*
X31028925Y-32986193D01*
X30373968Y-32416665D01*
X30370785Y-32413696D01*
X30343029Y-32385940D01*
X30338849Y-32383146D01*
X30332192Y-32379027D01*
X30327783Y-32376505D01*
X30290566Y-32364045D01*
X30286494Y-32362521D01*
X30250228Y-32347500D01*
X30245239Y-32346508D01*
X30237584Y-32345261D01*
X30232525Y-32344616D01*
X30193384Y-32347348D01*
X30189034Y-32347500D01*
X29230477Y-32347500D01*
X29186283Y-32329194D01*
X29004682Y-32147593D01*
X31081300Y-32147593D01*
X31081300Y-32240406D01*
X31081301Y-32240414D01*
X31105321Y-32330059D01*
X31105322Y-32330062D01*
X31151729Y-32410439D01*
X31151734Y-32410445D01*
X31217354Y-32476065D01*
X31217360Y-32476070D01*
X31297737Y-32522477D01*
X31297740Y-32522478D01*
X31387392Y-32546500D01*
X31387393Y-32546500D01*
X31480207Y-32546500D01*
X31480208Y-32546500D01*
X31569860Y-32522478D01*
X31650240Y-32476070D01*
X31715870Y-32410440D01*
X31762278Y-32330060D01*
X31786300Y-32240408D01*
X31786300Y-32147592D01*
X31762278Y-32057940D01*
X31762277Y-32057937D01*
X31715870Y-31977560D01*
X31715865Y-31977554D01*
X31650245Y-31911934D01*
X31650239Y-31911929D01*
X31569862Y-31865522D01*
X31569859Y-31865521D01*
X31480214Y-31841501D01*
X31480209Y-31841500D01*
X31480208Y-31841500D01*
X31387392Y-31841500D01*
X31387391Y-31841500D01*
X31387385Y-31841501D01*
X31297740Y-31865521D01*
X31297737Y-31865522D01*
X31217360Y-31911929D01*
X31217354Y-31911934D01*
X31151734Y-31977554D01*
X31151729Y-31977560D01*
X31105322Y-32057937D01*
X31105321Y-32057940D01*
X31081301Y-32147585D01*
X31081300Y-32147593D01*
X29004682Y-32147593D01*
X28255078Y-31397989D01*
X28236772Y-31353795D01*
X28255078Y-31309601D01*
X28277369Y-31295259D01*
X28324334Y-31277687D01*
X28403205Y-31221400D01*
X28464821Y-31146618D01*
X28464823Y-31146612D01*
X28466991Y-31143143D01*
X28468127Y-31143852D01*
X28499541Y-31114538D01*
X28521652Y-31110573D01*
X32836089Y-31124860D01*
G37*
%TD.AperFunction*%
%TA.AperFunction,Conductor*%
G36*
X28547393Y-32404482D02*
G01*
X28885941Y-32743030D01*
X28956970Y-32814059D01*
X29049775Y-32852500D01*
X30082199Y-32852500D01*
X30123209Y-32867836D01*
X31731252Y-34266134D01*
X31735947Y-34270217D01*
X31757284Y-34313030D01*
X31742099Y-34358391D01*
X31707130Y-34378679D01*
X31616967Y-34396614D01*
X31502768Y-34443916D01*
X31502765Y-34443917D01*
X31399992Y-34512588D01*
X31312588Y-34599992D01*
X31243917Y-34702765D01*
X31243913Y-34702773D01*
X31211587Y-34780816D01*
X31177763Y-34814641D01*
X31129927Y-34814640D01*
X31099719Y-34788148D01*
X31072072Y-34740263D01*
X31072065Y-34740254D01*
X31006445Y-34674634D01*
X31006439Y-34674629D01*
X30926062Y-34628222D01*
X30926059Y-34628221D01*
X30836414Y-34604201D01*
X30836409Y-34604200D01*
X30836408Y-34604200D01*
X30743592Y-34604200D01*
X30743589Y-34604200D01*
X30700519Y-34615740D01*
X30653093Y-34609495D01*
X30646209Y-34604887D01*
X30644529Y-34603593D01*
X28257860Y-32765559D01*
X28234016Y-32724091D01*
X28246478Y-32677907D01*
X28264742Y-32661917D01*
X28316440Y-32632070D01*
X28382070Y-32566440D01*
X28428478Y-32486060D01*
X28442829Y-32432497D01*
X28471948Y-32394550D01*
X28519375Y-32388305D01*
X28547393Y-32404482D01*
G37*
%TD.AperFunction*%
%TD*%
M02*
