%TF.GenerationSoftware,KiCad,Pcbnew,10.0.6*%
%TF.CreationDate,2026-09-09T07:02:47-07:00*%
%TF.ProjectId,Anticipy_R1_E1_PROTOTYPE,416e7469-6369-4707-995f-52315f45315f,E1P1*%
%TF.SameCoordinates,Original*%
%TF.FileFunction,Profile,NP*%
%FSLAX46Y46*%
G04 Gerber Fmt 4.6, Leading zero omitted, Abs format (unit mm)*
G04 Created by KiCad (PCBNEW 10.0.6) date 2026-09-09 07:02:47*
%MOMM*%
%LPD*%
G01*
G04 APERTURE LIST*
%TA.AperFunction,Profile*%
%ADD10C,0.100000*%
%TD*%
G04 APERTURE END LIST*
D10*
X20000000Y-25380000D02*
X26200000Y-25380000D01*
X20000000Y-34620000D02*
X20500000Y-35800000D01*
X20500000Y-24200000D02*
X20000000Y-25380000D01*
X20500000Y-35800000D02*
X21500000Y-36700000D01*
X21500000Y-23300000D02*
X20500000Y-24200000D01*
X21500000Y-36700000D02*
X24500000Y-38300000D01*
X24500000Y-21700000D02*
X21500000Y-23300000D01*
X24500000Y-38300000D02*
X28500000Y-38980000D01*
X26200000Y-25380000D02*
X26200000Y-34620000D01*
X26200000Y-34620000D02*
X20000000Y-34620000D01*
X28500000Y-21100000D02*
X24500000Y-21700000D01*
X28500000Y-38980000D02*
X58500000Y-38980000D01*
X58500000Y-21100000D02*
X28500000Y-21100000D01*
X58500000Y-38980000D02*
X63800000Y-38980000D01*
X63800000Y-21100000D02*
X58500000Y-21100000D01*
X63800000Y-38980000D02*
X65000000Y-38500000D01*
X65000000Y-21500000D02*
X63800000Y-21100000D01*
X65000000Y-38500000D02*
X65750000Y-37700000D01*
X65750000Y-22300000D02*
X65000000Y-21500000D01*
X65750000Y-37700000D02*
X65750000Y-22300000D01*
M02*
