%TF.GenerationSoftware,KiCad,Pcbnew,10.0.6*%
%TF.CreationDate,2026-09-09T07:02:47-07:00*%
%TF.ProjectId,Anticipy_R1_E1_PROTOTYPE,416e7469-6369-4707-995f-52315f45315f,E1P1*%
%TF.SameCoordinates,Original*%
%TF.FileFunction,Copper,L2,Inr*%
%TF.FilePolarity,Positive*%
%FSLAX46Y46*%
G04 Gerber Fmt 4.6, Leading zero omitted, Abs format (unit mm)*
G04 Created by KiCad (PCBNEW 10.0.6) date 2026-09-09 07:02:47*
%MOMM*%
%LPD*%
G01*
G04 APERTURE LIST*
%TA.AperFunction,ComponentPad*%
%ADD10O,1.800000X1.000000*%
%TD*%
%TA.AperFunction,ComponentPad*%
%ADD11O,2.200000X1.000000*%
%TD*%
%TA.AperFunction,ViaPad*%
%ADD12C,0.450000*%
%TD*%
%TA.AperFunction,ViaPad*%
%ADD13C,0.609600*%
%TD*%
%TA.AperFunction,Conductor*%
%ADD14C,0.300000*%
%TD*%
%TA.AperFunction,Conductor*%
%ADD15C,0.250000*%
%TD*%
%TA.AperFunction,Conductor*%
%ADD16C,0.150000*%
%TD*%
%TA.AperFunction,Conductor*%
%ADD17C,0.127000*%
%TD*%
G04 APERTURE END LIST*
D10*
%TO.N,/GND*%
%TO.C,J1*%
X25600000Y-35620000D03*
X25600000Y-24380000D03*
D11*
X21600000Y-35620000D03*
X21600000Y-24380000D03*
%TD*%
D12*
%TO.N,/3V_MAIN*%
X36950000Y-31500000D03*
X36948500Y-25270000D03*
X35750000Y-34650000D03*
X34262400Y-32457200D03*
X53040300Y-37072600D03*
X61250000Y-37400000D03*
%TO.N,/FLASH_IO3*%
X62839500Y-29493200D03*
X51662300Y-34045800D03*
X50253100Y-27818000D03*
%TO.N,/GND*%
X25750000Y-23450000D03*
X56175000Y-36000000D03*
X30026200Y-33110300D03*
X62928600Y-25997800D03*
X58475000Y-28175000D03*
D13*
X36400000Y-27400000D03*
D12*
X48939800Y-23576500D03*
D13*
X35200000Y-29800000D03*
D12*
X28225000Y-23075000D03*
X52368700Y-27823300D03*
X52275000Y-22550000D03*
D13*
X36400000Y-28600000D03*
X34000000Y-28600000D03*
D12*
X45763600Y-35634800D03*
X41005000Y-26650000D03*
X40750000Y-31900000D03*
X60325000Y-30750000D03*
X43600000Y-22600000D03*
D13*
X35200000Y-27400000D03*
D12*
X25175000Y-36500000D03*
D13*
X34000000Y-29800000D03*
D12*
X37457700Y-37592300D03*
D13*
X34000000Y-27400000D03*
X36400000Y-29800000D03*
D12*
X55767000Y-26119100D03*
D13*
X35200000Y-28600000D03*
D12*
X43087500Y-29298400D03*
X64400000Y-38050000D03*
X58181300Y-33614400D03*
X30750000Y-26500000D03*
X28710000Y-29960000D03*
X30000000Y-31300000D03*
X36300000Y-24280000D03*
X29950000Y-26175000D03*
X28850000Y-25500000D03*
X65150000Y-33975000D03*
X48050000Y-37450000D03*
X44539600Y-23080700D03*
%TO.N,/2V5_AUX*%
X42500000Y-33750000D03*
%TO.N,/VBAT*%
X30500000Y-25950000D03*
X32000000Y-26450000D03*
%TO.N,/USB_D+*%
X27650000Y-29040000D03*
X27560000Y-30340000D03*
%TO.N,/USB_D-*%
X28150000Y-30950000D03*
X27470000Y-29720000D03*
%TO.N,/I2C_SDA*%
X35600000Y-23600000D03*
X51662300Y-37815600D03*
X34950000Y-25525000D03*
X43796000Y-26514800D03*
X37883700Y-23347100D03*
%TO.N,/I2C_SCL*%
X60424300Y-34042600D03*
X36328800Y-22184000D03*
%TO.N,/UART_RX*%
X54942300Y-37636500D03*
X42350000Y-32900000D03*
X44550000Y-30700000D03*
X45144700Y-31144700D03*
%TO.N,/UART_TX*%
X42500000Y-32049999D03*
X43600000Y-29750000D03*
X58702100Y-35094200D03*
%TO.N,/HAPTIC_PWM*%
X45936900Y-35000000D03*
X56850200Y-37597500D03*
%TO.N,/VBUSOUT*%
X39602900Y-35645100D03*
X63000000Y-38450000D03*
X63491900Y-35978000D03*
X36141300Y-32531800D03*
X62150000Y-38050000D03*
X31916900Y-29436300D03*
%TO.N,/USB_MCU_D-*%
X64950000Y-35650000D03*
%TO.N,/USB_MCU_D+*%
X64950000Y-34850000D03*
%TO.N,/PDM_CLK*%
X60620700Y-33396000D03*
X49624100Y-21982800D03*
%TO.N,/PDM_DATA*%
X65058500Y-33273300D03*
X61351000Y-27696400D03*
%TO.N,/RESET*%
X44900000Y-34150000D03*
X37525000Y-33100000D03*
X35400000Y-35575000D03*
X54850000Y-34500000D03*
%TO.N,/PMIC_INT*%
X43825000Y-36050000D03*
X48925000Y-25000000D03*
X39193200Y-25050000D03*
X38500000Y-26400000D03*
X42450000Y-29250000D03*
X64391800Y-31850000D03*
%TO.N,/FLASH_SCK*%
X51269000Y-30273500D03*
X62831900Y-31885600D03*
%TO.N,/FLASH_IO0*%
X51438300Y-32093300D03*
X62819700Y-31250000D03*
%TO.N,/FLASH_CS*%
X47281300Y-27726300D03*
X58950000Y-33500000D03*
X57100000Y-34650000D03*
X64200000Y-31200000D03*
X54291000Y-34232200D03*
%TO.N,/FLASH_IO2*%
X51000000Y-32500000D03*
X59400000Y-32500000D03*
%TO.N,/FLASH_IO1*%
X45385300Y-29129700D03*
X65058500Y-29895200D03*
%TO.N,/SWDIO*%
X28833900Y-34451600D03*
X53550000Y-38350000D03*
X62700000Y-30100000D03*
X45091800Y-35661300D03*
%TO.N,/SWDCLK*%
X64250000Y-26500000D03*
X30600000Y-35550000D03*
%TO.N,/LED_BLUE_K*%
X34300000Y-35900000D03*
X33181819Y-31418180D03*
%TO.N,/VSYS*%
X28093000Y-28609100D03*
X30130100Y-36244200D03*
X38874400Y-29272300D03*
X35451000Y-33710800D03*
X38650000Y-33100000D03*
%TO.N,/SHPHLD_BTN*%
X33700000Y-24250000D03*
X30790000Y-34956700D03*
%TO.N,/3V_MIC*%
X39499500Y-34215200D03*
X49092800Y-26272800D03*
X44416000Y-25444800D03*
X47900000Y-26000000D03*
X52800000Y-26000000D03*
%TO.N,/HAPTIC_NEG*%
X46637900Y-36256800D03*
%TO.N,/NTC*%
X32150000Y-27350000D03*
X45450000Y-28425000D03*
%TO.N,/VBUS*%
X28050000Y-27050000D03*
X28100000Y-32350000D03*
X30950000Y-28850000D03*
X27596000Y-34309400D03*
X34724600Y-37924600D03*
%TO.N,/USB_CC1*%
X30544500Y-22167500D03*
X31433800Y-32194000D03*
%TO.N,/USB_CC2*%
X31892300Y-33032600D03*
X28599200Y-26305400D03*
%TD*%
%TO.N,/3V_MAIN*%
D14*
X54207900Y-38240200D02*
X53040300Y-37072600D01*
X36948500Y-25270000D02*
X35800000Y-26418500D01*
X61250000Y-37400000D02*
X60059400Y-38240200D01*
X35800000Y-30919600D02*
X34262400Y-32457200D01*
D15*
X35800000Y-30919600D02*
X36950000Y-31500000D01*
D14*
X60059400Y-38240200D02*
X54207900Y-38240200D01*
X35800000Y-26418500D02*
X35800000Y-30919600D01*
%TO.N,/FLASH_IO3*%
D16*
X51662300Y-34045800D02*
X50253100Y-32636600D01*
X50253100Y-32636600D02*
X50253100Y-27818000D01*
%TO.N,/I2C_SDA*%
X43796000Y-26514800D02*
X44121600Y-26840400D01*
X44121600Y-26840400D02*
X44121600Y-32571500D01*
X44121600Y-32571500D02*
X49365700Y-37815600D01*
X49365700Y-37815600D02*
X51662300Y-37815600D01*
%TO.N,/I2C_SCL*%
X36328800Y-22184000D02*
X48232500Y-22155200D01*
X60119900Y-34042600D02*
X60424300Y-34042600D01*
X48232500Y-22155200D02*
X60119900Y-34042600D01*
%TO.N,/UART_RX*%
X52964700Y-35658900D02*
X52232400Y-35658900D01*
X52232400Y-35658900D02*
X50104100Y-33530600D01*
X50104100Y-33530600D02*
X46892600Y-33530600D01*
D17*
X45144700Y-31144700D02*
X45144700Y-31782700D01*
D16*
X46892600Y-33530600D02*
X45144700Y-31782700D01*
X45144700Y-31782700D02*
X45144700Y-31144700D01*
X54942300Y-37636500D02*
X52964700Y-35658900D01*
%TO.N,/VBUSOUT*%
D14*
X31916900Y-30901100D02*
X33990700Y-32974900D01*
X35698200Y-32974900D02*
X36141300Y-32531800D01*
X33990700Y-32974900D02*
X35698200Y-32974900D01*
X31916900Y-29436300D02*
X31916900Y-30901100D01*
%TO.N,/PDM_CLK*%
D16*
X60620700Y-32672900D02*
X54165400Y-26217600D01*
X54165400Y-26217600D02*
X53858900Y-26217600D01*
X60620700Y-33396000D02*
X60620700Y-32672900D01*
X53858900Y-26217600D02*
X49624100Y-21982800D01*
%TO.N,/PDM_DATA*%
X61666700Y-27696400D02*
X65058500Y-31088200D01*
X65058500Y-31088200D02*
X65058500Y-33273300D01*
X61351000Y-27696400D02*
X61666700Y-27696400D01*
%TO.N,/RESET*%
D17*
X37375000Y-33850000D02*
X37375000Y-33825000D01*
X37400000Y-33775000D02*
X37425000Y-33750000D01*
X35400000Y-35575000D02*
X35650000Y-35575000D01*
X35650000Y-35575000D02*
X37375000Y-33850000D01*
X37425000Y-33750000D02*
X37525000Y-33100000D01*
X37375000Y-33825000D02*
X37400000Y-33800000D01*
X37400000Y-33800000D02*
X37400000Y-33775000D01*
%TO.N,/PMIC_INT*%
X43825000Y-36050000D02*
X43825000Y-33700000D01*
X42450000Y-29250000D02*
X43900000Y-33600000D01*
D16*
X58464900Y-34525900D02*
X48925000Y-25000000D01*
D17*
X43900000Y-33625000D02*
X43900000Y-33600000D01*
X43825000Y-33700000D02*
X43900000Y-33625000D01*
D16*
X63035700Y-33206100D02*
X61865000Y-33206100D01*
X60685900Y-34525900D02*
X58464900Y-34525900D01*
X61865000Y-33206100D02*
X60880300Y-34190800D01*
X60880300Y-34190800D02*
X60880300Y-34331500D01*
X60880300Y-34331500D02*
X60685900Y-34525900D01*
X64391800Y-31850000D02*
X63035700Y-33206100D01*
%TO.N,/FLASH_CS*%
X54500000Y-31500000D02*
X54500000Y-31450000D01*
D17*
X55900000Y-33049999D02*
X57100000Y-34650000D01*
D16*
X55250000Y-32299999D02*
X54900000Y-31950000D01*
X55250000Y-32350000D02*
X55250000Y-32299999D01*
X54291000Y-31243100D02*
X54291000Y-34232200D01*
X47281300Y-27726300D02*
X47668600Y-27339000D01*
X54900000Y-31950000D02*
X54900000Y-31900000D01*
X55900000Y-33049999D02*
X55650000Y-32799999D01*
X54900000Y-31900000D02*
X54500000Y-31500000D01*
X47668600Y-27339000D02*
X50386900Y-27339000D01*
X50386900Y-27339000D02*
X54291000Y-31243100D01*
X55650000Y-32750000D02*
X55250000Y-32350000D01*
X54300000Y-31250000D02*
X54291000Y-31243100D01*
X55650000Y-32799999D02*
X55650000Y-32750000D01*
X54500000Y-31450000D02*
X54300000Y-31250000D01*
%TO.N,/SWDIO*%
X28833900Y-35589700D02*
X28833900Y-34451600D01*
X43759900Y-36993200D02*
X30237400Y-36993200D01*
X30237400Y-36993200D02*
X28833900Y-35589700D01*
X45091800Y-35661300D02*
X43759900Y-36993200D01*
%TO.N,/VSYS*%
D14*
X29344800Y-29584600D02*
X28369300Y-28609100D01*
X29344800Y-35458900D02*
X29344800Y-29584600D01*
X34405400Y-33710800D02*
X35451000Y-33710800D01*
D16*
X38250000Y-32700000D02*
X38250000Y-31200000D01*
X38250000Y-31200000D02*
X38650000Y-30800000D01*
D14*
X30130100Y-36244200D02*
X29344800Y-35458900D01*
D16*
X38650000Y-30800000D02*
X38650000Y-30750000D01*
D14*
X35716600Y-33710800D02*
X35451000Y-33710800D01*
D16*
X38650000Y-33100000D02*
X38250000Y-32700000D01*
X38850000Y-30550000D02*
X38874400Y-30553000D01*
D14*
X38874400Y-30553000D02*
X35716600Y-33710800D01*
X28369300Y-28609100D02*
X28093000Y-28609100D01*
X38874400Y-29272300D02*
X38874400Y-30553000D01*
X30130100Y-36244200D02*
X31872000Y-36244200D01*
X31872000Y-36244200D02*
X34405400Y-33710800D01*
D16*
X38650000Y-30750000D02*
X38850000Y-30550000D01*
%TO.N,/3V_MIC*%
D14*
X44153800Y-25444800D02*
X39499500Y-30099100D01*
X44416000Y-25444800D02*
X44153800Y-25444800D01*
X39499500Y-30099100D02*
X39499500Y-34215200D01*
%TO.N,/VBUS*%
X27596000Y-34309400D02*
X27596000Y-34901600D01*
X30619000Y-37924600D02*
X34724600Y-37924600D01*
X27596000Y-34901600D02*
X30619000Y-37924600D01*
D15*
X27100000Y-30575000D02*
X28100000Y-32350000D01*
X26975000Y-29700000D02*
X27100000Y-30575000D01*
X28050000Y-27050000D02*
X27150000Y-28950000D01*
X27150000Y-28950000D02*
X26975000Y-29700000D01*
%TO.N,/USB_CC1*%
D16*
X30544500Y-22167500D02*
X31433800Y-23056800D01*
X31433800Y-23056800D02*
X31433800Y-32194000D01*
%TO.N,/USB_CC2*%
X30480800Y-31874200D02*
X31639200Y-33032600D01*
X30480800Y-28187000D02*
X30480800Y-31874200D01*
X31639200Y-33032600D02*
X31892300Y-33032600D01*
X28599200Y-26305400D02*
X30480800Y-28187000D01*
%TD*%
%TA.AperFunction,Conductor*%
%TO.N,/GND*%
G36*
X54481694Y-21418806D02*
G01*
X54500000Y-21463000D01*
X54500000Y-21687500D01*
X54481694Y-21731694D01*
X54437500Y-21750000D01*
X53550000Y-21750000D01*
X53550000Y-25471433D01*
X53531694Y-25515627D01*
X53487500Y-25533933D01*
X53443306Y-25515627D01*
X49994906Y-22067227D01*
X49976600Y-22023033D01*
X49976600Y-21936393D01*
X49976598Y-21936385D01*
X49952578Y-21846740D01*
X49952577Y-21846737D01*
X49906170Y-21766360D01*
X49906165Y-21766354D01*
X49840545Y-21700734D01*
X49840539Y-21700729D01*
X49760162Y-21654322D01*
X49760159Y-21654321D01*
X49670514Y-21630301D01*
X49670509Y-21630300D01*
X49670508Y-21630300D01*
X49577692Y-21630300D01*
X49577691Y-21630300D01*
X49577685Y-21630301D01*
X49488040Y-21654321D01*
X49488037Y-21654322D01*
X49407660Y-21700729D01*
X49407654Y-21700734D01*
X49342034Y-21766354D01*
X49342029Y-21766360D01*
X49295622Y-21846737D01*
X49295621Y-21846740D01*
X49271601Y-21936385D01*
X49271600Y-21936393D01*
X49271600Y-22029206D01*
X49271601Y-22029214D01*
X49295621Y-22118859D01*
X49295622Y-22118862D01*
X49342029Y-22199239D01*
X49342034Y-22199245D01*
X49407654Y-22264865D01*
X49407660Y-22264870D01*
X49488037Y-22311277D01*
X49488040Y-22311278D01*
X49577692Y-22335300D01*
X49577693Y-22335300D01*
X49664334Y-22335300D01*
X49708527Y-22353605D01*
X52895883Y-25540962D01*
X52914189Y-25585155D01*
X52895883Y-25629349D01*
X52851689Y-25647655D01*
X52849309Y-25647500D01*
X52846408Y-25647500D01*
X52753592Y-25647500D01*
X52753591Y-25647500D01*
X52753585Y-25647501D01*
X52663940Y-25671521D01*
X52663937Y-25671522D01*
X52583560Y-25717929D01*
X52583554Y-25717934D01*
X52517934Y-25783554D01*
X52517929Y-25783560D01*
X52471522Y-25863937D01*
X52471522Y-25863939D01*
X52447996Y-25951737D01*
X52418876Y-25989687D01*
X52371449Y-25995930D01*
X52343432Y-25979754D01*
X48408475Y-22044797D01*
X48407749Y-22043914D01*
X48375549Y-22011871D01*
X48347204Y-21983526D01*
X48347078Y-21983442D01*
X48346797Y-21983254D01*
X48309766Y-21968019D01*
X48309629Y-21967963D01*
X48308642Y-21967554D01*
X48272780Y-21952700D01*
X48272779Y-21952700D01*
X48272769Y-21952696D01*
X48272402Y-21952624D01*
X48272292Y-21952602D01*
X48232198Y-21952700D01*
X48186798Y-21952700D01*
X48185668Y-21952812D01*
X36650071Y-21980721D01*
X36605833Y-21962522D01*
X36545245Y-21901934D01*
X36545239Y-21901929D01*
X36464862Y-21855522D01*
X36464859Y-21855521D01*
X36375214Y-21831501D01*
X36375209Y-21831500D01*
X36375208Y-21831500D01*
X36282392Y-21831500D01*
X36282391Y-21831500D01*
X36282385Y-21831501D01*
X36192740Y-21855521D01*
X36192737Y-21855522D01*
X36112360Y-21901929D01*
X36112354Y-21901934D01*
X36046734Y-21967554D01*
X36046729Y-21967560D01*
X36000322Y-22047937D01*
X36000321Y-22047940D01*
X35976301Y-22137585D01*
X35976300Y-22137593D01*
X35976300Y-22230406D01*
X35976301Y-22230414D01*
X36000321Y-22320059D01*
X36000322Y-22320062D01*
X36046729Y-22400439D01*
X36046734Y-22400445D01*
X36112354Y-22466065D01*
X36112360Y-22466070D01*
X36192737Y-22512477D01*
X36192740Y-22512478D01*
X36282392Y-22536500D01*
X36282393Y-22536500D01*
X36375207Y-22536500D01*
X36375208Y-22536500D01*
X36464860Y-22512478D01*
X36545240Y-22466070D01*
X36607284Y-22404025D01*
X36651325Y-22385719D01*
X48122850Y-22357965D01*
X48167086Y-22376164D01*
X58854515Y-33063593D01*
X58872821Y-33107787D01*
X58854515Y-33151981D01*
X58826497Y-33168157D01*
X58813940Y-33171521D01*
X58813937Y-33171522D01*
X58733560Y-33217929D01*
X58733554Y-33217934D01*
X58667934Y-33283554D01*
X58667929Y-33283560D01*
X58621522Y-33363937D01*
X58621521Y-33363940D01*
X58597501Y-33453585D01*
X58597500Y-33453593D01*
X58597500Y-33546406D01*
X58597501Y-33546414D01*
X58621521Y-33636059D01*
X58621522Y-33636062D01*
X58667929Y-33716439D01*
X58667934Y-33716445D01*
X58733554Y-33782065D01*
X58733560Y-33782070D01*
X58813937Y-33828477D01*
X58813940Y-33828478D01*
X58903592Y-33852500D01*
X58903593Y-33852500D01*
X58996407Y-33852500D01*
X58996408Y-33852500D01*
X59086060Y-33828478D01*
X59166440Y-33782070D01*
X59232070Y-33716440D01*
X59278478Y-33636060D01*
X59281842Y-33623504D01*
X59310958Y-33585553D01*
X59358384Y-33579307D01*
X59386406Y-33595484D01*
X60007628Y-34216706D01*
X60025934Y-34260900D01*
X60007628Y-34305094D01*
X59963434Y-34323400D01*
X58574553Y-34323400D01*
X58530391Y-34305127D01*
X58439401Y-34214271D01*
X51382100Y-27167326D01*
X49295838Y-25084125D01*
X49277500Y-25039944D01*
X49277500Y-24953593D01*
X49277498Y-24953585D01*
X49267829Y-24917501D01*
X49253478Y-24863940D01*
X49253477Y-24863937D01*
X49207070Y-24783560D01*
X49207065Y-24783554D01*
X49141445Y-24717934D01*
X49141439Y-24717929D01*
X49061062Y-24671522D01*
X49061059Y-24671521D01*
X48971414Y-24647501D01*
X48971409Y-24647500D01*
X48971408Y-24647500D01*
X48878592Y-24647500D01*
X48878591Y-24647500D01*
X48878585Y-24647501D01*
X48788940Y-24671521D01*
X48788937Y-24671522D01*
X48708560Y-24717929D01*
X48708554Y-24717934D01*
X48642934Y-24783554D01*
X48642929Y-24783560D01*
X48596522Y-24863937D01*
X48596521Y-24863940D01*
X48572501Y-24953585D01*
X48572500Y-24953593D01*
X48572500Y-25046406D01*
X48572501Y-25046414D01*
X48596521Y-25136059D01*
X48596522Y-25136062D01*
X48642929Y-25216439D01*
X48642934Y-25216445D01*
X48708554Y-25282065D01*
X48708560Y-25282070D01*
X48788937Y-25328477D01*
X48788940Y-25328478D01*
X48878592Y-25352500D01*
X48878593Y-25352500D01*
X48965567Y-25352500D01*
X49009729Y-25370773D01*
X58321699Y-34669077D01*
X58321685Y-34669090D01*
X58321731Y-34669109D01*
X58350196Y-34697574D01*
X58350304Y-34697646D01*
X58350315Y-34697653D01*
X58350318Y-34697654D01*
X58350319Y-34697655D01*
X58387019Y-34712825D01*
X58387062Y-34712843D01*
X58395744Y-34716439D01*
X58424620Y-34728400D01*
X58424626Y-34728400D01*
X58424766Y-34728427D01*
X58424769Y-34728429D01*
X58424771Y-34728428D01*
X58430666Y-34729603D01*
X58430665Y-34729607D01*
X58430733Y-34729614D01*
X58430753Y-34729618D01*
X58470499Y-34756235D01*
X58479782Y-34803161D01*
X58462691Y-34835098D01*
X58420029Y-34877760D01*
X58373622Y-34958137D01*
X58373621Y-34958140D01*
X58349601Y-35047785D01*
X58349600Y-35047793D01*
X58349600Y-35140606D01*
X58349601Y-35140614D01*
X58373621Y-35230259D01*
X58373622Y-35230262D01*
X58420029Y-35310639D01*
X58420034Y-35310645D01*
X58485654Y-35376265D01*
X58485660Y-35376270D01*
X58566037Y-35422677D01*
X58566040Y-35422678D01*
X58655692Y-35446700D01*
X58655693Y-35446700D01*
X58748507Y-35446700D01*
X58748508Y-35446700D01*
X58838160Y-35422678D01*
X58838701Y-35422366D01*
X58855148Y-35412869D01*
X58918540Y-35376270D01*
X58984170Y-35310640D01*
X59030578Y-35230260D01*
X59054600Y-35140608D01*
X59054600Y-35047792D01*
X59030578Y-34958140D01*
X59030577Y-34958137D01*
X58984170Y-34877760D01*
X58984165Y-34877754D01*
X58941505Y-34835094D01*
X58928457Y-34803593D01*
X64597500Y-34803593D01*
X64597500Y-34896406D01*
X64597501Y-34896414D01*
X64621521Y-34986059D01*
X64621522Y-34986062D01*
X64667929Y-35066439D01*
X64667934Y-35066445D01*
X64733554Y-35132065D01*
X64733560Y-35132070D01*
X64813937Y-35178477D01*
X64813940Y-35178478D01*
X64855558Y-35189630D01*
X64893509Y-35218750D01*
X64899752Y-35266176D01*
X64870632Y-35304127D01*
X64855558Y-35310370D01*
X64813940Y-35321521D01*
X64813937Y-35321522D01*
X64733560Y-35367929D01*
X64733554Y-35367934D01*
X64667934Y-35433554D01*
X64667929Y-35433560D01*
X64621522Y-35513937D01*
X64621521Y-35513940D01*
X64597501Y-35603585D01*
X64597500Y-35603593D01*
X64597500Y-35696406D01*
X64597501Y-35696414D01*
X64621521Y-35786059D01*
X64621522Y-35786062D01*
X64667929Y-35866439D01*
X64667934Y-35866445D01*
X64733554Y-35932065D01*
X64733560Y-35932070D01*
X64813937Y-35978477D01*
X64813940Y-35978478D01*
X64903592Y-36002500D01*
X64903593Y-36002500D01*
X64996407Y-36002500D01*
X64996408Y-36002500D01*
X65086060Y-35978478D01*
X65092554Y-35974729D01*
X65138166Y-35948394D01*
X65166440Y-35932070D01*
X65232070Y-35866440D01*
X65278478Y-35786060D01*
X65302500Y-35696408D01*
X65302500Y-35603592D01*
X65278478Y-35513940D01*
X65278477Y-35513937D01*
X65232070Y-35433560D01*
X65232065Y-35433554D01*
X65166445Y-35367934D01*
X65166439Y-35367929D01*
X65086062Y-35321522D01*
X65086059Y-35321521D01*
X65044441Y-35310370D01*
X65006490Y-35281250D01*
X65000247Y-35233824D01*
X65029367Y-35195873D01*
X65044441Y-35189630D01*
X65066657Y-35183677D01*
X65086060Y-35178478D01*
X65166440Y-35132070D01*
X65232070Y-35066440D01*
X65278478Y-34986060D01*
X65302500Y-34896408D01*
X65302500Y-34803592D01*
X65278478Y-34713940D01*
X65278477Y-34713937D01*
X65232070Y-34633560D01*
X65232065Y-34633554D01*
X65166445Y-34567934D01*
X65166439Y-34567929D01*
X65086062Y-34521522D01*
X65086059Y-34521521D01*
X64996414Y-34497501D01*
X64996409Y-34497500D01*
X64996408Y-34497500D01*
X64903592Y-34497500D01*
X64903591Y-34497500D01*
X64903585Y-34497501D01*
X64813940Y-34521521D01*
X64813937Y-34521522D01*
X64733560Y-34567929D01*
X64733554Y-34567934D01*
X64667934Y-34633554D01*
X64667929Y-34633560D01*
X64621522Y-34713937D01*
X64621521Y-34713940D01*
X64597501Y-34803585D01*
X64597500Y-34803593D01*
X58928457Y-34803593D01*
X58923199Y-34790900D01*
X58941505Y-34746706D01*
X58985699Y-34728400D01*
X60726180Y-34728400D01*
X60761089Y-34713940D01*
X60800603Y-34697573D01*
X60800603Y-34697572D01*
X60800607Y-34697571D01*
X61051971Y-34446207D01*
X61052281Y-34445460D01*
X61082799Y-34371782D01*
X61082800Y-34371779D01*
X61082800Y-34300566D01*
X61101106Y-34256372D01*
X61930572Y-33426906D01*
X61974766Y-33408600D01*
X63075980Y-33408600D01*
X63102775Y-33397501D01*
X63150403Y-33377773D01*
X63150403Y-33377772D01*
X63150407Y-33377771D01*
X64307371Y-32220805D01*
X64351565Y-32202500D01*
X64438207Y-32202500D01*
X64438208Y-32202500D01*
X64527860Y-32178478D01*
X64608240Y-32132070D01*
X64673870Y-32066440D01*
X64720278Y-31986060D01*
X64733130Y-31938097D01*
X64762250Y-31900146D01*
X64809676Y-31893903D01*
X64847627Y-31923023D01*
X64856000Y-31954273D01*
X64856000Y-32951401D01*
X64837694Y-32995595D01*
X64776434Y-33056854D01*
X64776429Y-33056860D01*
X64730022Y-33137237D01*
X64730021Y-33137240D01*
X64706001Y-33226885D01*
X64706000Y-33226893D01*
X64706000Y-33319706D01*
X64706001Y-33319714D01*
X64730021Y-33409359D01*
X64730022Y-33409362D01*
X64776429Y-33489739D01*
X64776434Y-33489745D01*
X64842054Y-33555365D01*
X64842060Y-33555370D01*
X64922437Y-33601777D01*
X64922440Y-33601778D01*
X65012092Y-33625800D01*
X65012093Y-33625800D01*
X65104907Y-33625800D01*
X65104908Y-33625800D01*
X65194560Y-33601778D01*
X65274940Y-33555370D01*
X65299793Y-33530517D01*
X65342806Y-33487505D01*
X65387000Y-33469199D01*
X65431194Y-33487505D01*
X65449500Y-33531699D01*
X65449500Y-37556451D01*
X65432596Y-37599197D01*
X64835919Y-38235653D01*
X64813535Y-38250937D01*
X63753305Y-38675030D01*
X63730093Y-38679500D01*
X63382784Y-38679500D01*
X63338590Y-38661194D01*
X63320284Y-38617000D01*
X63327494Y-38590091D01*
X63326909Y-38589849D01*
X63328478Y-38586059D01*
X63332029Y-38572806D01*
X63352500Y-38496408D01*
X63352500Y-38403592D01*
X63328478Y-38313940D01*
X63328477Y-38313937D01*
X63282070Y-38233560D01*
X63282065Y-38233554D01*
X63216445Y-38167934D01*
X63216439Y-38167929D01*
X63136062Y-38121522D01*
X63136059Y-38121521D01*
X63046414Y-38097501D01*
X63046409Y-38097500D01*
X63046408Y-38097500D01*
X62953592Y-38097500D01*
X62953591Y-38097500D01*
X62953585Y-38097501D01*
X62863940Y-38121521D01*
X62863937Y-38121522D01*
X62783560Y-38167929D01*
X62783554Y-38167934D01*
X62717934Y-38233554D01*
X62717929Y-38233560D01*
X62671522Y-38313937D01*
X62671521Y-38313940D01*
X62647501Y-38403585D01*
X62647500Y-38403593D01*
X62647500Y-38496406D01*
X62647501Y-38496414D01*
X62671521Y-38586059D01*
X62673091Y-38589849D01*
X62671944Y-38590323D01*
X62677587Y-38633175D01*
X62648467Y-38671126D01*
X62617216Y-38679500D01*
X53869899Y-38679500D01*
X53825705Y-38661194D01*
X53807399Y-38617000D01*
X53825705Y-38572806D01*
X53832065Y-38566445D01*
X53832070Y-38566440D01*
X53871129Y-38498789D01*
X53878476Y-38486064D01*
X53878476Y-38486062D01*
X53878478Y-38486060D01*
X53889098Y-38446422D01*
X53918217Y-38408475D01*
X53965644Y-38402230D01*
X53993662Y-38418407D01*
X54037511Y-38462256D01*
X54100789Y-38498789D01*
X54121120Y-38504237D01*
X54171360Y-38517700D01*
X54171366Y-38517701D01*
X54248259Y-38517701D01*
X54248275Y-38517700D01*
X60030279Y-38517700D01*
X60040904Y-38518610D01*
X60041960Y-38518792D01*
X60048219Y-38519872D01*
X60069206Y-38517957D01*
X60074882Y-38517700D01*
X60095932Y-38517700D01*
X60095934Y-38517700D01*
X60103100Y-38515779D01*
X60113596Y-38513909D01*
X60120983Y-38513236D01*
X60140760Y-38505953D01*
X60146146Y-38504244D01*
X60166511Y-38498789D01*
X60172943Y-38495074D01*
X60182589Y-38490555D01*
X60189551Y-38487993D01*
X60206760Y-38475847D01*
X60211513Y-38472806D01*
X60229789Y-38462256D01*
X60235039Y-38457004D01*
X60243191Y-38450138D01*
X60875966Y-38003593D01*
X61797500Y-38003593D01*
X61797500Y-38096406D01*
X61797501Y-38096414D01*
X61821521Y-38186059D01*
X61821522Y-38186062D01*
X61867929Y-38266439D01*
X61867934Y-38266445D01*
X61933554Y-38332065D01*
X61933560Y-38332070D01*
X62013937Y-38378477D01*
X62013940Y-38378478D01*
X62103592Y-38402500D01*
X62103593Y-38402500D01*
X62196407Y-38402500D01*
X62196408Y-38402500D01*
X62286060Y-38378478D01*
X62366440Y-38332070D01*
X62432070Y-38266440D01*
X62478478Y-38186060D01*
X62502500Y-38096408D01*
X62502500Y-38003592D01*
X62478478Y-37913940D01*
X62478477Y-37913937D01*
X62432070Y-37833560D01*
X62432065Y-37833554D01*
X62366445Y-37767934D01*
X62366439Y-37767929D01*
X62286062Y-37721522D01*
X62286059Y-37721521D01*
X62196414Y-37697501D01*
X62196409Y-37697500D01*
X62196408Y-37697500D01*
X62103592Y-37697500D01*
X62103591Y-37697500D01*
X62103585Y-37697501D01*
X62013940Y-37721521D01*
X62013937Y-37721522D01*
X61933560Y-37767929D01*
X61933554Y-37767934D01*
X61867934Y-37833554D01*
X61867929Y-37833560D01*
X61821522Y-37913937D01*
X61821521Y-37913940D01*
X61797501Y-38003585D01*
X61797500Y-38003593D01*
X60875966Y-38003593D01*
X61215574Y-37763934D01*
X61251610Y-37752500D01*
X61296407Y-37752500D01*
X61296408Y-37752500D01*
X61386060Y-37728478D01*
X61466440Y-37682070D01*
X61532070Y-37616440D01*
X61578478Y-37536060D01*
X61602500Y-37446408D01*
X61602500Y-37353592D01*
X61578478Y-37263940D01*
X61578477Y-37263937D01*
X61532070Y-37183560D01*
X61532065Y-37183554D01*
X61466445Y-37117934D01*
X61466439Y-37117929D01*
X61386062Y-37071522D01*
X61386059Y-37071521D01*
X61296414Y-37047501D01*
X61296409Y-37047500D01*
X61296408Y-37047500D01*
X61203592Y-37047500D01*
X61203591Y-37047500D01*
X61203585Y-37047501D01*
X61113940Y-37071521D01*
X61113937Y-37071522D01*
X61033560Y-37117929D01*
X61033554Y-37117934D01*
X60967934Y-37183554D01*
X60967931Y-37183558D01*
X60921520Y-37263943D01*
X60918049Y-37276899D01*
X60893715Y-37311786D01*
X60367812Y-37682914D01*
X59989341Y-37950000D01*
X59987548Y-37951265D01*
X59951512Y-37962700D01*
X57134399Y-37962700D01*
X57090205Y-37944394D01*
X57071899Y-37900200D01*
X57090205Y-37856006D01*
X57132265Y-37813945D01*
X57132270Y-37813940D01*
X57178678Y-37733560D01*
X57202700Y-37643908D01*
X57202700Y-37551092D01*
X57178678Y-37461440D01*
X57178677Y-37461437D01*
X57132270Y-37381060D01*
X57132265Y-37381054D01*
X57066645Y-37315434D01*
X57066639Y-37315429D01*
X56986262Y-37269022D01*
X56986259Y-37269021D01*
X56896614Y-37245001D01*
X56896609Y-37245000D01*
X56896608Y-37245000D01*
X56803792Y-37245000D01*
X56803791Y-37245000D01*
X56803785Y-37245001D01*
X56714140Y-37269021D01*
X56714137Y-37269022D01*
X56633760Y-37315429D01*
X56633754Y-37315434D01*
X56568134Y-37381054D01*
X56568129Y-37381060D01*
X56521722Y-37461437D01*
X56521721Y-37461440D01*
X56497701Y-37551085D01*
X56497700Y-37551093D01*
X56497700Y-37643906D01*
X56497701Y-37643914D01*
X56521721Y-37733559D01*
X56521722Y-37733562D01*
X56568129Y-37813939D01*
X56568134Y-37813945D01*
X56610195Y-37856006D01*
X56628501Y-37900200D01*
X56610195Y-37944394D01*
X56566001Y-37962700D01*
X55265499Y-37962700D01*
X55221305Y-37944394D01*
X55202999Y-37900200D01*
X55221305Y-37856006D01*
X55224365Y-37852945D01*
X55224370Y-37852940D01*
X55270778Y-37772560D01*
X55294800Y-37682908D01*
X55294800Y-37590092D01*
X55270778Y-37500440D01*
X55270777Y-37500437D01*
X55224370Y-37420060D01*
X55224365Y-37420054D01*
X55158745Y-37354434D01*
X55158739Y-37354429D01*
X55078362Y-37308022D01*
X55078359Y-37308021D01*
X54988714Y-37284001D01*
X54988709Y-37284000D01*
X54988708Y-37284000D01*
X54902067Y-37284000D01*
X54857873Y-37265694D01*
X54231634Y-36639455D01*
X53523771Y-35931593D01*
X63139400Y-35931593D01*
X63139400Y-36024406D01*
X63139401Y-36024414D01*
X63163421Y-36114059D01*
X63163422Y-36114062D01*
X63209829Y-36194439D01*
X63209834Y-36194445D01*
X63275454Y-36260065D01*
X63275460Y-36260070D01*
X63355837Y-36306477D01*
X63355840Y-36306478D01*
X63445492Y-36330500D01*
X63445493Y-36330500D01*
X63538307Y-36330500D01*
X63538308Y-36330500D01*
X63627960Y-36306478D01*
X63633614Y-36303214D01*
X63644948Y-36296669D01*
X63708340Y-36260070D01*
X63773970Y-36194440D01*
X63819004Y-36116440D01*
X63820377Y-36114062D01*
X63820378Y-36114059D01*
X63825106Y-36096414D01*
X63844400Y-36024408D01*
X63844400Y-35931592D01*
X63820378Y-35841940D01*
X63820377Y-35841937D01*
X63773970Y-35761560D01*
X63773965Y-35761554D01*
X63708345Y-35695934D01*
X63708339Y-35695929D01*
X63627962Y-35649522D01*
X63627959Y-35649521D01*
X63538314Y-35625501D01*
X63538309Y-35625500D01*
X63538308Y-35625500D01*
X63445492Y-35625500D01*
X63445491Y-35625500D01*
X63445485Y-35625501D01*
X63355840Y-35649521D01*
X63355837Y-35649522D01*
X63275460Y-35695929D01*
X63275454Y-35695934D01*
X63209834Y-35761554D01*
X63209829Y-35761560D01*
X63163422Y-35841937D01*
X63163421Y-35841940D01*
X63139401Y-35931585D01*
X63139400Y-35931593D01*
X53523771Y-35931593D01*
X53079407Y-35487229D01*
X53079406Y-35487228D01*
X53079403Y-35487226D01*
X53004982Y-35456400D01*
X53004980Y-35456400D01*
X52342167Y-35456400D01*
X52297973Y-35438094D01*
X50218808Y-33358930D01*
X50218803Y-33358926D01*
X50144382Y-33328100D01*
X50144380Y-33328100D01*
X47002366Y-33328100D01*
X46958172Y-33309794D01*
X45365506Y-31717128D01*
X45347200Y-31672934D01*
X45347200Y-31466598D01*
X45365506Y-31422404D01*
X45426770Y-31361140D01*
X45464145Y-31296406D01*
X45473177Y-31280762D01*
X45473178Y-31280759D01*
X45473789Y-31278478D01*
X45497200Y-31191108D01*
X45497200Y-31098292D01*
X45473178Y-31008640D01*
X45473177Y-31008637D01*
X45426770Y-30928260D01*
X45426765Y-30928254D01*
X45361145Y-30862634D01*
X45361139Y-30862629D01*
X45280762Y-30816222D01*
X45280759Y-30816221D01*
X45191114Y-30792201D01*
X45191109Y-30792200D01*
X45191108Y-30792200D01*
X45098292Y-30792200D01*
X45098291Y-30792200D01*
X45098285Y-30792201D01*
X45008640Y-30816221D01*
X45008636Y-30816223D01*
X44991617Y-30826049D01*
X44944191Y-30832292D01*
X44906241Y-30803171D01*
X44899998Y-30755745D01*
X44902500Y-30746408D01*
X44902500Y-30653592D01*
X44878478Y-30563940D01*
X44878477Y-30563937D01*
X44832070Y-30483560D01*
X44832065Y-30483554D01*
X44766445Y-30417934D01*
X44766439Y-30417929D01*
X44686062Y-30371522D01*
X44686059Y-30371521D01*
X44596414Y-30347501D01*
X44596409Y-30347500D01*
X44596408Y-30347500D01*
X44503592Y-30347500D01*
X44503591Y-30347500D01*
X44503585Y-30347501D01*
X44413938Y-30371522D01*
X44410509Y-30372942D01*
X44362674Y-30372935D01*
X44328854Y-30339105D01*
X44324100Y-30315196D01*
X44324100Y-29083293D01*
X45032800Y-29083293D01*
X45032800Y-29176106D01*
X45032801Y-29176114D01*
X45056821Y-29265759D01*
X45056822Y-29265762D01*
X45103229Y-29346139D01*
X45103234Y-29346145D01*
X45168854Y-29411765D01*
X45168860Y-29411770D01*
X45249237Y-29458177D01*
X45249240Y-29458178D01*
X45338892Y-29482200D01*
X45338893Y-29482200D01*
X45431707Y-29482200D01*
X45431708Y-29482200D01*
X45521360Y-29458178D01*
X45601740Y-29411770D01*
X45667370Y-29346140D01*
X45713778Y-29265760D01*
X45737800Y-29176108D01*
X45737800Y-29083292D01*
X45713778Y-28993640D01*
X45713777Y-28993637D01*
X45667370Y-28913260D01*
X45667365Y-28913254D01*
X45601742Y-28847631D01*
X45599198Y-28845679D01*
X45575280Y-28804253D01*
X45587660Y-28758047D01*
X45605990Y-28741971D01*
X45666440Y-28707070D01*
X45732070Y-28641440D01*
X45778478Y-28561060D01*
X45802500Y-28471408D01*
X45802500Y-28378592D01*
X45778478Y-28288940D01*
X45778477Y-28288937D01*
X45732070Y-28208560D01*
X45732065Y-28208554D01*
X45666445Y-28142934D01*
X45666439Y-28142929D01*
X45586062Y-28096522D01*
X45586059Y-28096521D01*
X45496414Y-28072501D01*
X45496409Y-28072500D01*
X45496408Y-28072500D01*
X45403592Y-28072500D01*
X45403591Y-28072500D01*
X45403585Y-28072501D01*
X45313940Y-28096521D01*
X45313937Y-28096522D01*
X45233560Y-28142929D01*
X45233554Y-28142934D01*
X45167934Y-28208554D01*
X45167929Y-28208560D01*
X45121522Y-28288937D01*
X45121521Y-28288940D01*
X45097501Y-28378585D01*
X45097500Y-28378593D01*
X45097500Y-28471406D01*
X45097501Y-28471414D01*
X45121521Y-28561059D01*
X45121522Y-28561062D01*
X45167929Y-28641439D01*
X45167934Y-28641445D01*
X45233556Y-28707067D01*
X45236100Y-28709019D01*
X45260019Y-28750445D01*
X45247640Y-28796651D01*
X45229305Y-28812731D01*
X45168860Y-28847629D01*
X45168854Y-28847634D01*
X45103234Y-28913254D01*
X45103229Y-28913260D01*
X45056822Y-28993637D01*
X45056821Y-28993640D01*
X45032801Y-29083285D01*
X45032800Y-29083293D01*
X44324100Y-29083293D01*
X44324100Y-27679893D01*
X46928800Y-27679893D01*
X46928800Y-27772706D01*
X46928801Y-27772714D01*
X46952821Y-27862359D01*
X46952822Y-27862362D01*
X46999229Y-27942739D01*
X46999234Y-27942745D01*
X47064854Y-28008365D01*
X47064860Y-28008370D01*
X47145237Y-28054777D01*
X47145240Y-28054778D01*
X47234892Y-28078800D01*
X47234893Y-28078800D01*
X47327707Y-28078800D01*
X47327708Y-28078800D01*
X47417360Y-28054778D01*
X47497740Y-28008370D01*
X47563370Y-27942740D01*
X47609778Y-27862360D01*
X47633800Y-27772708D01*
X47633800Y-27686065D01*
X47652106Y-27641871D01*
X47692418Y-27601560D01*
X47734172Y-27559806D01*
X47778366Y-27541500D01*
X49897452Y-27541500D01*
X49941646Y-27559806D01*
X49959952Y-27604000D01*
X49951578Y-27635251D01*
X49924622Y-27681937D01*
X49924621Y-27681940D01*
X49900601Y-27771585D01*
X49900600Y-27771593D01*
X49900600Y-27864406D01*
X49900601Y-27864414D01*
X49924621Y-27954059D01*
X49924622Y-27954062D01*
X49965509Y-28024878D01*
X49971030Y-28034440D01*
X50032294Y-28095704D01*
X50050600Y-28139898D01*
X50050600Y-32676882D01*
X50081426Y-32751303D01*
X50081428Y-32751306D01*
X50081429Y-32751307D01*
X51291494Y-33961373D01*
X51309800Y-34005566D01*
X51309800Y-34092206D01*
X51309801Y-34092214D01*
X51333821Y-34181859D01*
X51333822Y-34181862D01*
X51380229Y-34262239D01*
X51380234Y-34262245D01*
X51445854Y-34327865D01*
X51445860Y-34327870D01*
X51526237Y-34374277D01*
X51526240Y-34374278D01*
X51615892Y-34398300D01*
X51615893Y-34398300D01*
X51708707Y-34398300D01*
X51708708Y-34398300D01*
X51798360Y-34374278D01*
X51802689Y-34371779D01*
X51830340Y-34355814D01*
X51878740Y-34327870D01*
X51944370Y-34262240D01*
X51990778Y-34181860D01*
X52014800Y-34092208D01*
X52014800Y-33999392D01*
X51990778Y-33909740D01*
X51990777Y-33909737D01*
X51944370Y-33829360D01*
X51944365Y-33829354D01*
X51878745Y-33763734D01*
X51878739Y-33763729D01*
X51798362Y-33717322D01*
X51798359Y-33717321D01*
X51708714Y-33693301D01*
X51708709Y-33693300D01*
X51708708Y-33693300D01*
X51622067Y-33693300D01*
X51577873Y-33674994D01*
X50847762Y-32944883D01*
X50829456Y-32900689D01*
X50847762Y-32856495D01*
X50891956Y-32838189D01*
X50908130Y-32840318D01*
X50932409Y-32846824D01*
X50953587Y-32852499D01*
X50953590Y-32852499D01*
X50953592Y-32852500D01*
X50953593Y-32852500D01*
X51046407Y-32852500D01*
X51046408Y-32852500D01*
X51136060Y-32828478D01*
X51216440Y-32782070D01*
X51282070Y-32716440D01*
X51319138Y-32652237D01*
X51328477Y-32636062D01*
X51328478Y-32636059D01*
X51352500Y-32546408D01*
X51352500Y-32508300D01*
X51370806Y-32464106D01*
X51415000Y-32445800D01*
X51484707Y-32445800D01*
X51484708Y-32445800D01*
X51574360Y-32421778D01*
X51654740Y-32375370D01*
X51720370Y-32309740D01*
X51766778Y-32229360D01*
X51790800Y-32139708D01*
X51790800Y-32046892D01*
X51766778Y-31957240D01*
X51766777Y-31957237D01*
X51720370Y-31876860D01*
X51720365Y-31876854D01*
X51654745Y-31811234D01*
X51654739Y-31811229D01*
X51574362Y-31764822D01*
X51574359Y-31764821D01*
X51484714Y-31740801D01*
X51484709Y-31740800D01*
X51484708Y-31740800D01*
X51391892Y-31740800D01*
X51391891Y-31740800D01*
X51391885Y-31740801D01*
X51302240Y-31764821D01*
X51302237Y-31764822D01*
X51221860Y-31811229D01*
X51221854Y-31811234D01*
X51156234Y-31876854D01*
X51156229Y-31876860D01*
X51109822Y-31957237D01*
X51109821Y-31957240D01*
X51085801Y-32046885D01*
X51085800Y-32046893D01*
X51085800Y-32085000D01*
X51067494Y-32129194D01*
X51023300Y-32147500D01*
X50953592Y-32147500D01*
X50953591Y-32147500D01*
X50953585Y-32147501D01*
X50863940Y-32171521D01*
X50863937Y-32171522D01*
X50783560Y-32217929D01*
X50783554Y-32217934D01*
X50717934Y-32283554D01*
X50717929Y-32283560D01*
X50671522Y-32363937D01*
X50671521Y-32363940D01*
X50647501Y-32453585D01*
X50647500Y-32453593D01*
X50647500Y-32546406D01*
X50647501Y-32546414D01*
X50659680Y-32591867D01*
X50653437Y-32639293D01*
X50615486Y-32668413D01*
X50568060Y-32662170D01*
X50555116Y-32652237D01*
X50473906Y-32571027D01*
X50455600Y-32526833D01*
X50455600Y-30227093D01*
X50916500Y-30227093D01*
X50916500Y-30319906D01*
X50916501Y-30319914D01*
X50940521Y-30409559D01*
X50940522Y-30409562D01*
X50986929Y-30489939D01*
X50986934Y-30489945D01*
X51052554Y-30555565D01*
X51052560Y-30555570D01*
X51132937Y-30601977D01*
X51132940Y-30601978D01*
X51222592Y-30626000D01*
X51222593Y-30626000D01*
X51315407Y-30626000D01*
X51315408Y-30626000D01*
X51405060Y-30601978D01*
X51485440Y-30555570D01*
X51551070Y-30489940D01*
X51597478Y-30409560D01*
X51621500Y-30319908D01*
X51621500Y-30227092D01*
X51597478Y-30137440D01*
X51597477Y-30137437D01*
X51551070Y-30057060D01*
X51551065Y-30057054D01*
X51485445Y-29991434D01*
X51485439Y-29991429D01*
X51405062Y-29945022D01*
X51405059Y-29945021D01*
X51315414Y-29921001D01*
X51315409Y-29921000D01*
X51315408Y-29921000D01*
X51222592Y-29921000D01*
X51222591Y-29921000D01*
X51222585Y-29921001D01*
X51132940Y-29945021D01*
X51132937Y-29945022D01*
X51052560Y-29991429D01*
X51052554Y-29991434D01*
X50986934Y-30057054D01*
X50986929Y-30057060D01*
X50940522Y-30137437D01*
X50940521Y-30137440D01*
X50916501Y-30227085D01*
X50916500Y-30227093D01*
X50455600Y-30227093D01*
X50455600Y-28139898D01*
X50473906Y-28095704D01*
X50535170Y-28034440D01*
X50581578Y-27954060D01*
X50581876Y-27952946D01*
X50582230Y-27952484D01*
X50583144Y-27950279D01*
X50583734Y-27950523D01*
X50610989Y-27914993D01*
X50658414Y-27908741D01*
X50686442Y-27924920D01*
X54070194Y-31308672D01*
X54088500Y-31352866D01*
X54088500Y-33910301D01*
X54070194Y-33954495D01*
X54008934Y-34015754D01*
X54008929Y-34015760D01*
X53962522Y-34096137D01*
X53962521Y-34096140D01*
X53938501Y-34185785D01*
X53938500Y-34185793D01*
X53938500Y-34278606D01*
X53938501Y-34278614D01*
X53962521Y-34368259D01*
X53962522Y-34368262D01*
X54008929Y-34448639D01*
X54008934Y-34448645D01*
X54074554Y-34514265D01*
X54074560Y-34514270D01*
X54154937Y-34560677D01*
X54154940Y-34560678D01*
X54244592Y-34584700D01*
X54244593Y-34584700D01*
X54337407Y-34584700D01*
X54337408Y-34584700D01*
X54427060Y-34560678D01*
X54427065Y-34560674D01*
X54428055Y-34560265D01*
X54428602Y-34560264D01*
X54431017Y-34559618D01*
X54431190Y-34560264D01*
X54475891Y-34560260D01*
X54509719Y-34594081D01*
X54512349Y-34601828D01*
X54521522Y-34636060D01*
X54521522Y-34636062D01*
X54567929Y-34716439D01*
X54567934Y-34716445D01*
X54633554Y-34782065D01*
X54633560Y-34782070D01*
X54713937Y-34828477D01*
X54713940Y-34828478D01*
X54803592Y-34852500D01*
X54803593Y-34852500D01*
X54896407Y-34852500D01*
X54896408Y-34852500D01*
X54986060Y-34828478D01*
X55066440Y-34782070D01*
X55132070Y-34716440D01*
X55178478Y-34636060D01*
X55202500Y-34546408D01*
X55202500Y-34453592D01*
X55178478Y-34363940D01*
X55178477Y-34363937D01*
X55132070Y-34283560D01*
X55132065Y-34283554D01*
X55066445Y-34217934D01*
X55066439Y-34217929D01*
X54986062Y-34171522D01*
X54986059Y-34171521D01*
X54896414Y-34147501D01*
X54896409Y-34147500D01*
X54896408Y-34147500D01*
X54803592Y-34147500D01*
X54803591Y-34147500D01*
X54803585Y-34147501D01*
X54713937Y-34171522D01*
X54712929Y-34171940D01*
X54712379Y-34171939D01*
X54709983Y-34172582D01*
X54709810Y-34171939D01*
X54665094Y-34171933D01*
X54631274Y-34138103D01*
X54628650Y-34130370D01*
X54619478Y-34096140D01*
X54619477Y-34096137D01*
X54573070Y-34015760D01*
X54573065Y-34015754D01*
X54511806Y-33954495D01*
X54493500Y-33910301D01*
X54493500Y-31930766D01*
X54511806Y-31886572D01*
X54556000Y-31868266D01*
X54600194Y-31886572D01*
X54684181Y-31970559D01*
X54697729Y-31990835D01*
X54728326Y-32064703D01*
X54728330Y-32064708D01*
X55034181Y-32370559D01*
X55047729Y-32390835D01*
X55078326Y-32464703D01*
X55078330Y-32464708D01*
X55434182Y-32820560D01*
X55447730Y-32840836D01*
X55478326Y-32914702D01*
X55478330Y-32914707D01*
X55785292Y-33221669D01*
X55785859Y-33222048D01*
X55801138Y-33236516D01*
X56750041Y-34501723D01*
X56761913Y-34548062D01*
X56760412Y-34555398D01*
X56747500Y-34603589D01*
X56747500Y-34696406D01*
X56747501Y-34696414D01*
X56771521Y-34786059D01*
X56771522Y-34786062D01*
X56817929Y-34866439D01*
X56817934Y-34866445D01*
X56883554Y-34932065D01*
X56883560Y-34932070D01*
X56963937Y-34978477D01*
X56963940Y-34978478D01*
X57053592Y-35002500D01*
X57053593Y-35002500D01*
X57146407Y-35002500D01*
X57146408Y-35002500D01*
X57236060Y-34978478D01*
X57316440Y-34932070D01*
X57382070Y-34866440D01*
X57425684Y-34790900D01*
X57428477Y-34786062D01*
X57428478Y-34786059D01*
X57431844Y-34773498D01*
X57452500Y-34696408D01*
X57452500Y-34603592D01*
X57428478Y-34513940D01*
X57428477Y-34513937D01*
X57382070Y-34433560D01*
X57382065Y-34433554D01*
X57316445Y-34367934D01*
X57316439Y-34367929D01*
X57236062Y-34321522D01*
X57236059Y-34321521D01*
X57146414Y-34297501D01*
X57146409Y-34297500D01*
X57146408Y-34297500D01*
X57146407Y-34297500D01*
X57105625Y-34297500D01*
X57061431Y-34279194D01*
X57055625Y-34272500D01*
X56855425Y-34005566D01*
X56099772Y-32998028D01*
X56092035Y-32984455D01*
X56071671Y-32935292D01*
X55865817Y-32729438D01*
X55852270Y-32709165D01*
X55821671Y-32635293D01*
X55764707Y-32578329D01*
X55465818Y-32279440D01*
X55452270Y-32259165D01*
X55421671Y-32185292D01*
X55364707Y-32128328D01*
X55115817Y-31879438D01*
X55102270Y-31859165D01*
X55071671Y-31785293D01*
X55014707Y-31728329D01*
X54715817Y-31429439D01*
X54702268Y-31409161D01*
X54689899Y-31379298D01*
X54671672Y-31335293D01*
X54467819Y-31131440D01*
X54457900Y-31118520D01*
X54455174Y-31113803D01*
X54455171Y-31113800D01*
X54437035Y-31099895D01*
X54430869Y-31094490D01*
X54414707Y-31078328D01*
X54413493Y-31077517D01*
X54404023Y-31069745D01*
X50501608Y-27167330D01*
X50501603Y-27167326D01*
X50427182Y-27136500D01*
X50427180Y-27136500D01*
X47708880Y-27136500D01*
X47628320Y-27136500D01*
X47628317Y-27136500D01*
X47553896Y-27167326D01*
X47553891Y-27167330D01*
X47365727Y-27355494D01*
X47321533Y-27373800D01*
X47234892Y-27373800D01*
X47234891Y-27373800D01*
X47234885Y-27373801D01*
X47145240Y-27397821D01*
X47145237Y-27397822D01*
X47064860Y-27444229D01*
X47064854Y-27444234D01*
X46999234Y-27509854D01*
X46999229Y-27509860D01*
X46952822Y-27590237D01*
X46952821Y-27590240D01*
X46928801Y-27679885D01*
X46928800Y-27679893D01*
X44324100Y-27679893D01*
X44324100Y-26800120D01*
X44324099Y-26800117D01*
X44293273Y-26725696D01*
X44293269Y-26725691D01*
X44166806Y-26599228D01*
X44148500Y-26555034D01*
X44148500Y-26468393D01*
X44148498Y-26468385D01*
X44145331Y-26456567D01*
X44124478Y-26378740D01*
X44124477Y-26378737D01*
X44078070Y-26298360D01*
X44078065Y-26298354D01*
X44012445Y-26232734D01*
X44012439Y-26232729D01*
X43932060Y-26186321D01*
X43928437Y-26184821D01*
X43894611Y-26150998D01*
X43894610Y-26103162D01*
X43908157Y-26082886D01*
X44037450Y-25953593D01*
X47547500Y-25953593D01*
X47547500Y-26046406D01*
X47547501Y-26046414D01*
X47571521Y-26136059D01*
X47571522Y-26136062D01*
X47617929Y-26216439D01*
X47617934Y-26216445D01*
X47683554Y-26282065D01*
X47683560Y-26282070D01*
X47763937Y-26328477D01*
X47763940Y-26328478D01*
X47853592Y-26352500D01*
X47853593Y-26352500D01*
X47946407Y-26352500D01*
X47946408Y-26352500D01*
X48036060Y-26328478D01*
X48116440Y-26282070D01*
X48172117Y-26226393D01*
X48740300Y-26226393D01*
X48740300Y-26319206D01*
X48740301Y-26319214D01*
X48764321Y-26408859D01*
X48764322Y-26408862D01*
X48810729Y-26489239D01*
X48810734Y-26489245D01*
X48876354Y-26554865D01*
X48876360Y-26554870D01*
X48956737Y-26601277D01*
X48956740Y-26601278D01*
X49046392Y-26625300D01*
X49046393Y-26625300D01*
X49139207Y-26625300D01*
X49139208Y-26625300D01*
X49228860Y-26601278D01*
X49309240Y-26554870D01*
X49374870Y-26489240D01*
X49419250Y-26412373D01*
X49421277Y-26408862D01*
X49421278Y-26408859D01*
X49422689Y-26403593D01*
X49445300Y-26319208D01*
X49445300Y-26226392D01*
X49421278Y-26136740D01*
X49421277Y-26136737D01*
X49374870Y-26056360D01*
X49374865Y-26056354D01*
X49309245Y-25990734D01*
X49309239Y-25990729D01*
X49228862Y-25944322D01*
X49228859Y-25944321D01*
X49139214Y-25920301D01*
X49139209Y-25920300D01*
X49139208Y-25920300D01*
X49046392Y-25920300D01*
X49046391Y-25920300D01*
X49046385Y-25920301D01*
X48956740Y-25944321D01*
X48956737Y-25944322D01*
X48876360Y-25990729D01*
X48876354Y-25990734D01*
X48810734Y-26056354D01*
X48810729Y-26056360D01*
X48764322Y-26136737D01*
X48764321Y-26136740D01*
X48740301Y-26226385D01*
X48740300Y-26226393D01*
X48172117Y-26226393D01*
X48182070Y-26216440D01*
X48187158Y-26207626D01*
X48196732Y-26191046D01*
X48196732Y-26191045D01*
X48228477Y-26136062D01*
X48228478Y-26136059D01*
X48232373Y-26121522D01*
X48252500Y-26046408D01*
X48252500Y-25953592D01*
X48228478Y-25863940D01*
X48228477Y-25863937D01*
X48182070Y-25783560D01*
X48182065Y-25783554D01*
X48116445Y-25717934D01*
X48116439Y-25717929D01*
X48036062Y-25671522D01*
X48036059Y-25671521D01*
X47946414Y-25647501D01*
X47946409Y-25647500D01*
X47946408Y-25647500D01*
X47853592Y-25647500D01*
X47853591Y-25647500D01*
X47853585Y-25647501D01*
X47763940Y-25671521D01*
X47763937Y-25671522D01*
X47683560Y-25717929D01*
X47683554Y-25717934D01*
X47617934Y-25783554D01*
X47617929Y-25783560D01*
X47571522Y-25863937D01*
X47571521Y-25863940D01*
X47547501Y-25953585D01*
X47547500Y-25953593D01*
X44037450Y-25953593D01*
X44206611Y-25784431D01*
X44250804Y-25766126D01*
X44275701Y-25772795D01*
X44276151Y-25771709D01*
X44279938Y-25773277D01*
X44279940Y-25773278D01*
X44369592Y-25797300D01*
X44369593Y-25797300D01*
X44462407Y-25797300D01*
X44462408Y-25797300D01*
X44552060Y-25773278D01*
X44564448Y-25766126D01*
X44569048Y-25763469D01*
X44632440Y-25726870D01*
X44698070Y-25661240D01*
X44744478Y-25580860D01*
X44768500Y-25491208D01*
X44768500Y-25398392D01*
X44744478Y-25308740D01*
X44744477Y-25308737D01*
X44698070Y-25228360D01*
X44698065Y-25228354D01*
X44632445Y-25162734D01*
X44632439Y-25162729D01*
X44552062Y-25116322D01*
X44552059Y-25116321D01*
X44462414Y-25092301D01*
X44462409Y-25092300D01*
X44462408Y-25092300D01*
X44369592Y-25092300D01*
X44369591Y-25092300D01*
X44369585Y-25092301D01*
X44279940Y-25116321D01*
X44279937Y-25116322D01*
X44206149Y-25158926D01*
X44174898Y-25167300D01*
X44117266Y-25167300D01*
X44117265Y-25167300D01*
X44117259Y-25167301D01*
X44046693Y-25186209D01*
X44046686Y-25186212D01*
X43983411Y-25222743D01*
X39277444Y-29928710D01*
X39268527Y-29944156D01*
X39230576Y-29973276D01*
X39183150Y-29967033D01*
X39154030Y-29929082D01*
X39151900Y-29912906D01*
X39151900Y-29513402D01*
X39160274Y-29482151D01*
X39162964Y-29477493D01*
X39202878Y-29408360D01*
X39226900Y-29318708D01*
X39226900Y-29225892D01*
X39202878Y-29136240D01*
X39202877Y-29136237D01*
X39156470Y-29055860D01*
X39156465Y-29055854D01*
X39090845Y-28990234D01*
X39090839Y-28990229D01*
X39010462Y-28943822D01*
X39010459Y-28943821D01*
X38920814Y-28919801D01*
X38920809Y-28919800D01*
X38920808Y-28919800D01*
X38827992Y-28919800D01*
X38827991Y-28919800D01*
X38827985Y-28919801D01*
X38738340Y-28943821D01*
X38738337Y-28943822D01*
X38657960Y-28990229D01*
X38657954Y-28990234D01*
X38592334Y-29055854D01*
X38592329Y-29055860D01*
X38545922Y-29136237D01*
X38545921Y-29136240D01*
X38521901Y-29225885D01*
X38521900Y-29225893D01*
X38521900Y-29318706D01*
X38521901Y-29318714D01*
X38545921Y-29408359D01*
X38545922Y-29408362D01*
X38574684Y-29458177D01*
X38585836Y-29477493D01*
X38588526Y-29482151D01*
X38596900Y-29513402D01*
X38596900Y-30412167D01*
X38578594Y-30456361D01*
X37399336Y-31635618D01*
X37355142Y-31653924D01*
X37310948Y-31635618D01*
X37292642Y-31591424D01*
X37294771Y-31575252D01*
X37302500Y-31546408D01*
X37302500Y-31453592D01*
X37278478Y-31363940D01*
X37278477Y-31363937D01*
X37232070Y-31283560D01*
X37232065Y-31283554D01*
X37166445Y-31217934D01*
X37166439Y-31217929D01*
X37086062Y-31171522D01*
X37086059Y-31171521D01*
X36996414Y-31147501D01*
X36996409Y-31147500D01*
X36996408Y-31147500D01*
X36903592Y-31147500D01*
X36903590Y-31147500D01*
X36866780Y-31157363D01*
X36822445Y-31152788D01*
X36111840Y-30794148D01*
X36080634Y-30757894D01*
X36077500Y-30738352D01*
X36077500Y-26559332D01*
X36095806Y-26515138D01*
X36257351Y-26353593D01*
X38147500Y-26353593D01*
X38147500Y-26446406D01*
X38147501Y-26446414D01*
X38171521Y-26536059D01*
X38171522Y-26536062D01*
X38217929Y-26616439D01*
X38217934Y-26616445D01*
X38283554Y-26682065D01*
X38283560Y-26682070D01*
X38363937Y-26728477D01*
X38363940Y-26728478D01*
X38453592Y-26752500D01*
X38453593Y-26752500D01*
X38546407Y-26752500D01*
X38546408Y-26752500D01*
X38636060Y-26728478D01*
X38716440Y-26682070D01*
X38782070Y-26616440D01*
X38828478Y-26536060D01*
X38852500Y-26446408D01*
X38852500Y-26353592D01*
X38828478Y-26263940D01*
X38828477Y-26263937D01*
X38782070Y-26183560D01*
X38782065Y-26183554D01*
X38716445Y-26117934D01*
X38716439Y-26117929D01*
X38636062Y-26071522D01*
X38636059Y-26071521D01*
X38546414Y-26047501D01*
X38546409Y-26047500D01*
X38546408Y-26047500D01*
X38453592Y-26047500D01*
X38453591Y-26047500D01*
X38453585Y-26047501D01*
X38363940Y-26071521D01*
X38363937Y-26071522D01*
X38283560Y-26117929D01*
X38283554Y-26117934D01*
X38217934Y-26183554D01*
X38217929Y-26183560D01*
X38171522Y-26263937D01*
X38171521Y-26263940D01*
X38147501Y-26353585D01*
X38147500Y-26353593D01*
X36257351Y-26353593D01*
X36305642Y-26305302D01*
X36634023Y-25976921D01*
X36974237Y-25636706D01*
X37002253Y-25620532D01*
X37058170Y-25605549D01*
X37084560Y-25598478D01*
X37164940Y-25552070D01*
X37230570Y-25486440D01*
X37276978Y-25406060D01*
X37301000Y-25316408D01*
X37301000Y-25223592D01*
X37276978Y-25133940D01*
X37276977Y-25133937D01*
X37230570Y-25053560D01*
X37230565Y-25053554D01*
X37180604Y-25003593D01*
X38840700Y-25003593D01*
X38840700Y-25096406D01*
X38840701Y-25096414D01*
X38864721Y-25186059D01*
X38864722Y-25186062D01*
X38911129Y-25266439D01*
X38911134Y-25266445D01*
X38976754Y-25332065D01*
X38976760Y-25332070D01*
X39057137Y-25378477D01*
X39057140Y-25378478D01*
X39146792Y-25402500D01*
X39146793Y-25402500D01*
X39239607Y-25402500D01*
X39239608Y-25402500D01*
X39329260Y-25378478D01*
X39409640Y-25332070D01*
X39475270Y-25266440D01*
X39521678Y-25186060D01*
X39545700Y-25096408D01*
X39545700Y-25003592D01*
X39521678Y-24913940D01*
X39521677Y-24913937D01*
X39475270Y-24833560D01*
X39475265Y-24833554D01*
X39409645Y-24767934D01*
X39409639Y-24767929D01*
X39329262Y-24721522D01*
X39329259Y-24721521D01*
X39239614Y-24697501D01*
X39239609Y-24697500D01*
X39239608Y-24697500D01*
X39146792Y-24697500D01*
X39146791Y-24697500D01*
X39146785Y-24697501D01*
X39057140Y-24721521D01*
X39057137Y-24721522D01*
X38976760Y-24767929D01*
X38976754Y-24767934D01*
X38911134Y-24833554D01*
X38911129Y-24833560D01*
X38864722Y-24913937D01*
X38864721Y-24913940D01*
X38840701Y-25003585D01*
X38840700Y-25003593D01*
X37180604Y-25003593D01*
X37164945Y-24987934D01*
X37164939Y-24987929D01*
X37084562Y-24941522D01*
X37084559Y-24941521D01*
X36994914Y-24917501D01*
X36994909Y-24917500D01*
X36994908Y-24917500D01*
X36902092Y-24917500D01*
X36902091Y-24917500D01*
X36902085Y-24917501D01*
X36812440Y-24941521D01*
X36812437Y-24941522D01*
X36732060Y-24987929D01*
X36732054Y-24987934D01*
X36666434Y-25053554D01*
X36666429Y-25053560D01*
X36620022Y-25133937D01*
X36620022Y-25133939D01*
X36597967Y-25216246D01*
X36581791Y-25244263D01*
X35577943Y-26248111D01*
X35541411Y-26311388D01*
X35541410Y-26311390D01*
X35522499Y-26381960D01*
X35522499Y-26460065D01*
X35522500Y-26460078D01*
X35522500Y-30778767D01*
X35504194Y-30822961D01*
X34236663Y-32090491D01*
X34208646Y-32106667D01*
X34126339Y-32128722D01*
X34126337Y-32128722D01*
X34045960Y-32175129D01*
X34045954Y-32175134D01*
X33980334Y-32240754D01*
X33980329Y-32240760D01*
X33933922Y-32321137D01*
X33933922Y-32321139D01*
X33918715Y-32377889D01*
X33889594Y-32415839D01*
X33842168Y-32422082D01*
X33814151Y-32405906D01*
X33265890Y-31857645D01*
X33247584Y-31813451D01*
X33265890Y-31769257D01*
X33293904Y-31753081D01*
X33317879Y-31746658D01*
X33317881Y-31746656D01*
X33317883Y-31746656D01*
X33361417Y-31721521D01*
X33398259Y-31700250D01*
X33463889Y-31634620D01*
X33502394Y-31567929D01*
X33510296Y-31554242D01*
X33510297Y-31554239D01*
X33512395Y-31546409D01*
X33534319Y-31464588D01*
X33534319Y-31371772D01*
X33510297Y-31282120D01*
X33510296Y-31282118D01*
X33510296Y-31282117D01*
X33463889Y-31201740D01*
X33463884Y-31201734D01*
X33398264Y-31136114D01*
X33398258Y-31136109D01*
X33317881Y-31089702D01*
X33317878Y-31089701D01*
X33228233Y-31065681D01*
X33228228Y-31065680D01*
X33228227Y-31065680D01*
X33135411Y-31065680D01*
X33135410Y-31065680D01*
X33135404Y-31065681D01*
X33045759Y-31089701D01*
X33045756Y-31089702D01*
X32965379Y-31136109D01*
X32965373Y-31136114D01*
X32899753Y-31201734D01*
X32899748Y-31201740D01*
X32853341Y-31282117D01*
X32853341Y-31282118D01*
X32846917Y-31306092D01*
X32817795Y-31344042D01*
X32770369Y-31350284D01*
X32742353Y-31334108D01*
X32212706Y-30804461D01*
X32194400Y-30760267D01*
X32194400Y-29677402D01*
X32202774Y-29646151D01*
X32206326Y-29640000D01*
X32227250Y-29603757D01*
X32245377Y-29572362D01*
X32245378Y-29572359D01*
X32269400Y-29482708D01*
X32269400Y-29389892D01*
X32245378Y-29300240D01*
X32245377Y-29300237D01*
X32198970Y-29219860D01*
X32198965Y-29219854D01*
X32133345Y-29154234D01*
X32133339Y-29154229D01*
X32052962Y-29107822D01*
X32052959Y-29107821D01*
X31963314Y-29083801D01*
X31963309Y-29083800D01*
X31963308Y-29083800D01*
X31870492Y-29083800D01*
X31870491Y-29083800D01*
X31870485Y-29083801D01*
X31780840Y-29107821D01*
X31780834Y-29107824D01*
X31730050Y-29137145D01*
X31682624Y-29143389D01*
X31644674Y-29114269D01*
X31636300Y-29083019D01*
X31636300Y-27303593D01*
X31797500Y-27303593D01*
X31797500Y-27396406D01*
X31797501Y-27396414D01*
X31821521Y-27486059D01*
X31821522Y-27486062D01*
X31867929Y-27566439D01*
X31867934Y-27566445D01*
X31933554Y-27632065D01*
X31933560Y-27632070D01*
X32013937Y-27678477D01*
X32013940Y-27678478D01*
X32103592Y-27702500D01*
X32103593Y-27702500D01*
X32196407Y-27702500D01*
X32196408Y-27702500D01*
X32286060Y-27678478D01*
X32366440Y-27632070D01*
X32432070Y-27566440D01*
X32478478Y-27486060D01*
X32502500Y-27396408D01*
X32502500Y-27303592D01*
X32478478Y-27213940D01*
X32478477Y-27213937D01*
X32432070Y-27133560D01*
X32432065Y-27133554D01*
X32366445Y-27067934D01*
X32366439Y-27067929D01*
X32286062Y-27021522D01*
X32286059Y-27021521D01*
X32196414Y-26997501D01*
X32196409Y-26997500D01*
X32196408Y-26997500D01*
X32103592Y-26997500D01*
X32103591Y-26997500D01*
X32103585Y-26997501D01*
X32013940Y-27021521D01*
X32013937Y-27021522D01*
X31933560Y-27067929D01*
X31933554Y-27067934D01*
X31867934Y-27133554D01*
X31867929Y-27133560D01*
X31821522Y-27213937D01*
X31821521Y-27213940D01*
X31797501Y-27303585D01*
X31797500Y-27303593D01*
X31636300Y-27303593D01*
X31636300Y-26735699D01*
X31654606Y-26691505D01*
X31698800Y-26673199D01*
X31742994Y-26691505D01*
X31783554Y-26732065D01*
X31783560Y-26732070D01*
X31863937Y-26778477D01*
X31863940Y-26778478D01*
X31953592Y-26802500D01*
X31953593Y-26802500D01*
X32046407Y-26802500D01*
X32046408Y-26802500D01*
X32136060Y-26778478D01*
X32216440Y-26732070D01*
X32282070Y-26666440D01*
X32328478Y-26586060D01*
X32352500Y-26496408D01*
X32352500Y-26403592D01*
X32328478Y-26313940D01*
X32328477Y-26313937D01*
X32282070Y-26233560D01*
X32282065Y-26233554D01*
X32216445Y-26167934D01*
X32216439Y-26167929D01*
X32136062Y-26121522D01*
X32136059Y-26121521D01*
X32046414Y-26097501D01*
X32046409Y-26097500D01*
X32046408Y-26097500D01*
X31953592Y-26097500D01*
X31953591Y-26097500D01*
X31953585Y-26097501D01*
X31863940Y-26121521D01*
X31863937Y-26121522D01*
X31783560Y-26167929D01*
X31783554Y-26167934D01*
X31742994Y-26208495D01*
X31698800Y-26226801D01*
X31654606Y-26208495D01*
X31636300Y-26164301D01*
X31636300Y-25478593D01*
X34597500Y-25478593D01*
X34597500Y-25571406D01*
X34597501Y-25571414D01*
X34621521Y-25661059D01*
X34621522Y-25661062D01*
X34667929Y-25741439D01*
X34667934Y-25741445D01*
X34733554Y-25807065D01*
X34733560Y-25807070D01*
X34813937Y-25853477D01*
X34813940Y-25853478D01*
X34903592Y-25877500D01*
X34903593Y-25877500D01*
X34996407Y-25877500D01*
X34996408Y-25877500D01*
X35086060Y-25853478D01*
X35166440Y-25807070D01*
X35232070Y-25741440D01*
X35278478Y-25661060D01*
X35302500Y-25571408D01*
X35302500Y-25478592D01*
X35278478Y-25388940D01*
X35278477Y-25388937D01*
X35232070Y-25308560D01*
X35232065Y-25308554D01*
X35166445Y-25242934D01*
X35166439Y-25242929D01*
X35086062Y-25196522D01*
X35086059Y-25196521D01*
X34996414Y-25172501D01*
X34996409Y-25172500D01*
X34996408Y-25172500D01*
X34903592Y-25172500D01*
X34903591Y-25172500D01*
X34903585Y-25172501D01*
X34813940Y-25196521D01*
X34813937Y-25196522D01*
X34733560Y-25242929D01*
X34733554Y-25242934D01*
X34667934Y-25308554D01*
X34667929Y-25308560D01*
X34621522Y-25388937D01*
X34621521Y-25388940D01*
X34597501Y-25478585D01*
X34597500Y-25478593D01*
X31636300Y-25478593D01*
X31636300Y-24203593D01*
X33347500Y-24203593D01*
X33347500Y-24296406D01*
X33347501Y-24296414D01*
X33371521Y-24386059D01*
X33371522Y-24386062D01*
X33417929Y-24466439D01*
X33417934Y-24466445D01*
X33483554Y-24532065D01*
X33483560Y-24532070D01*
X33563937Y-24578477D01*
X33563940Y-24578478D01*
X33653592Y-24602500D01*
X33653593Y-24602500D01*
X33746407Y-24602500D01*
X33746408Y-24602500D01*
X33836060Y-24578478D01*
X33916440Y-24532070D01*
X33982070Y-24466440D01*
X34028478Y-24386060D01*
X34052500Y-24296408D01*
X34052500Y-24203592D01*
X34028478Y-24113940D01*
X34028477Y-24113937D01*
X33982070Y-24033560D01*
X33982065Y-24033554D01*
X33916445Y-23967934D01*
X33916439Y-23967929D01*
X33836062Y-23921522D01*
X33836059Y-23921521D01*
X33746414Y-23897501D01*
X33746409Y-23897500D01*
X33746408Y-23897500D01*
X33653592Y-23897500D01*
X33653591Y-23897500D01*
X33653585Y-23897501D01*
X33563940Y-23921521D01*
X33563937Y-23921522D01*
X33483560Y-23967929D01*
X33483554Y-23967934D01*
X33417934Y-24033554D01*
X33417929Y-24033560D01*
X33371522Y-24113937D01*
X33371521Y-24113940D01*
X33347501Y-24203585D01*
X33347500Y-24203593D01*
X31636300Y-24203593D01*
X31636300Y-23553593D01*
X35247500Y-23553593D01*
X35247500Y-23646406D01*
X35247501Y-23646414D01*
X35271521Y-23736059D01*
X35271522Y-23736062D01*
X35317929Y-23816439D01*
X35317934Y-23816445D01*
X35383554Y-23882065D01*
X35383560Y-23882070D01*
X35463937Y-23928477D01*
X35463940Y-23928478D01*
X35553592Y-23952500D01*
X35553593Y-23952500D01*
X35646407Y-23952500D01*
X35646408Y-23952500D01*
X35736060Y-23928478D01*
X35816440Y-23882070D01*
X35882070Y-23816440D01*
X35928478Y-23736060D01*
X35952500Y-23646408D01*
X35952500Y-23553592D01*
X35928478Y-23463940D01*
X35928477Y-23463937D01*
X35882070Y-23383560D01*
X35882065Y-23383554D01*
X35816445Y-23317934D01*
X35816439Y-23317929D01*
X35786586Y-23300693D01*
X37531200Y-23300693D01*
X37531200Y-23393506D01*
X37531201Y-23393514D01*
X37555221Y-23483159D01*
X37555222Y-23483162D01*
X37601629Y-23563539D01*
X37601634Y-23563545D01*
X37667254Y-23629165D01*
X37667260Y-23629170D01*
X37747637Y-23675577D01*
X37747640Y-23675578D01*
X37837292Y-23699600D01*
X37837293Y-23699600D01*
X37930107Y-23699600D01*
X37930108Y-23699600D01*
X38019760Y-23675578D01*
X38100140Y-23629170D01*
X38165770Y-23563540D01*
X38212178Y-23483160D01*
X38236200Y-23393508D01*
X38236200Y-23300692D01*
X38212178Y-23211040D01*
X38212177Y-23211037D01*
X38165770Y-23130660D01*
X38165765Y-23130654D01*
X38100145Y-23065034D01*
X38100139Y-23065029D01*
X38019762Y-23018622D01*
X38019759Y-23018621D01*
X37930114Y-22994601D01*
X37930109Y-22994600D01*
X37930108Y-22994600D01*
X37837292Y-22994600D01*
X37837291Y-22994600D01*
X37837285Y-22994601D01*
X37747640Y-23018621D01*
X37747637Y-23018622D01*
X37667260Y-23065029D01*
X37667254Y-23065034D01*
X37601634Y-23130654D01*
X37601629Y-23130660D01*
X37555222Y-23211037D01*
X37555221Y-23211040D01*
X37531201Y-23300685D01*
X37531200Y-23300693D01*
X35786586Y-23300693D01*
X35736062Y-23271522D01*
X35736059Y-23271521D01*
X35646414Y-23247501D01*
X35646409Y-23247500D01*
X35646408Y-23247500D01*
X35553592Y-23247500D01*
X35553591Y-23247500D01*
X35553585Y-23247501D01*
X35463940Y-23271521D01*
X35463937Y-23271522D01*
X35383560Y-23317929D01*
X35383554Y-23317934D01*
X35317934Y-23383554D01*
X35317929Y-23383560D01*
X35271522Y-23463937D01*
X35271521Y-23463940D01*
X35247501Y-23553585D01*
X35247500Y-23553593D01*
X31636300Y-23553593D01*
X31636300Y-23016520D01*
X31636299Y-23016517D01*
X31605473Y-22942096D01*
X31605469Y-22942091D01*
X30915306Y-22251928D01*
X30897000Y-22207734D01*
X30897000Y-22121093D01*
X30896998Y-22121085D01*
X30872978Y-22031440D01*
X30872977Y-22031437D01*
X30826570Y-21951060D01*
X30826565Y-21951054D01*
X30760945Y-21885434D01*
X30760939Y-21885429D01*
X30680562Y-21839022D01*
X30680559Y-21839021D01*
X30590914Y-21815001D01*
X30590909Y-21815000D01*
X30590908Y-21815000D01*
X30498092Y-21815000D01*
X30498091Y-21815000D01*
X30498085Y-21815001D01*
X30408440Y-21839021D01*
X30408437Y-21839022D01*
X30328060Y-21885429D01*
X30328054Y-21885434D01*
X30262434Y-21951054D01*
X30262429Y-21951060D01*
X30216022Y-22031437D01*
X30216021Y-22031440D01*
X30192001Y-22121085D01*
X30192000Y-22121093D01*
X30192000Y-22213906D01*
X30192001Y-22213914D01*
X30216021Y-22303559D01*
X30216022Y-22303562D01*
X30262429Y-22383939D01*
X30262434Y-22383945D01*
X30328054Y-22449565D01*
X30328060Y-22449570D01*
X30408437Y-22495977D01*
X30408440Y-22495978D01*
X30498092Y-22520000D01*
X30498093Y-22520000D01*
X30584734Y-22520000D01*
X30628928Y-22538306D01*
X31212994Y-23122372D01*
X31231300Y-23166566D01*
X31231300Y-28497123D01*
X31212994Y-28541317D01*
X31168800Y-28559623D01*
X31137550Y-28551249D01*
X31086065Y-28521524D01*
X31086059Y-28521521D01*
X30996414Y-28497501D01*
X30996409Y-28497500D01*
X30996408Y-28497500D01*
X30903592Y-28497500D01*
X30903591Y-28497500D01*
X30903585Y-28497501D01*
X30813940Y-28521521D01*
X30813939Y-28521521D01*
X30777050Y-28542820D01*
X30729623Y-28549063D01*
X30691673Y-28519943D01*
X30683300Y-28488693D01*
X30683300Y-28146720D01*
X30683299Y-28146717D01*
X30652473Y-28072296D01*
X30652469Y-28072291D01*
X28970006Y-26389828D01*
X28951700Y-26345634D01*
X28951700Y-26258993D01*
X28951698Y-26258985D01*
X28944885Y-26233560D01*
X28927678Y-26169340D01*
X28927677Y-26169337D01*
X28881270Y-26088960D01*
X28881265Y-26088954D01*
X28815645Y-26023334D01*
X28815639Y-26023329D01*
X28735262Y-25976922D01*
X28735259Y-25976921D01*
X28671608Y-25959866D01*
X28645614Y-25952901D01*
X28645609Y-25952900D01*
X28645608Y-25952900D01*
X28552792Y-25952900D01*
X28552791Y-25952900D01*
X28552785Y-25952901D01*
X28463140Y-25976921D01*
X28463137Y-25976922D01*
X28382760Y-26023329D01*
X28382754Y-26023334D01*
X28317134Y-26088954D01*
X28317129Y-26088960D01*
X28270722Y-26169337D01*
X28270721Y-26169340D01*
X28246701Y-26258985D01*
X28246700Y-26258993D01*
X28246700Y-26351806D01*
X28246701Y-26351814D01*
X28270721Y-26441459D01*
X28270722Y-26441462D01*
X28317129Y-26521839D01*
X28317134Y-26521845D01*
X28382754Y-26587465D01*
X28382760Y-26587470D01*
X28463137Y-26633877D01*
X28463140Y-26633878D01*
X28552792Y-26657900D01*
X28552793Y-26657900D01*
X28639434Y-26657900D01*
X28683628Y-26676206D01*
X30259994Y-28252572D01*
X30278300Y-28296766D01*
X30278300Y-31914482D01*
X30309126Y-31988903D01*
X30309128Y-31988906D01*
X30309129Y-31988907D01*
X31467529Y-33147307D01*
X31524493Y-33204271D01*
X31524494Y-33204271D01*
X31524496Y-33204273D01*
X31584347Y-33229064D01*
X31607018Y-33246457D01*
X31607333Y-33246143D01*
X31609722Y-33248532D01*
X31610010Y-33248753D01*
X31610231Y-33249041D01*
X31675860Y-33314670D01*
X31756237Y-33361077D01*
X31756240Y-33361078D01*
X31845892Y-33385100D01*
X31845893Y-33385100D01*
X31938707Y-33385100D01*
X31938708Y-33385100D01*
X32028360Y-33361078D01*
X32031797Y-33359094D01*
X32061118Y-33342165D01*
X32108740Y-33314670D01*
X32174370Y-33249040D01*
X32220778Y-33168660D01*
X32244800Y-33079008D01*
X32244800Y-32986192D01*
X32220778Y-32896540D01*
X32220777Y-32896537D01*
X32174370Y-32816160D01*
X32174365Y-32816154D01*
X32108745Y-32750534D01*
X32108739Y-32750529D01*
X32028362Y-32704122D01*
X32028359Y-32704121D01*
X31938714Y-32680101D01*
X31938709Y-32680100D01*
X31938708Y-32680100D01*
X31845892Y-32680100D01*
X31845891Y-32680100D01*
X31845885Y-32680101D01*
X31756240Y-32704121D01*
X31756237Y-32704122D01*
X31696883Y-32738392D01*
X31649456Y-32744637D01*
X31621438Y-32728460D01*
X31524631Y-32631653D01*
X31506325Y-32587459D01*
X31524631Y-32543265D01*
X31552647Y-32527090D01*
X31569860Y-32522478D01*
X31650240Y-32476070D01*
X31715870Y-32410440D01*
X31762278Y-32330060D01*
X31786300Y-32240408D01*
X31786300Y-32147592D01*
X31762278Y-32057940D01*
X31762277Y-32057937D01*
X31715870Y-31977560D01*
X31715865Y-31977554D01*
X31654606Y-31916295D01*
X31636300Y-31872101D01*
X31636300Y-31163833D01*
X31654606Y-31119639D01*
X31698800Y-31101333D01*
X31742994Y-31119639D01*
X33768644Y-33145289D01*
X33820311Y-33196956D01*
X33883589Y-33233489D01*
X33954166Y-33252400D01*
X35325081Y-33252400D01*
X35369275Y-33270706D01*
X35387581Y-33314900D01*
X35369275Y-33359094D01*
X35341257Y-33375270D01*
X35314940Y-33382321D01*
X35314937Y-33382322D01*
X35261808Y-33412998D01*
X35247045Y-33421522D01*
X35241149Y-33424926D01*
X35209898Y-33433300D01*
X34445775Y-33433300D01*
X34445759Y-33433299D01*
X34441934Y-33433299D01*
X34368866Y-33433299D01*
X34368860Y-33433299D01*
X34298290Y-33452210D01*
X34298288Y-33452211D01*
X34235011Y-33488743D01*
X31775361Y-35948394D01*
X31731167Y-35966700D01*
X30816508Y-35966700D01*
X30772314Y-35948394D01*
X30754008Y-35904200D01*
X30772314Y-35860006D01*
X30785257Y-35850074D01*
X30799350Y-35841937D01*
X30816440Y-35832070D01*
X30882070Y-35766440D01*
X30922777Y-35695934D01*
X30928477Y-35686062D01*
X30928478Y-35686059D01*
X30938268Y-35649522D01*
X30952500Y-35596408D01*
X30952500Y-35503592D01*
X30928478Y-35413940D01*
X30928477Y-35413937D01*
X30903368Y-35370449D01*
X30897123Y-35323023D01*
X30926242Y-35285072D01*
X30932864Y-35281250D01*
X30960756Y-35265145D01*
X31006440Y-35238770D01*
X31072070Y-35173140D01*
X31109077Y-35109043D01*
X31118477Y-35092762D01*
X31118478Y-35092759D01*
X31119103Y-35090428D01*
X31142500Y-35003108D01*
X31142500Y-34910292D01*
X31118478Y-34820640D01*
X31118477Y-34820637D01*
X31072070Y-34740260D01*
X31072065Y-34740254D01*
X31006445Y-34674634D01*
X31006439Y-34674629D01*
X30926062Y-34628222D01*
X30926059Y-34628221D01*
X30836414Y-34604201D01*
X30836409Y-34604200D01*
X30836408Y-34604200D01*
X30743592Y-34604200D01*
X30743591Y-34604200D01*
X30743585Y-34604201D01*
X30653940Y-34628221D01*
X30653937Y-34628222D01*
X30573560Y-34674629D01*
X30573554Y-34674634D01*
X30507934Y-34740254D01*
X30507929Y-34740260D01*
X30461522Y-34820637D01*
X30461521Y-34820640D01*
X30437501Y-34910285D01*
X30437500Y-34910293D01*
X30437500Y-35003106D01*
X30437501Y-35003114D01*
X30461521Y-35092759D01*
X30461522Y-35092762D01*
X30486631Y-35136250D01*
X30492876Y-35183677D01*
X30463756Y-35221627D01*
X30383560Y-35267929D01*
X30383554Y-35267934D01*
X30317934Y-35333554D01*
X30317929Y-35333560D01*
X30271522Y-35413937D01*
X30271521Y-35413940D01*
X30247501Y-35503585D01*
X30247500Y-35503593D01*
X30247500Y-35596406D01*
X30247501Y-35596414D01*
X30271521Y-35686059D01*
X30271522Y-35686062D01*
X30317929Y-35766439D01*
X30317934Y-35766445D01*
X30383554Y-35832065D01*
X30383560Y-35832070D01*
X30414743Y-35850074D01*
X30443863Y-35888025D01*
X30437618Y-35935451D01*
X30399667Y-35964571D01*
X30383492Y-35966700D01*
X30371202Y-35966700D01*
X30339951Y-35958326D01*
X30266161Y-35915722D01*
X30183853Y-35893667D01*
X30155836Y-35877491D01*
X29640606Y-35362261D01*
X29622300Y-35318067D01*
X29622300Y-29548067D01*
X29622298Y-29548059D01*
X29618411Y-29533554D01*
X29603389Y-29477489D01*
X29566856Y-29414211D01*
X29515189Y-29362544D01*
X29513011Y-29360366D01*
X29513000Y-29360356D01*
X28539688Y-28387043D01*
X28476411Y-28350511D01*
X28476409Y-28350510D01*
X28405839Y-28331599D01*
X28405834Y-28331599D01*
X28334101Y-28331599D01*
X28302851Y-28323225D01*
X28229065Y-28280624D01*
X28229059Y-28280621D01*
X28139414Y-28256601D01*
X28139409Y-28256600D01*
X28139408Y-28256600D01*
X28046592Y-28256600D01*
X28046591Y-28256600D01*
X28046585Y-28256601D01*
X27956940Y-28280621D01*
X27956937Y-28280622D01*
X27876560Y-28327029D01*
X27842761Y-28360828D01*
X27798566Y-28379133D01*
X27754372Y-28360827D01*
X27736067Y-28316632D01*
X27742082Y-28289881D01*
X28160839Y-27405839D01*
X28186067Y-27378473D01*
X28266440Y-27332070D01*
X28332070Y-27266440D01*
X28378478Y-27186060D01*
X28402500Y-27096408D01*
X28402500Y-27003592D01*
X28378478Y-26913940D01*
X28378477Y-26913937D01*
X28332070Y-26833560D01*
X28332065Y-26833554D01*
X28266445Y-26767934D01*
X28266439Y-26767929D01*
X28186062Y-26721522D01*
X28186059Y-26721521D01*
X28096414Y-26697501D01*
X28096409Y-26697500D01*
X28096408Y-26697500D01*
X28003592Y-26697500D01*
X28003591Y-26697500D01*
X28003585Y-26697501D01*
X27913940Y-26721521D01*
X27913937Y-26721522D01*
X27833560Y-26767929D01*
X27833554Y-26767934D01*
X27767934Y-26833554D01*
X27767929Y-26833560D01*
X27721522Y-26913937D01*
X27721521Y-26913940D01*
X27697501Y-27003585D01*
X27697500Y-27003593D01*
X27697500Y-27096406D01*
X27697501Y-27096414D01*
X27710026Y-27143159D01*
X27706140Y-27186090D01*
X26933945Y-28816280D01*
X26928260Y-28825935D01*
X26915517Y-28843712D01*
X26911760Y-28859813D01*
X26907381Y-28872360D01*
X26900306Y-28887297D01*
X26899219Y-28909142D01*
X26897661Y-28920237D01*
X26729873Y-29639328D01*
X26729553Y-29640636D01*
X26717934Y-29685990D01*
X26717912Y-29686407D01*
X26717845Y-29686877D01*
X26717804Y-29688125D01*
X26717746Y-29689460D01*
X26717681Y-29690645D01*
X26717706Y-29691103D01*
X26717691Y-29691533D01*
X26725314Y-29737749D01*
X26725519Y-29739080D01*
X26849553Y-30607321D01*
X26849729Y-30608654D01*
X26855357Y-30655179D01*
X26855487Y-30655576D01*
X26855592Y-30656028D01*
X26855987Y-30657150D01*
X26856411Y-30658399D01*
X26856806Y-30659604D01*
X26857005Y-30660043D01*
X26857140Y-30660427D01*
X26857140Y-30660428D01*
X26857141Y-30660429D01*
X26868032Y-30678823D01*
X26880981Y-30700693D01*
X26881654Y-30701858D01*
X27746758Y-32237418D01*
X27752676Y-32284270D01*
X27747500Y-32303587D01*
X27747500Y-32396406D01*
X27747501Y-32396414D01*
X27771521Y-32486059D01*
X27771522Y-32486062D01*
X27817929Y-32566439D01*
X27817934Y-32566445D01*
X27883554Y-32632065D01*
X27883560Y-32632070D01*
X27963937Y-32678477D01*
X27963940Y-32678478D01*
X28053592Y-32702500D01*
X28053593Y-32702500D01*
X28146407Y-32702500D01*
X28146408Y-32702500D01*
X28236060Y-32678478D01*
X28238825Y-32676882D01*
X28281510Y-32652237D01*
X28316440Y-32632070D01*
X28382070Y-32566440D01*
X28428478Y-32486060D01*
X28452500Y-32396408D01*
X28452500Y-32303592D01*
X28428478Y-32213940D01*
X28428477Y-32213937D01*
X28382070Y-32133560D01*
X28382065Y-32133554D01*
X28316445Y-32067934D01*
X28316439Y-32067929D01*
X28236061Y-32021522D01*
X28224570Y-32018443D01*
X28186620Y-31989322D01*
X28186294Y-31988751D01*
X28164088Y-31949336D01*
X27574936Y-30903593D01*
X27797500Y-30903593D01*
X27797500Y-30996406D01*
X27797501Y-30996414D01*
X27821521Y-31086059D01*
X27821522Y-31086062D01*
X27867929Y-31166439D01*
X27867934Y-31166445D01*
X27933554Y-31232065D01*
X27933560Y-31232070D01*
X28013937Y-31278477D01*
X28013940Y-31278478D01*
X28103592Y-31302500D01*
X28103593Y-31302500D01*
X28196407Y-31302500D01*
X28196408Y-31302500D01*
X28286060Y-31278478D01*
X28366440Y-31232070D01*
X28432070Y-31166440D01*
X28476376Y-31089701D01*
X28478477Y-31086062D01*
X28478478Y-31086059D01*
X28480549Y-31078329D01*
X28502500Y-30996408D01*
X28502500Y-30903592D01*
X28478478Y-30813940D01*
X28478477Y-30813937D01*
X28432070Y-30733560D01*
X28432065Y-30733554D01*
X28366445Y-30667934D01*
X28366439Y-30667929D01*
X28286062Y-30621522D01*
X28286059Y-30621521D01*
X28196414Y-30597501D01*
X28196409Y-30597500D01*
X28196408Y-30597500D01*
X28103592Y-30597500D01*
X28103591Y-30597500D01*
X28103585Y-30597501D01*
X28013940Y-30621521D01*
X28013937Y-30621522D01*
X27933560Y-30667929D01*
X27933554Y-30667934D01*
X27867934Y-30733554D01*
X27867929Y-30733560D01*
X27821522Y-30813937D01*
X27821521Y-30813940D01*
X27797501Y-30903585D01*
X27797500Y-30903593D01*
X27574936Y-30903593D01*
X27508504Y-30785676D01*
X27502762Y-30738188D01*
X27532280Y-30700547D01*
X27562958Y-30692500D01*
X27606407Y-30692500D01*
X27606408Y-30692500D01*
X27696060Y-30668478D01*
X27776440Y-30622070D01*
X27842070Y-30556440D01*
X27888478Y-30476060D01*
X27912500Y-30386408D01*
X27912500Y-30293592D01*
X27888478Y-30203940D01*
X27888477Y-30203937D01*
X27842070Y-30123560D01*
X27842065Y-30123554D01*
X27776445Y-30057934D01*
X27776441Y-30057931D01*
X27776440Y-30057930D01*
X27754506Y-30045266D01*
X27725387Y-30007314D01*
X27731632Y-29959888D01*
X27741561Y-29946948D01*
X27752070Y-29936440D01*
X27798478Y-29856060D01*
X27822500Y-29766408D01*
X27822500Y-29673592D01*
X27798478Y-29583940D01*
X27798477Y-29583937D01*
X27752070Y-29503560D01*
X27752065Y-29503554D01*
X27729264Y-29480753D01*
X27710958Y-29436559D01*
X27729264Y-29392365D01*
X27757278Y-29376189D01*
X27786060Y-29368478D01*
X27786062Y-29368476D01*
X27786064Y-29368476D01*
X27824752Y-29346139D01*
X27866440Y-29322070D01*
X27932070Y-29256440D01*
X27978450Y-29176108D01*
X27978477Y-29176062D01*
X27978478Y-29176059D01*
X27979666Y-29171625D01*
X28002500Y-29086408D01*
X28002500Y-29024100D01*
X28020806Y-28979906D01*
X28065000Y-28961600D01*
X28139407Y-28961600D01*
X28139408Y-28961600D01*
X28229060Y-28937578D01*
X28235879Y-28933640D01*
X28283302Y-28927392D01*
X28311326Y-28943570D01*
X29048994Y-29681238D01*
X29067300Y-29725432D01*
X29067300Y-34071067D01*
X29048994Y-34115261D01*
X29004800Y-34133567D01*
X28973553Y-34125195D01*
X28969966Y-34123124D01*
X28969959Y-34123121D01*
X28880314Y-34099101D01*
X28880309Y-34099100D01*
X28880308Y-34099100D01*
X28787492Y-34099100D01*
X28787491Y-34099100D01*
X28787485Y-34099101D01*
X28697840Y-34123121D01*
X28697837Y-34123122D01*
X28617460Y-34169529D01*
X28617454Y-34169534D01*
X28551834Y-34235154D01*
X28551829Y-34235160D01*
X28505422Y-34315537D01*
X28505421Y-34315540D01*
X28481401Y-34405185D01*
X28481400Y-34405193D01*
X28481400Y-34498006D01*
X28481401Y-34498014D01*
X28505421Y-34587659D01*
X28505422Y-34587662D01*
X28546935Y-34659562D01*
X28551830Y-34668040D01*
X28613094Y-34729304D01*
X28631400Y-34773498D01*
X28631400Y-35393667D01*
X28613094Y-35437861D01*
X28568900Y-35456167D01*
X28524706Y-35437861D01*
X27891806Y-34804961D01*
X27873500Y-34760767D01*
X27873500Y-34550502D01*
X27881874Y-34519251D01*
X27884941Y-34513940D01*
X27924478Y-34445460D01*
X27948500Y-34355808D01*
X27948500Y-34262992D01*
X27924478Y-34173340D01*
X27924477Y-34173337D01*
X27878070Y-34092960D01*
X27878065Y-34092954D01*
X27812445Y-34027334D01*
X27812439Y-34027329D01*
X27732062Y-33980922D01*
X27732059Y-33980921D01*
X27642414Y-33956901D01*
X27642409Y-33956900D01*
X27642408Y-33956900D01*
X27549592Y-33956900D01*
X27549591Y-33956900D01*
X27549585Y-33956901D01*
X27459940Y-33980921D01*
X27459937Y-33980922D01*
X27379560Y-34027329D01*
X27379554Y-34027334D01*
X27313934Y-34092954D01*
X27313929Y-34092960D01*
X27267522Y-34173337D01*
X27267521Y-34173340D01*
X27243501Y-34262985D01*
X27243500Y-34262993D01*
X27243500Y-34355806D01*
X27243501Y-34355814D01*
X27267521Y-34445459D01*
X27267522Y-34445462D01*
X27297568Y-34497501D01*
X27307059Y-34513940D01*
X27310126Y-34519251D01*
X27318500Y-34550502D01*
X27318500Y-34861224D01*
X27318499Y-34861242D01*
X27318499Y-34938139D01*
X27337410Y-35008709D01*
X27337411Y-35008711D01*
X27373943Y-35071988D01*
X30394756Y-38092800D01*
X30394761Y-38092806D01*
X30448611Y-38146656D01*
X30497113Y-38174658D01*
X30497114Y-38174658D01*
X30505207Y-38179331D01*
X30511886Y-38183188D01*
X30511888Y-38183188D01*
X30511889Y-38183189D01*
X30522611Y-38186062D01*
X30582460Y-38202100D01*
X30582466Y-38202101D01*
X30659359Y-38202101D01*
X30659375Y-38202100D01*
X34483498Y-38202100D01*
X34514749Y-38210474D01*
X34588537Y-38253077D01*
X34588540Y-38253078D01*
X34678192Y-38277100D01*
X34678193Y-38277100D01*
X34771007Y-38277100D01*
X34771008Y-38277100D01*
X34860660Y-38253078D01*
X34941040Y-38206670D01*
X35006670Y-38141040D01*
X35053078Y-38060660D01*
X35077100Y-37971008D01*
X35077100Y-37878192D01*
X35053078Y-37788540D01*
X35053077Y-37788537D01*
X35006670Y-37708160D01*
X35006665Y-37708154D01*
X34941045Y-37642534D01*
X34941039Y-37642529D01*
X34860662Y-37596122D01*
X34860659Y-37596121D01*
X34771014Y-37572101D01*
X34771009Y-37572100D01*
X34771008Y-37572100D01*
X34678192Y-37572100D01*
X34678191Y-37572100D01*
X34678185Y-37572101D01*
X34588540Y-37596121D01*
X34588537Y-37596122D01*
X34514749Y-37638726D01*
X34483498Y-37647100D01*
X30759832Y-37647100D01*
X30715638Y-37628794D01*
X30389238Y-37302394D01*
X30370932Y-37258200D01*
X30389238Y-37214006D01*
X30433432Y-37195700D01*
X43800180Y-37195700D01*
X43829503Y-37183554D01*
X43874603Y-37164873D01*
X43874603Y-37164872D01*
X43874607Y-37164871D01*
X44829083Y-36210393D01*
X46285400Y-36210393D01*
X46285400Y-36303206D01*
X46285401Y-36303214D01*
X46309421Y-36392859D01*
X46309422Y-36392862D01*
X46355829Y-36473239D01*
X46355834Y-36473245D01*
X46421454Y-36538865D01*
X46421460Y-36538870D01*
X46501837Y-36585277D01*
X46501840Y-36585278D01*
X46591492Y-36609300D01*
X46591493Y-36609300D01*
X46684307Y-36609300D01*
X46684308Y-36609300D01*
X46773960Y-36585278D01*
X46854340Y-36538870D01*
X46919970Y-36473240D01*
X46966378Y-36392860D01*
X46990400Y-36303208D01*
X46990400Y-36210392D01*
X46966378Y-36120740D01*
X46966377Y-36120737D01*
X46919970Y-36040360D01*
X46919965Y-36040354D01*
X46854345Y-35974734D01*
X46854339Y-35974729D01*
X46773962Y-35928322D01*
X46773959Y-35928321D01*
X46684314Y-35904301D01*
X46684309Y-35904300D01*
X46684308Y-35904300D01*
X46591492Y-35904300D01*
X46591491Y-35904300D01*
X46591485Y-35904301D01*
X46501840Y-35928321D01*
X46501837Y-35928322D01*
X46421460Y-35974729D01*
X46421454Y-35974734D01*
X46355834Y-36040354D01*
X46355829Y-36040360D01*
X46309422Y-36120737D01*
X46309421Y-36120740D01*
X46285401Y-36210385D01*
X46285400Y-36210393D01*
X44829083Y-36210393D01*
X45007371Y-36032105D01*
X45051565Y-36013800D01*
X45138207Y-36013800D01*
X45138208Y-36013800D01*
X45227860Y-35989778D01*
X45308240Y-35943370D01*
X45373870Y-35877740D01*
X45420278Y-35797360D01*
X45444300Y-35707708D01*
X45444300Y-35614892D01*
X45420278Y-35525240D01*
X45420277Y-35525237D01*
X45373870Y-35444860D01*
X45373865Y-35444854D01*
X45308245Y-35379234D01*
X45308239Y-35379229D01*
X45227862Y-35332822D01*
X45227859Y-35332821D01*
X45138214Y-35308801D01*
X45138209Y-35308800D01*
X45138208Y-35308800D01*
X45045392Y-35308800D01*
X45045391Y-35308800D01*
X45045385Y-35308801D01*
X44955740Y-35332821D01*
X44955737Y-35332822D01*
X44875360Y-35379229D01*
X44875354Y-35379234D01*
X44809734Y-35444854D01*
X44809729Y-35444860D01*
X44763322Y-35525237D01*
X44763321Y-35525240D01*
X44739301Y-35614885D01*
X44739300Y-35614893D01*
X44739300Y-35701533D01*
X44720994Y-35745727D01*
X44271860Y-36194861D01*
X44227666Y-36213167D01*
X44183472Y-36194861D01*
X44165166Y-36150667D01*
X44167296Y-36134490D01*
X44177499Y-36096412D01*
X44177500Y-36096406D01*
X44177500Y-36003593D01*
X44177498Y-36003585D01*
X44173798Y-35989778D01*
X44153478Y-35913940D01*
X44153477Y-35913937D01*
X44107070Y-35833560D01*
X44107065Y-35833554D01*
X44041440Y-35767929D01*
X44040452Y-35767171D01*
X44040137Y-35766626D01*
X44038544Y-35765033D01*
X44038971Y-35764605D01*
X44016535Y-35725744D01*
X44016000Y-35717587D01*
X44016000Y-33805003D01*
X44034306Y-33760809D01*
X44047116Y-33747999D01*
X44061922Y-33733193D01*
X44091000Y-33662992D01*
X44091000Y-33609000D01*
X44091157Y-33604570D01*
X44091355Y-33601778D01*
X44093213Y-33575643D01*
X44093211Y-33575638D01*
X44092443Y-33569537D01*
X44092725Y-33569501D01*
X44092480Y-33567990D01*
X44092201Y-33568046D01*
X44091000Y-33562011D01*
X44091000Y-33562008D01*
X44087714Y-33554075D01*
X44079906Y-33535225D01*
X44078355Y-33531071D01*
X43397502Y-31488512D01*
X42735512Y-29502541D01*
X42738903Y-29454828D01*
X42740671Y-29451542D01*
X42778478Y-29386060D01*
X42802500Y-29296408D01*
X42802500Y-29203592D01*
X42778478Y-29113940D01*
X42778477Y-29113937D01*
X42732070Y-29033560D01*
X42732065Y-29033554D01*
X42666445Y-28967934D01*
X42666439Y-28967929D01*
X42586062Y-28921522D01*
X42586059Y-28921521D01*
X42496414Y-28897501D01*
X42496409Y-28897500D01*
X42496408Y-28897500D01*
X42403592Y-28897500D01*
X42403591Y-28897500D01*
X42403585Y-28897501D01*
X42313940Y-28921521D01*
X42313937Y-28921522D01*
X42233560Y-28967929D01*
X42233554Y-28967934D01*
X42167934Y-29033554D01*
X42167929Y-29033560D01*
X42121522Y-29113937D01*
X42121521Y-29113940D01*
X42097501Y-29203585D01*
X42097500Y-29203593D01*
X42097500Y-29296406D01*
X42097501Y-29296414D01*
X42121521Y-29386059D01*
X42121522Y-29386062D01*
X42167929Y-29466439D01*
X42167934Y-29466445D01*
X42233554Y-29532065D01*
X42233563Y-29532072D01*
X42261267Y-29548067D01*
X42313940Y-29578478D01*
X42322216Y-29580695D01*
X42330014Y-29582785D01*
X42367965Y-29611905D01*
X42373131Y-29623391D01*
X43675507Y-33530517D01*
X43672116Y-33578232D01*
X43666179Y-33586470D01*
X43666500Y-33586685D01*
X43663078Y-33591806D01*
X43634000Y-33662008D01*
X43634000Y-35717587D01*
X43615694Y-35761781D01*
X43609548Y-35767171D01*
X43608559Y-35767929D01*
X43542934Y-35833554D01*
X43542929Y-35833560D01*
X43496522Y-35913937D01*
X43496521Y-35913940D01*
X43472501Y-36003585D01*
X43472500Y-36003593D01*
X43472500Y-36096406D01*
X43472501Y-36096414D01*
X43496521Y-36186059D01*
X43496522Y-36186062D01*
X43542929Y-36266439D01*
X43542934Y-36266445D01*
X43608554Y-36332065D01*
X43608560Y-36332070D01*
X43688937Y-36378477D01*
X43688940Y-36378478D01*
X43778592Y-36402500D01*
X43778593Y-36402500D01*
X43871407Y-36402500D01*
X43871408Y-36402500D01*
X43871416Y-36402498D01*
X43909490Y-36392296D01*
X43956917Y-36398539D01*
X43986037Y-36436489D01*
X43979794Y-36483916D01*
X43969861Y-36496860D01*
X43694328Y-36772394D01*
X43650134Y-36790700D01*
X30347167Y-36790700D01*
X30302973Y-36772394D01*
X30214228Y-36683649D01*
X30195922Y-36639455D01*
X30214228Y-36595261D01*
X30242244Y-36579086D01*
X30266160Y-36572678D01*
X30339951Y-36530073D01*
X30371202Y-36521700D01*
X31831625Y-36521700D01*
X31831641Y-36521701D01*
X31835466Y-36521701D01*
X31908534Y-36521701D01*
X31908539Y-36521700D01*
X31935922Y-36514361D01*
X31979111Y-36502789D01*
X32042389Y-36466256D01*
X32655052Y-35853593D01*
X33947500Y-35853593D01*
X33947500Y-35946406D01*
X33947501Y-35946414D01*
X33971521Y-36036059D01*
X33971522Y-36036062D01*
X34017929Y-36116439D01*
X34017934Y-36116445D01*
X34083554Y-36182065D01*
X34083560Y-36182070D01*
X34163937Y-36228477D01*
X34163940Y-36228478D01*
X34253592Y-36252500D01*
X34253593Y-36252500D01*
X34346407Y-36252500D01*
X34346408Y-36252500D01*
X34436060Y-36228478D01*
X34516440Y-36182070D01*
X34582070Y-36116440D01*
X34628478Y-36036060D01*
X34652500Y-35946408D01*
X34652500Y-35853592D01*
X34628478Y-35763940D01*
X34628477Y-35763937D01*
X34582070Y-35683560D01*
X34582065Y-35683554D01*
X34516445Y-35617934D01*
X34516439Y-35617929D01*
X34448358Y-35578622D01*
X34436062Y-35571522D01*
X34436059Y-35571521D01*
X34346414Y-35547501D01*
X34346409Y-35547500D01*
X34346408Y-35547500D01*
X34253592Y-35547500D01*
X34253591Y-35547500D01*
X34253585Y-35547501D01*
X34163940Y-35571521D01*
X34163937Y-35571522D01*
X34083560Y-35617929D01*
X34083554Y-35617934D01*
X34017934Y-35683554D01*
X34017929Y-35683560D01*
X33971522Y-35763937D01*
X33971521Y-35763940D01*
X33947501Y-35853585D01*
X33947500Y-35853593D01*
X32655052Y-35853593D01*
X32980052Y-35528593D01*
X35047500Y-35528593D01*
X35047500Y-35621406D01*
X35047501Y-35621414D01*
X35071521Y-35711059D01*
X35071522Y-35711062D01*
X35117929Y-35791439D01*
X35117934Y-35791445D01*
X35183554Y-35857065D01*
X35183560Y-35857070D01*
X35263937Y-35903477D01*
X35263940Y-35903478D01*
X35353592Y-35927500D01*
X35353593Y-35927500D01*
X35446407Y-35927500D01*
X35446408Y-35927500D01*
X35536060Y-35903478D01*
X35616440Y-35857070D01*
X35682070Y-35791440D01*
X35688904Y-35779601D01*
X35719112Y-35753108D01*
X35758193Y-35736922D01*
X35896422Y-35598693D01*
X39250400Y-35598693D01*
X39250400Y-35691506D01*
X39250401Y-35691514D01*
X39274421Y-35781159D01*
X39274422Y-35781162D01*
X39320829Y-35861539D01*
X39320834Y-35861545D01*
X39386454Y-35927165D01*
X39386460Y-35927170D01*
X39466837Y-35973577D01*
X39466840Y-35973578D01*
X39556492Y-35997600D01*
X39556493Y-35997600D01*
X39649307Y-35997600D01*
X39649308Y-35997600D01*
X39738960Y-35973578D01*
X39819340Y-35927170D01*
X39884970Y-35861540D01*
X39931378Y-35781160D01*
X39955400Y-35691508D01*
X39955400Y-35598692D01*
X39931378Y-35509040D01*
X39931377Y-35509037D01*
X39884970Y-35428660D01*
X39884965Y-35428654D01*
X39819345Y-35363034D01*
X39819339Y-35363029D01*
X39738962Y-35316622D01*
X39738959Y-35316621D01*
X39649314Y-35292601D01*
X39649309Y-35292600D01*
X39649308Y-35292600D01*
X39556492Y-35292600D01*
X39556491Y-35292600D01*
X39556485Y-35292601D01*
X39466840Y-35316621D01*
X39466837Y-35316622D01*
X39386460Y-35363029D01*
X39386454Y-35363034D01*
X39320834Y-35428654D01*
X39320829Y-35428660D01*
X39274422Y-35509037D01*
X39274421Y-35509040D01*
X39250401Y-35598685D01*
X39250400Y-35598693D01*
X35896422Y-35598693D01*
X37536922Y-33958193D01*
X37549841Y-33927000D01*
X37558839Y-33913538D01*
X37558501Y-33913312D01*
X37561919Y-33908195D01*
X37561922Y-33908193D01*
X37574840Y-33877002D01*
X37583838Y-33863540D01*
X37583500Y-33863314D01*
X37586918Y-33858196D01*
X37586922Y-33858193D01*
X37594046Y-33840991D01*
X37598348Y-33832502D01*
X37608002Y-33816593D01*
X37609130Y-33809257D01*
X37613161Y-33794845D01*
X37616000Y-33787992D01*
X37616000Y-33769383D01*
X37616727Y-33759880D01*
X37616788Y-33759484D01*
X37663801Y-33453892D01*
X37688613Y-33412998D01*
X37694320Y-33409274D01*
X37736192Y-33385100D01*
X37741437Y-33382072D01*
X37741437Y-33382071D01*
X37741440Y-33382070D01*
X37807070Y-33316440D01*
X37845984Y-33249040D01*
X37853477Y-33236062D01*
X37853478Y-33236059D01*
X37853790Y-33234896D01*
X37877500Y-33146408D01*
X37877500Y-33053592D01*
X37853478Y-32963940D01*
X37853477Y-32963937D01*
X37807070Y-32883560D01*
X37807065Y-32883554D01*
X37741445Y-32817934D01*
X37741439Y-32817929D01*
X37661062Y-32771522D01*
X37661059Y-32771521D01*
X37571414Y-32747501D01*
X37571409Y-32747500D01*
X37571408Y-32747500D01*
X37478592Y-32747500D01*
X37478591Y-32747500D01*
X37478585Y-32747501D01*
X37388940Y-32771521D01*
X37388937Y-32771522D01*
X37308560Y-32817929D01*
X37308554Y-32817934D01*
X37242934Y-32883554D01*
X37242929Y-32883560D01*
X37196522Y-32963937D01*
X37196521Y-32963940D01*
X37172501Y-33053585D01*
X37172500Y-33053593D01*
X37172500Y-33146406D01*
X37172501Y-33146414D01*
X37196521Y-33236059D01*
X37196522Y-33236062D01*
X37242929Y-33316439D01*
X37242933Y-33316444D01*
X37268655Y-33342165D01*
X37286962Y-33386359D01*
X37286235Y-33395864D01*
X37248594Y-33640524D01*
X37238793Y-33665735D01*
X37238079Y-33666802D01*
X37225157Y-33698000D01*
X37216162Y-33711463D01*
X37216498Y-33711688D01*
X37213078Y-33716806D01*
X37200157Y-33747999D01*
X37186609Y-33768274D01*
X36209043Y-34745840D01*
X36164849Y-34764146D01*
X36120655Y-34745840D01*
X36102349Y-34701646D01*
X36102500Y-34699350D01*
X36102500Y-34603593D01*
X36102498Y-34603585D01*
X36099951Y-34594081D01*
X36078478Y-34513940D01*
X36078477Y-34513937D01*
X36032070Y-34433560D01*
X36032065Y-34433554D01*
X35966445Y-34367934D01*
X35966439Y-34367929D01*
X35886062Y-34321522D01*
X35886059Y-34321521D01*
X35796414Y-34297501D01*
X35796409Y-34297500D01*
X35796408Y-34297500D01*
X35703592Y-34297500D01*
X35703591Y-34297500D01*
X35703585Y-34297501D01*
X35613940Y-34321521D01*
X35613937Y-34321522D01*
X35533560Y-34367929D01*
X35533554Y-34367934D01*
X35467934Y-34433554D01*
X35467929Y-34433560D01*
X35421522Y-34513937D01*
X35421521Y-34513940D01*
X35397501Y-34603585D01*
X35397500Y-34603593D01*
X35397500Y-34696406D01*
X35397501Y-34696414D01*
X35421521Y-34786059D01*
X35421522Y-34786062D01*
X35467929Y-34866439D01*
X35467934Y-34866445D01*
X35533554Y-34932065D01*
X35533560Y-34932070D01*
X35613937Y-34978477D01*
X35613940Y-34978478D01*
X35703592Y-35002500D01*
X35703593Y-35002500D01*
X35800504Y-35002500D01*
X35800504Y-35004773D01*
X35839666Y-35015243D01*
X35863607Y-35056656D01*
X35851252Y-35102869D01*
X35845840Y-35109043D01*
X35679206Y-35275677D01*
X35635012Y-35293983D01*
X35603762Y-35285609D01*
X35536065Y-35246524D01*
X35536059Y-35246521D01*
X35446414Y-35222501D01*
X35446409Y-35222500D01*
X35446408Y-35222500D01*
X35353592Y-35222500D01*
X35353591Y-35222500D01*
X35353585Y-35222501D01*
X35263940Y-35246521D01*
X35263937Y-35246522D01*
X35183560Y-35292929D01*
X35183554Y-35292934D01*
X35117934Y-35358554D01*
X35117929Y-35358560D01*
X35071522Y-35438937D01*
X35071521Y-35438940D01*
X35047501Y-35528585D01*
X35047500Y-35528593D01*
X32980052Y-35528593D01*
X33286144Y-35222501D01*
X34502038Y-34006606D01*
X34546232Y-33988300D01*
X35209898Y-33988300D01*
X35241148Y-33996673D01*
X35245858Y-33999393D01*
X35314937Y-34039277D01*
X35314940Y-34039278D01*
X35404592Y-34063300D01*
X35404593Y-34063300D01*
X35497407Y-34063300D01*
X35497408Y-34063300D01*
X35587060Y-34039278D01*
X35596302Y-34033941D01*
X35660851Y-33996675D01*
X35692101Y-33988301D01*
X35753134Y-33988301D01*
X35753139Y-33988300D01*
X35780675Y-33980921D01*
X35823711Y-33969389D01*
X35886989Y-33932856D01*
X37940806Y-31879037D01*
X37985000Y-31860732D01*
X38029194Y-31879038D01*
X38047500Y-31923232D01*
X38047500Y-32740282D01*
X38078326Y-32814703D01*
X38078330Y-32814708D01*
X38279194Y-33015572D01*
X38297500Y-33059766D01*
X38297500Y-33146406D01*
X38297501Y-33146414D01*
X38321521Y-33236059D01*
X38321522Y-33236062D01*
X38367929Y-33316439D01*
X38367934Y-33316445D01*
X38433554Y-33382065D01*
X38433560Y-33382070D01*
X38513937Y-33428477D01*
X38513940Y-33428478D01*
X38603592Y-33452500D01*
X38603593Y-33452500D01*
X38696407Y-33452500D01*
X38696408Y-33452500D01*
X38786060Y-33428478D01*
X38866440Y-33382070D01*
X38932070Y-33316440D01*
X38970984Y-33249040D01*
X38978477Y-33236062D01*
X38978478Y-33236059D01*
X38978790Y-33234896D01*
X39002500Y-33146408D01*
X39002500Y-33053592D01*
X38978478Y-32963940D01*
X38978477Y-32963937D01*
X38932070Y-32883560D01*
X38932065Y-32883554D01*
X38866445Y-32817934D01*
X38866439Y-32817929D01*
X38786062Y-32771522D01*
X38786059Y-32771521D01*
X38696414Y-32747501D01*
X38696409Y-32747500D01*
X38696408Y-32747500D01*
X38609766Y-32747500D01*
X38565572Y-32729194D01*
X38470806Y-32634428D01*
X38452500Y-32590234D01*
X38452500Y-31393231D01*
X38470805Y-31349038D01*
X39039642Y-30780200D01*
X39039647Y-30780197D01*
X39044787Y-30775056D01*
X39044789Y-30775056D01*
X39096456Y-30723389D01*
X39105373Y-30707943D01*
X39143322Y-30678823D01*
X39190749Y-30685066D01*
X39219870Y-30723015D01*
X39222000Y-30739193D01*
X39222000Y-33974097D01*
X39213626Y-34005347D01*
X39171024Y-34079134D01*
X39171021Y-34079140D01*
X39147001Y-34168785D01*
X39147000Y-34168793D01*
X39147000Y-34261606D01*
X39147001Y-34261614D01*
X39171021Y-34351259D01*
X39171022Y-34351262D01*
X39217429Y-34431639D01*
X39217434Y-34431645D01*
X39283054Y-34497265D01*
X39283060Y-34497270D01*
X39363437Y-34543677D01*
X39363440Y-34543678D01*
X39453092Y-34567700D01*
X39453093Y-34567700D01*
X39545907Y-34567700D01*
X39545908Y-34567700D01*
X39635560Y-34543678D01*
X39715940Y-34497270D01*
X39781570Y-34431640D01*
X39827978Y-34351260D01*
X39852000Y-34261608D01*
X39852000Y-34168792D01*
X39827978Y-34079140D01*
X39827596Y-34078478D01*
X39785374Y-34005347D01*
X39777000Y-33974097D01*
X39777000Y-33703593D01*
X42147500Y-33703593D01*
X42147500Y-33796406D01*
X42147501Y-33796414D01*
X42171521Y-33886059D01*
X42171522Y-33886062D01*
X42217929Y-33966439D01*
X42217934Y-33966445D01*
X42283554Y-34032065D01*
X42283560Y-34032070D01*
X42363937Y-34078477D01*
X42363940Y-34078478D01*
X42453592Y-34102500D01*
X42453593Y-34102500D01*
X42546407Y-34102500D01*
X42546408Y-34102500D01*
X42636060Y-34078478D01*
X42638333Y-34077166D01*
X42662352Y-34063298D01*
X42716440Y-34032070D01*
X42782070Y-33966440D01*
X42828478Y-33886060D01*
X42852500Y-33796408D01*
X42852500Y-33703592D01*
X42828478Y-33613940D01*
X42828477Y-33613937D01*
X42782070Y-33533560D01*
X42782065Y-33533554D01*
X42716445Y-33467934D01*
X42716439Y-33467929D01*
X42636062Y-33421522D01*
X42636059Y-33421521D01*
X42546414Y-33397501D01*
X42546409Y-33397500D01*
X42546408Y-33397500D01*
X42453592Y-33397500D01*
X42453591Y-33397500D01*
X42453585Y-33397501D01*
X42363940Y-33421521D01*
X42363937Y-33421522D01*
X42283560Y-33467929D01*
X42283554Y-33467934D01*
X42217934Y-33533554D01*
X42217929Y-33533560D01*
X42171522Y-33613937D01*
X42171521Y-33613940D01*
X42147501Y-33703585D01*
X42147500Y-33703593D01*
X39777000Y-33703593D01*
X39777000Y-32853593D01*
X41997500Y-32853593D01*
X41997500Y-32946406D01*
X41997501Y-32946414D01*
X42021521Y-33036059D01*
X42021522Y-33036062D01*
X42067929Y-33116439D01*
X42067934Y-33116445D01*
X42133554Y-33182065D01*
X42133560Y-33182070D01*
X42213937Y-33228477D01*
X42213940Y-33228478D01*
X42303592Y-33252500D01*
X42303593Y-33252500D01*
X42396407Y-33252500D01*
X42396408Y-33252500D01*
X42486060Y-33228478D01*
X42566440Y-33182070D01*
X42632070Y-33116440D01*
X42678478Y-33036060D01*
X42702500Y-32946408D01*
X42702500Y-32853592D01*
X42678478Y-32763940D01*
X42678477Y-32763937D01*
X42632070Y-32683560D01*
X42632065Y-32683554D01*
X42566445Y-32617934D01*
X42566439Y-32617929D01*
X42486062Y-32571522D01*
X42486059Y-32571521D01*
X42396414Y-32547501D01*
X42396409Y-32547500D01*
X42396408Y-32547500D01*
X42303592Y-32547500D01*
X42303591Y-32547500D01*
X42303585Y-32547501D01*
X42213940Y-32571521D01*
X42213937Y-32571522D01*
X42133560Y-32617929D01*
X42133554Y-32617934D01*
X42067934Y-32683554D01*
X42067929Y-32683560D01*
X42021522Y-32763937D01*
X42021521Y-32763940D01*
X41997501Y-32853585D01*
X41997500Y-32853593D01*
X39777000Y-32853593D01*
X39777000Y-32003592D01*
X42147500Y-32003592D01*
X42147500Y-32096405D01*
X42147501Y-32096413D01*
X42171521Y-32186058D01*
X42171522Y-32186061D01*
X42217929Y-32266438D01*
X42217934Y-32266444D01*
X42283554Y-32332064D01*
X42283560Y-32332069D01*
X42363937Y-32378476D01*
X42363940Y-32378477D01*
X42453592Y-32402499D01*
X42453593Y-32402499D01*
X42546407Y-32402499D01*
X42546408Y-32402499D01*
X42636060Y-32378477D01*
X42637079Y-32377889D01*
X42653048Y-32368668D01*
X42716440Y-32332069D01*
X42782070Y-32266439D01*
X42821392Y-32198333D01*
X42828477Y-32186061D01*
X42828478Y-32186058D01*
X42828683Y-32185293D01*
X42852500Y-32096407D01*
X42852500Y-32003591D01*
X42828478Y-31913939D01*
X42828477Y-31913936D01*
X42782070Y-31833559D01*
X42782065Y-31833553D01*
X42716445Y-31767933D01*
X42716439Y-31767928D01*
X42636062Y-31721521D01*
X42636059Y-31721520D01*
X42546414Y-31697500D01*
X42546409Y-31697499D01*
X42546408Y-31697499D01*
X42453592Y-31697499D01*
X42453591Y-31697499D01*
X42453585Y-31697500D01*
X42363940Y-31721520D01*
X42363937Y-31721521D01*
X42283560Y-31767928D01*
X42283554Y-31767933D01*
X42217934Y-31833553D01*
X42217929Y-31833559D01*
X42171522Y-31913936D01*
X42171521Y-31913939D01*
X42147501Y-32003584D01*
X42147500Y-32003592D01*
X39777000Y-32003592D01*
X39777000Y-30239932D01*
X39795306Y-30195738D01*
X41519638Y-28471406D01*
X43364085Y-26626958D01*
X43408278Y-26608653D01*
X43452472Y-26626959D01*
X43466021Y-26647237D01*
X43467521Y-26650860D01*
X43513929Y-26731239D01*
X43513934Y-26731245D01*
X43579554Y-26796865D01*
X43579560Y-26796870D01*
X43659937Y-26843277D01*
X43659940Y-26843278D01*
X43749592Y-26867300D01*
X43749593Y-26867300D01*
X43836234Y-26867300D01*
X43880428Y-26885606D01*
X43900794Y-26905972D01*
X43919100Y-26950166D01*
X43919100Y-29419965D01*
X43900794Y-29464159D01*
X43856600Y-29482465D01*
X43818561Y-29469556D01*
X43816445Y-29467933D01*
X43813857Y-29466439D01*
X43809267Y-29463788D01*
X43736062Y-29421522D01*
X43736059Y-29421521D01*
X43646414Y-29397501D01*
X43646409Y-29397500D01*
X43646408Y-29397500D01*
X43553592Y-29397500D01*
X43553591Y-29397500D01*
X43553585Y-29397501D01*
X43463940Y-29421521D01*
X43463937Y-29421522D01*
X43383560Y-29467929D01*
X43383554Y-29467934D01*
X43317934Y-29533554D01*
X43317929Y-29533560D01*
X43271522Y-29613937D01*
X43271521Y-29613940D01*
X43247501Y-29703585D01*
X43247500Y-29703593D01*
X43247500Y-29796406D01*
X43247501Y-29796414D01*
X43271521Y-29886059D01*
X43271522Y-29886062D01*
X43317929Y-29966439D01*
X43317934Y-29966445D01*
X43383554Y-30032065D01*
X43383560Y-30032070D01*
X43463937Y-30078477D01*
X43463940Y-30078478D01*
X43553592Y-30102500D01*
X43553593Y-30102500D01*
X43646407Y-30102500D01*
X43646408Y-30102500D01*
X43736060Y-30078478D01*
X43816440Y-30032070D01*
X43816441Y-30032068D01*
X43816444Y-30032067D01*
X43818555Y-30030448D01*
X43819850Y-30030101D01*
X43819987Y-30030022D01*
X43820008Y-30030058D01*
X43864761Y-30018069D01*
X43906186Y-30041989D01*
X43919100Y-30080034D01*
X43919100Y-32611782D01*
X43949926Y-32686203D01*
X43949930Y-32686208D01*
X44954528Y-33690806D01*
X44972834Y-33735000D01*
X44954528Y-33779194D01*
X44910334Y-33797500D01*
X44853592Y-33797500D01*
X44853591Y-33797500D01*
X44853585Y-33797501D01*
X44763940Y-33821521D01*
X44763937Y-33821522D01*
X44683560Y-33867929D01*
X44683554Y-33867934D01*
X44617934Y-33933554D01*
X44617929Y-33933560D01*
X44571522Y-34013937D01*
X44571521Y-34013940D01*
X44547501Y-34103585D01*
X44547500Y-34103593D01*
X44547500Y-34196406D01*
X44547501Y-34196414D01*
X44571521Y-34286059D01*
X44571522Y-34286062D01*
X44617929Y-34366439D01*
X44617934Y-34366445D01*
X44683554Y-34432065D01*
X44683560Y-34432070D01*
X44763937Y-34478477D01*
X44763940Y-34478478D01*
X44853592Y-34502500D01*
X44853593Y-34502500D01*
X44946407Y-34502500D01*
X44946408Y-34502500D01*
X45036060Y-34478478D01*
X45116440Y-34432070D01*
X45182070Y-34366440D01*
X45220103Y-34300566D01*
X45228477Y-34286062D01*
X45228478Y-34286059D01*
X45229149Y-34283554D01*
X45252500Y-34196408D01*
X45252500Y-34139666D01*
X45270806Y-34095472D01*
X45315000Y-34077166D01*
X45359194Y-34095472D01*
X45830294Y-34566572D01*
X45848600Y-34610766D01*
X45830294Y-34654960D01*
X45804564Y-34669818D01*
X45804621Y-34669956D01*
X45803577Y-34670388D01*
X45802286Y-34671134D01*
X45800840Y-34671521D01*
X45800837Y-34671522D01*
X45720460Y-34717929D01*
X45720454Y-34717934D01*
X45654834Y-34783554D01*
X45654829Y-34783560D01*
X45608422Y-34863937D01*
X45608421Y-34863940D01*
X45584401Y-34953585D01*
X45584400Y-34953593D01*
X45584400Y-35046406D01*
X45584401Y-35046414D01*
X45608421Y-35136059D01*
X45608422Y-35136062D01*
X45654829Y-35216439D01*
X45654834Y-35216445D01*
X45720454Y-35282065D01*
X45720460Y-35282070D01*
X45800837Y-35328477D01*
X45800840Y-35328478D01*
X45890492Y-35352500D01*
X45890493Y-35352500D01*
X45983307Y-35352500D01*
X45983308Y-35352500D01*
X46072960Y-35328478D01*
X46153340Y-35282070D01*
X46218970Y-35216440D01*
X46265378Y-35136060D01*
X46265762Y-35134625D01*
X46266218Y-35134031D01*
X46266944Y-35132279D01*
X46267413Y-35132473D01*
X46294880Y-35096674D01*
X46342306Y-35090428D01*
X46370327Y-35106605D01*
X49194029Y-37930307D01*
X49250993Y-37987271D01*
X49250994Y-37987271D01*
X49250996Y-37987273D01*
X49325417Y-38018099D01*
X49325420Y-38018100D01*
X51340402Y-38018100D01*
X51384596Y-38036406D01*
X51416119Y-38067929D01*
X51445859Y-38097669D01*
X51445860Y-38097670D01*
X51526237Y-38144077D01*
X51526240Y-38144078D01*
X51615892Y-38168100D01*
X51615893Y-38168100D01*
X51708707Y-38168100D01*
X51708708Y-38168100D01*
X51798360Y-38144078D01*
X51878740Y-38097670D01*
X51944370Y-38032040D01*
X51990778Y-37951660D01*
X52014800Y-37862008D01*
X52014800Y-37769192D01*
X51990778Y-37679540D01*
X51990777Y-37679537D01*
X51944370Y-37599160D01*
X51944365Y-37599154D01*
X51878745Y-37533534D01*
X51878739Y-37533529D01*
X51798362Y-37487122D01*
X51798359Y-37487121D01*
X51708714Y-37463101D01*
X51708709Y-37463100D01*
X51708708Y-37463100D01*
X51615892Y-37463100D01*
X51615891Y-37463100D01*
X51615885Y-37463101D01*
X51526240Y-37487121D01*
X51526237Y-37487122D01*
X51445860Y-37533529D01*
X51445859Y-37533530D01*
X51428305Y-37551085D01*
X51384595Y-37594794D01*
X51340402Y-37613100D01*
X49475466Y-37613100D01*
X49431272Y-37594794D01*
X44342406Y-32505928D01*
X44324100Y-32461734D01*
X44324100Y-31084803D01*
X44342406Y-31040609D01*
X44386600Y-31022303D01*
X44410516Y-31027060D01*
X44413940Y-31028478D01*
X44503592Y-31052500D01*
X44503593Y-31052500D01*
X44596407Y-31052500D01*
X44596408Y-31052500D01*
X44686060Y-31028478D01*
X44703079Y-31018652D01*
X44750505Y-31012406D01*
X44788456Y-31041525D01*
X44794702Y-31088950D01*
X44792201Y-31098285D01*
X44792200Y-31098293D01*
X44792200Y-31191106D01*
X44792201Y-31191114D01*
X44816221Y-31280759D01*
X44816222Y-31280762D01*
X44862629Y-31361139D01*
X44862630Y-31361140D01*
X44923894Y-31422404D01*
X44942200Y-31466598D01*
X44942200Y-31822982D01*
X44973026Y-31897403D01*
X44973028Y-31897406D01*
X44973029Y-31897407D01*
X46777893Y-33702271D01*
X46777894Y-33702271D01*
X46777896Y-33702273D01*
X46852317Y-33733099D01*
X46852320Y-33733100D01*
X46932880Y-33733100D01*
X49994334Y-33733100D01*
X50038527Y-33751405D01*
X52117693Y-35830572D01*
X52164778Y-35850074D01*
X52170321Y-35852370D01*
X52170323Y-35852371D01*
X52192119Y-35861400D01*
X52192120Y-35861400D01*
X52192121Y-35861400D01*
X52272680Y-35861400D01*
X52854934Y-35861400D01*
X52899127Y-35879705D01*
X54571494Y-37552073D01*
X54589800Y-37596266D01*
X54589800Y-37682906D01*
X54589801Y-37682914D01*
X54613821Y-37772559D01*
X54613822Y-37772562D01*
X54660229Y-37852939D01*
X54660234Y-37852945D01*
X54663295Y-37856006D01*
X54681601Y-37900200D01*
X54663295Y-37944394D01*
X54619101Y-37962700D01*
X54348733Y-37962700D01*
X54304539Y-37944394D01*
X53407008Y-37046863D01*
X53390832Y-37018845D01*
X53368778Y-36936540D01*
X53368777Y-36936537D01*
X53322370Y-36856160D01*
X53322365Y-36856154D01*
X53256745Y-36790534D01*
X53256739Y-36790529D01*
X53176362Y-36744122D01*
X53176359Y-36744121D01*
X53086714Y-36720101D01*
X53086709Y-36720100D01*
X53086708Y-36720100D01*
X52993892Y-36720100D01*
X52993891Y-36720100D01*
X52993885Y-36720101D01*
X52904240Y-36744121D01*
X52904237Y-36744122D01*
X52823860Y-36790529D01*
X52823854Y-36790534D01*
X52758234Y-36856154D01*
X52758229Y-36856160D01*
X52711822Y-36936537D01*
X52711821Y-36936540D01*
X52687801Y-37026185D01*
X52687800Y-37026193D01*
X52687800Y-37119006D01*
X52687801Y-37119014D01*
X52711821Y-37208659D01*
X52711822Y-37208662D01*
X52758229Y-37289039D01*
X52758234Y-37289045D01*
X52823854Y-37354665D01*
X52823860Y-37354670D01*
X52904237Y-37401077D01*
X52904240Y-37401078D01*
X52986545Y-37423132D01*
X53014563Y-37439308D01*
X53481592Y-37906337D01*
X53499898Y-37950531D01*
X53481592Y-37994725D01*
X53453575Y-38010901D01*
X53413939Y-38021522D01*
X53413937Y-38021522D01*
X53333560Y-38067929D01*
X53333554Y-38067934D01*
X53267934Y-38133554D01*
X53267929Y-38133560D01*
X53221522Y-38213937D01*
X53221521Y-38213940D01*
X53197501Y-38303585D01*
X53197500Y-38303593D01*
X53197500Y-38396406D01*
X53197501Y-38396414D01*
X53221521Y-38486059D01*
X53221522Y-38486062D01*
X53267929Y-38566439D01*
X53267934Y-38566445D01*
X53274295Y-38572806D01*
X53292601Y-38617000D01*
X53274295Y-38661194D01*
X53230101Y-38679500D01*
X28530634Y-38679500D01*
X28520159Y-38678616D01*
X24608401Y-38013616D01*
X24589464Y-38007147D01*
X21680498Y-36455699D01*
X21668100Y-36447008D01*
X20760962Y-35630584D01*
X20745225Y-35608512D01*
X20719373Y-35547501D01*
X20490509Y-35007383D01*
X20490123Y-34959550D01*
X20523673Y-34925453D01*
X20548057Y-34920500D01*
X26239562Y-34920500D01*
X26239567Y-34920499D01*
X26262271Y-34914414D01*
X26315989Y-34900021D01*
X26384511Y-34860460D01*
X26440460Y-34804511D01*
X26480021Y-34735989D01*
X26496461Y-34674634D01*
X26500499Y-34659567D01*
X26500500Y-34659561D01*
X26500500Y-25903593D01*
X30147500Y-25903593D01*
X30147500Y-25996406D01*
X30147501Y-25996414D01*
X30171521Y-26086059D01*
X30171522Y-26086062D01*
X30217929Y-26166439D01*
X30217934Y-26166445D01*
X30283554Y-26232065D01*
X30283560Y-26232070D01*
X30363937Y-26278477D01*
X30363940Y-26278478D01*
X30453592Y-26302500D01*
X30453593Y-26302500D01*
X30546407Y-26302500D01*
X30546408Y-26302500D01*
X30636060Y-26278478D01*
X30716440Y-26232070D01*
X30782070Y-26166440D01*
X30821864Y-26097516D01*
X30828477Y-26086062D01*
X30828478Y-26086059D01*
X30832373Y-26071522D01*
X30852500Y-25996408D01*
X30852500Y-25903592D01*
X30828478Y-25813940D01*
X30828477Y-25813937D01*
X30782070Y-25733560D01*
X30782065Y-25733554D01*
X30716445Y-25667934D01*
X30716439Y-25667929D01*
X30636062Y-25621522D01*
X30636059Y-25621521D01*
X30546414Y-25597501D01*
X30546409Y-25597500D01*
X30546408Y-25597500D01*
X30453592Y-25597500D01*
X30453591Y-25597500D01*
X30453585Y-25597501D01*
X30363940Y-25621521D01*
X30363937Y-25621522D01*
X30283560Y-25667929D01*
X30283554Y-25667934D01*
X30217934Y-25733554D01*
X30217929Y-25733560D01*
X30171522Y-25813937D01*
X30171521Y-25813940D01*
X30147501Y-25903585D01*
X30147500Y-25903593D01*
X26500500Y-25903593D01*
X26500500Y-25340438D01*
X26500499Y-25340432D01*
X26484860Y-25282070D01*
X26480021Y-25264011D01*
X26440460Y-25195489D01*
X26440458Y-25195487D01*
X26440455Y-25195483D01*
X26384516Y-25139544D01*
X26384512Y-25139541D01*
X26384511Y-25139540D01*
X26315989Y-25099979D01*
X26315988Y-25099978D01*
X26315987Y-25099978D01*
X26239567Y-25079500D01*
X26239562Y-25079500D01*
X20548057Y-25079500D01*
X20503863Y-25061194D01*
X20485557Y-25017000D01*
X20490510Y-24992616D01*
X20507046Y-24953592D01*
X20745226Y-24391484D01*
X20760960Y-24369416D01*
X21668105Y-23552986D01*
X21680493Y-23544302D01*
X24586256Y-21994562D01*
X24606391Y-21987902D01*
X28517807Y-21401190D01*
X28527078Y-21400500D01*
X54437500Y-21400500D01*
X54481694Y-21418806D01*
G37*
%TD.AperFunction*%
%TA.AperFunction,Conductor*%
G36*
X65431194Y-25568306D02*
G01*
X65449500Y-25612500D01*
X65449500Y-29636801D01*
X65431194Y-29680995D01*
X65387000Y-29699301D01*
X65342806Y-29680995D01*
X65274945Y-29613134D01*
X65274939Y-29613129D01*
X65194562Y-29566722D01*
X65194559Y-29566721D01*
X65104914Y-29542701D01*
X65104909Y-29542700D01*
X65104908Y-29542700D01*
X65012092Y-29542700D01*
X65012091Y-29542700D01*
X65012085Y-29542701D01*
X64922440Y-29566721D01*
X64922437Y-29566722D01*
X64842060Y-29613129D01*
X64842054Y-29613134D01*
X64776434Y-29678754D01*
X64776429Y-29678760D01*
X64730022Y-29759137D01*
X64730021Y-29759140D01*
X64706001Y-29848785D01*
X64706000Y-29848793D01*
X64706000Y-29941606D01*
X64706001Y-29941614D01*
X64730021Y-30031259D01*
X64730022Y-30031262D01*
X64776429Y-30111639D01*
X64776434Y-30111645D01*
X64842054Y-30177265D01*
X64842060Y-30177270D01*
X64922437Y-30223677D01*
X64922440Y-30223678D01*
X65012092Y-30247700D01*
X65012093Y-30247700D01*
X65104907Y-30247700D01*
X65104908Y-30247700D01*
X65194560Y-30223678D01*
X65274940Y-30177270D01*
X65305804Y-30146406D01*
X65342806Y-30109405D01*
X65387000Y-30091099D01*
X65431194Y-30109405D01*
X65449500Y-30153599D01*
X65449500Y-33014901D01*
X65431194Y-33059095D01*
X65387000Y-33077401D01*
X65342806Y-33059095D01*
X65279306Y-32995595D01*
X65261000Y-32951401D01*
X65261000Y-31047919D01*
X65251970Y-31026121D01*
X65251969Y-31026119D01*
X65230172Y-30973493D01*
X61781407Y-27524729D01*
X61781406Y-27524728D01*
X61781403Y-27524726D01*
X61706982Y-27493900D01*
X61706980Y-27493900D01*
X61672898Y-27493900D01*
X61628704Y-27475594D01*
X61567440Y-27414330D01*
X61567439Y-27414329D01*
X61487062Y-27367922D01*
X61487059Y-27367921D01*
X61397414Y-27343901D01*
X61397409Y-27343900D01*
X61397408Y-27343900D01*
X61304592Y-27343900D01*
X61304591Y-27343900D01*
X61304585Y-27343901D01*
X61214940Y-27367921D01*
X61214937Y-27367922D01*
X61134560Y-27414329D01*
X61134554Y-27414334D01*
X61068934Y-27479954D01*
X61068929Y-27479960D01*
X61022522Y-27560337D01*
X61022521Y-27560340D01*
X60998501Y-27649985D01*
X60998500Y-27649993D01*
X60998500Y-27742806D01*
X60998501Y-27742814D01*
X61022521Y-27832459D01*
X61022522Y-27832462D01*
X61068929Y-27912839D01*
X61068934Y-27912845D01*
X61134554Y-27978465D01*
X61134560Y-27978470D01*
X61214937Y-28024877D01*
X61214940Y-28024878D01*
X61304592Y-28048900D01*
X61304593Y-28048900D01*
X61397407Y-28048900D01*
X61397408Y-28048900D01*
X61487060Y-28024878D01*
X61567440Y-27978470D01*
X61570720Y-27975189D01*
X61614910Y-27956882D01*
X61659104Y-27975183D01*
X62205445Y-28521524D01*
X62741412Y-29057490D01*
X62759718Y-29101684D01*
X62741412Y-29145878D01*
X62713396Y-29162054D01*
X62703438Y-29164722D01*
X62703437Y-29164722D01*
X62623060Y-29211129D01*
X62623054Y-29211134D01*
X62557434Y-29276754D01*
X62557429Y-29276760D01*
X62511022Y-29357137D01*
X62511021Y-29357140D01*
X62487001Y-29446785D01*
X62487000Y-29446793D01*
X62487000Y-29539606D01*
X62487001Y-29539614D01*
X62511021Y-29629259D01*
X62511022Y-29629262D01*
X62554602Y-29704742D01*
X62560847Y-29752169D01*
X62531727Y-29790119D01*
X62483561Y-29817929D01*
X62483554Y-29817934D01*
X62417934Y-29883554D01*
X62417929Y-29883560D01*
X62371522Y-29963937D01*
X62371521Y-29963940D01*
X62347501Y-30053585D01*
X62347500Y-30053593D01*
X62347500Y-30146406D01*
X62347501Y-30146414D01*
X62371521Y-30236059D01*
X62371522Y-30236062D01*
X62417929Y-30316439D01*
X62417934Y-30316445D01*
X62483554Y-30382065D01*
X62483560Y-30382070D01*
X62563937Y-30428477D01*
X62563940Y-30428478D01*
X62653592Y-30452500D01*
X62653593Y-30452500D01*
X62746407Y-30452500D01*
X62746408Y-30452500D01*
X62836060Y-30428478D01*
X62837945Y-30427390D01*
X62853048Y-30418669D01*
X62916440Y-30382070D01*
X62982070Y-30316440D01*
X63021759Y-30247698D01*
X63028477Y-30236062D01*
X63028478Y-30236059D01*
X63052500Y-30146408D01*
X63052500Y-30053592D01*
X63028478Y-29963940D01*
X63026139Y-29959888D01*
X62984897Y-29888455D01*
X62978653Y-29841029D01*
X63007772Y-29803080D01*
X63055940Y-29775270D01*
X63121570Y-29709640D01*
X63167978Y-29629260D01*
X63170644Y-29619306D01*
X63199762Y-29581356D01*
X63247188Y-29575110D01*
X63275209Y-29591287D01*
X64837694Y-31153772D01*
X64856000Y-31197966D01*
X64856000Y-31745726D01*
X64837694Y-31789920D01*
X64793500Y-31808226D01*
X64749306Y-31789920D01*
X64733130Y-31761903D01*
X64722309Y-31721521D01*
X64720278Y-31713940D01*
X64720277Y-31713938D01*
X64720277Y-31713937D01*
X64673870Y-31633560D01*
X64673865Y-31633554D01*
X64608245Y-31567934D01*
X64608239Y-31567929D01*
X64527862Y-31521522D01*
X64513347Y-31517633D01*
X64475398Y-31488512D01*
X64469155Y-31441085D01*
X64479940Y-31419216D01*
X64482065Y-31416444D01*
X64482070Y-31416440D01*
X64528478Y-31336060D01*
X64552500Y-31246408D01*
X64552500Y-31153592D01*
X64528478Y-31063940D01*
X64528477Y-31063937D01*
X64482070Y-30983560D01*
X64482065Y-30983554D01*
X64416445Y-30917934D01*
X64416439Y-30917929D01*
X64336062Y-30871522D01*
X64336059Y-30871521D01*
X64246414Y-30847501D01*
X64246409Y-30847500D01*
X64246408Y-30847500D01*
X64153592Y-30847500D01*
X64153591Y-30847500D01*
X64153585Y-30847501D01*
X64063940Y-30871521D01*
X64063937Y-30871522D01*
X63983560Y-30917929D01*
X63983554Y-30917934D01*
X63917934Y-30983554D01*
X63917929Y-30983560D01*
X63871522Y-31063937D01*
X63871521Y-31063940D01*
X63847501Y-31153585D01*
X63847500Y-31153593D01*
X63847500Y-31246406D01*
X63847501Y-31246414D01*
X63871521Y-31336059D01*
X63871522Y-31336062D01*
X63917929Y-31416439D01*
X63917934Y-31416445D01*
X63983554Y-31482065D01*
X63983560Y-31482070D01*
X64063935Y-31528476D01*
X64063937Y-31528476D01*
X64063940Y-31528478D01*
X64078451Y-31532366D01*
X64116400Y-31561485D01*
X64122645Y-31608912D01*
X64111866Y-31630774D01*
X64109733Y-31633554D01*
X64063322Y-31713937D01*
X64063321Y-31713940D01*
X64039301Y-31803585D01*
X64039300Y-31803593D01*
X64039300Y-31890233D01*
X64020994Y-31934427D01*
X62970128Y-32985294D01*
X62925934Y-33003600D01*
X61824717Y-33003600D01*
X61750296Y-33034426D01*
X61750291Y-33034430D01*
X60855649Y-33929072D01*
X60811455Y-33947378D01*
X60767261Y-33929072D01*
X60753712Y-33908794D01*
X60752778Y-33906539D01*
X60710027Y-33832494D01*
X60706370Y-33826160D01*
X60706369Y-33826159D01*
X60704322Y-33822613D01*
X60705733Y-33821797D01*
X60694808Y-33781020D01*
X60718726Y-33739594D01*
X60740597Y-33728809D01*
X60746866Y-33727128D01*
X60756760Y-33724478D01*
X60837140Y-33678070D01*
X60902770Y-33612440D01*
X60944355Y-33540413D01*
X60949177Y-33532062D01*
X60949178Y-33532059D01*
X60973200Y-33442408D01*
X60973200Y-33349592D01*
X60949178Y-33259940D01*
X60949177Y-33259937D01*
X60902770Y-33179560D01*
X60902765Y-33179554D01*
X60841506Y-33118295D01*
X60823200Y-33074101D01*
X60823200Y-32632620D01*
X60822799Y-32631653D01*
X60812465Y-32606704D01*
X60792372Y-32558193D01*
X59437772Y-31203593D01*
X62467200Y-31203593D01*
X62467200Y-31296406D01*
X62467201Y-31296414D01*
X62491221Y-31386059D01*
X62491222Y-31386062D01*
X62537629Y-31466439D01*
X62537634Y-31466445D01*
X62600895Y-31529706D01*
X62619201Y-31573900D01*
X62600895Y-31618094D01*
X62549834Y-31669154D01*
X62549829Y-31669160D01*
X62503422Y-31749537D01*
X62503421Y-31749540D01*
X62479401Y-31839185D01*
X62479400Y-31839193D01*
X62479400Y-31932006D01*
X62479401Y-31932014D01*
X62503421Y-32021659D01*
X62503422Y-32021662D01*
X62549829Y-32102039D01*
X62549834Y-32102045D01*
X62615454Y-32167665D01*
X62615460Y-32167670D01*
X62695837Y-32214077D01*
X62695840Y-32214078D01*
X62785492Y-32238100D01*
X62785493Y-32238100D01*
X62878307Y-32238100D01*
X62878308Y-32238100D01*
X62967960Y-32214078D01*
X63048340Y-32167670D01*
X63113970Y-32102040D01*
X63160378Y-32021660D01*
X63184400Y-31932008D01*
X63184400Y-31839192D01*
X63160378Y-31749540D01*
X63160377Y-31749537D01*
X63113970Y-31669160D01*
X63113965Y-31669154D01*
X63050705Y-31605894D01*
X63032399Y-31561700D01*
X63050705Y-31517506D01*
X63101765Y-31466445D01*
X63101770Y-31466440D01*
X63148178Y-31386060D01*
X63172200Y-31296408D01*
X63172200Y-31203592D01*
X63148178Y-31113940D01*
X63148177Y-31113937D01*
X63101770Y-31033560D01*
X63101765Y-31033554D01*
X63036145Y-30967934D01*
X63036139Y-30967929D01*
X62955762Y-30921522D01*
X62955759Y-30921521D01*
X62866114Y-30897501D01*
X62866109Y-30897500D01*
X62866108Y-30897500D01*
X62773292Y-30897500D01*
X62773291Y-30897500D01*
X62773285Y-30897501D01*
X62683640Y-30921521D01*
X62683637Y-30921522D01*
X62603260Y-30967929D01*
X62603254Y-30967934D01*
X62537634Y-31033554D01*
X62537629Y-31033560D01*
X62491222Y-31113937D01*
X62491221Y-31113940D01*
X62467201Y-31203585D01*
X62467200Y-31203593D01*
X59437772Y-31203593D01*
X57534418Y-29300240D01*
X54727868Y-26493690D01*
X54687771Y-26453593D01*
X63897500Y-26453593D01*
X63897500Y-26546406D01*
X63897501Y-26546414D01*
X63921521Y-26636059D01*
X63921522Y-26636062D01*
X63967929Y-26716439D01*
X63967934Y-26716445D01*
X64033554Y-26782065D01*
X64033560Y-26782070D01*
X64113937Y-26828477D01*
X64113940Y-26828478D01*
X64203592Y-26852500D01*
X64203593Y-26852500D01*
X64296407Y-26852500D01*
X64296408Y-26852500D01*
X64386060Y-26828478D01*
X64466440Y-26782070D01*
X64532070Y-26716440D01*
X64578478Y-26636060D01*
X64602500Y-26546408D01*
X64602500Y-26453592D01*
X64578478Y-26363940D01*
X64578477Y-26363937D01*
X64532070Y-26283560D01*
X64532065Y-26283554D01*
X64466445Y-26217934D01*
X64466439Y-26217929D01*
X64386062Y-26171522D01*
X64386059Y-26171521D01*
X64296414Y-26147501D01*
X64296409Y-26147500D01*
X64296408Y-26147500D01*
X64203592Y-26147500D01*
X64203591Y-26147500D01*
X64203585Y-26147501D01*
X64113940Y-26171521D01*
X64113937Y-26171522D01*
X64033560Y-26217929D01*
X64033554Y-26217934D01*
X63967934Y-26283554D01*
X63967929Y-26283560D01*
X63921522Y-26363937D01*
X63921521Y-26363940D01*
X63897501Y-26453585D01*
X63897500Y-26453593D01*
X54687771Y-26453593D01*
X54280108Y-26045930D01*
X54280103Y-26045926D01*
X54205682Y-26015100D01*
X54205680Y-26015100D01*
X53968667Y-26015100D01*
X53924473Y-25996794D01*
X53584373Y-25656694D01*
X53566067Y-25612500D01*
X53584373Y-25568306D01*
X53628567Y-25550000D01*
X54500000Y-25550000D01*
X65387000Y-25550000D01*
X65431194Y-25568306D01*
G37*
%TD.AperFunction*%
%TD*%
M02*
