%TF.GenerationSoftware,KiCad,Pcbnew,10.0.6*%
%TF.CreationDate,2026-09-09T07:02:47-07:00*%
%TF.ProjectId,Anticipy_R1_E1_PROTOTYPE,416e7469-6369-4707-995f-52315f45315f,E1P1*%
%TF.SameCoordinates,Original*%
%TF.FileFunction,Copper,L3,Inr*%
%TF.FilePolarity,Positive*%
%FSLAX46Y46*%
G04 Gerber Fmt 4.6, Leading zero omitted, Abs format (unit mm)*
G04 Created by KiCad (PCBNEW 10.0.6) date 2026-09-09 07:02:47*
%MOMM*%
%LPD*%
G01*
G04 APERTURE LIST*
%TA.AperFunction,ComponentPad*%
%ADD10O,1.800000X1.000000*%
%TD*%
%TA.AperFunction,ComponentPad*%
%ADD11O,2.200000X1.000000*%
%TD*%
%TA.AperFunction,ViaPad*%
%ADD12C,0.450000*%
%TD*%
%TA.AperFunction,ViaPad*%
%ADD13C,0.609600*%
%TD*%
%TA.AperFunction,Conductor*%
%ADD14C,0.150000*%
%TD*%
%TA.AperFunction,Conductor*%
%ADD15C,0.127000*%
%TD*%
%TA.AperFunction,Conductor*%
%ADD16C,0.300000*%
%TD*%
%TA.AperFunction,Conductor*%
%ADD17C,0.250000*%
%TD*%
G04 APERTURE END LIST*
D10*
%TO.N,/GND*%
%TO.C,J1*%
X25600000Y-35620000D03*
X25600000Y-24380000D03*
D11*
X21600000Y-35620000D03*
X21600000Y-24380000D03*
%TD*%
D12*
%TO.N,/3V_MAIN*%
X36950000Y-31500000D03*
X36948500Y-25270000D03*
X35750000Y-34650000D03*
X34262400Y-32457200D03*
X53040300Y-37072600D03*
X61250000Y-37400000D03*
%TO.N,/FLASH_IO3*%
X62839500Y-29493200D03*
X51662300Y-34045800D03*
X50253100Y-27818000D03*
%TO.N,/GND*%
X25750000Y-23450000D03*
X56175000Y-36000000D03*
X30026200Y-33110300D03*
X62928600Y-25997800D03*
X58475000Y-28175000D03*
D13*
X36400000Y-27400000D03*
D12*
X48939800Y-23576500D03*
D13*
X35200000Y-29800000D03*
D12*
X28225000Y-23075000D03*
X52368700Y-27823300D03*
X52275000Y-22550000D03*
D13*
X36400000Y-28600000D03*
X34000000Y-28600000D03*
D12*
X45763600Y-35634800D03*
X41005000Y-26650000D03*
X40750000Y-31900000D03*
X60325000Y-30750000D03*
X43600000Y-22600000D03*
D13*
X35200000Y-27400000D03*
D12*
X25175000Y-36500000D03*
D13*
X34000000Y-29800000D03*
D12*
X37457700Y-37592300D03*
D13*
X34000000Y-27400000D03*
X36400000Y-29800000D03*
D12*
X55767000Y-26119100D03*
D13*
X35200000Y-28600000D03*
D12*
X43087500Y-29298400D03*
X64400000Y-38050000D03*
X58181300Y-33614400D03*
X30750000Y-26500000D03*
X28710000Y-29960000D03*
X30000000Y-31300000D03*
X36300000Y-24280000D03*
X29950000Y-26175000D03*
X28850000Y-25500000D03*
X65150000Y-33975000D03*
X48050000Y-37450000D03*
X44539600Y-23080700D03*
%TO.N,/2V5_AUX*%
X42500000Y-33750000D03*
%TO.N,/VBAT*%
X30500000Y-25950000D03*
X32000000Y-26450000D03*
%TO.N,/USB_D+*%
X27650000Y-29040000D03*
X27560000Y-30340000D03*
%TO.N,/USB_D-*%
X28150000Y-30950000D03*
X27470000Y-29720000D03*
%TO.N,/I2C_SDA*%
X35600000Y-23600000D03*
X51662300Y-37815600D03*
X34950000Y-25525000D03*
X43796000Y-26514800D03*
X37883700Y-23347100D03*
%TO.N,/I2C_SCL*%
X60424300Y-34042600D03*
X36328800Y-22184000D03*
%TO.N,/UART_RX*%
X54942300Y-37636500D03*
X42350000Y-32900000D03*
X44550000Y-30700000D03*
X45144700Y-31144700D03*
%TO.N,/UART_TX*%
X42500000Y-32049999D03*
X43600000Y-29750000D03*
X58702100Y-35094200D03*
%TO.N,/HAPTIC_PWM*%
X45936900Y-35000000D03*
X56850200Y-37597500D03*
%TO.N,/VBUSOUT*%
X39602900Y-35645100D03*
X63000000Y-38450000D03*
X63491900Y-35978000D03*
X36141300Y-32531800D03*
X62150000Y-38050000D03*
X31916900Y-29436300D03*
%TO.N,/USB_MCU_D-*%
X64950000Y-35650000D03*
%TO.N,/USB_MCU_D+*%
X64950000Y-34850000D03*
%TO.N,/PDM_CLK*%
X60620700Y-33396000D03*
X49624100Y-21982800D03*
%TO.N,/PDM_DATA*%
X65058500Y-33273300D03*
X61351000Y-27696400D03*
%TO.N,/RESET*%
X44900000Y-34150000D03*
X37525000Y-33100000D03*
X35400000Y-35575000D03*
X54850000Y-34500000D03*
%TO.N,/PMIC_INT*%
X43825000Y-36050000D03*
X48925000Y-25000000D03*
X39193200Y-25050000D03*
X38500000Y-26400000D03*
X42450000Y-29250000D03*
X64391800Y-31850000D03*
%TO.N,/FLASH_SCK*%
X51269000Y-30273500D03*
X62831900Y-31885600D03*
%TO.N,/FLASH_IO0*%
X51438300Y-32093300D03*
X62819700Y-31250000D03*
%TO.N,/FLASH_CS*%
X47281300Y-27726300D03*
X58950000Y-33500000D03*
X57100000Y-34650000D03*
X64200000Y-31200000D03*
X54291000Y-34232200D03*
%TO.N,/FLASH_IO2*%
X51000000Y-32500000D03*
X59400000Y-32500000D03*
%TO.N,/FLASH_IO1*%
X45385300Y-29129700D03*
X65058500Y-29895200D03*
%TO.N,/SWDIO*%
X28833900Y-34451600D03*
X53550000Y-38350000D03*
X62700000Y-30100000D03*
X45091800Y-35661300D03*
%TO.N,/SWDCLK*%
X64250000Y-26500000D03*
X30600000Y-35550000D03*
%TO.N,/LED_BLUE_K*%
X34300000Y-35900000D03*
X33181819Y-31418180D03*
%TO.N,/VSYS*%
X28093000Y-28609100D03*
X30130100Y-36244200D03*
X38874400Y-29272300D03*
X35451000Y-33710800D03*
X38650000Y-33100000D03*
%TO.N,/SHPHLD_BTN*%
X33700000Y-24250000D03*
X30790000Y-34956700D03*
%TO.N,/3V_MIC*%
X39499500Y-34215200D03*
X49092800Y-26272800D03*
X44416000Y-25444800D03*
X47900000Y-26000000D03*
X52800000Y-26000000D03*
%TO.N,/HAPTIC_NEG*%
X46637900Y-36256800D03*
%TO.N,/NTC*%
X32150000Y-27350000D03*
X45450000Y-28425000D03*
%TO.N,/VBUS*%
X28050000Y-27050000D03*
X28100000Y-32350000D03*
X30950000Y-28850000D03*
X27596000Y-34309400D03*
X34724600Y-37924600D03*
%TO.N,/USB_CC1*%
X30544500Y-22167500D03*
X31433800Y-32194000D03*
%TO.N,/USB_CC2*%
X31892300Y-33032600D03*
X28599200Y-26305400D03*
%TD*%
%TO.N,/FLASH_IO3*%
D14*
X62839500Y-29493200D02*
X51928300Y-29493200D01*
X51928300Y-29493200D02*
X50253100Y-27818000D01*
%TO.N,/USB_D-*%
D15*
X27470000Y-29720000D02*
X28100000Y-29350000D01*
X28100000Y-29350000D02*
X29200000Y-29350000D01*
X28600000Y-31050000D02*
X28150000Y-30950000D01*
X29200000Y-30450000D02*
X28600000Y-31050000D01*
X29200000Y-29350000D02*
X29200000Y-30450000D01*
%TO.N,/I2C_SDA*%
D14*
X35150000Y-25050000D02*
X35150000Y-25100000D01*
X35500000Y-24250000D02*
X35500000Y-24300000D01*
X35350000Y-24600000D02*
X35350000Y-24650000D01*
X35300000Y-24750000D02*
X35250000Y-24800000D01*
X35250000Y-24850000D02*
X35200000Y-24900000D01*
X35600000Y-23600000D02*
X35600000Y-24100000D01*
X35400000Y-24500000D02*
X35400000Y-24550000D01*
X35400000Y-24550000D02*
X35350000Y-24600000D01*
X35100000Y-25200000D02*
X35050000Y-25250000D01*
X35550000Y-24150000D02*
X35550000Y-24200000D01*
X35200000Y-25000000D02*
X35150000Y-25050000D01*
X35450000Y-24350000D02*
X35450000Y-24450000D01*
X35050000Y-25300000D02*
X34950000Y-25525000D01*
X35250000Y-24800000D02*
X35250000Y-24850000D01*
X35100000Y-25150000D02*
X35100000Y-25200000D01*
X35150000Y-25100000D02*
X35100000Y-25150000D01*
X35050000Y-25250000D02*
X35050000Y-25300000D01*
X35500000Y-24300000D02*
X35450000Y-24350000D01*
X35600000Y-24100000D02*
X35550000Y-24150000D01*
X35200000Y-24900000D02*
X35200000Y-25000000D01*
X35300000Y-24700000D02*
X35300000Y-24750000D01*
X35450000Y-24450000D02*
X35400000Y-24500000D01*
X35350000Y-24650000D02*
X35300000Y-24700000D01*
X35550000Y-24200000D02*
X35500000Y-24250000D01*
%TO.N,/UART_TX*%
D15*
X47257500Y-35094200D02*
X43550000Y-32700000D01*
X45500000Y-30550000D02*
X45650000Y-30850000D01*
X45650000Y-30850000D02*
X45600000Y-31600000D01*
X43600000Y-29750000D02*
X45500000Y-30550000D01*
X45650000Y-30750000D02*
X45350000Y-30450000D01*
D14*
X58702100Y-35094200D02*
X47257500Y-35094200D01*
D15*
X43550000Y-32700000D02*
X42500000Y-32049999D01*
X45600000Y-31600000D02*
X45650000Y-30750000D01*
X45350000Y-30450000D02*
X43600000Y-29750000D01*
%TO.N,/HAPTIC_PWM*%
D14*
X47021000Y-36033600D02*
X46561900Y-35525000D01*
X56850200Y-37597500D02*
X55286300Y-36033600D01*
X55286300Y-36033600D02*
X47021000Y-36033600D01*
X46561900Y-35525000D02*
X45936900Y-35000000D01*
%TO.N,/VBUSOUT*%
D15*
X63550000Y-36200000D02*
X63491900Y-35978000D01*
D14*
X63250000Y-37700000D02*
X63300000Y-37650000D01*
X63050000Y-38200000D02*
X63050000Y-38150000D01*
D16*
X36141300Y-32531800D02*
X36141300Y-33894000D01*
D14*
X63100000Y-38050000D02*
X63150000Y-38000000D01*
D17*
X54900000Y-38150000D02*
X62150000Y-38050000D01*
X54550000Y-38000000D02*
X54900000Y-38150000D01*
D14*
X63100000Y-38100000D02*
X63100000Y-38050000D01*
X63150000Y-37950000D02*
X63200000Y-37900000D01*
X63550000Y-37100000D02*
X63550000Y-36200000D01*
D17*
X45550000Y-36950000D02*
X50100000Y-36950000D01*
D14*
X63050000Y-38150000D02*
X63100000Y-38100000D01*
X63450000Y-37300000D02*
X63500000Y-37250000D01*
D17*
X39602900Y-35645100D02*
X45550000Y-36950000D01*
D14*
X63400000Y-37450000D02*
X63400000Y-37400000D01*
X63350000Y-37500000D02*
X63400000Y-37450000D01*
D16*
X39602900Y-35645100D02*
X38981700Y-35023900D01*
D14*
X63500000Y-37250000D02*
X63500000Y-37150000D01*
X63000000Y-38450000D02*
X63050000Y-38200000D01*
X63250000Y-37800000D02*
X63250000Y-37700000D01*
X63450000Y-37350000D02*
X63450000Y-37300000D01*
D17*
X50100000Y-36950000D02*
X54550000Y-38000000D01*
D14*
X63150000Y-38000000D02*
X63150000Y-37950000D01*
D16*
X38981700Y-35023900D02*
X37271200Y-35023900D01*
X36141300Y-33894000D02*
X37271200Y-35023900D01*
D14*
X63350000Y-37550000D02*
X63350000Y-37500000D01*
X63500000Y-37150000D02*
X63550000Y-37100000D01*
X63300000Y-37650000D02*
X63300000Y-37600000D01*
X63200000Y-37900000D02*
X63200000Y-37850000D01*
X63300000Y-37600000D02*
X63350000Y-37550000D01*
X63400000Y-37400000D02*
X63450000Y-37350000D01*
X63200000Y-37850000D02*
X63250000Y-37800000D01*
%TO.N,/RESET*%
X36529200Y-33774500D02*
X36529200Y-33403900D01*
D15*
X36600000Y-33424999D02*
X36575000Y-33450000D01*
X36850000Y-33174999D02*
X36825000Y-33200000D01*
X36575000Y-33750000D02*
X36600000Y-33775000D01*
X36625000Y-33850000D02*
X37375000Y-34600000D01*
X36600000Y-33775000D02*
X36600000Y-33800000D01*
X37525000Y-33100000D02*
X36850000Y-33174999D01*
X36575000Y-33450000D02*
X36575000Y-33750000D01*
X44900000Y-34150000D02*
X40150000Y-34200000D01*
X39600000Y-33750000D02*
X38275000Y-33450000D01*
X36625000Y-33825000D02*
X36625000Y-33850000D01*
X36625000Y-33350000D02*
X36625000Y-33375000D01*
X37375000Y-34600000D02*
X37375000Y-34625000D01*
X37375000Y-34625000D02*
X37400000Y-34650000D01*
X40150000Y-34200000D02*
X39600000Y-33750000D01*
D14*
X37400400Y-34645700D02*
X36529200Y-33774500D01*
D15*
X36800000Y-33200000D02*
X36775000Y-33225000D01*
X36600000Y-33400000D02*
X36600000Y-33424999D01*
X36600000Y-33800000D02*
X36625000Y-33825000D01*
X37400000Y-34650000D02*
X37400400Y-34645700D01*
X36775000Y-33225000D02*
X36750000Y-33225000D01*
X36750000Y-33225000D02*
X36625000Y-33350000D01*
X38275000Y-33450000D02*
X37525000Y-33100000D01*
X36625000Y-33375000D02*
X36600000Y-33400000D01*
X36825000Y-33200000D02*
X36800000Y-33200000D01*
%TO.N,/PMIC_INT*%
X44250000Y-25050000D02*
X44275000Y-25025000D01*
X44275000Y-25025000D02*
X48925000Y-25000000D01*
X39193200Y-25050000D02*
X44250000Y-25050000D01*
%TO.N,/FLASH_SCK*%
D14*
X62831900Y-31885600D02*
X52881100Y-31885600D01*
X52881100Y-31885600D02*
X51269000Y-30273500D01*
%TO.N,/FLASH_IO0*%
X51087200Y-29838200D02*
X50773400Y-30152000D01*
X50773400Y-30152000D02*
X50773400Y-31428400D01*
X62819700Y-31250000D02*
X61407900Y-29838200D01*
X50773400Y-31428400D02*
X51438300Y-32093300D01*
X61407900Y-29838200D02*
X51087200Y-29838200D01*
%TO.N,/FLASH_IO2*%
D15*
X51000000Y-32500000D02*
X52450000Y-32549999D01*
X52450000Y-32549999D02*
X59400000Y-32500000D01*
%TO.N,/FLASH_IO1*%
D14*
X53439700Y-27362400D02*
X53537800Y-27460500D01*
X53892900Y-27460500D02*
X54089100Y-27264300D01*
X54089100Y-27264300D02*
X62427600Y-27264300D01*
X49289200Y-27362400D02*
X53439700Y-27362400D01*
X48457200Y-28194400D02*
X49289200Y-27362400D01*
X62427600Y-27264300D02*
X65058500Y-29895200D01*
X46320600Y-28194400D02*
X48457200Y-28194400D01*
X53537800Y-27460500D02*
X53892900Y-27460500D01*
X45385300Y-29129700D02*
X46320600Y-28194400D01*
%TO.N,/SWDIO*%
D15*
X63300000Y-32299999D02*
X63250000Y-30650000D01*
X55150000Y-38500000D02*
X62300000Y-38500000D01*
X62300000Y-38500000D02*
X62600000Y-38200000D01*
X53550000Y-38350000D02*
X55150000Y-38500000D01*
X63300000Y-35350000D02*
X63050000Y-35750000D01*
X63300000Y-32299999D02*
X63300000Y-35350000D01*
X63050000Y-35750000D02*
X62600000Y-38200000D01*
X63250000Y-30650000D02*
X62700000Y-30100000D01*
%TO.N,/SWDCLK*%
D14*
X38450000Y-25900000D02*
X38500000Y-25850000D01*
X28350000Y-25200000D02*
X28550000Y-25000000D01*
X44150000Y-25900000D02*
X44200000Y-25950000D01*
X28650000Y-24950000D02*
X33650000Y-24950000D01*
X27000000Y-30000000D02*
X26950000Y-29950000D01*
X28550000Y-25000000D02*
X28600000Y-25000000D01*
X27050000Y-30550000D02*
X27000000Y-30500000D01*
X27000000Y-30500000D02*
X27000000Y-30000000D01*
X44050000Y-25850000D02*
X44100000Y-25900000D01*
X27500000Y-28400000D02*
X27500000Y-26850000D01*
X48600000Y-26500000D02*
X48800000Y-26700000D01*
X44200000Y-25950000D02*
X47100000Y-25950000D01*
X47100000Y-25950000D02*
X47600000Y-26450000D01*
X64000000Y-26750000D02*
X64250000Y-26500000D01*
X27100000Y-28850000D02*
X27150000Y-28800000D01*
X48800000Y-26700000D02*
X48850000Y-26700000D01*
X28300000Y-31850000D02*
X27050000Y-30600000D01*
X30600000Y-35550000D02*
X30300000Y-35200000D01*
X29500000Y-33000000D02*
X28350000Y-31850000D01*
X34700000Y-25950000D02*
X34750000Y-26000000D01*
X27150000Y-28800000D02*
X27150000Y-28750000D01*
X27550000Y-26750000D02*
X28050000Y-26250000D01*
X28600000Y-25000000D02*
X28650000Y-24950000D01*
X47650000Y-26450000D02*
X47700000Y-26500000D01*
X26950000Y-29450000D02*
X26950000Y-29400000D01*
X28100000Y-26000000D02*
X28300000Y-25800000D01*
X26900000Y-29850000D02*
X26900000Y-29500000D01*
X27550000Y-26800000D02*
X27550000Y-26750000D01*
X28300000Y-25300000D02*
X28350000Y-25250000D01*
X30250000Y-35100000D02*
X30250000Y-34050000D01*
X28100000Y-26050000D02*
X28100000Y-26000000D01*
X38500000Y-25850000D02*
X44050000Y-25850000D01*
X27500000Y-26850000D02*
X27550000Y-26800000D01*
X33650000Y-24950000D02*
X34650000Y-25950000D01*
X48850000Y-26700000D02*
X48900000Y-26750000D01*
X47600000Y-26450000D02*
X47650000Y-26450000D01*
X30300000Y-35150000D02*
X30250000Y-35100000D01*
X30250000Y-34050000D02*
X29550000Y-33350000D01*
X26950000Y-29900000D02*
X26900000Y-29850000D01*
X28350000Y-25250000D02*
X28350000Y-25200000D01*
X44100000Y-25900000D02*
X44150000Y-25900000D01*
X28050000Y-26250000D02*
X28050000Y-26100000D01*
X26950000Y-29400000D02*
X27100000Y-29250000D01*
X27150000Y-28750000D02*
X27500000Y-28400000D01*
X30300000Y-35200000D02*
X30300000Y-35150000D01*
X48900000Y-26750000D02*
X64000000Y-26750000D01*
X27050000Y-30600000D02*
X27050000Y-30550000D01*
X38300000Y-26000000D02*
X38400000Y-25900000D01*
X47700000Y-26500000D02*
X48600000Y-26500000D01*
X26900000Y-29500000D02*
X26950000Y-29450000D01*
X28050000Y-26100000D02*
X28100000Y-26050000D01*
X26950000Y-29950000D02*
X26950000Y-29900000D01*
X29500000Y-33250000D02*
X29500000Y-33000000D01*
X34750000Y-26000000D02*
X38300000Y-26000000D01*
X28300000Y-25800000D02*
X28300000Y-25300000D01*
X29550000Y-33299999D02*
X29500000Y-33250000D01*
X29550000Y-33350000D02*
X29550000Y-33299999D01*
X27100000Y-29250000D02*
X27100000Y-28850000D01*
X28350000Y-31850000D02*
X28300000Y-31850000D01*
X34650000Y-25950000D02*
X34700000Y-25950000D01*
X38400000Y-25900000D02*
X38450000Y-25900000D01*
%TO.N,/3V_MIC*%
X51200000Y-26050000D02*
X51150000Y-26100000D01*
D15*
X49500000Y-26250000D02*
X49092800Y-26272800D01*
D14*
X51100000Y-26100000D02*
X51050000Y-26150000D01*
X47200000Y-25550000D02*
X44750000Y-25550000D01*
X47300000Y-25600000D02*
X47250000Y-25600000D01*
D16*
X44416000Y-25444800D02*
X48352100Y-25392600D01*
D14*
X44750000Y-25550000D02*
X44700000Y-25500000D01*
X50850000Y-26250000D02*
X49500000Y-26250000D01*
X47900000Y-26000000D02*
X47300000Y-25600000D01*
X50900000Y-26200000D02*
X50850000Y-26250000D01*
X47250000Y-25600000D02*
X47200000Y-25550000D01*
X50950000Y-26200000D02*
X50900000Y-26200000D01*
X44650000Y-25500000D02*
X44416000Y-25444800D01*
X51350000Y-26000000D02*
X51300000Y-26050000D01*
X51050000Y-26150000D02*
X51000000Y-26150000D01*
X51000000Y-26150000D02*
X50950000Y-26200000D01*
X51150000Y-26100000D02*
X51100000Y-26100000D01*
D16*
X48352100Y-25392600D02*
X49092800Y-26272800D01*
D14*
X44700000Y-25500000D02*
X44650000Y-25500000D01*
X51300000Y-26050000D02*
X51200000Y-26050000D01*
X52800000Y-26000000D02*
X51350000Y-26000000D01*
%TO.N,/NTC*%
D15*
X44925000Y-28175000D02*
X44950000Y-28200000D01*
X45125000Y-28275000D02*
X45150000Y-28300000D01*
X44850000Y-28150000D02*
X44875000Y-28175000D01*
X44800000Y-28125000D02*
X44825000Y-28150000D01*
X40725000Y-27375000D02*
X43175000Y-27375000D01*
X45050000Y-28250000D02*
X45075000Y-28250000D01*
X44825000Y-28150000D02*
X44850000Y-28150000D01*
X45075000Y-28250000D02*
X45100000Y-28275000D01*
X43175000Y-27375000D02*
X43350000Y-27200000D01*
X32150000Y-27350000D02*
X33275000Y-27350000D01*
X43800000Y-27175000D02*
X43825000Y-27200000D01*
X45025000Y-28225000D02*
X45050000Y-28250000D01*
X43450000Y-27150000D02*
X43750000Y-27150000D01*
X33275000Y-27350000D02*
X33675000Y-26950000D01*
X40675000Y-27350000D02*
X40700000Y-27350000D01*
X43350000Y-27200000D02*
X43375000Y-27200000D01*
X43750000Y-27150000D02*
X43775000Y-27175000D01*
X44775000Y-28125000D02*
X44800000Y-28125000D01*
X44875000Y-28175000D02*
X44925000Y-28175000D01*
X45250000Y-28325000D02*
X45450000Y-28425000D01*
X43850000Y-27200000D02*
X44775000Y-28125000D01*
X43775000Y-27175000D02*
X43800000Y-27175000D01*
X43375000Y-27200000D02*
X43400000Y-27175000D01*
X33750000Y-26900000D02*
X33800000Y-26900000D01*
X44950000Y-28200000D02*
X44975000Y-28200000D01*
X43825000Y-27200000D02*
X43850000Y-27200000D01*
X40650000Y-27325000D02*
X40675000Y-27350000D01*
X33825000Y-26875000D02*
X40175000Y-26875000D01*
X45150000Y-28300000D02*
X45200000Y-28300000D01*
X44975000Y-28200000D02*
X45000000Y-28225000D01*
X33700000Y-26950000D02*
X33750000Y-26900000D01*
X45100000Y-28275000D02*
X45125000Y-28275000D01*
X40175000Y-26875000D02*
X40625000Y-27325000D01*
X45000000Y-28225000D02*
X45025000Y-28225000D01*
X40700000Y-27350000D02*
X40725000Y-27375000D01*
X33800000Y-26900000D02*
X33825000Y-26875000D01*
X40625000Y-27325000D02*
X40650000Y-27325000D01*
X43425000Y-27175000D02*
X43450000Y-27150000D01*
X43400000Y-27175000D02*
X43425000Y-27175000D01*
X33675000Y-26950000D02*
X33700000Y-26950000D01*
X45200000Y-28300000D02*
X45225000Y-28325000D01*
X45225000Y-28325000D02*
X45250000Y-28325000D01*
%TO.N,/VBUS*%
D14*
X30800000Y-28700000D02*
X30950000Y-28850000D01*
X29700000Y-28700000D02*
X30800000Y-28700000D01*
X28050000Y-27050000D02*
X29700000Y-28700000D01*
%TD*%
%TA.AperFunction,Conductor*%
%TO.N,/GND*%
G36*
X54481694Y-21418806D02*
G01*
X54500000Y-21463000D01*
X54500000Y-21687500D01*
X54481694Y-21731694D01*
X54437500Y-21750000D01*
X53550000Y-21750000D01*
X53550000Y-25550000D01*
X54500000Y-25550000D01*
X65387000Y-25550000D01*
X65431194Y-25568306D01*
X65449500Y-25612500D01*
X65449500Y-29636801D01*
X65431194Y-29680995D01*
X65387000Y-29699301D01*
X65342806Y-29680995D01*
X65274945Y-29613134D01*
X65274939Y-29613129D01*
X65194562Y-29566722D01*
X65194559Y-29566721D01*
X65104914Y-29542701D01*
X65104909Y-29542700D01*
X65104908Y-29542700D01*
X65018266Y-29542700D01*
X64974072Y-29524394D01*
X62542308Y-27092630D01*
X62542303Y-27092626D01*
X62494297Y-27072742D01*
X62460473Y-27038918D01*
X62460473Y-26991082D01*
X62494297Y-26957258D01*
X62518215Y-26952500D01*
X64040280Y-26952500D01*
X64114707Y-26921671D01*
X64165571Y-26870805D01*
X64209765Y-26852500D01*
X64296407Y-26852500D01*
X64296408Y-26852500D01*
X64386060Y-26828478D01*
X64466440Y-26782070D01*
X64532070Y-26716440D01*
X64578478Y-26636060D01*
X64602500Y-26546408D01*
X64602500Y-26453592D01*
X64578478Y-26363940D01*
X64578477Y-26363937D01*
X64532070Y-26283560D01*
X64532065Y-26283554D01*
X64466445Y-26217934D01*
X64466439Y-26217929D01*
X64386062Y-26171522D01*
X64386059Y-26171521D01*
X64296414Y-26147501D01*
X64296409Y-26147500D01*
X64296408Y-26147500D01*
X64203592Y-26147500D01*
X64203591Y-26147500D01*
X64203585Y-26147501D01*
X64113940Y-26171521D01*
X64113937Y-26171522D01*
X64033560Y-26217929D01*
X64033554Y-26217934D01*
X63967934Y-26283554D01*
X63967929Y-26283560D01*
X63921522Y-26363937D01*
X63921521Y-26363940D01*
X63897501Y-26453585D01*
X63897500Y-26453593D01*
X63897500Y-26485000D01*
X63879194Y-26529194D01*
X63835000Y-26547500D01*
X50975138Y-26547500D01*
X50930944Y-26529194D01*
X50912638Y-26485000D01*
X50930944Y-26440806D01*
X50951221Y-26427257D01*
X50964707Y-26421671D01*
X50970560Y-26415817D01*
X50990833Y-26402270D01*
X51064707Y-26371671D01*
X51070560Y-26365817D01*
X51090833Y-26352270D01*
X51164707Y-26321671D01*
X51170560Y-26315817D01*
X51190833Y-26302270D01*
X51264707Y-26271671D01*
X51265572Y-26270806D01*
X51266700Y-26270338D01*
X51269823Y-26268252D01*
X51270238Y-26268873D01*
X51309766Y-26252500D01*
X51340280Y-26252500D01*
X51376867Y-26237345D01*
X51414703Y-26221673D01*
X51414703Y-26221672D01*
X51414707Y-26221671D01*
X51415572Y-26220806D01*
X51416700Y-26220338D01*
X51419823Y-26218252D01*
X51420238Y-26218873D01*
X51459766Y-26202500D01*
X52478102Y-26202500D01*
X52522296Y-26220806D01*
X52553989Y-26252499D01*
X52583559Y-26282069D01*
X52583560Y-26282070D01*
X52663937Y-26328477D01*
X52663940Y-26328478D01*
X52753592Y-26352500D01*
X52753593Y-26352500D01*
X52846407Y-26352500D01*
X52846408Y-26352500D01*
X52936060Y-26328478D01*
X53016440Y-26282070D01*
X53082070Y-26216440D01*
X53119120Y-26152269D01*
X53128477Y-26136062D01*
X53128478Y-26136059D01*
X53152500Y-26046408D01*
X53152500Y-25953592D01*
X53128478Y-25863940D01*
X53128477Y-25863937D01*
X53082070Y-25783560D01*
X53082065Y-25783554D01*
X53016445Y-25717934D01*
X53016439Y-25717929D01*
X52936062Y-25671522D01*
X52936059Y-25671521D01*
X52846414Y-25647501D01*
X52846409Y-25647500D01*
X52846408Y-25647500D01*
X52753592Y-25647500D01*
X52753591Y-25647500D01*
X52753585Y-25647501D01*
X52663940Y-25671521D01*
X52663937Y-25671522D01*
X52583560Y-25717929D01*
X52583559Y-25717930D01*
X52567936Y-25733554D01*
X52522295Y-25779194D01*
X52478102Y-25797500D01*
X51309717Y-25797500D01*
X51290479Y-25805469D01*
X51235295Y-25828326D01*
X51235291Y-25828329D01*
X51234427Y-25829194D01*
X51233296Y-25829662D01*
X51230175Y-25831748D01*
X51229760Y-25831127D01*
X51190233Y-25847500D01*
X51159720Y-25847500D01*
X51145288Y-25853478D01*
X51085292Y-25878328D01*
X51085290Y-25878329D01*
X51079436Y-25884184D01*
X51059162Y-25897730D01*
X51037922Y-25906528D01*
X51037921Y-25906529D01*
X50985294Y-25928327D01*
X50985290Y-25928329D01*
X50979436Y-25934184D01*
X50959163Y-25947730D01*
X50941857Y-25954899D01*
X50941855Y-25954900D01*
X50885292Y-25978328D01*
X50885290Y-25978329D01*
X50879436Y-25984184D01*
X50859162Y-25997730D01*
X50837922Y-26006528D01*
X50837921Y-26006529D01*
X50785294Y-26028327D01*
X50785291Y-26028329D01*
X50784427Y-26029194D01*
X50783297Y-26029661D01*
X50780177Y-26031747D01*
X50779762Y-26031126D01*
X50740233Y-26047500D01*
X49459720Y-26047500D01*
X49432036Y-26058966D01*
X49384200Y-26058963D01*
X49363927Y-26045416D01*
X49309245Y-25990734D01*
X49309239Y-25990729D01*
X49228861Y-25944322D01*
X49183553Y-25932181D01*
X49151909Y-25912053D01*
X48815371Y-25512134D01*
X48751469Y-25436197D01*
X48737021Y-25390597D01*
X48759049Y-25348135D01*
X48804650Y-25333686D01*
X48815468Y-25335586D01*
X48878587Y-25352499D01*
X48878590Y-25352499D01*
X48878592Y-25352500D01*
X48878593Y-25352500D01*
X48971407Y-25352500D01*
X48971408Y-25352500D01*
X49061060Y-25328478D01*
X49141440Y-25282070D01*
X49207070Y-25216440D01*
X49251042Y-25140280D01*
X49253477Y-25136062D01*
X49253478Y-25136059D01*
X49277500Y-25046408D01*
X49277500Y-24953592D01*
X49253478Y-24863940D01*
X49253477Y-24863937D01*
X49207070Y-24783560D01*
X49207065Y-24783554D01*
X49141445Y-24717934D01*
X49141439Y-24717929D01*
X49061062Y-24671522D01*
X49061059Y-24671521D01*
X48971414Y-24647501D01*
X48971409Y-24647500D01*
X48971408Y-24647500D01*
X48878592Y-24647500D01*
X48878591Y-24647500D01*
X48878585Y-24647501D01*
X48788940Y-24671521D01*
X48788937Y-24671522D01*
X48708560Y-24717929D01*
X48708554Y-24717934D01*
X48642928Y-24783560D01*
X48640798Y-24786337D01*
X48599372Y-24810256D01*
X48591549Y-24810790D01*
X44274671Y-24833999D01*
X44274335Y-24834000D01*
X44236991Y-24834000D01*
X44236751Y-24834049D01*
X44236419Y-24834116D01*
X44236001Y-24834199D01*
X44201505Y-24848704D01*
X44201198Y-24848832D01*
X44188138Y-24854242D01*
X44164219Y-24859000D01*
X39525613Y-24859000D01*
X39481419Y-24840694D01*
X39476029Y-24834548D01*
X39475270Y-24833559D01*
X39409645Y-24767934D01*
X39409639Y-24767929D01*
X39329262Y-24721522D01*
X39329259Y-24721521D01*
X39239614Y-24697501D01*
X39239609Y-24697500D01*
X39239608Y-24697500D01*
X39146792Y-24697500D01*
X39146791Y-24697500D01*
X39146785Y-24697501D01*
X39057140Y-24721521D01*
X39057137Y-24721522D01*
X38976760Y-24767929D01*
X38976754Y-24767934D01*
X38911134Y-24833554D01*
X38911129Y-24833560D01*
X38864722Y-24913937D01*
X38864721Y-24913940D01*
X38840701Y-25003585D01*
X38840700Y-25003593D01*
X38840700Y-25096406D01*
X38840701Y-25096414D01*
X38864721Y-25186059D01*
X38864722Y-25186062D01*
X38911129Y-25266439D01*
X38911134Y-25266445D01*
X38976754Y-25332065D01*
X38976760Y-25332070D01*
X39057137Y-25378477D01*
X39057140Y-25378478D01*
X39146792Y-25402500D01*
X39146793Y-25402500D01*
X39239607Y-25402500D01*
X39239608Y-25402500D01*
X39329260Y-25378478D01*
X39331282Y-25377311D01*
X39349653Y-25366704D01*
X39409640Y-25332070D01*
X39475270Y-25266440D01*
X39475271Y-25266439D01*
X39476029Y-25265452D01*
X39476573Y-25265137D01*
X39478167Y-25263544D01*
X39478594Y-25263971D01*
X39517456Y-25241535D01*
X39525613Y-25241000D01*
X44024221Y-25241000D01*
X44068415Y-25259306D01*
X44086721Y-25303500D01*
X44084591Y-25319676D01*
X44063501Y-25398385D01*
X44063500Y-25398393D01*
X44063500Y-25491212D01*
X44073738Y-25529417D01*
X44083141Y-25564511D01*
X44084297Y-25568823D01*
X44078054Y-25616250D01*
X44040104Y-25645370D01*
X44023927Y-25647500D01*
X38459718Y-25647500D01*
X38437920Y-25656528D01*
X38437921Y-25656529D01*
X38385294Y-25678327D01*
X38385290Y-25678329D01*
X38379436Y-25684184D01*
X38359162Y-25697730D01*
X38285297Y-25728326D01*
X38285291Y-25728330D01*
X38234428Y-25779194D01*
X38190234Y-25797500D01*
X35307957Y-25797500D01*
X35263763Y-25779194D01*
X35245457Y-25735000D01*
X35253831Y-25703749D01*
X35257439Y-25697500D01*
X35278478Y-25661060D01*
X35302500Y-25571408D01*
X35302500Y-25478592D01*
X35278478Y-25388940D01*
X35275555Y-25383878D01*
X35271764Y-25377311D01*
X35265520Y-25329885D01*
X35269740Y-25320570D01*
X35269316Y-25320395D01*
X35274144Y-25308740D01*
X35297438Y-25252500D01*
X35302272Y-25240829D01*
X35310218Y-25228939D01*
X35313238Y-25223593D01*
X36596000Y-25223593D01*
X36596000Y-25316406D01*
X36596001Y-25316414D01*
X36620021Y-25406059D01*
X36620022Y-25406062D01*
X36666429Y-25486439D01*
X36666434Y-25486445D01*
X36732054Y-25552065D01*
X36732060Y-25552070D01*
X36812437Y-25598477D01*
X36812440Y-25598478D01*
X36902092Y-25622500D01*
X36902093Y-25622500D01*
X36994907Y-25622500D01*
X36994908Y-25622500D01*
X37084560Y-25598478D01*
X37164940Y-25552070D01*
X37230570Y-25486440D01*
X37276978Y-25406060D01*
X37301000Y-25316408D01*
X37301000Y-25223592D01*
X37276978Y-25133940D01*
X37276977Y-25133937D01*
X37230570Y-25053560D01*
X37230565Y-25053554D01*
X37164945Y-24987934D01*
X37164939Y-24987929D01*
X37084562Y-24941522D01*
X37084559Y-24941521D01*
X36994914Y-24917501D01*
X36994909Y-24917500D01*
X36994908Y-24917500D01*
X36902092Y-24917500D01*
X36902091Y-24917500D01*
X36902085Y-24917501D01*
X36812440Y-24941521D01*
X36812437Y-24941522D01*
X36732060Y-24987929D01*
X36732054Y-24987934D01*
X36666434Y-25053554D01*
X36666429Y-25053560D01*
X36620022Y-25133937D01*
X36620021Y-25133940D01*
X36596001Y-25223585D01*
X36596000Y-25223593D01*
X35313238Y-25223593D01*
X35313826Y-25222552D01*
X35321672Y-25214707D01*
X35347438Y-25152500D01*
X35352272Y-25140829D01*
X35365818Y-25120560D01*
X35371672Y-25114707D01*
X35394448Y-25059720D01*
X35402500Y-25040280D01*
X35402500Y-25009766D01*
X35418873Y-24970237D01*
X35418253Y-24969823D01*
X35420336Y-24966704D01*
X35420805Y-24965573D01*
X35421672Y-24964707D01*
X35452268Y-24890837D01*
X35465816Y-24870562D01*
X35471672Y-24864707D01*
X35502268Y-24790837D01*
X35515816Y-24770562D01*
X35521672Y-24764707D01*
X35552268Y-24690837D01*
X35565816Y-24670562D01*
X35571672Y-24664707D01*
X35597438Y-24602500D01*
X35602272Y-24590829D01*
X35615818Y-24570560D01*
X35621672Y-24564707D01*
X35652500Y-24490279D01*
X35652500Y-24459766D01*
X35668873Y-24420237D01*
X35668253Y-24419823D01*
X35670336Y-24416704D01*
X35670805Y-24415573D01*
X35671672Y-24414707D01*
X35702268Y-24340837D01*
X35715816Y-24320562D01*
X35721672Y-24314707D01*
X35752268Y-24240837D01*
X35765816Y-24220562D01*
X35771672Y-24214707D01*
X35799509Y-24147500D01*
X35802500Y-24140280D01*
X35802500Y-23921898D01*
X35820806Y-23877704D01*
X35882070Y-23816440D01*
X35928478Y-23736060D01*
X35952500Y-23646408D01*
X35952500Y-23553592D01*
X35928478Y-23463940D01*
X35928477Y-23463937D01*
X35882070Y-23383560D01*
X35882065Y-23383554D01*
X35816445Y-23317934D01*
X35816439Y-23317929D01*
X35786586Y-23300693D01*
X37531200Y-23300693D01*
X37531200Y-23393506D01*
X37531201Y-23393514D01*
X37555221Y-23483159D01*
X37555222Y-23483162D01*
X37601629Y-23563539D01*
X37601634Y-23563545D01*
X37667254Y-23629165D01*
X37667260Y-23629170D01*
X37747637Y-23675577D01*
X37747640Y-23675578D01*
X37837292Y-23699600D01*
X37837293Y-23699600D01*
X37930107Y-23699600D01*
X37930108Y-23699600D01*
X38019760Y-23675578D01*
X38100140Y-23629170D01*
X38165770Y-23563540D01*
X38212178Y-23483160D01*
X38236200Y-23393508D01*
X38236200Y-23300692D01*
X38212178Y-23211040D01*
X38212177Y-23211037D01*
X38165770Y-23130660D01*
X38165765Y-23130654D01*
X38100145Y-23065034D01*
X38100139Y-23065029D01*
X38019762Y-23018622D01*
X38019759Y-23018621D01*
X37930114Y-22994601D01*
X37930109Y-22994600D01*
X37930108Y-22994600D01*
X37837292Y-22994600D01*
X37837291Y-22994600D01*
X37837285Y-22994601D01*
X37747640Y-23018621D01*
X37747637Y-23018622D01*
X37667260Y-23065029D01*
X37667254Y-23065034D01*
X37601634Y-23130654D01*
X37601629Y-23130660D01*
X37555222Y-23211037D01*
X37555221Y-23211040D01*
X37531201Y-23300685D01*
X37531200Y-23300693D01*
X35786586Y-23300693D01*
X35736062Y-23271522D01*
X35736059Y-23271521D01*
X35646414Y-23247501D01*
X35646409Y-23247500D01*
X35646408Y-23247500D01*
X35553592Y-23247500D01*
X35553591Y-23247500D01*
X35553585Y-23247501D01*
X35463940Y-23271521D01*
X35463937Y-23271522D01*
X35383560Y-23317929D01*
X35383554Y-23317934D01*
X35317934Y-23383554D01*
X35317929Y-23383560D01*
X35271522Y-23463937D01*
X35271521Y-23463940D01*
X35247501Y-23553585D01*
X35247500Y-23553593D01*
X35247500Y-23646406D01*
X35247501Y-23646414D01*
X35271521Y-23736059D01*
X35271522Y-23736062D01*
X35317929Y-23816439D01*
X35317930Y-23816440D01*
X35379194Y-23877704D01*
X35397500Y-23921898D01*
X35397500Y-23990234D01*
X35381126Y-24029761D01*
X35381748Y-24030177D01*
X35379661Y-24033299D01*
X35379194Y-24034428D01*
X35378330Y-24035291D01*
X35378326Y-24035297D01*
X35347729Y-24109164D01*
X35334183Y-24129438D01*
X35328330Y-24135290D01*
X35328326Y-24135297D01*
X35297729Y-24209164D01*
X35284183Y-24229438D01*
X35278330Y-24235290D01*
X35278326Y-24235296D01*
X35247500Y-24309717D01*
X35247500Y-24340234D01*
X35231126Y-24379761D01*
X35231748Y-24380177D01*
X35229661Y-24383299D01*
X35229194Y-24384428D01*
X35228330Y-24385291D01*
X35228326Y-24385297D01*
X35197729Y-24459164D01*
X35184183Y-24479438D01*
X35178330Y-24485290D01*
X35178326Y-24485297D01*
X35147729Y-24559164D01*
X35134183Y-24579438D01*
X35128330Y-24585290D01*
X35128326Y-24585297D01*
X35097729Y-24659164D01*
X35084183Y-24679438D01*
X35078330Y-24685290D01*
X35078326Y-24685297D01*
X35047729Y-24759164D01*
X35034183Y-24779438D01*
X35028330Y-24785290D01*
X35028326Y-24785296D01*
X34997500Y-24859717D01*
X34997500Y-24890234D01*
X34981126Y-24929761D01*
X34981748Y-24930177D01*
X34979661Y-24933299D01*
X34979194Y-24934428D01*
X34978330Y-24935291D01*
X34978326Y-24935297D01*
X34947729Y-25009164D01*
X34934183Y-25029438D01*
X34928330Y-25035290D01*
X34928326Y-25035296D01*
X34897730Y-25109163D01*
X34884182Y-25129439D01*
X34878330Y-25135290D01*
X34878328Y-25135293D01*
X34869633Y-25156285D01*
X34835808Y-25190109D01*
X34828068Y-25192736D01*
X34813939Y-25196522D01*
X34813937Y-25196522D01*
X34733560Y-25242929D01*
X34733554Y-25242934D01*
X34667934Y-25308554D01*
X34667929Y-25308560D01*
X34621522Y-25388937D01*
X34621522Y-25388939D01*
X34597510Y-25478551D01*
X34568390Y-25516501D01*
X34520963Y-25522744D01*
X34492946Y-25506568D01*
X33764708Y-24778330D01*
X33764703Y-24778326D01*
X33690282Y-24747500D01*
X33690280Y-24747500D01*
X28609720Y-24747500D01*
X28609718Y-24747500D01*
X28587920Y-24756528D01*
X28587921Y-24756529D01*
X28535294Y-24778327D01*
X28535290Y-24778329D01*
X28529436Y-24784184D01*
X28509162Y-24797730D01*
X28487922Y-24806528D01*
X28487921Y-24806529D01*
X28435294Y-24828327D01*
X28435292Y-24828328D01*
X28235293Y-25028329D01*
X28178330Y-25085291D01*
X28178326Y-25085297D01*
X28147729Y-25159164D01*
X28134183Y-25179438D01*
X28128330Y-25185290D01*
X28128326Y-25185296D01*
X28097500Y-25259717D01*
X28097500Y-25690233D01*
X28079194Y-25734427D01*
X27985293Y-25828329D01*
X27928330Y-25885291D01*
X27928326Y-25885297D01*
X27897729Y-25959164D01*
X27884183Y-25979438D01*
X27878330Y-25985290D01*
X27878326Y-25985296D01*
X27847500Y-26059717D01*
X27847500Y-26140233D01*
X27829194Y-26184427D01*
X27435293Y-26578329D01*
X27378330Y-26635291D01*
X27378326Y-26635297D01*
X27347729Y-26709164D01*
X27334183Y-26729438D01*
X27328330Y-26735290D01*
X27328326Y-26735296D01*
X27297500Y-26809717D01*
X27297500Y-28290233D01*
X27279194Y-28334427D01*
X27035293Y-28578329D01*
X26978330Y-28635291D01*
X26978326Y-28635297D01*
X26947729Y-28709164D01*
X26934183Y-28729438D01*
X26928330Y-28735290D01*
X26928326Y-28735296D01*
X26897500Y-28809717D01*
X26897500Y-29140234D01*
X26879194Y-29184428D01*
X26778330Y-29285291D01*
X26778326Y-29285297D01*
X26747729Y-29359164D01*
X26734183Y-29379438D01*
X26728330Y-29385290D01*
X26728326Y-29385296D01*
X26697500Y-29459717D01*
X26697500Y-29890282D01*
X26728326Y-29964703D01*
X26728330Y-29964708D01*
X26734181Y-29970559D01*
X26747729Y-29990835D01*
X26778326Y-30064703D01*
X26778330Y-30064708D01*
X26779194Y-30065572D01*
X26779661Y-30066700D01*
X26781748Y-30069823D01*
X26781126Y-30070238D01*
X26797500Y-30109766D01*
X26797500Y-30540282D01*
X26828326Y-30614703D01*
X26828330Y-30614708D01*
X26834181Y-30620559D01*
X26847729Y-30640835D01*
X26878326Y-30714703D01*
X26878330Y-30714708D01*
X28061851Y-31898229D01*
X28080157Y-31942423D01*
X28061851Y-31986617D01*
X28033834Y-32002793D01*
X27963939Y-32021522D01*
X27963937Y-32021522D01*
X27883560Y-32067929D01*
X27883554Y-32067934D01*
X27817934Y-32133554D01*
X27817929Y-32133560D01*
X27771522Y-32213937D01*
X27771521Y-32213940D01*
X27747501Y-32303585D01*
X27747500Y-32303593D01*
X27747500Y-32396406D01*
X27747501Y-32396414D01*
X27771521Y-32486059D01*
X27771522Y-32486062D01*
X27817929Y-32566439D01*
X27817934Y-32566445D01*
X27883554Y-32632065D01*
X27883560Y-32632070D01*
X27963937Y-32678477D01*
X27963940Y-32678478D01*
X28053592Y-32702500D01*
X28053593Y-32702500D01*
X28146407Y-32702500D01*
X28146408Y-32702500D01*
X28236060Y-32678478D01*
X28316440Y-32632070D01*
X28382070Y-32566440D01*
X28428478Y-32486060D01*
X28452500Y-32396408D01*
X28452500Y-32389766D01*
X28470806Y-32345572D01*
X28515000Y-32327266D01*
X28559194Y-32345572D01*
X29279194Y-33065572D01*
X29297500Y-33109766D01*
X29297500Y-33290280D01*
X29327176Y-33361920D01*
X29327176Y-33361921D01*
X29327181Y-33361934D01*
X29328330Y-33364709D01*
X29334180Y-33370559D01*
X29347730Y-33390837D01*
X29378326Y-33464703D01*
X29378330Y-33464708D01*
X30029194Y-34115572D01*
X30047500Y-34159766D01*
X30047500Y-35140282D01*
X30078326Y-35214703D01*
X30078330Y-35214708D01*
X30084182Y-35220560D01*
X30097731Y-35240838D01*
X30109022Y-35268099D01*
X30110686Y-35272596D01*
X30120037Y-35301203D01*
X30123054Y-35306567D01*
X30122994Y-35306600D01*
X30124852Y-35309624D01*
X30124908Y-35309587D01*
X30128330Y-35314708D01*
X30149613Y-35335991D01*
X30152873Y-35339511D01*
X30237012Y-35437674D01*
X30251874Y-35483142D01*
X30249930Y-35494520D01*
X30247500Y-35503589D01*
X30247500Y-35596406D01*
X30247501Y-35596414D01*
X30271521Y-35686059D01*
X30271522Y-35686062D01*
X30317929Y-35766439D01*
X30317934Y-35766445D01*
X30383554Y-35832065D01*
X30383560Y-35832070D01*
X30463937Y-35878477D01*
X30463940Y-35878478D01*
X30553592Y-35902500D01*
X30553593Y-35902500D01*
X30646407Y-35902500D01*
X30646408Y-35902500D01*
X30736060Y-35878478D01*
X30779162Y-35853593D01*
X33947500Y-35853593D01*
X33947500Y-35946406D01*
X33947501Y-35946414D01*
X33971521Y-36036059D01*
X33971522Y-36036062D01*
X34017929Y-36116439D01*
X34017934Y-36116445D01*
X34083554Y-36182065D01*
X34083560Y-36182070D01*
X34163937Y-36228477D01*
X34163940Y-36228478D01*
X34253592Y-36252500D01*
X34253593Y-36252500D01*
X34346407Y-36252500D01*
X34346408Y-36252500D01*
X34436060Y-36228478D01*
X34516440Y-36182070D01*
X34582070Y-36116440D01*
X34628478Y-36036060D01*
X34652500Y-35946408D01*
X34652500Y-35853592D01*
X34628478Y-35763940D01*
X34628477Y-35763937D01*
X34582070Y-35683560D01*
X34582065Y-35683554D01*
X34516445Y-35617934D01*
X34516439Y-35617929D01*
X34448358Y-35578622D01*
X34436062Y-35571522D01*
X34436059Y-35571521D01*
X34346414Y-35547501D01*
X34346409Y-35547500D01*
X34346408Y-35547500D01*
X34253592Y-35547500D01*
X34253591Y-35547500D01*
X34253585Y-35547501D01*
X34163940Y-35571521D01*
X34163937Y-35571522D01*
X34083560Y-35617929D01*
X34083554Y-35617934D01*
X34017934Y-35683554D01*
X34017929Y-35683560D01*
X33971522Y-35763937D01*
X33971521Y-35763940D01*
X33947501Y-35853585D01*
X33947500Y-35853593D01*
X30779162Y-35853593D01*
X30816440Y-35832070D01*
X30828655Y-35819855D01*
X30843209Y-35805302D01*
X30882065Y-35766445D01*
X30882070Y-35766440D01*
X30921092Y-35698852D01*
X30928477Y-35686062D01*
X30928478Y-35686059D01*
X30932557Y-35670835D01*
X30952500Y-35596408D01*
X30952500Y-35528593D01*
X35047500Y-35528593D01*
X35047500Y-35621406D01*
X35047501Y-35621414D01*
X35071521Y-35711059D01*
X35071522Y-35711062D01*
X35117929Y-35791439D01*
X35117934Y-35791445D01*
X35183554Y-35857065D01*
X35183560Y-35857070D01*
X35263937Y-35903477D01*
X35263940Y-35903478D01*
X35353592Y-35927500D01*
X35353593Y-35927500D01*
X35446407Y-35927500D01*
X35446408Y-35927500D01*
X35536060Y-35903478D01*
X35537758Y-35902498D01*
X35556460Y-35891700D01*
X35616440Y-35857070D01*
X35682070Y-35791440D01*
X35728478Y-35711060D01*
X35752500Y-35621408D01*
X35752500Y-35528592D01*
X35728478Y-35438940D01*
X35728477Y-35438937D01*
X35682070Y-35358560D01*
X35682065Y-35358554D01*
X35616445Y-35292934D01*
X35616439Y-35292929D01*
X35536062Y-35246522D01*
X35536059Y-35246521D01*
X35446414Y-35222501D01*
X35446409Y-35222500D01*
X35446408Y-35222500D01*
X35353592Y-35222500D01*
X35353591Y-35222500D01*
X35353585Y-35222501D01*
X35263940Y-35246521D01*
X35263937Y-35246522D01*
X35183560Y-35292929D01*
X35183554Y-35292934D01*
X35117934Y-35358554D01*
X35117929Y-35358560D01*
X35071522Y-35438937D01*
X35071521Y-35438940D01*
X35047501Y-35528585D01*
X35047500Y-35528593D01*
X30952500Y-35528593D01*
X30952500Y-35503592D01*
X30928478Y-35413940D01*
X30928477Y-35413937D01*
X30903368Y-35370449D01*
X30897123Y-35323023D01*
X30926242Y-35285072D01*
X30930718Y-35282489D01*
X30993015Y-35246521D01*
X31006440Y-35238770D01*
X31072070Y-35173140D01*
X31118478Y-35092760D01*
X31142500Y-35003108D01*
X31142500Y-34910292D01*
X31118478Y-34820640D01*
X31118477Y-34820637D01*
X31072070Y-34740260D01*
X31072065Y-34740254D01*
X31006445Y-34674634D01*
X31006439Y-34674629D01*
X30970054Y-34653622D01*
X30926062Y-34628222D01*
X30926059Y-34628221D01*
X30836414Y-34604201D01*
X30836409Y-34604200D01*
X30836408Y-34604200D01*
X30743592Y-34604200D01*
X30743591Y-34604200D01*
X30743585Y-34604201D01*
X30653940Y-34628221D01*
X30653937Y-34628222D01*
X30573560Y-34674629D01*
X30573554Y-34674634D01*
X30559194Y-34688995D01*
X30515000Y-34707301D01*
X30470806Y-34688995D01*
X30452500Y-34644801D01*
X30452500Y-34603593D01*
X35397500Y-34603593D01*
X35397500Y-34696406D01*
X35397501Y-34696414D01*
X35421521Y-34786059D01*
X35421522Y-34786062D01*
X35467929Y-34866439D01*
X35467934Y-34866445D01*
X35533554Y-34932065D01*
X35533560Y-34932070D01*
X35613937Y-34978477D01*
X35613940Y-34978478D01*
X35703592Y-35002500D01*
X35703593Y-35002500D01*
X35796407Y-35002500D01*
X35796408Y-35002500D01*
X35886060Y-34978478D01*
X35966440Y-34932070D01*
X36032070Y-34866440D01*
X36078478Y-34786060D01*
X36102500Y-34696408D01*
X36102500Y-34603592D01*
X36078478Y-34513940D01*
X36078477Y-34513937D01*
X36032070Y-34433560D01*
X36032065Y-34433554D01*
X35966445Y-34367934D01*
X35966439Y-34367929D01*
X35886062Y-34321522D01*
X35886059Y-34321521D01*
X35796414Y-34297501D01*
X35796409Y-34297500D01*
X35796408Y-34297500D01*
X35703592Y-34297500D01*
X35703591Y-34297500D01*
X35703585Y-34297501D01*
X35613940Y-34321521D01*
X35613937Y-34321522D01*
X35533560Y-34367929D01*
X35533554Y-34367934D01*
X35467934Y-34433554D01*
X35467929Y-34433560D01*
X35421522Y-34513937D01*
X35421521Y-34513940D01*
X35397501Y-34603585D01*
X35397500Y-34603593D01*
X30452500Y-34603593D01*
X30452500Y-34009720D01*
X30452499Y-34009717D01*
X30421673Y-33935296D01*
X30421669Y-33935291D01*
X29765818Y-33279440D01*
X29752270Y-33259165D01*
X29721671Y-33185292D01*
X29721670Y-33185291D01*
X29721670Y-33185290D01*
X29720806Y-33184426D01*
X29702500Y-33140232D01*
X29702500Y-32986193D01*
X31539800Y-32986193D01*
X31539800Y-33079006D01*
X31539801Y-33079014D01*
X31563821Y-33168659D01*
X31563822Y-33168662D01*
X31610229Y-33249039D01*
X31610234Y-33249045D01*
X31675854Y-33314665D01*
X31675860Y-33314670D01*
X31756237Y-33361077D01*
X31756240Y-33361078D01*
X31845892Y-33385100D01*
X31845893Y-33385100D01*
X31938707Y-33385100D01*
X31938708Y-33385100D01*
X32028360Y-33361078D01*
X32108740Y-33314670D01*
X32174370Y-33249040D01*
X32220778Y-33168660D01*
X32244800Y-33079008D01*
X32244800Y-32986192D01*
X32220778Y-32896540D01*
X32220777Y-32896537D01*
X32174370Y-32816160D01*
X32174365Y-32816154D01*
X32108745Y-32750534D01*
X32108739Y-32750529D01*
X32028362Y-32704122D01*
X32028359Y-32704121D01*
X31938714Y-32680101D01*
X31938709Y-32680100D01*
X31938708Y-32680100D01*
X31845892Y-32680100D01*
X31845891Y-32680100D01*
X31845885Y-32680101D01*
X31756240Y-32704121D01*
X31756237Y-32704122D01*
X31675860Y-32750529D01*
X31675854Y-32750534D01*
X31610234Y-32816154D01*
X31610229Y-32816160D01*
X31563822Y-32896537D01*
X31563821Y-32896540D01*
X31539801Y-32986185D01*
X31539800Y-32986193D01*
X29702500Y-32986193D01*
X29702500Y-32959722D01*
X29702500Y-32959720D01*
X29686379Y-32920800D01*
X29671672Y-32885293D01*
X28933971Y-32147593D01*
X31081300Y-32147593D01*
X31081300Y-32240406D01*
X31081301Y-32240414D01*
X31105321Y-32330059D01*
X31105322Y-32330062D01*
X31151729Y-32410439D01*
X31151734Y-32410445D01*
X31217354Y-32476065D01*
X31217360Y-32476070D01*
X31297737Y-32522477D01*
X31297740Y-32522478D01*
X31387392Y-32546500D01*
X31387393Y-32546500D01*
X31480207Y-32546500D01*
X31480208Y-32546500D01*
X31569860Y-32522478D01*
X31575992Y-32518938D01*
X31602547Y-32503606D01*
X31650240Y-32476070D01*
X31715517Y-32410793D01*
X33909900Y-32410793D01*
X33909900Y-32503606D01*
X33909901Y-32503614D01*
X33933921Y-32593259D01*
X33933922Y-32593262D01*
X33980329Y-32673639D01*
X33980334Y-32673645D01*
X34045954Y-32739265D01*
X34045960Y-32739270D01*
X34126337Y-32785677D01*
X34126340Y-32785678D01*
X34215992Y-32809700D01*
X34215993Y-32809700D01*
X34308807Y-32809700D01*
X34308808Y-32809700D01*
X34398460Y-32785678D01*
X34478840Y-32739270D01*
X34544470Y-32673640D01*
X34590878Y-32593260D01*
X34614900Y-32503608D01*
X34614900Y-32410792D01*
X34590878Y-32321140D01*
X34590877Y-32321137D01*
X34544470Y-32240760D01*
X34544465Y-32240754D01*
X34478845Y-32175134D01*
X34478839Y-32175129D01*
X34398462Y-32128722D01*
X34398459Y-32128721D01*
X34308814Y-32104701D01*
X34308809Y-32104700D01*
X34308808Y-32104700D01*
X34215992Y-32104700D01*
X34215991Y-32104700D01*
X34215985Y-32104701D01*
X34126340Y-32128721D01*
X34126337Y-32128722D01*
X34045960Y-32175129D01*
X34045954Y-32175134D01*
X33980334Y-32240754D01*
X33980329Y-32240760D01*
X33933922Y-32321137D01*
X33933921Y-32321140D01*
X33909901Y-32410785D01*
X33909900Y-32410793D01*
X31715517Y-32410793D01*
X31715870Y-32410440D01*
X31730103Y-32385788D01*
X31736075Y-32375445D01*
X31736076Y-32375444D01*
X31762275Y-32330065D01*
X31762277Y-32330062D01*
X31762278Y-32330060D01*
X31786300Y-32240408D01*
X31786300Y-32147592D01*
X31762278Y-32057940D01*
X31762277Y-32057937D01*
X31715870Y-31977560D01*
X31715865Y-31977554D01*
X31650245Y-31911934D01*
X31650239Y-31911929D01*
X31569862Y-31865522D01*
X31569859Y-31865521D01*
X31480214Y-31841501D01*
X31480209Y-31841500D01*
X31480208Y-31841500D01*
X31387392Y-31841500D01*
X31387391Y-31841500D01*
X31387385Y-31841501D01*
X31297740Y-31865521D01*
X31297737Y-31865522D01*
X31217360Y-31911929D01*
X31217354Y-31911934D01*
X31151734Y-31977554D01*
X31151729Y-31977560D01*
X31105322Y-32057937D01*
X31105321Y-32057940D01*
X31081301Y-32147585D01*
X31081300Y-32147593D01*
X28933971Y-32147593D01*
X28464707Y-31678329D01*
X28464706Y-31678328D01*
X28464703Y-31678326D01*
X28390835Y-31647729D01*
X28370559Y-31634181D01*
X28145572Y-31409194D01*
X28130072Y-31371773D01*
X32829319Y-31371773D01*
X32829319Y-31464586D01*
X32829320Y-31464594D01*
X32853340Y-31554239D01*
X32853341Y-31554242D01*
X32899748Y-31634619D01*
X32899753Y-31634625D01*
X32965373Y-31700245D01*
X32965379Y-31700250D01*
X33045756Y-31746657D01*
X33045759Y-31746658D01*
X33135411Y-31770680D01*
X33135412Y-31770680D01*
X33228226Y-31770680D01*
X33228227Y-31770680D01*
X33317879Y-31746658D01*
X33320812Y-31744965D01*
X33334867Y-31736849D01*
X33398259Y-31700250D01*
X33463889Y-31634620D01*
X33502394Y-31567929D01*
X33510296Y-31554242D01*
X33510297Y-31554239D01*
X33512394Y-31546414D01*
X33534319Y-31464588D01*
X33534319Y-31453593D01*
X36597500Y-31453593D01*
X36597500Y-31546406D01*
X36597501Y-31546414D01*
X36621521Y-31636059D01*
X36621522Y-31636062D01*
X36667929Y-31716439D01*
X36667934Y-31716445D01*
X36733554Y-31782065D01*
X36733560Y-31782070D01*
X36813937Y-31828477D01*
X36813940Y-31828478D01*
X36903592Y-31852500D01*
X36903593Y-31852500D01*
X36996407Y-31852500D01*
X36996408Y-31852500D01*
X37086060Y-31828478D01*
X37166440Y-31782070D01*
X37232070Y-31716440D01*
X37278478Y-31636060D01*
X37302500Y-31546408D01*
X37302500Y-31453592D01*
X37278478Y-31363940D01*
X37278477Y-31363937D01*
X37232070Y-31283560D01*
X37232065Y-31283554D01*
X37166445Y-31217934D01*
X37166439Y-31217929D01*
X37086062Y-31171522D01*
X37086059Y-31171521D01*
X36996414Y-31147501D01*
X36996409Y-31147500D01*
X36996408Y-31147500D01*
X36903592Y-31147500D01*
X36903591Y-31147500D01*
X36903585Y-31147501D01*
X36813940Y-31171521D01*
X36813937Y-31171522D01*
X36733560Y-31217929D01*
X36733554Y-31217934D01*
X36667934Y-31283554D01*
X36667929Y-31283560D01*
X36621522Y-31363937D01*
X36621521Y-31363940D01*
X36597501Y-31453585D01*
X36597500Y-31453593D01*
X33534319Y-31453593D01*
X33534319Y-31371772D01*
X33510297Y-31282120D01*
X33510296Y-31282117D01*
X33463889Y-31201740D01*
X33463884Y-31201734D01*
X33398264Y-31136114D01*
X33398258Y-31136109D01*
X33317881Y-31089702D01*
X33317878Y-31089701D01*
X33228233Y-31065681D01*
X33228228Y-31065680D01*
X33228227Y-31065680D01*
X33135411Y-31065680D01*
X33135410Y-31065680D01*
X33135404Y-31065681D01*
X33045759Y-31089701D01*
X33045756Y-31089702D01*
X32965379Y-31136109D01*
X32965373Y-31136114D01*
X32899753Y-31201734D01*
X32899748Y-31201740D01*
X32853341Y-31282117D01*
X32853340Y-31282120D01*
X32829320Y-31371765D01*
X32829319Y-31371773D01*
X28130072Y-31371773D01*
X28127266Y-31365000D01*
X28145572Y-31320806D01*
X28189766Y-31302500D01*
X28196407Y-31302500D01*
X28196408Y-31302500D01*
X28286060Y-31278478D01*
X28366440Y-31232070D01*
X28373526Y-31224983D01*
X28417718Y-31206676D01*
X28431273Y-31208163D01*
X28536978Y-31231653D01*
X28547334Y-31234921D01*
X28562008Y-31241000D01*
X28572173Y-31241000D01*
X28585730Y-31242488D01*
X28595653Y-31244693D01*
X28609963Y-31242177D01*
X28611290Y-31241944D01*
X28622112Y-31241000D01*
X28637991Y-31241000D01*
X28637992Y-31241000D01*
X28647382Y-31237109D01*
X28660476Y-31233296D01*
X28670491Y-31231536D01*
X28683893Y-31223006D01*
X28693510Y-31218003D01*
X28708193Y-31211922D01*
X28715378Y-31204736D01*
X28726017Y-31196200D01*
X28734596Y-31190742D01*
X28743712Y-31177735D01*
X28750687Y-31169426D01*
X29361922Y-30558193D01*
X29391000Y-30487992D01*
X29391000Y-30412008D01*
X29391000Y-29389893D01*
X31564400Y-29389893D01*
X31564400Y-29482706D01*
X31564401Y-29482714D01*
X31588421Y-29572359D01*
X31588422Y-29572362D01*
X31634829Y-29652739D01*
X31634834Y-29652745D01*
X31700454Y-29718365D01*
X31700460Y-29718370D01*
X31780837Y-29764777D01*
X31780840Y-29764778D01*
X31870492Y-29788800D01*
X31870493Y-29788800D01*
X31963307Y-29788800D01*
X31963308Y-29788800D01*
X32052960Y-29764778D01*
X32061548Y-29759820D01*
X32069948Y-29754969D01*
X32133340Y-29718370D01*
X32148117Y-29703593D01*
X43247500Y-29703593D01*
X43247500Y-29796406D01*
X43247501Y-29796414D01*
X43271521Y-29886059D01*
X43271522Y-29886062D01*
X43317929Y-29966439D01*
X43317934Y-29966445D01*
X43383554Y-30032065D01*
X43383560Y-30032070D01*
X43463937Y-30078477D01*
X43463940Y-30078478D01*
X43553592Y-30102500D01*
X43553593Y-30102500D01*
X43646407Y-30102500D01*
X43646408Y-30102500D01*
X43736060Y-30078478D01*
X43773221Y-30057021D01*
X43820647Y-30050776D01*
X43828716Y-30053541D01*
X44369672Y-30281312D01*
X44403299Y-30315333D01*
X44403020Y-30363168D01*
X44376669Y-30393040D01*
X44333560Y-30417929D01*
X44333554Y-30417934D01*
X44267934Y-30483554D01*
X44267929Y-30483560D01*
X44221522Y-30563937D01*
X44221521Y-30563940D01*
X44197501Y-30653585D01*
X44197500Y-30653593D01*
X44197500Y-30746406D01*
X44197501Y-30746414D01*
X44221521Y-30836059D01*
X44221522Y-30836062D01*
X44267929Y-30916439D01*
X44267934Y-30916445D01*
X44333554Y-30982065D01*
X44333560Y-30982070D01*
X44413937Y-31028477D01*
X44413940Y-31028478D01*
X44503592Y-31052500D01*
X44503593Y-31052500D01*
X44596407Y-31052500D01*
X44596408Y-31052500D01*
X44686060Y-31028478D01*
X44703079Y-31018652D01*
X44750505Y-31012406D01*
X44788456Y-31041525D01*
X44794702Y-31088950D01*
X44792201Y-31098285D01*
X44792200Y-31098293D01*
X44792200Y-31191106D01*
X44792201Y-31191114D01*
X44816221Y-31280759D01*
X44816222Y-31280762D01*
X44862629Y-31361139D01*
X44862634Y-31361145D01*
X44928254Y-31426765D01*
X44928260Y-31426770D01*
X45008637Y-31473177D01*
X45008640Y-31473178D01*
X45098292Y-31497200D01*
X45098293Y-31497200D01*
X45191107Y-31497200D01*
X45191108Y-31497200D01*
X45280760Y-31473178D01*
X45320436Y-31450270D01*
X45367859Y-31444026D01*
X45405811Y-31473145D01*
X45414077Y-31508068D01*
X45409392Y-31587702D01*
X45409362Y-31588186D01*
X45406893Y-31625233D01*
X45406960Y-31625711D01*
X45407026Y-31626206D01*
X45407087Y-31626677D01*
X45407099Y-31626711D01*
X45415098Y-31649770D01*
X45419244Y-31661719D01*
X45419392Y-31662154D01*
X45426894Y-31684334D01*
X45431251Y-31697214D01*
X45431547Y-31697719D01*
X45431806Y-31698166D01*
X45431985Y-31698477D01*
X45432004Y-31698498D01*
X45456680Y-31726259D01*
X45456891Y-31726498D01*
X45481295Y-31754388D01*
X45481722Y-31754711D01*
X45482088Y-31754990D01*
X45482459Y-31755275D01*
X45482482Y-31755286D01*
X45482485Y-31755289D01*
X45515811Y-31771446D01*
X45516206Y-31771640D01*
X45549403Y-31788058D01*
X45549813Y-31788165D01*
X45550262Y-31788284D01*
X45550832Y-31788437D01*
X45550856Y-31788438D01*
X45550858Y-31788439D01*
X45587846Y-31790614D01*
X45588040Y-31790625D01*
X45625203Y-31793104D01*
X45625204Y-31793103D01*
X45625226Y-31793105D01*
X45625754Y-31793032D01*
X45626218Y-31792970D01*
X45626688Y-31792908D01*
X45626708Y-31792900D01*
X45626711Y-31792901D01*
X45661922Y-31780685D01*
X45697182Y-31768760D01*
X45697183Y-31768759D01*
X45697204Y-31768752D01*
X45697675Y-31768477D01*
X45698074Y-31768245D01*
X45698483Y-31768009D01*
X45698498Y-31767996D01*
X45726394Y-31743199D01*
X45754366Y-31718724D01*
X45754367Y-31718720D01*
X45754382Y-31718708D01*
X45754775Y-31718191D01*
X45755039Y-31717845D01*
X45755281Y-31717529D01*
X45755286Y-31717516D01*
X45755289Y-31717515D01*
X45771529Y-31684017D01*
X45788050Y-31650613D01*
X45788050Y-31650609D01*
X45788059Y-31650592D01*
X45788166Y-31650186D01*
X45788276Y-31649770D01*
X45788438Y-31649167D01*
X45790602Y-31612360D01*
X45790625Y-31611983D01*
X45838413Y-30895149D01*
X45841484Y-30879542D01*
X45843213Y-30874357D01*
X45841756Y-30853866D01*
X45841738Y-30845275D01*
X45843104Y-30824799D01*
X45843103Y-30824798D01*
X45843104Y-30824797D01*
X45842523Y-30823081D01*
X45840430Y-30790857D01*
X45841000Y-30787992D01*
X45841000Y-30757440D01*
X45841108Y-30753769D01*
X45842901Y-30723292D01*
X45842114Y-30717608D01*
X45841000Y-30712013D01*
X45841000Y-30712008D01*
X45829305Y-30683773D01*
X45828015Y-30680382D01*
X45817996Y-30651502D01*
X45817994Y-30651500D01*
X45817994Y-30651499D01*
X45815104Y-30646569D01*
X45811921Y-30641805D01*
X45790330Y-30620215D01*
X45787810Y-30617543D01*
X45785289Y-30614707D01*
X45767515Y-30594711D01*
X45767512Y-30594709D01*
X45762607Y-30590997D01*
X45762972Y-30590514D01*
X45754846Y-30584731D01*
X45714146Y-30544031D01*
X45702439Y-30527788D01*
X45675186Y-30473283D01*
X45673211Y-30468924D01*
X45662550Y-30442752D01*
X45662549Y-30442751D01*
X45659160Y-30437615D01*
X45659276Y-30437537D01*
X45657729Y-30435376D01*
X45657618Y-30435463D01*
X45653844Y-30430599D01*
X45632501Y-30412090D01*
X45628999Y-30408809D01*
X45609135Y-30388712D01*
X45604036Y-30385262D01*
X45604113Y-30385146D01*
X45601858Y-30383743D01*
X45601789Y-30383865D01*
X45596443Y-30380817D01*
X45596442Y-30380816D01*
X45569628Y-30371877D01*
X45565155Y-30370193D01*
X45534614Y-30357334D01*
X45516524Y-30342577D01*
X45514998Y-30344142D01*
X45484480Y-30314359D01*
X45483938Y-30313823D01*
X45458140Y-30288025D01*
X45457522Y-30287623D01*
X45456878Y-30287199D01*
X45456275Y-30286796D01*
X45422319Y-30273213D01*
X45421615Y-30272927D01*
X45385280Y-30257876D01*
X45380229Y-30256378D01*
X43976063Y-29694712D01*
X43941828Y-29661302D01*
X43938909Y-29652872D01*
X43928478Y-29613940D01*
X43882070Y-29533560D01*
X43882065Y-29533554D01*
X43816445Y-29467934D01*
X43816439Y-29467929D01*
X43736062Y-29421522D01*
X43736059Y-29421521D01*
X43646414Y-29397501D01*
X43646409Y-29397500D01*
X43646408Y-29397500D01*
X43553592Y-29397500D01*
X43553591Y-29397500D01*
X43553585Y-29397501D01*
X43463940Y-29421521D01*
X43463937Y-29421522D01*
X43383560Y-29467929D01*
X43383554Y-29467934D01*
X43317934Y-29533554D01*
X43317929Y-29533560D01*
X43271522Y-29613937D01*
X43271521Y-29613940D01*
X43247501Y-29703585D01*
X43247500Y-29703593D01*
X32148117Y-29703593D01*
X32156998Y-29694712D01*
X32196409Y-29655302D01*
X32198965Y-29652745D01*
X32198970Y-29652740D01*
X32245378Y-29572360D01*
X32269400Y-29482708D01*
X32269400Y-29389892D01*
X32245378Y-29300240D01*
X32245377Y-29300237D01*
X32218131Y-29253047D01*
X32202453Y-29225893D01*
X38521900Y-29225893D01*
X38521900Y-29318706D01*
X38521901Y-29318714D01*
X38545921Y-29408359D01*
X38545922Y-29408362D01*
X38592329Y-29488739D01*
X38592334Y-29488745D01*
X38657954Y-29554365D01*
X38657960Y-29554370D01*
X38738337Y-29600777D01*
X38738340Y-29600778D01*
X38827992Y-29624800D01*
X38827993Y-29624800D01*
X38920807Y-29624800D01*
X38920808Y-29624800D01*
X39010460Y-29600778D01*
X39090840Y-29554370D01*
X39156470Y-29488740D01*
X39202878Y-29408360D01*
X39226900Y-29318708D01*
X39226900Y-29225892D01*
X39222944Y-29211129D01*
X39220925Y-29203593D01*
X42097500Y-29203593D01*
X42097500Y-29296406D01*
X42097501Y-29296414D01*
X42121521Y-29386059D01*
X42121522Y-29386062D01*
X42167929Y-29466439D01*
X42167934Y-29466445D01*
X42233554Y-29532065D01*
X42233560Y-29532070D01*
X42313937Y-29578477D01*
X42313940Y-29578478D01*
X42403592Y-29602500D01*
X42403593Y-29602500D01*
X42496407Y-29602500D01*
X42496408Y-29602500D01*
X42586060Y-29578478D01*
X42666440Y-29532070D01*
X42732070Y-29466440D01*
X42768669Y-29403048D01*
X42778477Y-29386062D01*
X42778478Y-29386059D01*
X42802500Y-29296408D01*
X42802500Y-29203592D01*
X42778478Y-29113940D01*
X42778477Y-29113937D01*
X42732070Y-29033560D01*
X42732065Y-29033554D01*
X42666445Y-28967934D01*
X42666439Y-28967929D01*
X42586062Y-28921522D01*
X42586059Y-28921521D01*
X42496414Y-28897501D01*
X42496409Y-28897500D01*
X42496408Y-28897500D01*
X42403592Y-28897500D01*
X42403591Y-28897500D01*
X42403585Y-28897501D01*
X42313940Y-28921521D01*
X42313937Y-28921522D01*
X42233560Y-28967929D01*
X42233554Y-28967934D01*
X42167934Y-29033554D01*
X42167929Y-29033560D01*
X42121522Y-29113937D01*
X42121521Y-29113940D01*
X42097501Y-29203585D01*
X42097500Y-29203593D01*
X39220925Y-29203593D01*
X39202878Y-29136240D01*
X39202877Y-29136237D01*
X39156470Y-29055860D01*
X39156465Y-29055854D01*
X39090845Y-28990234D01*
X39090839Y-28990229D01*
X39010462Y-28943822D01*
X39010459Y-28943821D01*
X38920814Y-28919801D01*
X38920809Y-28919800D01*
X38920808Y-28919800D01*
X38827992Y-28919800D01*
X38827991Y-28919800D01*
X38827985Y-28919801D01*
X38738340Y-28943821D01*
X38738337Y-28943822D01*
X38657960Y-28990229D01*
X38657954Y-28990234D01*
X38592334Y-29055854D01*
X38592329Y-29055860D01*
X38545922Y-29136237D01*
X38545921Y-29136240D01*
X38521901Y-29225885D01*
X38521900Y-29225893D01*
X32202453Y-29225893D01*
X32198970Y-29219860D01*
X32198965Y-29219854D01*
X32133345Y-29154234D01*
X32133339Y-29154229D01*
X32052962Y-29107822D01*
X32052959Y-29107821D01*
X31963314Y-29083801D01*
X31963309Y-29083800D01*
X31963308Y-29083800D01*
X31870492Y-29083800D01*
X31870491Y-29083800D01*
X31870485Y-29083801D01*
X31780840Y-29107821D01*
X31780837Y-29107822D01*
X31700460Y-29154229D01*
X31700454Y-29154234D01*
X31634834Y-29219854D01*
X31634829Y-29219860D01*
X31588422Y-29300237D01*
X31588421Y-29300240D01*
X31564401Y-29389885D01*
X31564400Y-29389893D01*
X29391000Y-29389893D01*
X29391000Y-29312008D01*
X29361922Y-29241807D01*
X29308193Y-29188078D01*
X29237992Y-29159000D01*
X29237991Y-29159000D01*
X28132415Y-29159000D01*
X28131308Y-29158541D01*
X28130188Y-29158960D01*
X28116688Y-29156989D01*
X28111292Y-29155586D01*
X28111291Y-29155586D01*
X28091059Y-29158403D01*
X28082440Y-29159000D01*
X28064211Y-29159000D01*
X28020017Y-29140694D01*
X28001711Y-29096500D01*
X28002245Y-29088346D01*
X28002500Y-29086408D01*
X28002500Y-29024100D01*
X28002958Y-29022993D01*
X28002540Y-29021873D01*
X28012045Y-29001056D01*
X28020806Y-28979906D01*
X28021911Y-28979447D01*
X28022409Y-28978359D01*
X28043853Y-28970359D01*
X28065000Y-28961600D01*
X28139407Y-28961600D01*
X28139408Y-28961600D01*
X28229060Y-28937578D01*
X28309440Y-28891170D01*
X28375070Y-28825540D01*
X28421478Y-28745160D01*
X28445500Y-28655508D01*
X28445500Y-28562692D01*
X28421478Y-28473040D01*
X28421477Y-28473037D01*
X28375070Y-28392660D01*
X28375065Y-28392654D01*
X28309445Y-28327034D01*
X28309439Y-28327029D01*
X28229062Y-28280622D01*
X28229059Y-28280621D01*
X28139414Y-28256601D01*
X28139409Y-28256600D01*
X28139408Y-28256600D01*
X28046592Y-28256600D01*
X28046591Y-28256600D01*
X28046585Y-28256601D01*
X27956940Y-28280621D01*
X27956937Y-28280622D01*
X27876560Y-28327029D01*
X27876554Y-28327034D01*
X27809194Y-28394395D01*
X27765000Y-28412701D01*
X27720806Y-28394395D01*
X27702500Y-28350201D01*
X27702500Y-27351899D01*
X27720806Y-27307705D01*
X27765000Y-27289399D01*
X27809194Y-27307705D01*
X27833554Y-27332065D01*
X27833560Y-27332070D01*
X27913937Y-27378477D01*
X27913940Y-27378478D01*
X28003592Y-27402500D01*
X28003593Y-27402500D01*
X28090234Y-27402500D01*
X28134428Y-27420806D01*
X29585293Y-28871671D01*
X29585294Y-28871671D01*
X29585296Y-28871673D01*
X29659717Y-28902499D01*
X29659720Y-28902500D01*
X29740279Y-28902500D01*
X30551174Y-28902500D01*
X30595368Y-28920806D01*
X30611544Y-28948823D01*
X30621522Y-28986060D01*
X30621522Y-28986062D01*
X30667929Y-29066439D01*
X30667934Y-29066445D01*
X30733554Y-29132065D01*
X30733560Y-29132070D01*
X30813937Y-29178477D01*
X30813940Y-29178478D01*
X30903592Y-29202500D01*
X30903593Y-29202500D01*
X30996407Y-29202500D01*
X30996408Y-29202500D01*
X31086060Y-29178478D01*
X31090169Y-29176106D01*
X31109886Y-29164722D01*
X31166440Y-29132070D01*
X31232070Y-29066440D01*
X31276068Y-28990234D01*
X31278477Y-28986062D01*
X31278478Y-28986059D01*
X31285032Y-28961600D01*
X31302500Y-28896408D01*
X31302500Y-28803592D01*
X31278478Y-28713940D01*
X31278477Y-28713937D01*
X31232070Y-28633560D01*
X31232065Y-28633554D01*
X31166445Y-28567934D01*
X31166439Y-28567929D01*
X31086062Y-28521522D01*
X31086059Y-28521521D01*
X30996414Y-28497501D01*
X30996409Y-28497500D01*
X30996408Y-28497500D01*
X30903592Y-28497500D01*
X30903588Y-28497500D01*
X30885638Y-28502310D01*
X30845548Y-28499682D01*
X30840281Y-28497500D01*
X30840280Y-28497500D01*
X29809766Y-28497500D01*
X29765572Y-28479194D01*
X28420806Y-27134428D01*
X28402500Y-27090234D01*
X28402500Y-27003593D01*
X28402498Y-27003585D01*
X28401579Y-27000157D01*
X28378478Y-26913940D01*
X28378477Y-26913937D01*
X28332070Y-26833560D01*
X28332065Y-26833554D01*
X28266445Y-26767934D01*
X28266439Y-26767929D01*
X28186062Y-26721522D01*
X28186059Y-26721521D01*
X28096414Y-26697501D01*
X28096409Y-26697500D01*
X28096408Y-26697500D01*
X28039767Y-26697500D01*
X27995573Y-26679194D01*
X27977267Y-26635000D01*
X27995573Y-26590806D01*
X28030624Y-26555753D01*
X28167736Y-26418642D01*
X28211927Y-26400338D01*
X28256121Y-26418644D01*
X28269669Y-26438920D01*
X28270720Y-26441457D01*
X28317129Y-26521839D01*
X28317134Y-26521845D01*
X28382754Y-26587465D01*
X28382760Y-26587470D01*
X28463137Y-26633877D01*
X28463140Y-26633878D01*
X28552792Y-26657900D01*
X28552793Y-26657900D01*
X28645607Y-26657900D01*
X28645608Y-26657900D01*
X28735260Y-26633878D01*
X28815640Y-26587470D01*
X28881270Y-26521840D01*
X28920673Y-26453593D01*
X28927677Y-26441462D01*
X28927678Y-26441459D01*
X28928359Y-26438920D01*
X28932981Y-26421670D01*
X28937825Y-26403593D01*
X31647500Y-26403593D01*
X31647500Y-26496406D01*
X31647501Y-26496414D01*
X31671521Y-26586059D01*
X31671522Y-26586062D01*
X31717929Y-26666439D01*
X31717934Y-26666445D01*
X31783554Y-26732065D01*
X31783560Y-26732070D01*
X31863937Y-26778477D01*
X31863940Y-26778478D01*
X31953592Y-26802500D01*
X31953593Y-26802500D01*
X32046407Y-26802500D01*
X32046408Y-26802500D01*
X32136060Y-26778478D01*
X32216440Y-26732070D01*
X32282070Y-26666440D01*
X32328478Y-26586060D01*
X32352500Y-26496408D01*
X32352500Y-26403592D01*
X32328478Y-26313940D01*
X32328477Y-26313937D01*
X32282070Y-26233560D01*
X32282065Y-26233554D01*
X32216445Y-26167934D01*
X32216439Y-26167929D01*
X32136062Y-26121522D01*
X32136059Y-26121521D01*
X32046414Y-26097501D01*
X32046409Y-26097500D01*
X32046408Y-26097500D01*
X31953592Y-26097500D01*
X31953591Y-26097500D01*
X31953585Y-26097501D01*
X31863940Y-26121521D01*
X31863937Y-26121522D01*
X31783560Y-26167929D01*
X31783554Y-26167934D01*
X31717934Y-26233554D01*
X31717929Y-26233560D01*
X31671522Y-26313937D01*
X31671521Y-26313940D01*
X31647501Y-26403585D01*
X31647500Y-26403593D01*
X28937825Y-26403593D01*
X28943257Y-26383320D01*
X28948450Y-26363937D01*
X28951700Y-26351808D01*
X28951700Y-26258992D01*
X28927678Y-26169340D01*
X28927677Y-26169337D01*
X28881270Y-26088960D01*
X28881265Y-26088954D01*
X28815645Y-26023334D01*
X28815639Y-26023329D01*
X28735262Y-25976922D01*
X28735259Y-25976921D01*
X28671608Y-25959866D01*
X28645614Y-25952901D01*
X28645609Y-25952900D01*
X28645608Y-25952900D01*
X28552792Y-25952900D01*
X28549389Y-25952900D01*
X28505195Y-25934594D01*
X28492354Y-25903593D01*
X30147500Y-25903593D01*
X30147500Y-25996406D01*
X30147501Y-25996414D01*
X30171521Y-26086059D01*
X30171522Y-26086062D01*
X30217929Y-26166439D01*
X30217934Y-26166445D01*
X30283554Y-26232065D01*
X30283560Y-26232070D01*
X30363937Y-26278477D01*
X30363940Y-26278478D01*
X30453592Y-26302500D01*
X30453593Y-26302500D01*
X30546407Y-26302500D01*
X30546408Y-26302500D01*
X30636060Y-26278478D01*
X30716440Y-26232070D01*
X30782070Y-26166440D01*
X30821109Y-26098824D01*
X30828477Y-26086062D01*
X30828478Y-26086059D01*
X30852500Y-25996408D01*
X30852500Y-25903592D01*
X30828478Y-25813940D01*
X30828477Y-25813937D01*
X30782070Y-25733560D01*
X30782065Y-25733554D01*
X30716445Y-25667934D01*
X30716439Y-25667929D01*
X30636062Y-25621522D01*
X30636059Y-25621521D01*
X30546414Y-25597501D01*
X30546409Y-25597500D01*
X30546408Y-25597500D01*
X30453592Y-25597500D01*
X30453591Y-25597500D01*
X30453585Y-25597501D01*
X30363940Y-25621521D01*
X30363937Y-25621522D01*
X30283560Y-25667929D01*
X30283554Y-25667934D01*
X30217934Y-25733554D01*
X30217929Y-25733560D01*
X30171522Y-25813937D01*
X30171521Y-25813940D01*
X30147501Y-25903585D01*
X30147500Y-25903593D01*
X28492354Y-25903593D01*
X28486889Y-25890400D01*
X28491646Y-25866483D01*
X28502500Y-25840279D01*
X28502500Y-25759720D01*
X28502500Y-25409766D01*
X28518873Y-25370237D01*
X28518253Y-25369823D01*
X28520336Y-25366704D01*
X28520805Y-25365573D01*
X28521672Y-25364707D01*
X28544534Y-25309512D01*
X28552269Y-25290835D01*
X28565812Y-25270565D01*
X28620566Y-25215812D01*
X28640834Y-25202270D01*
X28714707Y-25171671D01*
X28715572Y-25170806D01*
X28716700Y-25170338D01*
X28719823Y-25168252D01*
X28720238Y-25168873D01*
X28759766Y-25152500D01*
X33540234Y-25152500D01*
X33584427Y-25170805D01*
X34535293Y-26121672D01*
X34580106Y-26140233D01*
X34587921Y-26143470D01*
X34587922Y-26143471D01*
X34609162Y-26152269D01*
X34629438Y-26165817D01*
X34635293Y-26171672D01*
X34687921Y-26193470D01*
X34687923Y-26193471D01*
X34709719Y-26202500D01*
X34709720Y-26202500D01*
X34709721Y-26202500D01*
X34790280Y-26202500D01*
X38106533Y-26202500D01*
X38150727Y-26220806D01*
X38169033Y-26265000D01*
X38166903Y-26281176D01*
X38147501Y-26353585D01*
X38147500Y-26353593D01*
X38147500Y-26446406D01*
X38147501Y-26446414D01*
X38171521Y-26536059D01*
X38171524Y-26536065D01*
X38202808Y-26590250D01*
X38209052Y-26637676D01*
X38179932Y-26675626D01*
X38148682Y-26684000D01*
X33862992Y-26684000D01*
X33787008Y-26684000D01*
X33754414Y-26697501D01*
X33738137Y-26704243D01*
X33714220Y-26709000D01*
X33712008Y-26709000D01*
X33641808Y-26738077D01*
X33618273Y-26761611D01*
X33598000Y-26775157D01*
X33566805Y-26788079D01*
X33552387Y-26802498D01*
X33513078Y-26841807D01*
X33214191Y-27140694D01*
X33169997Y-27159000D01*
X32482413Y-27159000D01*
X32438219Y-27140694D01*
X32432829Y-27134548D01*
X32432070Y-27133559D01*
X32366445Y-27067934D01*
X32366439Y-27067929D01*
X32286062Y-27021522D01*
X32286059Y-27021521D01*
X32196414Y-26997501D01*
X32196409Y-26997500D01*
X32196408Y-26997500D01*
X32103592Y-26997500D01*
X32103591Y-26997500D01*
X32103585Y-26997501D01*
X32013940Y-27021521D01*
X32013937Y-27021522D01*
X31933560Y-27067929D01*
X31933554Y-27067934D01*
X31867934Y-27133554D01*
X31867929Y-27133560D01*
X31821522Y-27213937D01*
X31821521Y-27213940D01*
X31797501Y-27303585D01*
X31797500Y-27303593D01*
X31797500Y-27396406D01*
X31797501Y-27396414D01*
X31821521Y-27486059D01*
X31821522Y-27486062D01*
X31867929Y-27566439D01*
X31867934Y-27566445D01*
X31933554Y-27632065D01*
X31933560Y-27632070D01*
X32013937Y-27678477D01*
X32013940Y-27678478D01*
X32103592Y-27702500D01*
X32103593Y-27702500D01*
X32196407Y-27702500D01*
X32196408Y-27702500D01*
X32286060Y-27678478D01*
X32366440Y-27632070D01*
X32432070Y-27566440D01*
X32432071Y-27566439D01*
X32432829Y-27565452D01*
X32433373Y-27565137D01*
X32434967Y-27563544D01*
X32435394Y-27563971D01*
X32474256Y-27541535D01*
X32482413Y-27541000D01*
X33312990Y-27541000D01*
X33312992Y-27541000D01*
X33383193Y-27511922D01*
X33756725Y-27138388D01*
X33776998Y-27124843D01*
X33808193Y-27111922D01*
X33814048Y-27106066D01*
X33834325Y-27092518D01*
X33837990Y-27091000D01*
X33837992Y-27091000D01*
X33882071Y-27072742D01*
X33886864Y-27070757D01*
X33910780Y-27066000D01*
X40069997Y-27066000D01*
X40114191Y-27084306D01*
X40463078Y-27433193D01*
X40516807Y-27486922D01*
X40547999Y-27499842D01*
X40561465Y-27508840D01*
X40561691Y-27508503D01*
X40566804Y-27511919D01*
X40566807Y-27511922D01*
X40597999Y-27524842D01*
X40611465Y-27533840D01*
X40611691Y-27533503D01*
X40616804Y-27536919D01*
X40616807Y-27536922D01*
X40687008Y-27566000D01*
X40687010Y-27566000D01*
X43212990Y-27566000D01*
X43212992Y-27566000D01*
X43283193Y-27536922D01*
X43431728Y-27388385D01*
X43451998Y-27374842D01*
X43483193Y-27361922D01*
X43483196Y-27361918D01*
X43488312Y-27358501D01*
X43488537Y-27358838D01*
X43502003Y-27349840D01*
X43511865Y-27345755D01*
X43535779Y-27341000D01*
X43664220Y-27341000D01*
X43688133Y-27345755D01*
X43697998Y-27349841D01*
X43711465Y-27358840D01*
X43711691Y-27358503D01*
X43716804Y-27361919D01*
X43716807Y-27361922D01*
X43747999Y-27374842D01*
X43768275Y-27388390D01*
X44666807Y-28286922D01*
X44697999Y-28299842D01*
X44711465Y-28308840D01*
X44711691Y-28308503D01*
X44716804Y-28311919D01*
X44716807Y-28311922D01*
X44747999Y-28324842D01*
X44761465Y-28333840D01*
X44761691Y-28333503D01*
X44766804Y-28336919D01*
X44766807Y-28336922D01*
X44837008Y-28366000D01*
X44839220Y-28366000D01*
X44863133Y-28370755D01*
X44872998Y-28374841D01*
X44886465Y-28383840D01*
X44886691Y-28383503D01*
X44891804Y-28386919D01*
X44891807Y-28386922D01*
X44922999Y-28399842D01*
X44936465Y-28408840D01*
X44936691Y-28408503D01*
X44941804Y-28411919D01*
X44941807Y-28411922D01*
X44972999Y-28424842D01*
X44986465Y-28433840D01*
X44986691Y-28433503D01*
X44991804Y-28436919D01*
X44991807Y-28436922D01*
X45022999Y-28449842D01*
X45036465Y-28458840D01*
X45036691Y-28458503D01*
X45041806Y-28461921D01*
X45041807Y-28461922D01*
X45073118Y-28474891D01*
X45106942Y-28508716D01*
X45109570Y-28516457D01*
X45121522Y-28561060D01*
X45121522Y-28561062D01*
X45167929Y-28641439D01*
X45167934Y-28641445D01*
X45233556Y-28707067D01*
X45236100Y-28709019D01*
X45260019Y-28750445D01*
X45247640Y-28796651D01*
X45229305Y-28812731D01*
X45168860Y-28847629D01*
X45168854Y-28847634D01*
X45103234Y-28913254D01*
X45103229Y-28913260D01*
X45056822Y-28993637D01*
X45056821Y-28993640D01*
X45032801Y-29083285D01*
X45032800Y-29083293D01*
X45032800Y-29176106D01*
X45032801Y-29176114D01*
X45056821Y-29265759D01*
X45056822Y-29265762D01*
X45103229Y-29346139D01*
X45103234Y-29346145D01*
X45168854Y-29411765D01*
X45168860Y-29411770D01*
X45249237Y-29458177D01*
X45249240Y-29458178D01*
X45338892Y-29482200D01*
X45338893Y-29482200D01*
X45431707Y-29482200D01*
X45431708Y-29482200D01*
X45521360Y-29458178D01*
X45601740Y-29411770D01*
X45667370Y-29346140D01*
X45713778Y-29265760D01*
X45737800Y-29176108D01*
X45737800Y-29089465D01*
X45756106Y-29045271D01*
X46386172Y-28415206D01*
X46430366Y-28396900D01*
X48497480Y-28396900D01*
X48560597Y-28370756D01*
X48571903Y-28366073D01*
X48571903Y-28366072D01*
X48571907Y-28366071D01*
X49354773Y-27583206D01*
X49398967Y-27564900D01*
X49883942Y-27564900D01*
X49928136Y-27583206D01*
X49946442Y-27627400D01*
X49938068Y-27658651D01*
X49924622Y-27681938D01*
X49924621Y-27681940D01*
X49900601Y-27771585D01*
X49900600Y-27771593D01*
X49900600Y-27864406D01*
X49900601Y-27864414D01*
X49924621Y-27954059D01*
X49924622Y-27954062D01*
X49971029Y-28034439D01*
X49971034Y-28034445D01*
X50036654Y-28100065D01*
X50036660Y-28100070D01*
X50117037Y-28146477D01*
X50117040Y-28146478D01*
X50206692Y-28170500D01*
X50206693Y-28170500D01*
X50293334Y-28170500D01*
X50337528Y-28188806D01*
X51677727Y-29529006D01*
X51696033Y-29573200D01*
X51677727Y-29617394D01*
X51633533Y-29635700D01*
X51046917Y-29635700D01*
X50972496Y-29666526D01*
X50972491Y-29666530D01*
X50601730Y-30037291D01*
X50601726Y-30037296D01*
X50570900Y-30111717D01*
X50570900Y-31468682D01*
X50601726Y-31543103D01*
X50601728Y-31543106D01*
X50601729Y-31543107D01*
X51067494Y-32008873D01*
X51085800Y-32053066D01*
X51085800Y-32085000D01*
X51067494Y-32129194D01*
X51023300Y-32147500D01*
X50953592Y-32147500D01*
X50953591Y-32147500D01*
X50953585Y-32147501D01*
X50863940Y-32171521D01*
X50863937Y-32171522D01*
X50783560Y-32217929D01*
X50783554Y-32217934D01*
X50717934Y-32283554D01*
X50717929Y-32283560D01*
X50671522Y-32363937D01*
X50671521Y-32363940D01*
X50647501Y-32453585D01*
X50647500Y-32453593D01*
X50647500Y-32546406D01*
X50647501Y-32546414D01*
X50671521Y-32636059D01*
X50671522Y-32636062D01*
X50717929Y-32716439D01*
X50717934Y-32716445D01*
X50783554Y-32782065D01*
X50783560Y-32782070D01*
X50863937Y-32828477D01*
X50863940Y-32828478D01*
X50953592Y-32852500D01*
X50953593Y-32852500D01*
X51046407Y-32852500D01*
X51046408Y-32852500D01*
X51136060Y-32828478D01*
X51216440Y-32782070D01*
X51277945Y-32720564D01*
X51322138Y-32702258D01*
X51324268Y-32702294D01*
X52399515Y-32739371D01*
X52409114Y-32740450D01*
X52413382Y-32741267D01*
X52413382Y-32741266D01*
X52413383Y-32741267D01*
X52446087Y-32741031D01*
X52448647Y-32741065D01*
X52481387Y-32742195D01*
X52481394Y-32742192D01*
X52485678Y-32741493D01*
X52495300Y-32740677D01*
X59068967Y-32693386D01*
X59113291Y-32711373D01*
X59116545Y-32715056D01*
X59183554Y-32782065D01*
X59183560Y-32782070D01*
X59263937Y-32828477D01*
X59263940Y-32828478D01*
X59353592Y-32852500D01*
X59353593Y-32852500D01*
X59446407Y-32852500D01*
X59446408Y-32852500D01*
X59536060Y-32828478D01*
X59616440Y-32782070D01*
X59682070Y-32716440D01*
X59728478Y-32636060D01*
X59752500Y-32546408D01*
X59752500Y-32453592D01*
X59728478Y-32363940D01*
X59728477Y-32363937D01*
X59682070Y-32283560D01*
X59682065Y-32283554D01*
X59616445Y-32217934D01*
X59616436Y-32217927D01*
X59593571Y-32204726D01*
X59564451Y-32166776D01*
X59570695Y-32119350D01*
X59608645Y-32090230D01*
X59624821Y-32088100D01*
X62510002Y-32088100D01*
X62554196Y-32106406D01*
X62587496Y-32139706D01*
X62615459Y-32167669D01*
X62615460Y-32167670D01*
X62695837Y-32214077D01*
X62695840Y-32214078D01*
X62785492Y-32238100D01*
X62785493Y-32238100D01*
X62878307Y-32238100D01*
X62878308Y-32238100D01*
X62967960Y-32214078D01*
X63013375Y-32187856D01*
X63060800Y-32181612D01*
X63098751Y-32210732D01*
X63107096Y-32240089D01*
X63108971Y-32301945D01*
X63109000Y-32303839D01*
X63109000Y-35277295D01*
X63099500Y-35310420D01*
X62889112Y-35647040D01*
X62888585Y-35647868D01*
X62868941Y-35678227D01*
X62868627Y-35679057D01*
X62868262Y-35679998D01*
X62867916Y-35680867D01*
X62861949Y-35716495D01*
X62861780Y-35717461D01*
X62488243Y-37751163D01*
X62462254Y-37791323D01*
X62415480Y-37801344D01*
X62382577Y-37784066D01*
X62366445Y-37767934D01*
X62366439Y-37767929D01*
X62286062Y-37721522D01*
X62286059Y-37721521D01*
X62196414Y-37697501D01*
X62196409Y-37697500D01*
X62196408Y-37697500D01*
X62103592Y-37697500D01*
X62103591Y-37697500D01*
X62103585Y-37697501D01*
X62013940Y-37721521D01*
X62013937Y-37721522D01*
X61933561Y-37767929D01*
X61918520Y-37782969D01*
X61875190Y-37801266D01*
X61484763Y-37806651D01*
X61440321Y-37788956D01*
X61421407Y-37745019D01*
X61439102Y-37700577D01*
X61452648Y-37690032D01*
X61466440Y-37682070D01*
X61532070Y-37616440D01*
X61578478Y-37536060D01*
X61602500Y-37446408D01*
X61602500Y-37353592D01*
X61578478Y-37263940D01*
X61578477Y-37263937D01*
X61532070Y-37183560D01*
X61532065Y-37183554D01*
X61466445Y-37117934D01*
X61466439Y-37117929D01*
X61386062Y-37071522D01*
X61386059Y-37071521D01*
X61296414Y-37047501D01*
X61296409Y-37047500D01*
X61296408Y-37047500D01*
X61203592Y-37047500D01*
X61203591Y-37047500D01*
X61203585Y-37047501D01*
X61113940Y-37071521D01*
X61113937Y-37071522D01*
X61033560Y-37117929D01*
X61033554Y-37117934D01*
X60967934Y-37183554D01*
X60967929Y-37183560D01*
X60921522Y-37263937D01*
X60921521Y-37263940D01*
X60897501Y-37353585D01*
X60897500Y-37353593D01*
X60897500Y-37446406D01*
X60897501Y-37446414D01*
X60921521Y-37536059D01*
X60921522Y-37536062D01*
X60967929Y-37616439D01*
X60967934Y-37616445D01*
X61033554Y-37682065D01*
X61033563Y-37682072D01*
X61058263Y-37696333D01*
X61087383Y-37734283D01*
X61081139Y-37781709D01*
X61043189Y-37810829D01*
X61027875Y-37812953D01*
X57211561Y-37865591D01*
X57167119Y-37847896D01*
X57148205Y-37803959D01*
X57156573Y-37771846D01*
X57158105Y-37769193D01*
X57178678Y-37733560D01*
X57202700Y-37643908D01*
X57202700Y-37551092D01*
X57178678Y-37461440D01*
X57178677Y-37461437D01*
X57132270Y-37381060D01*
X57132265Y-37381054D01*
X57066645Y-37315434D01*
X57066639Y-37315429D01*
X56986262Y-37269022D01*
X56986259Y-37269021D01*
X56896614Y-37245001D01*
X56896609Y-37245000D01*
X56896608Y-37245000D01*
X56809967Y-37245000D01*
X56765773Y-37226694D01*
X55401008Y-35861930D01*
X55401003Y-35861926D01*
X55326582Y-35831100D01*
X55326580Y-35831100D01*
X47138787Y-35831100D01*
X47094593Y-35812794D01*
X47092393Y-35810479D01*
X46977821Y-35683554D01*
X46734965Y-35414514D01*
X46725908Y-35401468D01*
X46722989Y-35395852D01*
X46706145Y-35381703D01*
X46699959Y-35375733D01*
X46685227Y-35359413D01*
X46679511Y-35356695D01*
X46666155Y-35348110D01*
X46311701Y-35050369D01*
X46289635Y-35007926D01*
X46289400Y-35002512D01*
X46289400Y-34953593D01*
X46289398Y-34953585D01*
X46265378Y-34863940D01*
X46265377Y-34863937D01*
X46235465Y-34812130D01*
X46226290Y-34796239D01*
X46220046Y-34748815D01*
X46249166Y-34710864D01*
X46296592Y-34704619D01*
X46314321Y-34712485D01*
X47035927Y-35178478D01*
X47085316Y-35210372D01*
X47095604Y-35218682D01*
X47142793Y-35265871D01*
X47142794Y-35265871D01*
X47142796Y-35265873D01*
X47217217Y-35296699D01*
X47217220Y-35296700D01*
X58380202Y-35296700D01*
X58424396Y-35315006D01*
X58457500Y-35348110D01*
X58485659Y-35376269D01*
X58485660Y-35376270D01*
X58566037Y-35422677D01*
X58566040Y-35422678D01*
X58655692Y-35446700D01*
X58655693Y-35446700D01*
X58748507Y-35446700D01*
X58748508Y-35446700D01*
X58838160Y-35422678D01*
X58918540Y-35376270D01*
X58984170Y-35310640D01*
X59030578Y-35230260D01*
X59054600Y-35140608D01*
X59054600Y-35047792D01*
X59030578Y-34958140D01*
X59030577Y-34958137D01*
X58984170Y-34877760D01*
X58984165Y-34877754D01*
X58918545Y-34812134D01*
X58918539Y-34812129D01*
X58838162Y-34765722D01*
X58838159Y-34765721D01*
X58748514Y-34741701D01*
X58748509Y-34741700D01*
X58748508Y-34741700D01*
X58655692Y-34741700D01*
X58655691Y-34741700D01*
X58655685Y-34741701D01*
X58566040Y-34765721D01*
X58566037Y-34765722D01*
X58485660Y-34812129D01*
X58485659Y-34812130D01*
X58469312Y-34828478D01*
X58424395Y-34873394D01*
X58380202Y-34891700D01*
X57475740Y-34891700D01*
X57431546Y-34873394D01*
X57413240Y-34829200D01*
X57421614Y-34797949D01*
X57427998Y-34786891D01*
X57428478Y-34786060D01*
X57452500Y-34696408D01*
X57452500Y-34603592D01*
X57428478Y-34513940D01*
X57428477Y-34513937D01*
X57382070Y-34433560D01*
X57382065Y-34433554D01*
X57316445Y-34367934D01*
X57316439Y-34367929D01*
X57236062Y-34321522D01*
X57236059Y-34321521D01*
X57146414Y-34297501D01*
X57146409Y-34297500D01*
X57146408Y-34297500D01*
X57053592Y-34297500D01*
X57053591Y-34297500D01*
X57053585Y-34297501D01*
X56963940Y-34321521D01*
X56963937Y-34321522D01*
X56883560Y-34367929D01*
X56883554Y-34367934D01*
X56817934Y-34433554D01*
X56817929Y-34433560D01*
X56771522Y-34513937D01*
X56771521Y-34513940D01*
X56747501Y-34603585D01*
X56747500Y-34603593D01*
X56747500Y-34696406D01*
X56747501Y-34696414D01*
X56771521Y-34786059D01*
X56771522Y-34786061D01*
X56778386Y-34797949D01*
X56784631Y-34845375D01*
X56755511Y-34883326D01*
X56724260Y-34891700D01*
X55107687Y-34891700D01*
X55063493Y-34873394D01*
X55045187Y-34829200D01*
X55063493Y-34785006D01*
X55063589Y-34784921D01*
X55132065Y-34716445D01*
X55132070Y-34716440D01*
X55170416Y-34650023D01*
X55178477Y-34636062D01*
X55178478Y-34636059D01*
X55186688Y-34605420D01*
X55202500Y-34546408D01*
X55202500Y-34453592D01*
X55178478Y-34363940D01*
X55178477Y-34363937D01*
X55132070Y-34283560D01*
X55132065Y-34283554D01*
X55066445Y-34217934D01*
X55066439Y-34217929D01*
X54986062Y-34171522D01*
X54986059Y-34171521D01*
X54896414Y-34147501D01*
X54896409Y-34147500D01*
X54896408Y-34147500D01*
X54803592Y-34147500D01*
X54803591Y-34147500D01*
X54803585Y-34147501D01*
X54713937Y-34171522D01*
X54712929Y-34171940D01*
X54712379Y-34171939D01*
X54709983Y-34172582D01*
X54709810Y-34171939D01*
X54665094Y-34171933D01*
X54631274Y-34138103D01*
X54628650Y-34130370D01*
X54619478Y-34096140D01*
X54619477Y-34096137D01*
X54577450Y-34023347D01*
X54573070Y-34015760D01*
X54573065Y-34015754D01*
X54553504Y-33996193D01*
X60071800Y-33996193D01*
X60071800Y-34089006D01*
X60071801Y-34089014D01*
X60095821Y-34178659D01*
X60095822Y-34178662D01*
X60142229Y-34259039D01*
X60142234Y-34259045D01*
X60207854Y-34324665D01*
X60207860Y-34324670D01*
X60288237Y-34371077D01*
X60288240Y-34371078D01*
X60377892Y-34395100D01*
X60377893Y-34395100D01*
X60470707Y-34395100D01*
X60470708Y-34395100D01*
X60560360Y-34371078D01*
X60565238Y-34368262D01*
X60586808Y-34355808D01*
X60640740Y-34324670D01*
X60706370Y-34259040D01*
X60750929Y-34181862D01*
X60752777Y-34178662D01*
X60752778Y-34178659D01*
X60754204Y-34173337D01*
X60776800Y-34089008D01*
X60776800Y-33996192D01*
X60752778Y-33906540D01*
X60752777Y-33906537D01*
X60710789Y-33833814D01*
X60706370Y-33826160D01*
X60706369Y-33826159D01*
X60704322Y-33822613D01*
X60705733Y-33821797D01*
X60694808Y-33781020D01*
X60718726Y-33739594D01*
X60740597Y-33728809D01*
X60746866Y-33727128D01*
X60756760Y-33724478D01*
X60837140Y-33678070D01*
X60902770Y-33612440D01*
X60940895Y-33546406D01*
X60949177Y-33532062D01*
X60949178Y-33532059D01*
X60949266Y-33531731D01*
X60973200Y-33442408D01*
X60973200Y-33349592D01*
X60949178Y-33259940D01*
X60949177Y-33259937D01*
X60902770Y-33179560D01*
X60902765Y-33179554D01*
X60837145Y-33113934D01*
X60837139Y-33113929D01*
X60756762Y-33067522D01*
X60756759Y-33067521D01*
X60667114Y-33043501D01*
X60667109Y-33043500D01*
X60667108Y-33043500D01*
X60574292Y-33043500D01*
X60574291Y-33043500D01*
X60574285Y-33043501D01*
X60484640Y-33067521D01*
X60484637Y-33067522D01*
X60404260Y-33113929D01*
X60404254Y-33113934D01*
X60338634Y-33179554D01*
X60338629Y-33179560D01*
X60292222Y-33259937D01*
X60292221Y-33259940D01*
X60268201Y-33349585D01*
X60268200Y-33349593D01*
X60268200Y-33442406D01*
X60268201Y-33442414D01*
X60292221Y-33532059D01*
X60292222Y-33532062D01*
X60340678Y-33615987D01*
X60339267Y-33616801D01*
X60350191Y-33657583D01*
X60326269Y-33699008D01*
X60304405Y-33709790D01*
X60292057Y-33713099D01*
X60288240Y-33714122D01*
X60288239Y-33714122D01*
X60288237Y-33714123D01*
X60207860Y-33760529D01*
X60207854Y-33760534D01*
X60142234Y-33826154D01*
X60142229Y-33826160D01*
X60095822Y-33906537D01*
X60095821Y-33906540D01*
X60071801Y-33996185D01*
X60071800Y-33996193D01*
X54553504Y-33996193D01*
X54507445Y-33950134D01*
X54507439Y-33950129D01*
X54427062Y-33903722D01*
X54427059Y-33903721D01*
X54337414Y-33879701D01*
X54337409Y-33879700D01*
X54337408Y-33879700D01*
X54244592Y-33879700D01*
X54244591Y-33879700D01*
X54244585Y-33879701D01*
X54154940Y-33903721D01*
X54154937Y-33903722D01*
X54074560Y-33950129D01*
X54074554Y-33950134D01*
X54008934Y-34015754D01*
X54008929Y-34015760D01*
X53962522Y-34096137D01*
X53962521Y-34096140D01*
X53938501Y-34185785D01*
X53938500Y-34185793D01*
X53938500Y-34278606D01*
X53938501Y-34278614D01*
X53962521Y-34368259D01*
X53962522Y-34368262D01*
X54008929Y-34448639D01*
X54008934Y-34448645D01*
X54074554Y-34514265D01*
X54074560Y-34514270D01*
X54154937Y-34560677D01*
X54154940Y-34560678D01*
X54244592Y-34584700D01*
X54244593Y-34584700D01*
X54337407Y-34584700D01*
X54337408Y-34584700D01*
X54427060Y-34560678D01*
X54427065Y-34560674D01*
X54428055Y-34560265D01*
X54428602Y-34560264D01*
X54431017Y-34559618D01*
X54431190Y-34560264D01*
X54475891Y-34560260D01*
X54509719Y-34594081D01*
X54512349Y-34601828D01*
X54521522Y-34636060D01*
X54521522Y-34636062D01*
X54567929Y-34716439D01*
X54567934Y-34716445D01*
X54636456Y-34784967D01*
X54634531Y-34786891D01*
X54654265Y-34820940D01*
X54641960Y-34867166D01*
X54600573Y-34891152D01*
X54592313Y-34891700D01*
X47314430Y-34891700D01*
X47280524Y-34881704D01*
X46485437Y-34368259D01*
X45914236Y-33999393D01*
X51309800Y-33999393D01*
X51309800Y-34092206D01*
X51309801Y-34092214D01*
X51333821Y-34181859D01*
X51333822Y-34181862D01*
X51380229Y-34262239D01*
X51380234Y-34262245D01*
X51445854Y-34327865D01*
X51445860Y-34327870D01*
X51526237Y-34374277D01*
X51526240Y-34374278D01*
X51615892Y-34398300D01*
X51615893Y-34398300D01*
X51708707Y-34398300D01*
X51708708Y-34398300D01*
X51798360Y-34374278D01*
X51802507Y-34371884D01*
X51830340Y-34355814D01*
X51878740Y-34327870D01*
X51944370Y-34262240D01*
X51990778Y-34181860D01*
X52014800Y-34092208D01*
X52014800Y-33999392D01*
X51990778Y-33909740D01*
X51990777Y-33909737D01*
X51944370Y-33829360D01*
X51944365Y-33829354D01*
X51878745Y-33763734D01*
X51878739Y-33763729D01*
X51798362Y-33717322D01*
X51798359Y-33717321D01*
X51708714Y-33693301D01*
X51708709Y-33693300D01*
X51708708Y-33693300D01*
X51615892Y-33693300D01*
X51615891Y-33693300D01*
X51615885Y-33693301D01*
X51526240Y-33717321D01*
X51526237Y-33717322D01*
X51445860Y-33763729D01*
X51445854Y-33763734D01*
X51380234Y-33829354D01*
X51380229Y-33829360D01*
X51333822Y-33909737D01*
X51333821Y-33909740D01*
X51309801Y-33999385D01*
X51309800Y-33999393D01*
X45914236Y-33999393D01*
X45069046Y-33453593D01*
X58597500Y-33453593D01*
X58597500Y-33546406D01*
X58597501Y-33546414D01*
X58621521Y-33636059D01*
X58621522Y-33636062D01*
X58667929Y-33716439D01*
X58667934Y-33716445D01*
X58733554Y-33782065D01*
X58733560Y-33782070D01*
X58813937Y-33828477D01*
X58813940Y-33828478D01*
X58903592Y-33852500D01*
X58903593Y-33852500D01*
X58996407Y-33852500D01*
X58996408Y-33852500D01*
X59086060Y-33828478D01*
X59099650Y-33820632D01*
X59134671Y-33800412D01*
X59166440Y-33782070D01*
X59232070Y-33716440D01*
X59278478Y-33636060D01*
X59302500Y-33546408D01*
X59302500Y-33453592D01*
X59278478Y-33363940D01*
X59278477Y-33363937D01*
X59232070Y-33283560D01*
X59232065Y-33283554D01*
X59166445Y-33217934D01*
X59166439Y-33217929D01*
X59086062Y-33171522D01*
X59086059Y-33171521D01*
X58996414Y-33147501D01*
X58996409Y-33147500D01*
X58996408Y-33147500D01*
X58903592Y-33147500D01*
X58903591Y-33147500D01*
X58903585Y-33147501D01*
X58813940Y-33171521D01*
X58813937Y-33171522D01*
X58733560Y-33217929D01*
X58733554Y-33217934D01*
X58667934Y-33283554D01*
X58667929Y-33283560D01*
X58621522Y-33363937D01*
X58621521Y-33363940D01*
X58597501Y-33453585D01*
X58597500Y-33453593D01*
X45069046Y-33453593D01*
X43690363Y-32563278D01*
X43683983Y-32558305D01*
X43652601Y-32538878D01*
X43651594Y-32538242D01*
X43620566Y-32518206D01*
X43613342Y-32514575D01*
X42882103Y-32061902D01*
X42854161Y-32023075D01*
X42852500Y-32008760D01*
X42852500Y-32003592D01*
X42852498Y-32003584D01*
X42828478Y-31913939D01*
X42828477Y-31913936D01*
X42782070Y-31833559D01*
X42782065Y-31833553D01*
X42716445Y-31767933D01*
X42716439Y-31767928D01*
X42636062Y-31721521D01*
X42636059Y-31721520D01*
X42546414Y-31697500D01*
X42546409Y-31697499D01*
X42546408Y-31697499D01*
X42453592Y-31697499D01*
X42453591Y-31697499D01*
X42453585Y-31697500D01*
X42363940Y-31721520D01*
X42363937Y-31721521D01*
X42283560Y-31767928D01*
X42283554Y-31767933D01*
X42217934Y-31833553D01*
X42217929Y-31833559D01*
X42171522Y-31913936D01*
X42171521Y-31913939D01*
X42147501Y-32003584D01*
X42147500Y-32003592D01*
X42147500Y-32096405D01*
X42147501Y-32096413D01*
X42171521Y-32186058D01*
X42171522Y-32186061D01*
X42217929Y-32266438D01*
X42217934Y-32266444D01*
X42283554Y-32332064D01*
X42283560Y-32332069D01*
X42363937Y-32378476D01*
X42363940Y-32378477D01*
X42453592Y-32402499D01*
X42453593Y-32402499D01*
X42546407Y-32402499D01*
X42546408Y-32402499D01*
X42546416Y-32402497D01*
X42569140Y-32396408D01*
X42632073Y-32379545D01*
X42679500Y-32385788D01*
X42681129Y-32386762D01*
X43253394Y-32741022D01*
X43447414Y-32861130D01*
X43448423Y-32861768D01*
X44768135Y-33714002D01*
X44795330Y-33753355D01*
X44786733Y-33800412D01*
X44765480Y-33820632D01*
X44683560Y-33867929D01*
X44683554Y-33867934D01*
X44617929Y-33933559D01*
X44615436Y-33936809D01*
X44613738Y-33935506D01*
X44581274Y-33960389D01*
X44565788Y-33962507D01*
X42883024Y-33980220D01*
X42838639Y-33962380D01*
X42819869Y-33918381D01*
X42827312Y-33890016D01*
X42826909Y-33889849D01*
X42828129Y-33886901D01*
X42828244Y-33886466D01*
X42828477Y-33886061D01*
X42828478Y-33886060D01*
X42852500Y-33796408D01*
X42852500Y-33703592D01*
X42828478Y-33613940D01*
X42828477Y-33613937D01*
X42782070Y-33533560D01*
X42782065Y-33533554D01*
X42716445Y-33467934D01*
X42716439Y-33467929D01*
X42636062Y-33421522D01*
X42636059Y-33421521D01*
X42546414Y-33397501D01*
X42546409Y-33397500D01*
X42546408Y-33397500D01*
X42453592Y-33397500D01*
X42453591Y-33397500D01*
X42453585Y-33397501D01*
X42363940Y-33421521D01*
X42363937Y-33421522D01*
X42283560Y-33467929D01*
X42283554Y-33467934D01*
X42217934Y-33533554D01*
X42217929Y-33533560D01*
X42171522Y-33613937D01*
X42171521Y-33613940D01*
X42147501Y-33703585D01*
X42147500Y-33703593D01*
X42147500Y-33796406D01*
X42147501Y-33796414D01*
X42171521Y-33886059D01*
X42171522Y-33886061D01*
X42176379Y-33894473D01*
X42182624Y-33941899D01*
X42153504Y-33979850D01*
X42122911Y-33988221D01*
X40239980Y-34008041D01*
X40199745Y-33993916D01*
X39752847Y-33628273D01*
X39745732Y-33620224D01*
X39745514Y-33620432D01*
X39741278Y-33615966D01*
X39734343Y-33611064D01*
X39717533Y-33599181D01*
X39714048Y-33596527D01*
X39691549Y-33578119D01*
X39691545Y-33578116D01*
X39691544Y-33578116D01*
X39691542Y-33578115D01*
X39686114Y-33575225D01*
X39686256Y-33574958D01*
X39684979Y-33574334D01*
X39684857Y-33574611D01*
X39679232Y-33572105D01*
X39650884Y-33565686D01*
X39646637Y-33564565D01*
X39618802Y-33556168D01*
X39618800Y-33556167D01*
X39618798Y-33556167D01*
X39618794Y-33556167D01*
X39612672Y-33555573D01*
X39612700Y-33555275D01*
X39601983Y-33554613D01*
X38970648Y-33411670D01*
X38931588Y-33384057D01*
X38923493Y-33336911D01*
X38930324Y-33319462D01*
X38932067Y-33316442D01*
X38932070Y-33316440D01*
X38978478Y-33236060D01*
X39002500Y-33146408D01*
X39002500Y-33053592D01*
X38978478Y-32963940D01*
X38968390Y-32946467D01*
X38932073Y-32883564D01*
X38932065Y-32883554D01*
X38902104Y-32853593D01*
X41997500Y-32853593D01*
X41997500Y-32946406D01*
X41997501Y-32946414D01*
X42021521Y-33036059D01*
X42021522Y-33036062D01*
X42067929Y-33116439D01*
X42067934Y-33116445D01*
X42133554Y-33182065D01*
X42133560Y-33182070D01*
X42213937Y-33228477D01*
X42213940Y-33228478D01*
X42303592Y-33252500D01*
X42303593Y-33252500D01*
X42396407Y-33252500D01*
X42396408Y-33252500D01*
X42486060Y-33228478D01*
X42566440Y-33182070D01*
X42632070Y-33116440D01*
X42670339Y-33050157D01*
X42678477Y-33036062D01*
X42678478Y-33036059D01*
X42679891Y-33030787D01*
X42702500Y-32946408D01*
X42702500Y-32853592D01*
X42678478Y-32763940D01*
X42678477Y-32763937D01*
X42632070Y-32683560D01*
X42632065Y-32683554D01*
X42566445Y-32617934D01*
X42566439Y-32617929D01*
X42486062Y-32571522D01*
X42486059Y-32571521D01*
X42396414Y-32547501D01*
X42396409Y-32547500D01*
X42396408Y-32547500D01*
X42303592Y-32547500D01*
X42303591Y-32547500D01*
X42303585Y-32547501D01*
X42213940Y-32571521D01*
X42213937Y-32571522D01*
X42133560Y-32617929D01*
X42133554Y-32617934D01*
X42067934Y-32683554D01*
X42067929Y-32683560D01*
X42021522Y-32763937D01*
X42021521Y-32763940D01*
X41997501Y-32853585D01*
X41997500Y-32853593D01*
X38902104Y-32853593D01*
X38866445Y-32817934D01*
X38866439Y-32817929D01*
X38786062Y-32771522D01*
X38786059Y-32771521D01*
X38696414Y-32747501D01*
X38696409Y-32747500D01*
X38696408Y-32747500D01*
X38603592Y-32747500D01*
X38603591Y-32747500D01*
X38603585Y-32747501D01*
X38513940Y-32771521D01*
X38513937Y-32771522D01*
X38433560Y-32817929D01*
X38433554Y-32817934D01*
X38367934Y-32883554D01*
X38367929Y-32883560D01*
X38321522Y-32963937D01*
X38321521Y-32963940D01*
X38297501Y-33053585D01*
X38297500Y-33053593D01*
X38297500Y-33150504D01*
X38295242Y-33150504D01*
X38284735Y-33189709D01*
X38243307Y-33213625D01*
X38208722Y-33208295D01*
X37903941Y-33066064D01*
X37871634Y-33030787D01*
X37870001Y-33025604D01*
X37853478Y-32963940D01*
X37853477Y-32963937D01*
X37807070Y-32883560D01*
X37807065Y-32883554D01*
X37741445Y-32817934D01*
X37741439Y-32817929D01*
X37661062Y-32771522D01*
X37661059Y-32771521D01*
X37571414Y-32747501D01*
X37571409Y-32747500D01*
X37571408Y-32747500D01*
X37478592Y-32747500D01*
X37478591Y-32747500D01*
X37478585Y-32747501D01*
X37388940Y-32771521D01*
X37388937Y-32771522D01*
X37308560Y-32817929D01*
X37308554Y-32817934D01*
X37242934Y-32883554D01*
X37242927Y-32883563D01*
X37224429Y-32915601D01*
X37186478Y-32944720D01*
X37177206Y-32946467D01*
X36842859Y-32983617D01*
X36835959Y-32983999D01*
X36812006Y-32983999D01*
X36811999Y-32984001D01*
X36810150Y-32984767D01*
X36793140Y-32989141D01*
X36792298Y-32989235D01*
X36791145Y-32989363D01*
X36770163Y-33000917D01*
X36763939Y-33003909D01*
X36741803Y-33013079D01*
X36736684Y-33016500D01*
X36736459Y-33016164D01*
X36722998Y-33025157D01*
X36691807Y-33038077D01*
X36686691Y-33041496D01*
X36686466Y-33041160D01*
X36673000Y-33050157D01*
X36641806Y-33063078D01*
X36641802Y-33063081D01*
X36525494Y-33179390D01*
X36481300Y-33197696D01*
X36437106Y-33179390D01*
X36418800Y-33135196D01*
X36418800Y-32772902D01*
X36427174Y-32741651D01*
X36427737Y-32740677D01*
X36455188Y-32693131D01*
X36469777Y-32667862D01*
X36469778Y-32667859D01*
X36478298Y-32636062D01*
X36493800Y-32578208D01*
X36493800Y-32485392D01*
X36469778Y-32395740D01*
X36469777Y-32395737D01*
X36423370Y-32315360D01*
X36423365Y-32315354D01*
X36357745Y-32249734D01*
X36357739Y-32249729D01*
X36277362Y-32203322D01*
X36277359Y-32203321D01*
X36187714Y-32179301D01*
X36187709Y-32179300D01*
X36187708Y-32179300D01*
X36094892Y-32179300D01*
X36094891Y-32179300D01*
X36094885Y-32179301D01*
X36005240Y-32203321D01*
X36005237Y-32203322D01*
X35924860Y-32249729D01*
X35924854Y-32249734D01*
X35859234Y-32315354D01*
X35859229Y-32315360D01*
X35812822Y-32395737D01*
X35812821Y-32395740D01*
X35788801Y-32485385D01*
X35788800Y-32485393D01*
X35788800Y-32578206D01*
X35788801Y-32578214D01*
X35812821Y-32667859D01*
X35812822Y-32667862D01*
X35848899Y-32730346D01*
X35854863Y-32740677D01*
X35855426Y-32741651D01*
X35863800Y-32772902D01*
X35863800Y-33487537D01*
X35845494Y-33531731D01*
X35801300Y-33550037D01*
X35757106Y-33531731D01*
X35747174Y-33518788D01*
X35733070Y-33494360D01*
X35733065Y-33494354D01*
X35667445Y-33428734D01*
X35667439Y-33428729D01*
X35587062Y-33382322D01*
X35587059Y-33382321D01*
X35497414Y-33358301D01*
X35497409Y-33358300D01*
X35497408Y-33358300D01*
X35404592Y-33358300D01*
X35404591Y-33358300D01*
X35404585Y-33358301D01*
X35314940Y-33382321D01*
X35314937Y-33382322D01*
X35234560Y-33428729D01*
X35234554Y-33428734D01*
X35168934Y-33494354D01*
X35168929Y-33494360D01*
X35122522Y-33574737D01*
X35122521Y-33574740D01*
X35098501Y-33664385D01*
X35098500Y-33664393D01*
X35098500Y-33757206D01*
X35098501Y-33757214D01*
X35122521Y-33846859D01*
X35122522Y-33846862D01*
X35168929Y-33927239D01*
X35168934Y-33927245D01*
X35234554Y-33992865D01*
X35234560Y-33992870D01*
X35314937Y-34039277D01*
X35314940Y-34039278D01*
X35404592Y-34063300D01*
X35404593Y-34063300D01*
X35497407Y-34063300D01*
X35497408Y-34063300D01*
X35587060Y-34039278D01*
X35667440Y-33992870D01*
X35733070Y-33927240D01*
X35743174Y-33909740D01*
X35747173Y-33902814D01*
X35785123Y-33873694D01*
X35832549Y-33879938D01*
X35861669Y-33917888D01*
X35862807Y-33926536D01*
X35863265Y-33926476D01*
X35863799Y-33930539D01*
X35882710Y-34001109D01*
X35882711Y-34001111D01*
X35897850Y-34027334D01*
X35919244Y-34064389D01*
X37100811Y-35245956D01*
X37164089Y-35282489D01*
X37185683Y-35288275D01*
X37234660Y-35301400D01*
X37234666Y-35301401D01*
X37311559Y-35301401D01*
X37311575Y-35301400D01*
X38840867Y-35301400D01*
X38885061Y-35319706D01*
X39236191Y-35670835D01*
X39252367Y-35698852D01*
X39274422Y-35781160D01*
X39274422Y-35781162D01*
X39320829Y-35861539D01*
X39320834Y-35861545D01*
X39386454Y-35927165D01*
X39386460Y-35927170D01*
X39466837Y-35973577D01*
X39466840Y-35973578D01*
X39556492Y-35997600D01*
X39556493Y-35997600D01*
X39649307Y-35997600D01*
X39649308Y-35997600D01*
X39734661Y-35974730D01*
X39738957Y-35973579D01*
X39738957Y-35973578D01*
X39738960Y-35973578D01*
X39768327Y-35956621D01*
X39812971Y-35949700D01*
X45444204Y-37185293D01*
X45468632Y-37190653D01*
X45479155Y-37193959D01*
X45499775Y-37202500D01*
X45515847Y-37202500D01*
X45529241Y-37203952D01*
X45544942Y-37207397D01*
X45564235Y-37203952D01*
X45566918Y-37203473D01*
X45577904Y-37202500D01*
X50063341Y-37202500D01*
X50077693Y-37204169D01*
X50268387Y-37249165D01*
X51343104Y-37502750D01*
X51381913Y-37530716D01*
X51389581Y-37577933D01*
X51381431Y-37595124D01*
X51382278Y-37595613D01*
X51333822Y-37679537D01*
X51333821Y-37679540D01*
X51309801Y-37769185D01*
X51309800Y-37769193D01*
X51309800Y-37862006D01*
X51309801Y-37862014D01*
X51333821Y-37951659D01*
X51333822Y-37951662D01*
X51380229Y-38032039D01*
X51380234Y-38032045D01*
X51445854Y-38097665D01*
X51445860Y-38097670D01*
X51526237Y-38144077D01*
X51526240Y-38144078D01*
X51615892Y-38168100D01*
X51615893Y-38168100D01*
X51708707Y-38168100D01*
X51708708Y-38168100D01*
X51798360Y-38144078D01*
X51878740Y-38097670D01*
X51944370Y-38032040D01*
X51990778Y-37951660D01*
X52014800Y-37862008D01*
X52014800Y-37769192D01*
X52014133Y-37766704D01*
X52010992Y-37754980D01*
X52017235Y-37707554D01*
X52055185Y-37678433D01*
X52085715Y-37677973D01*
X53199770Y-37940840D01*
X53301726Y-37964897D01*
X53340535Y-37992863D01*
X53348203Y-38040080D01*
X53331568Y-38069921D01*
X53267930Y-38133558D01*
X53267929Y-38133560D01*
X53221522Y-38213937D01*
X53221521Y-38213940D01*
X53197501Y-38303585D01*
X53197500Y-38303593D01*
X53197500Y-38396406D01*
X53197501Y-38396414D01*
X53221521Y-38486059D01*
X53221522Y-38486062D01*
X53267929Y-38566439D01*
X53267934Y-38566445D01*
X53274295Y-38572806D01*
X53292601Y-38617000D01*
X53274295Y-38661194D01*
X53230101Y-38679500D01*
X28530634Y-38679500D01*
X28520159Y-38678616D01*
X24608401Y-38013616D01*
X24589464Y-38007147D01*
X24443394Y-37929243D01*
X24347675Y-37878193D01*
X34372100Y-37878193D01*
X34372100Y-37971006D01*
X34372101Y-37971014D01*
X34396121Y-38060659D01*
X34396122Y-38060662D01*
X34442529Y-38141039D01*
X34442534Y-38141045D01*
X34508154Y-38206665D01*
X34508160Y-38206670D01*
X34588537Y-38253077D01*
X34588540Y-38253078D01*
X34678192Y-38277100D01*
X34678193Y-38277100D01*
X34771007Y-38277100D01*
X34771008Y-38277100D01*
X34860660Y-38253078D01*
X34941040Y-38206670D01*
X35006670Y-38141040D01*
X35053078Y-38060660D01*
X35077100Y-37971008D01*
X35077100Y-37878192D01*
X35053078Y-37788540D01*
X35053077Y-37788537D01*
X35006670Y-37708160D01*
X35006665Y-37708154D01*
X34941045Y-37642534D01*
X34941039Y-37642529D01*
X34860662Y-37596122D01*
X34860659Y-37596121D01*
X34771014Y-37572101D01*
X34771009Y-37572100D01*
X34771008Y-37572100D01*
X34678192Y-37572100D01*
X34678191Y-37572100D01*
X34678185Y-37572101D01*
X34588540Y-37596121D01*
X34588537Y-37596122D01*
X34508160Y-37642529D01*
X34508154Y-37642534D01*
X34442534Y-37708154D01*
X34442529Y-37708160D01*
X34396122Y-37788537D01*
X34396121Y-37788540D01*
X34372101Y-37878185D01*
X34372100Y-37878193D01*
X24347675Y-37878193D01*
X21680498Y-36455699D01*
X21668100Y-36447008D01*
X21438260Y-36240152D01*
X21391194Y-36197793D01*
X29777600Y-36197793D01*
X29777600Y-36290606D01*
X29777601Y-36290614D01*
X29801621Y-36380259D01*
X29801622Y-36380262D01*
X29848029Y-36460639D01*
X29848034Y-36460645D01*
X29913654Y-36526265D01*
X29913660Y-36526270D01*
X29994037Y-36572677D01*
X29994040Y-36572678D01*
X30083692Y-36596700D01*
X30083693Y-36596700D01*
X30176507Y-36596700D01*
X30176508Y-36596700D01*
X30266160Y-36572678D01*
X30346540Y-36526270D01*
X30412170Y-36460640D01*
X30458578Y-36380260D01*
X30482600Y-36290608D01*
X30482600Y-36197792D01*
X30458578Y-36108140D01*
X30458577Y-36108137D01*
X30412170Y-36027760D01*
X30412165Y-36027754D01*
X30346545Y-35962134D01*
X30346539Y-35962129D01*
X30266162Y-35915722D01*
X30266159Y-35915721D01*
X30176514Y-35891701D01*
X30176509Y-35891700D01*
X30176508Y-35891700D01*
X30083692Y-35891700D01*
X30083691Y-35891700D01*
X30083685Y-35891701D01*
X29994040Y-35915721D01*
X29994037Y-35915722D01*
X29913660Y-35962129D01*
X29913654Y-35962134D01*
X29848034Y-36027754D01*
X29848029Y-36027760D01*
X29801622Y-36108137D01*
X29801621Y-36108140D01*
X29777601Y-36197785D01*
X29777600Y-36197793D01*
X21391194Y-36197793D01*
X20760962Y-35630584D01*
X20745225Y-35608512D01*
X20719373Y-35547501D01*
X20490509Y-35007383D01*
X20490123Y-34959550D01*
X20523673Y-34925453D01*
X20548057Y-34920500D01*
X26239562Y-34920500D01*
X26239567Y-34920499D01*
X26262271Y-34914414D01*
X26315989Y-34900021D01*
X26384511Y-34860460D01*
X26440460Y-34804511D01*
X26480021Y-34735989D01*
X26496461Y-34674634D01*
X26500499Y-34659567D01*
X26500500Y-34659561D01*
X26500500Y-34262993D01*
X27243500Y-34262993D01*
X27243500Y-34355806D01*
X27243501Y-34355814D01*
X27267521Y-34445459D01*
X27267522Y-34445462D01*
X27313929Y-34525839D01*
X27313934Y-34525845D01*
X27379554Y-34591465D01*
X27379560Y-34591470D01*
X27459937Y-34637877D01*
X27459940Y-34637878D01*
X27549592Y-34661900D01*
X27549593Y-34661900D01*
X27642407Y-34661900D01*
X27642408Y-34661900D01*
X27732060Y-34637878D01*
X27735206Y-34636062D01*
X27756863Y-34623558D01*
X27812440Y-34591470D01*
X27878070Y-34525840D01*
X27924478Y-34445460D01*
X27934670Y-34407423D01*
X27935268Y-34405193D01*
X28481400Y-34405193D01*
X28481400Y-34498006D01*
X28481401Y-34498014D01*
X28505421Y-34587659D01*
X28505422Y-34587662D01*
X28551829Y-34668039D01*
X28551834Y-34668045D01*
X28617454Y-34733665D01*
X28617460Y-34733670D01*
X28697837Y-34780077D01*
X28697840Y-34780078D01*
X28787492Y-34804100D01*
X28787493Y-34804100D01*
X28880307Y-34804100D01*
X28880308Y-34804100D01*
X28969960Y-34780078D01*
X29050340Y-34733670D01*
X29115970Y-34668040D01*
X29162378Y-34587660D01*
X29186400Y-34498008D01*
X29186400Y-34405192D01*
X29162378Y-34315540D01*
X29162377Y-34315537D01*
X29115970Y-34235160D01*
X29115965Y-34235154D01*
X29050345Y-34169534D01*
X29050339Y-34169529D01*
X28969962Y-34123122D01*
X28969959Y-34123121D01*
X28880314Y-34099101D01*
X28880309Y-34099100D01*
X28880308Y-34099100D01*
X28787492Y-34099100D01*
X28787491Y-34099100D01*
X28787485Y-34099101D01*
X28697840Y-34123121D01*
X28697837Y-34123122D01*
X28617460Y-34169529D01*
X28617454Y-34169534D01*
X28551834Y-34235154D01*
X28551829Y-34235160D01*
X28505422Y-34315537D01*
X28505421Y-34315540D01*
X28481401Y-34405185D01*
X28481400Y-34405193D01*
X27935268Y-34405193D01*
X27940700Y-34384920D01*
X27940700Y-34384919D01*
X27948499Y-34355812D01*
X27948500Y-34355806D01*
X27948500Y-34262993D01*
X27948498Y-34262985D01*
X27948298Y-34262240D01*
X27924478Y-34173340D01*
X27924477Y-34173337D01*
X27878070Y-34092960D01*
X27878065Y-34092954D01*
X27812445Y-34027334D01*
X27812439Y-34027329D01*
X27732062Y-33980922D01*
X27732059Y-33980921D01*
X27642414Y-33956901D01*
X27642409Y-33956900D01*
X27642408Y-33956900D01*
X27549592Y-33956900D01*
X27549591Y-33956900D01*
X27549585Y-33956901D01*
X27459940Y-33980921D01*
X27459937Y-33980922D01*
X27379560Y-34027329D01*
X27379554Y-34027334D01*
X27313934Y-34092954D01*
X27313929Y-34092960D01*
X27267522Y-34173337D01*
X27267521Y-34173340D01*
X27243501Y-34262985D01*
X27243500Y-34262993D01*
X26500500Y-34262993D01*
X26500500Y-25340438D01*
X26500499Y-25340432D01*
X26484860Y-25282070D01*
X26480021Y-25264011D01*
X26440460Y-25195489D01*
X26440458Y-25195487D01*
X26440455Y-25195483D01*
X26384516Y-25139544D01*
X26384512Y-25139541D01*
X26384511Y-25139540D01*
X26315989Y-25099979D01*
X26315988Y-25099978D01*
X26315987Y-25099978D01*
X26239567Y-25079500D01*
X26239562Y-25079500D01*
X20548057Y-25079500D01*
X20503863Y-25061194D01*
X20485557Y-25017000D01*
X20490510Y-24992616D01*
X20507046Y-24953592D01*
X20745226Y-24391484D01*
X20760960Y-24369416D01*
X20945208Y-24203593D01*
X33347500Y-24203593D01*
X33347500Y-24296406D01*
X33347501Y-24296414D01*
X33371521Y-24386059D01*
X33371522Y-24386062D01*
X33417929Y-24466439D01*
X33417934Y-24466445D01*
X33483554Y-24532065D01*
X33483560Y-24532070D01*
X33563937Y-24578477D01*
X33563940Y-24578478D01*
X33653592Y-24602500D01*
X33653593Y-24602500D01*
X33746407Y-24602500D01*
X33746408Y-24602500D01*
X33836060Y-24578478D01*
X33916440Y-24532070D01*
X33982070Y-24466440D01*
X34028478Y-24386060D01*
X34052500Y-24296408D01*
X34052500Y-24203592D01*
X34028478Y-24113940D01*
X34028477Y-24113937D01*
X33982070Y-24033560D01*
X33982065Y-24033554D01*
X33916445Y-23967934D01*
X33916439Y-23967929D01*
X33836062Y-23921522D01*
X33836059Y-23921521D01*
X33746414Y-23897501D01*
X33746409Y-23897500D01*
X33746408Y-23897500D01*
X33653592Y-23897500D01*
X33653591Y-23897500D01*
X33653585Y-23897501D01*
X33563940Y-23921521D01*
X33563937Y-23921522D01*
X33483560Y-23967929D01*
X33483554Y-23967934D01*
X33417934Y-24033554D01*
X33417929Y-24033560D01*
X33371522Y-24113937D01*
X33371521Y-24113940D01*
X33347501Y-24203585D01*
X33347500Y-24203593D01*
X20945208Y-24203593D01*
X21668105Y-23552986D01*
X21680493Y-23544302D01*
X24349010Y-22121093D01*
X30192000Y-22121093D01*
X30192000Y-22213906D01*
X30192001Y-22213914D01*
X30216021Y-22303559D01*
X30216022Y-22303562D01*
X30262429Y-22383939D01*
X30262434Y-22383945D01*
X30328054Y-22449565D01*
X30328060Y-22449570D01*
X30408437Y-22495977D01*
X30408440Y-22495978D01*
X30498092Y-22520000D01*
X30498093Y-22520000D01*
X30590907Y-22520000D01*
X30590908Y-22520000D01*
X30680560Y-22495978D01*
X30760940Y-22449570D01*
X30826570Y-22383940D01*
X30872978Y-22303560D01*
X30897000Y-22213908D01*
X30897000Y-22137593D01*
X35976300Y-22137593D01*
X35976300Y-22230406D01*
X35976301Y-22230414D01*
X36000321Y-22320059D01*
X36000322Y-22320062D01*
X36046729Y-22400439D01*
X36046734Y-22400445D01*
X36112354Y-22466065D01*
X36112360Y-22466070D01*
X36192737Y-22512477D01*
X36192740Y-22512478D01*
X36282392Y-22536500D01*
X36282393Y-22536500D01*
X36375207Y-22536500D01*
X36375208Y-22536500D01*
X36464860Y-22512478D01*
X36545240Y-22466070D01*
X36610870Y-22400440D01*
X36657278Y-22320060D01*
X36681300Y-22230408D01*
X36681300Y-22137592D01*
X36657278Y-22047940D01*
X36657277Y-22047937D01*
X36610870Y-21967560D01*
X36610866Y-21967555D01*
X36579704Y-21936393D01*
X49271600Y-21936393D01*
X49271600Y-22029206D01*
X49271601Y-22029214D01*
X49295621Y-22118859D01*
X49295622Y-22118862D01*
X49342029Y-22199239D01*
X49342034Y-22199245D01*
X49407654Y-22264865D01*
X49407660Y-22264870D01*
X49488037Y-22311277D01*
X49488040Y-22311278D01*
X49577692Y-22335300D01*
X49577693Y-22335300D01*
X49670507Y-22335300D01*
X49670508Y-22335300D01*
X49760160Y-22311278D01*
X49840540Y-22264870D01*
X49906170Y-22199240D01*
X49951289Y-22121092D01*
X49952577Y-22118862D01*
X49952578Y-22118859D01*
X49967854Y-22061849D01*
X49976600Y-22029208D01*
X49976600Y-21936392D01*
X49952578Y-21846740D01*
X49952577Y-21846737D01*
X49906170Y-21766360D01*
X49906165Y-21766354D01*
X49840545Y-21700734D01*
X49840539Y-21700729D01*
X49760162Y-21654322D01*
X49760159Y-21654321D01*
X49670514Y-21630301D01*
X49670509Y-21630300D01*
X49670508Y-21630300D01*
X49577692Y-21630300D01*
X49577691Y-21630300D01*
X49577685Y-21630301D01*
X49488040Y-21654321D01*
X49488037Y-21654322D01*
X49407660Y-21700729D01*
X49407654Y-21700734D01*
X49342034Y-21766354D01*
X49342029Y-21766360D01*
X49295622Y-21846737D01*
X49295621Y-21846740D01*
X49271601Y-21936385D01*
X49271600Y-21936393D01*
X36579704Y-21936393D01*
X36545245Y-21901934D01*
X36545239Y-21901929D01*
X36464862Y-21855522D01*
X36464859Y-21855521D01*
X36375214Y-21831501D01*
X36375209Y-21831500D01*
X36375208Y-21831500D01*
X36282392Y-21831500D01*
X36282391Y-21831500D01*
X36282385Y-21831501D01*
X36192740Y-21855521D01*
X36192737Y-21855522D01*
X36112360Y-21901929D01*
X36112354Y-21901934D01*
X36046734Y-21967554D01*
X36046729Y-21967560D01*
X36000322Y-22047937D01*
X36000321Y-22047940D01*
X35976301Y-22137585D01*
X35976300Y-22137593D01*
X30897000Y-22137593D01*
X30897000Y-22121092D01*
X30872978Y-22031440D01*
X30872977Y-22031437D01*
X30826570Y-21951060D01*
X30826565Y-21951054D01*
X30760945Y-21885434D01*
X30760939Y-21885429D01*
X30680562Y-21839022D01*
X30680559Y-21839021D01*
X30590914Y-21815001D01*
X30590909Y-21815000D01*
X30590908Y-21815000D01*
X30498092Y-21815000D01*
X30498091Y-21815000D01*
X30498085Y-21815001D01*
X30408440Y-21839021D01*
X30408437Y-21839022D01*
X30328060Y-21885429D01*
X30328054Y-21885434D01*
X30262434Y-21951054D01*
X30262429Y-21951060D01*
X30216022Y-22031437D01*
X30216021Y-22031440D01*
X30192001Y-22121085D01*
X30192000Y-22121093D01*
X24349010Y-22121093D01*
X24586256Y-21994562D01*
X24606391Y-21987902D01*
X28517807Y-21401190D01*
X28527078Y-21400500D01*
X54437500Y-21400500D01*
X54481694Y-21418806D01*
G37*
%TD.AperFunction*%
%TA.AperFunction,Conductor*%
G36*
X61012468Y-27485106D02*
G01*
X61030774Y-27529300D01*
X61023532Y-27556319D01*
X61024091Y-27556551D01*
X61022521Y-27560340D01*
X60998501Y-27649985D01*
X60998500Y-27649993D01*
X60998500Y-27742806D01*
X60998501Y-27742814D01*
X61022521Y-27832459D01*
X61022522Y-27832462D01*
X61068929Y-27912839D01*
X61068934Y-27912845D01*
X61134554Y-27978465D01*
X61134560Y-27978470D01*
X61214937Y-28024877D01*
X61214940Y-28024878D01*
X61304592Y-28048900D01*
X61304593Y-28048900D01*
X61397407Y-28048900D01*
X61397408Y-28048900D01*
X61487060Y-28024878D01*
X61490781Y-28022730D01*
X61507500Y-28013077D01*
X61567440Y-27978470D01*
X61633070Y-27912840D01*
X61679478Y-27832460D01*
X61703500Y-27742808D01*
X61703500Y-27649992D01*
X61679478Y-27560340D01*
X61677909Y-27556551D01*
X61679014Y-27556093D01*
X61673354Y-27513129D01*
X61702471Y-27475176D01*
X61733726Y-27466800D01*
X62317834Y-27466800D01*
X62362028Y-27485106D01*
X64687694Y-29810772D01*
X64706000Y-29854966D01*
X64706000Y-29941606D01*
X64706001Y-29941614D01*
X64730021Y-30031259D01*
X64730022Y-30031262D01*
X64776429Y-30111639D01*
X64776434Y-30111645D01*
X64842054Y-30177265D01*
X64842060Y-30177270D01*
X64922437Y-30223677D01*
X64922440Y-30223678D01*
X65012092Y-30247700D01*
X65012093Y-30247700D01*
X65104907Y-30247700D01*
X65104908Y-30247700D01*
X65194560Y-30223678D01*
X65274940Y-30177270D01*
X65305804Y-30146406D01*
X65342806Y-30109405D01*
X65387000Y-30091099D01*
X65431194Y-30109405D01*
X65449500Y-30153599D01*
X65449500Y-33014901D01*
X65431194Y-33059095D01*
X65387000Y-33077401D01*
X65342806Y-33059095D01*
X65274945Y-32991234D01*
X65274939Y-32991229D01*
X65194562Y-32944822D01*
X65194559Y-32944821D01*
X65104914Y-32920801D01*
X65104909Y-32920800D01*
X65104908Y-32920800D01*
X65012092Y-32920800D01*
X65012091Y-32920800D01*
X65012085Y-32920801D01*
X64922440Y-32944821D01*
X64922437Y-32944822D01*
X64842060Y-32991229D01*
X64842054Y-32991234D01*
X64776434Y-33056854D01*
X64776429Y-33056860D01*
X64730022Y-33137237D01*
X64730021Y-33137240D01*
X64706001Y-33226885D01*
X64706000Y-33226893D01*
X64706000Y-33319706D01*
X64706001Y-33319714D01*
X64730021Y-33409359D01*
X64730022Y-33409362D01*
X64776429Y-33489739D01*
X64776434Y-33489745D01*
X64842054Y-33555365D01*
X64842060Y-33555370D01*
X64922437Y-33601777D01*
X64922440Y-33601778D01*
X65012092Y-33625800D01*
X65012093Y-33625800D01*
X65104907Y-33625800D01*
X65104908Y-33625800D01*
X65194560Y-33601778D01*
X65274940Y-33555370D01*
X65306962Y-33523348D01*
X65342806Y-33487505D01*
X65387000Y-33469199D01*
X65431194Y-33487505D01*
X65449500Y-33531699D01*
X65449500Y-37556451D01*
X65432596Y-37599197D01*
X64835919Y-38235653D01*
X64813535Y-38250937D01*
X63753305Y-38675030D01*
X63730093Y-38679500D01*
X63382784Y-38679500D01*
X63338590Y-38661194D01*
X63320284Y-38617000D01*
X63327494Y-38590091D01*
X63326909Y-38589849D01*
X63328478Y-38586059D01*
X63332029Y-38572806D01*
X63352500Y-38496408D01*
X63352500Y-38403592D01*
X63328478Y-38313940D01*
X63328477Y-38313937D01*
X63293338Y-38253077D01*
X63286878Y-38241889D01*
X63280634Y-38194464D01*
X63283257Y-38186735D01*
X63297438Y-38152500D01*
X63302272Y-38140829D01*
X63315818Y-38120560D01*
X63321672Y-38114707D01*
X63352268Y-38040837D01*
X63365816Y-38020562D01*
X63371672Y-38014707D01*
X63402268Y-37940837D01*
X63415816Y-37920562D01*
X63421672Y-37914707D01*
X63447438Y-37852500D01*
X63452500Y-37840280D01*
X63452500Y-37809766D01*
X63468873Y-37770237D01*
X63468253Y-37769823D01*
X63470336Y-37766704D01*
X63470805Y-37765573D01*
X63471672Y-37764707D01*
X63502268Y-37690837D01*
X63515816Y-37670562D01*
X63521672Y-37664707D01*
X63548313Y-37600388D01*
X63552271Y-37590831D01*
X63565817Y-37570561D01*
X63571672Y-37564707D01*
X63597972Y-37501212D01*
X63602269Y-37490837D01*
X63615817Y-37470561D01*
X63621672Y-37464707D01*
X63623027Y-37461437D01*
X63629525Y-37445747D01*
X63652268Y-37390837D01*
X63665816Y-37370562D01*
X63671672Y-37364707D01*
X63702500Y-37290279D01*
X63702500Y-37259766D01*
X63718873Y-37220237D01*
X63718253Y-37219823D01*
X63720336Y-37216704D01*
X63720805Y-37215573D01*
X63721672Y-37214707D01*
X63752500Y-37140279D01*
X63752500Y-37059720D01*
X63752500Y-36241798D01*
X63770806Y-36197604D01*
X63773970Y-36194440D01*
X63819004Y-36116440D01*
X63820377Y-36114062D01*
X63820378Y-36114059D01*
X63825108Y-36096406D01*
X63844400Y-36024408D01*
X63844400Y-35931592D01*
X63820378Y-35841940D01*
X63820377Y-35841937D01*
X63773970Y-35761560D01*
X63773965Y-35761554D01*
X63708345Y-35695934D01*
X63708339Y-35695929D01*
X63627962Y-35649522D01*
X63627959Y-35649521D01*
X63538314Y-35625501D01*
X63538309Y-35625500D01*
X63538308Y-35625500D01*
X63465814Y-35625500D01*
X63421620Y-35607194D01*
X63403314Y-35563000D01*
X63412814Y-35529876D01*
X63446665Y-35475713D01*
X63455475Y-35464639D01*
X63461922Y-35458193D01*
X63468397Y-35442558D01*
X63473135Y-35433360D01*
X63482103Y-35419013D01*
X63483608Y-35410016D01*
X63487510Y-35396415D01*
X63487744Y-35395852D01*
X63491000Y-35387992D01*
X63491000Y-35371077D01*
X63491858Y-35360756D01*
X63492227Y-35358554D01*
X63494652Y-35344071D01*
X63493180Y-35337692D01*
X63492600Y-35335177D01*
X63491000Y-35321125D01*
X63491000Y-34803593D01*
X64597500Y-34803593D01*
X64597500Y-34896406D01*
X64597501Y-34896414D01*
X64621521Y-34986059D01*
X64621522Y-34986062D01*
X64667929Y-35066439D01*
X64667934Y-35066445D01*
X64733554Y-35132065D01*
X64733560Y-35132070D01*
X64813937Y-35178477D01*
X64813940Y-35178478D01*
X64855558Y-35189630D01*
X64893509Y-35218750D01*
X64899752Y-35266176D01*
X64870632Y-35304127D01*
X64855558Y-35310370D01*
X64813940Y-35321521D01*
X64813937Y-35321522D01*
X64733560Y-35367929D01*
X64733554Y-35367934D01*
X64667934Y-35433554D01*
X64667929Y-35433560D01*
X64621522Y-35513937D01*
X64621521Y-35513940D01*
X64597501Y-35603585D01*
X64597500Y-35603593D01*
X64597500Y-35696406D01*
X64597501Y-35696414D01*
X64621521Y-35786059D01*
X64621522Y-35786062D01*
X64667929Y-35866439D01*
X64667934Y-35866445D01*
X64733554Y-35932065D01*
X64733560Y-35932070D01*
X64813937Y-35978477D01*
X64813940Y-35978478D01*
X64903592Y-36002500D01*
X64903593Y-36002500D01*
X64996407Y-36002500D01*
X64996408Y-36002500D01*
X65086060Y-35978478D01*
X65092554Y-35974729D01*
X65135904Y-35949700D01*
X65166440Y-35932070D01*
X65232070Y-35866440D01*
X65278478Y-35786060D01*
X65302500Y-35696408D01*
X65302500Y-35603592D01*
X65278478Y-35513940D01*
X65278477Y-35513937D01*
X65232070Y-35433560D01*
X65232065Y-35433554D01*
X65166445Y-35367934D01*
X65166439Y-35367929D01*
X65086062Y-35321522D01*
X65086059Y-35321521D01*
X65044441Y-35310370D01*
X65006490Y-35281250D01*
X65000247Y-35233824D01*
X65029367Y-35195873D01*
X65044441Y-35189630D01*
X65066649Y-35183679D01*
X65086060Y-35178478D01*
X65166440Y-35132070D01*
X65232070Y-35066440D01*
X65278478Y-34986060D01*
X65302500Y-34896408D01*
X65302500Y-34803592D01*
X65278478Y-34713940D01*
X65278477Y-34713937D01*
X65232070Y-34633560D01*
X65232065Y-34633554D01*
X65166445Y-34567934D01*
X65166439Y-34567929D01*
X65086062Y-34521522D01*
X65086059Y-34521521D01*
X64996414Y-34497501D01*
X64996409Y-34497500D01*
X64996408Y-34497500D01*
X64903592Y-34497500D01*
X64903591Y-34497500D01*
X64903585Y-34497501D01*
X64813940Y-34521521D01*
X64813937Y-34521522D01*
X64733560Y-34567929D01*
X64733554Y-34567934D01*
X64667934Y-34633554D01*
X64667929Y-34633560D01*
X64621522Y-34713937D01*
X64621521Y-34713940D01*
X64597501Y-34803585D01*
X64597500Y-34803593D01*
X63491000Y-34803593D01*
X63491000Y-32343731D01*
X63491860Y-32333396D01*
X63492061Y-32332191D01*
X63492063Y-32332188D01*
X63492059Y-32332069D01*
X63491029Y-32298065D01*
X63491000Y-32296171D01*
X63491000Y-32262006D01*
X63490760Y-32260800D01*
X63489587Y-32250496D01*
X63489292Y-32240754D01*
X63456348Y-31153593D01*
X63847500Y-31153593D01*
X63847500Y-31246406D01*
X63847501Y-31246414D01*
X63871521Y-31336059D01*
X63871522Y-31336062D01*
X63917929Y-31416439D01*
X63917934Y-31416445D01*
X63983554Y-31482065D01*
X63983560Y-31482070D01*
X64063935Y-31528476D01*
X64063937Y-31528476D01*
X64063940Y-31528478D01*
X64078451Y-31532366D01*
X64116400Y-31561485D01*
X64122645Y-31608912D01*
X64111866Y-31630774D01*
X64109733Y-31633554D01*
X64063322Y-31713937D01*
X64063321Y-31713940D01*
X64039301Y-31803585D01*
X64039300Y-31803593D01*
X64039300Y-31896406D01*
X64039301Y-31896414D01*
X64063321Y-31986059D01*
X64063322Y-31986062D01*
X64109729Y-32066439D01*
X64109734Y-32066445D01*
X64175354Y-32132065D01*
X64175360Y-32132070D01*
X64255737Y-32178477D01*
X64255740Y-32178478D01*
X64345392Y-32202500D01*
X64345393Y-32202500D01*
X64438207Y-32202500D01*
X64438208Y-32202500D01*
X64527860Y-32178478D01*
X64608240Y-32132070D01*
X64673870Y-32066440D01*
X64713673Y-31997500D01*
X64720277Y-31986062D01*
X64720278Y-31986059D01*
X64744300Y-31896408D01*
X64744300Y-31803592D01*
X64720278Y-31713940D01*
X64720277Y-31713937D01*
X64673870Y-31633560D01*
X64673865Y-31633554D01*
X64608245Y-31567934D01*
X64608239Y-31567929D01*
X64527862Y-31521522D01*
X64513347Y-31517633D01*
X64475398Y-31488512D01*
X64469155Y-31441085D01*
X64479940Y-31419216D01*
X64482065Y-31416444D01*
X64482070Y-31416440D01*
X64528478Y-31336060D01*
X64552500Y-31246408D01*
X64552500Y-31153592D01*
X64528478Y-31063940D01*
X64528477Y-31063937D01*
X64482070Y-30983560D01*
X64482065Y-30983554D01*
X64416445Y-30917934D01*
X64416439Y-30917929D01*
X64336062Y-30871522D01*
X64336059Y-30871521D01*
X64246414Y-30847501D01*
X64246409Y-30847500D01*
X64246408Y-30847500D01*
X64153592Y-30847500D01*
X64153591Y-30847500D01*
X64153585Y-30847501D01*
X64063940Y-30871521D01*
X64063937Y-30871522D01*
X63983560Y-30917929D01*
X63983554Y-30917934D01*
X63917934Y-30983554D01*
X63917929Y-30983560D01*
X63871522Y-31063937D01*
X63871521Y-31063940D01*
X63847501Y-31153585D01*
X63847500Y-31153593D01*
X63456348Y-31153593D01*
X63441029Y-30648051D01*
X63441000Y-30646158D01*
X63441000Y-30612007D01*
X63440764Y-30610822D01*
X63440712Y-30610366D01*
X63440637Y-30610040D01*
X63440236Y-30608171D01*
X63440174Y-30607860D01*
X63440033Y-30607420D01*
X63439762Y-30606245D01*
X63439762Y-30606240D01*
X63425726Y-30575063D01*
X63424980Y-30573336D01*
X63420593Y-30562745D01*
X63411921Y-30541807D01*
X63411915Y-30541801D01*
X63411244Y-30540795D01*
X63411016Y-30540383D01*
X63410815Y-30540101D01*
X63409728Y-30538526D01*
X63409574Y-30538296D01*
X63409289Y-30537959D01*
X63408572Y-30536953D01*
X63383667Y-30513513D01*
X63382309Y-30512195D01*
X63070109Y-30199994D01*
X63051803Y-30155800D01*
X63052338Y-30147643D01*
X63052500Y-30146412D01*
X63052500Y-30053593D01*
X63052498Y-30053585D01*
X63048133Y-30037296D01*
X63028478Y-29963940D01*
X63026042Y-29959720D01*
X62984897Y-29888455D01*
X62978653Y-29841029D01*
X63007772Y-29803080D01*
X63055940Y-29775270D01*
X63121570Y-29709640D01*
X63167978Y-29629260D01*
X63192000Y-29539608D01*
X63192000Y-29446792D01*
X63167978Y-29357140D01*
X63167977Y-29357137D01*
X63121570Y-29276760D01*
X63121565Y-29276754D01*
X63055945Y-29211134D01*
X63055939Y-29211129D01*
X62975562Y-29164722D01*
X62975559Y-29164721D01*
X62885914Y-29140701D01*
X62885909Y-29140700D01*
X62885908Y-29140700D01*
X62793092Y-29140700D01*
X62793091Y-29140700D01*
X62793085Y-29140701D01*
X62703440Y-29164721D01*
X62703437Y-29164722D01*
X62623060Y-29211129D01*
X62623059Y-29211130D01*
X62605861Y-29228329D01*
X62561795Y-29272394D01*
X62517602Y-29290700D01*
X52038067Y-29290700D01*
X51993873Y-29272394D01*
X50623906Y-27902427D01*
X50605600Y-27858233D01*
X50605600Y-27771593D01*
X50605598Y-27771585D01*
X50581578Y-27681940D01*
X50581577Y-27681938D01*
X50568132Y-27658651D01*
X50561887Y-27611225D01*
X50591007Y-27573274D01*
X50622258Y-27564900D01*
X53329934Y-27564900D01*
X53374128Y-27583206D01*
X53423093Y-27632171D01*
X53423094Y-27632171D01*
X53423096Y-27632173D01*
X53497517Y-27662999D01*
X53497520Y-27663000D01*
X53933180Y-27663000D01*
X53964601Y-27649985D01*
X54007603Y-27632173D01*
X54007603Y-27632172D01*
X54007607Y-27632171D01*
X54154673Y-27485106D01*
X54198867Y-27466800D01*
X60968274Y-27466800D01*
X61012468Y-27485106D01*
G37*
%TD.AperFunction*%
%TA.AperFunction,Conductor*%
G36*
X37265388Y-33339439D02*
G01*
X37270538Y-33344049D01*
X37308554Y-33382065D01*
X37308560Y-33382070D01*
X37388937Y-33428477D01*
X37388940Y-33428478D01*
X37478592Y-33452500D01*
X37478593Y-33452500D01*
X37571407Y-33452500D01*
X37571408Y-33452500D01*
X37661060Y-33428478D01*
X37684797Y-33414772D01*
X37732222Y-33408528D01*
X37742477Y-33412263D01*
X37777764Y-33428730D01*
X38173648Y-33613476D01*
X38183282Y-33619068D01*
X38195768Y-33627895D01*
X38206273Y-33630273D01*
X38218898Y-33634593D01*
X38228656Y-33639147D01*
X38243919Y-33639817D01*
X38254976Y-33641299D01*
X39220694Y-33859953D01*
X39259753Y-33887565D01*
X39267848Y-33934711D01*
X39251086Y-33965103D01*
X39217429Y-33998760D01*
X39171022Y-34079137D01*
X39171021Y-34079140D01*
X39147001Y-34168785D01*
X39147000Y-34168793D01*
X39147000Y-34261606D01*
X39147001Y-34261614D01*
X39171021Y-34351259D01*
X39171022Y-34351262D01*
X39217429Y-34431639D01*
X39217434Y-34431645D01*
X39283054Y-34497265D01*
X39283060Y-34497270D01*
X39363437Y-34543677D01*
X39363440Y-34543678D01*
X39453092Y-34567700D01*
X39453093Y-34567700D01*
X39545907Y-34567700D01*
X39545908Y-34567700D01*
X39635560Y-34543678D01*
X39715940Y-34497270D01*
X39781570Y-34431640D01*
X39827978Y-34351260D01*
X39839840Y-34306986D01*
X39868959Y-34269038D01*
X39916385Y-34262793D01*
X39939788Y-34274792D01*
X40020302Y-34340668D01*
X40024450Y-34344383D01*
X40043513Y-34363049D01*
X40043515Y-34363050D01*
X40043517Y-34363052D01*
X40043518Y-34363052D01*
X40045767Y-34364521D01*
X40056108Y-34370634D01*
X40058455Y-34371884D01*
X40084004Y-34379592D01*
X40089253Y-34381434D01*
X40114021Y-34391389D01*
X40114021Y-34391388D01*
X40114022Y-34391389D01*
X40116686Y-34391890D01*
X40128544Y-34393575D01*
X40131196Y-34393832D01*
X40131198Y-34393831D01*
X40131202Y-34393833D01*
X40157776Y-34391175D01*
X40163306Y-34390869D01*
X44569603Y-34344488D01*
X44613988Y-34362328D01*
X44615322Y-34363833D01*
X44683554Y-34432065D01*
X44683560Y-34432070D01*
X44763937Y-34478477D01*
X44763940Y-34478478D01*
X44853592Y-34502500D01*
X44853593Y-34502500D01*
X44946407Y-34502500D01*
X44946408Y-34502500D01*
X45036060Y-34478478D01*
X45116440Y-34432070D01*
X45182070Y-34366440D01*
X45218669Y-34303048D01*
X45228477Y-34286062D01*
X45228478Y-34286059D01*
X45230473Y-34278614D01*
X45252500Y-34196408D01*
X45252500Y-34141550D01*
X45270806Y-34097356D01*
X45315000Y-34079050D01*
X45348903Y-34089045D01*
X46025295Y-34525840D01*
X46042806Y-34537148D01*
X46070001Y-34576501D01*
X46061404Y-34623558D01*
X46022051Y-34650753D01*
X45992725Y-34650023D01*
X45983309Y-34647500D01*
X45983308Y-34647500D01*
X45890492Y-34647500D01*
X45890491Y-34647500D01*
X45890485Y-34647501D01*
X45800840Y-34671521D01*
X45800837Y-34671522D01*
X45720460Y-34717929D01*
X45720454Y-34717934D01*
X45654834Y-34783554D01*
X45654829Y-34783560D01*
X45608422Y-34863937D01*
X45608421Y-34863940D01*
X45584401Y-34953585D01*
X45584400Y-34953593D01*
X45584400Y-35046406D01*
X45584401Y-35046414D01*
X45608421Y-35136059D01*
X45608422Y-35136062D01*
X45654829Y-35216439D01*
X45654834Y-35216445D01*
X45720454Y-35282065D01*
X45720460Y-35282070D01*
X45800837Y-35328477D01*
X45800840Y-35328478D01*
X45890492Y-35352500D01*
X45890493Y-35352500D01*
X45983308Y-35352500D01*
X45996133Y-35349063D01*
X46043560Y-35355305D01*
X46052511Y-35361576D01*
X46417646Y-35668289D01*
X46423841Y-35674267D01*
X46457053Y-35711060D01*
X46529609Y-35791439D01*
X46555260Y-35819855D01*
X46571284Y-35864927D01*
X46550745Y-35908128D01*
X46525044Y-35922104D01*
X46501837Y-35928322D01*
X46421460Y-35974729D01*
X46421454Y-35974734D01*
X46355834Y-36040354D01*
X46355829Y-36040360D01*
X46309422Y-36120737D01*
X46309421Y-36120740D01*
X46285401Y-36210385D01*
X46285400Y-36210393D01*
X46285400Y-36303206D01*
X46285401Y-36303214D01*
X46309421Y-36392859D01*
X46309422Y-36392862D01*
X46355829Y-36473239D01*
X46355834Y-36473245D01*
X46421454Y-36538865D01*
X46421460Y-36538870D01*
X46494211Y-36580874D01*
X46523331Y-36618825D01*
X46517086Y-36666251D01*
X46479135Y-36695371D01*
X46462960Y-36697500D01*
X45584154Y-36697500D01*
X45570759Y-36696048D01*
X45569765Y-36695830D01*
X45117980Y-36596700D01*
X44129698Y-36379853D01*
X44090454Y-36352501D01*
X44082045Y-36305410D01*
X44098901Y-36274609D01*
X44107066Y-36266444D01*
X44107070Y-36266440D01*
X44146704Y-36197792D01*
X44153477Y-36186062D01*
X44153478Y-36186059D01*
X44154548Y-36182065D01*
X44177500Y-36096408D01*
X44177500Y-36003592D01*
X44153478Y-35913940D01*
X44153477Y-35913937D01*
X44107070Y-35833560D01*
X44107065Y-35833554D01*
X44041445Y-35767934D01*
X44041439Y-35767929D01*
X43961062Y-35721522D01*
X43961059Y-35721521D01*
X43871414Y-35697501D01*
X43871409Y-35697500D01*
X43871408Y-35697500D01*
X43778592Y-35697500D01*
X43778591Y-35697500D01*
X43778585Y-35697501D01*
X43688940Y-35721521D01*
X43688937Y-35721522D01*
X43608560Y-35767929D01*
X43608554Y-35767934D01*
X43542934Y-35833554D01*
X43542929Y-35833560D01*
X43496522Y-35913937D01*
X43496521Y-35913940D01*
X43472501Y-36003585D01*
X43472500Y-36003593D01*
X43472500Y-36096407D01*
X43485548Y-36145105D01*
X43479303Y-36192532D01*
X43441353Y-36221652D01*
X43411782Y-36222329D01*
X40902936Y-35671844D01*
X40643381Y-35614893D01*
X44739300Y-35614893D01*
X44739300Y-35707706D01*
X44739301Y-35707714D01*
X44763321Y-35797359D01*
X44763322Y-35797362D01*
X44809729Y-35877739D01*
X44809734Y-35877745D01*
X44875354Y-35943365D01*
X44875360Y-35943370D01*
X44955737Y-35989777D01*
X44955740Y-35989778D01*
X45045392Y-36013800D01*
X45045393Y-36013800D01*
X45138207Y-36013800D01*
X45138208Y-36013800D01*
X45227860Y-35989778D01*
X45308240Y-35943370D01*
X45373870Y-35877740D01*
X45420278Y-35797360D01*
X45444300Y-35707708D01*
X45444300Y-35614892D01*
X45420278Y-35525240D01*
X45420277Y-35525237D01*
X45373870Y-35444860D01*
X45373865Y-35444854D01*
X45308245Y-35379234D01*
X45308239Y-35379229D01*
X45227862Y-35332822D01*
X45227859Y-35332821D01*
X45138214Y-35308801D01*
X45138209Y-35308800D01*
X45138208Y-35308800D01*
X45045392Y-35308800D01*
X45045391Y-35308800D01*
X45045385Y-35308801D01*
X44955740Y-35332821D01*
X44955737Y-35332822D01*
X44875360Y-35379229D01*
X44875354Y-35379234D01*
X44809734Y-35444854D01*
X44809729Y-35444860D01*
X44763322Y-35525237D01*
X44763321Y-35525240D01*
X44739301Y-35614885D01*
X44739300Y-35614893D01*
X40643381Y-35614893D01*
X39925016Y-35457271D01*
X39888014Y-35431482D01*
X39887461Y-35431907D01*
X39886123Y-35430164D01*
X39885772Y-35429919D01*
X39885145Y-35428889D01*
X39884965Y-35428654D01*
X39819345Y-35363034D01*
X39819339Y-35363029D01*
X39738961Y-35316622D01*
X39656652Y-35294567D01*
X39628635Y-35278391D01*
X39396658Y-35046414D01*
X39152089Y-34801844D01*
X39152088Y-34801843D01*
X39088811Y-34765311D01*
X39088809Y-34765310D01*
X39018239Y-34746399D01*
X39018234Y-34746399D01*
X38945166Y-34746399D01*
X38941341Y-34746399D01*
X38941325Y-34746400D01*
X37665400Y-34746400D01*
X37621206Y-34728094D01*
X37602900Y-34683900D01*
X37602900Y-34605420D01*
X37602899Y-34605417D01*
X37572073Y-34530996D01*
X37572069Y-34530991D01*
X37548568Y-34507490D01*
X37541152Y-34496388D01*
X37540344Y-34496928D01*
X37536922Y-34491807D01*
X36813390Y-33768275D01*
X36799841Y-33747998D01*
X36787134Y-33717321D01*
X36786922Y-33716807D01*
X36786919Y-33716804D01*
X36783503Y-33711691D01*
X36783840Y-33711465D01*
X36774840Y-33697994D01*
X36770756Y-33688132D01*
X36766000Y-33664219D01*
X36766000Y-33535778D01*
X36770755Y-33511867D01*
X36774839Y-33502005D01*
X36783839Y-33488538D01*
X36783501Y-33488312D01*
X36786918Y-33483196D01*
X36786922Y-33483193D01*
X36799842Y-33451998D01*
X36813387Y-33431726D01*
X36831726Y-33413387D01*
X36851998Y-33399842D01*
X36883193Y-33386922D01*
X36883196Y-33386918D01*
X36888312Y-33383501D01*
X36888537Y-33383838D01*
X36902001Y-33374842D01*
X36912341Y-33370559D01*
X36933193Y-33361922D01*
X36933193Y-33361921D01*
X36938165Y-33359862D01*
X36955174Y-33355487D01*
X37219442Y-33326125D01*
X37265388Y-33339439D01*
G37*
%TD.AperFunction*%
%TA.AperFunction,Conductor*%
G36*
X61342327Y-30059005D02*
G01*
X62448894Y-31165573D01*
X62467200Y-31209766D01*
X62467200Y-31296406D01*
X62467201Y-31296414D01*
X62491221Y-31386059D01*
X62491222Y-31386062D01*
X62537629Y-31466439D01*
X62537634Y-31466445D01*
X62600895Y-31529706D01*
X62619201Y-31573900D01*
X62600896Y-31618094D01*
X62554195Y-31664794D01*
X62510003Y-31683100D01*
X52990867Y-31683100D01*
X52946673Y-31664794D01*
X51639806Y-30357927D01*
X51621500Y-30313733D01*
X51621500Y-30227093D01*
X51621498Y-30227085D01*
X51602397Y-30155800D01*
X51597478Y-30137440D01*
X51597476Y-30137436D01*
X51595752Y-30134449D01*
X51589509Y-30087023D01*
X51618630Y-30049073D01*
X51649879Y-30040700D01*
X61298134Y-30040700D01*
X61342327Y-30059005D01*
G37*
%TD.AperFunction*%
%TA.AperFunction,Conductor*%
G36*
X28990694Y-29559306D02*
G01*
X29009000Y-29603500D01*
X29009000Y-30344996D01*
X28990694Y-30389190D01*
X28568087Y-30811796D01*
X28523893Y-30830102D01*
X28479699Y-30811796D01*
X28469769Y-30798856D01*
X28432070Y-30733560D01*
X28432068Y-30733558D01*
X28432065Y-30733554D01*
X28366445Y-30667934D01*
X28366439Y-30667929D01*
X28286062Y-30621522D01*
X28286059Y-30621521D01*
X28196414Y-30597501D01*
X28196409Y-30597500D01*
X28196408Y-30597500D01*
X28103592Y-30597500D01*
X28103591Y-30597500D01*
X28103585Y-30597501D01*
X28013940Y-30621521D01*
X28013937Y-30621522D01*
X27933560Y-30667929D01*
X27933554Y-30667934D01*
X27867934Y-30733554D01*
X27867929Y-30733560D01*
X27821522Y-30813937D01*
X27821521Y-30813940D01*
X27797501Y-30903585D01*
X27797500Y-30903593D01*
X27797500Y-30910234D01*
X27779194Y-30954428D01*
X27735000Y-30972734D01*
X27690806Y-30954428D01*
X27535572Y-30799194D01*
X27517266Y-30755000D01*
X27535572Y-30710806D01*
X27579766Y-30692500D01*
X27606407Y-30692500D01*
X27606408Y-30692500D01*
X27696060Y-30668478D01*
X27776440Y-30622070D01*
X27842070Y-30556440D01*
X27888478Y-30476060D01*
X27912500Y-30386408D01*
X27912500Y-30293592D01*
X27888478Y-30203940D01*
X27888477Y-30203937D01*
X27842070Y-30123560D01*
X27842065Y-30123554D01*
X27776445Y-30057934D01*
X27776441Y-30057931D01*
X27776440Y-30057930D01*
X27754506Y-30045266D01*
X27725387Y-30007314D01*
X27731632Y-29959888D01*
X27741561Y-29946948D01*
X27752070Y-29936440D01*
X27798478Y-29856060D01*
X27822500Y-29766408D01*
X27822500Y-29766398D01*
X27823034Y-29762349D01*
X27825633Y-29762691D01*
X27840806Y-29726061D01*
X27853346Y-29716363D01*
X28137285Y-29549607D01*
X28168936Y-29541000D01*
X28946500Y-29541000D01*
X28990694Y-29559306D01*
G37*
%TD.AperFunction*%
%TA.AperFunction,Conductor*%
G36*
X43728830Y-26070806D02*
G01*
X43747136Y-26115000D01*
X43728830Y-26159194D01*
X43700812Y-26175370D01*
X43659940Y-26186321D01*
X43659937Y-26186322D01*
X43579560Y-26232729D01*
X43579554Y-26232734D01*
X43513934Y-26298354D01*
X43513929Y-26298360D01*
X43467522Y-26378737D01*
X43467521Y-26378740D01*
X43443501Y-26468385D01*
X43443500Y-26468393D01*
X43443500Y-26561206D01*
X43443501Y-26561214D01*
X43467521Y-26650859D01*
X43467522Y-26650862D01*
X43513929Y-26731239D01*
X43513934Y-26731245D01*
X43579554Y-26796865D01*
X43579560Y-26796870D01*
X43658373Y-26842374D01*
X43687493Y-26880325D01*
X43681248Y-26927751D01*
X43643297Y-26956871D01*
X43627122Y-26959000D01*
X43487992Y-26959000D01*
X43412008Y-26959000D01*
X43341815Y-26988075D01*
X43341805Y-26988079D01*
X43336688Y-26991498D01*
X43336463Y-26991162D01*
X43323000Y-27000157D01*
X43291806Y-27013078D01*
X43286688Y-27016498D01*
X43286463Y-27016162D01*
X43273000Y-27025157D01*
X43241806Y-27038078D01*
X43241802Y-27038081D01*
X43114191Y-27165694D01*
X43069997Y-27184000D01*
X40810779Y-27184000D01*
X40786863Y-27179242D01*
X40776995Y-27175155D01*
X40763534Y-27166159D01*
X40763309Y-27166497D01*
X40758194Y-27163079D01*
X40758193Y-27163078D01*
X40726999Y-27150157D01*
X40706724Y-27136609D01*
X40283194Y-26713079D01*
X40283193Y-26713078D01*
X40212992Y-26684000D01*
X40212991Y-26684000D01*
X38851318Y-26684000D01*
X38807124Y-26665694D01*
X38788818Y-26621500D01*
X38797192Y-26590250D01*
X38828475Y-26536065D01*
X38828478Y-26536060D01*
X38852500Y-26446408D01*
X38852500Y-26353592D01*
X38828478Y-26263940D01*
X38828477Y-26263937D01*
X38782070Y-26183560D01*
X38782065Y-26183554D01*
X38757705Y-26159194D01*
X38739399Y-26115000D01*
X38757705Y-26070806D01*
X38801899Y-26052500D01*
X43684636Y-26052500D01*
X43728830Y-26070806D01*
G37*
%TD.AperFunction*%
%TD*%
M02*
