%TF.GenerationSoftware,KiCad,Pcbnew,10.0.6*%
%TF.CreationDate,2026-09-09T07:02:47-07:00*%
%TF.ProjectId,Anticipy_R1_E1_PROTOTYPE,416e7469-6369-4707-995f-52315f45315f,E1P1*%
%TF.SameCoordinates,Original*%
%TF.FileFunction,Soldermask,Top*%
%TF.FilePolarity,Negative*%
%FSLAX46Y46*%
G04 Gerber Fmt 4.6, Leading zero omitted, Abs format (unit mm)*
G04 Created by KiCad (PCBNEW 10.0.6) date 2026-09-09 07:02:47*
%MOMM*%
%LPD*%
G01*
G04 APERTURE LIST*
G04 Aperture macros list*
%AMRoundRect*
0 Rectangle with rounded corners*
0 $1 Rounding radius*
0 $2 $3 $4 $5 $6 $7 $8 $9 X,Y pos of 4 corners*
0 Add a 4 corners polygon primitive as box body*
4,1,4,$2,$3,$4,$5,$6,$7,$8,$9,$2,$3,0*
0 Add four circle primitives for the rounded corners*
1,1,$1+$1,$2,$3*
1,1,$1+$1,$4,$5*
1,1,$1+$1,$6,$7*
1,1,$1+$1,$8,$9*
0 Add four rect primitives between the rounded corners*
20,1,$1+$1,$2,$3,$4,$5,0*
20,1,$1+$1,$4,$5,$6,$7,0*
20,1,$1+$1,$6,$7,$8,$9,0*
20,1,$1+$1,$8,$9,$2,$3,0*%
G04 Aperture macros list end*
%ADD10RoundRect,0.135000X-0.135000X-0.185000X0.135000X-0.185000X0.135000X0.185000X-0.135000X0.185000X0*%
%ADD11RoundRect,0.225000X0.225000X0.250000X-0.225000X0.250000X-0.225000X-0.250000X0.225000X-0.250000X0*%
%ADD12RoundRect,0.125000X-0.075000X0.075000X-0.075000X-0.075000X0.075000X-0.075000X0.075000X0.075000X0*%
%ADD13R,1.600000X0.550000*%
%ADD14R,0.600000X0.400000*%
%ADD15R,0.400000X0.600000*%
%ADD16RoundRect,0.100000X0.100000X-0.130000X0.100000X0.130000X-0.100000X0.130000X-0.100000X-0.130000X0*%
%ADD17R,0.500000X0.400000*%
%ADD18R,0.900000X1.700000*%
%ADD19RoundRect,0.140000X-0.140000X-0.170000X0.140000X-0.170000X0.140000X0.170000X-0.140000X0.170000X0*%
%ADD20RoundRect,0.150000X0.587500X0.150000X-0.587500X0.150000X-0.587500X-0.150000X0.587500X-0.150000X0*%
%ADD21O,0.950000X0.400000*%
%ADD22O,0.400000X0.950000*%
%ADD23RoundRect,0.076200X1.750000X1.750000X-1.750000X1.750000X-1.750000X-1.750000X1.750000X-1.750000X0*%
%ADD24RoundRect,0.225000X-0.250000X0.225000X-0.250000X-0.225000X0.250000X-0.225000X0.250000X0.225000X0*%
%ADD25R,1.100000X0.600000*%
%ADD26R,1.100000X0.300000*%
%ADD27O,1.800000X1.000000*%
%ADD28O,2.200000X1.000000*%
%ADD29RoundRect,0.140000X0.170000X-0.140000X0.170000X0.140000X-0.170000X0.140000X-0.170000X-0.140000X0*%
%ADD30RoundRect,0.112500X-0.187500X-0.112500X0.187500X-0.112500X0.187500X0.112500X-0.187500X0.112500X0*%
%ADD31R,0.450000X0.950000*%
%ADD32R,1.300000X0.350000*%
%ADD33R,0.350000X2.300000*%
%ADD34RoundRect,0.112500X-0.237500X0.112500X-0.237500X-0.112500X0.237500X-0.112500X0.237500X0.112500X0*%
%ADD35RoundRect,0.225000X0.250000X-0.225000X0.250000X0.225000X-0.250000X0.225000X-0.250000X-0.225000X0*%
%ADD36RoundRect,0.135000X0.185000X-0.135000X0.185000X0.135000X-0.185000X0.135000X-0.185000X-0.135000X0*%
%ADD37R,0.550000X1.600000*%
%ADD38RoundRect,0.250000X-0.250000X-0.475000X0.250000X-0.475000X0.250000X0.475000X-0.250000X0.475000X0*%
%ADD39RoundRect,0.048000X-0.102000X-0.202000X0.102000X-0.202000X0.102000X0.202000X-0.102000X0.202000X0*%
%ADD40RoundRect,0.125000X-0.200000X-0.125000X0.200000X-0.125000X0.200000X0.125000X-0.200000X0.125000X0*%
%ADD41R,3.400000X4.300000*%
G04 APERTURE END LIST*
D10*
%TO.C,R13*%
X52690000Y-36400000D03*
X53710000Y-36400000D03*
%TD*%
%TO.C,R6*%
X48390000Y-36300000D03*
X49410000Y-36300000D03*
%TD*%
D11*
%TO.C,C7*%
X41475000Y-32950000D03*
X39925000Y-32950000D03*
%TD*%
%TO.C,C6*%
X30950000Y-25500000D03*
X29400000Y-25500000D03*
%TD*%
D12*
%TO.C,U4*%
X27725000Y-29100000D03*
X27725000Y-29800000D03*
X28575000Y-29450000D03*
%TD*%
D13*
%TO.C,L1*%
X41900000Y-31350000D03*
X41900000Y-29900000D03*
%TD*%
D14*
%TO.C,U1*%
X55100000Y-25750000D03*
X55100000Y-26850000D03*
X55100000Y-27650000D03*
X55100000Y-29250000D03*
X56000000Y-29650000D03*
X55100000Y-30050000D03*
X56000000Y-30450000D03*
X55100000Y-30850000D03*
X56000000Y-31250000D03*
X55100000Y-31650000D03*
X56000000Y-32050000D03*
X55100000Y-32450000D03*
X56000000Y-32850000D03*
X55100000Y-33250000D03*
D15*
X54950000Y-36650000D03*
X55750000Y-36650000D03*
X56550000Y-36650000D03*
X57350000Y-36650000D03*
X57750000Y-35750000D03*
X58150000Y-36650000D03*
X58550000Y-35750000D03*
X58950000Y-36650000D03*
X59350000Y-35750000D03*
X59750000Y-36650000D03*
X60150000Y-35750000D03*
X60550000Y-36650000D03*
X60950000Y-35750000D03*
X61350000Y-36650000D03*
X61750000Y-35750000D03*
X62150000Y-36650000D03*
X62950000Y-36650000D03*
X63750000Y-36650000D03*
X64550000Y-36650000D03*
D14*
X64400000Y-35650000D03*
X64400000Y-34850000D03*
X63500000Y-34450000D03*
X64400000Y-34050000D03*
X63500000Y-33650000D03*
X64400000Y-33250000D03*
X63500000Y-32850000D03*
X64400000Y-32450000D03*
X63500000Y-32050000D03*
X63500000Y-31250000D03*
X64400000Y-30850000D03*
X63500000Y-30450000D03*
X64400000Y-30050000D03*
X63500000Y-29650000D03*
X64400000Y-29250000D03*
X63500000Y-28850000D03*
X63500000Y-28050000D03*
X64400000Y-27650000D03*
X63500000Y-27250000D03*
X64400000Y-26850000D03*
X63500000Y-26450000D03*
X64400000Y-25750000D03*
D15*
X57750000Y-30050000D03*
X58550000Y-30050000D03*
X59350000Y-30050000D03*
X60150000Y-30050000D03*
X60950000Y-30050000D03*
X61750000Y-30050000D03*
%TD*%
D16*
%TO.C,R2*%
X35000000Y-24920000D03*
X35000000Y-24280000D03*
%TD*%
D17*
%TO.C,LED1*%
X34600000Y-36350000D03*
X33400000Y-36350000D03*
X34600000Y-37050000D03*
X33400000Y-37050000D03*
%TD*%
D18*
%TO.C,SW1*%
X28300000Y-36300000D03*
X31700000Y-36300000D03*
%TD*%
D19*
%TO.C,C20*%
X49620000Y-26800000D03*
X50580000Y-26800000D03*
%TD*%
D20*
%TO.C,Q1*%
X46887500Y-37450000D03*
X46887500Y-35550000D03*
X45012500Y-36500000D03*
%TD*%
D16*
%TO.C,R1*%
X34400000Y-24920000D03*
X34400000Y-24280000D03*
%TD*%
D11*
%TO.C,C8*%
X42700000Y-25750000D03*
X41150000Y-25750000D03*
%TD*%
D21*
%TO.C,U2*%
X37650000Y-30350000D03*
X37650000Y-29850000D03*
X37650000Y-29350000D03*
X37650000Y-28850000D03*
X37650000Y-28350000D03*
X37650000Y-27850000D03*
X37650000Y-27350000D03*
X37650000Y-26850000D03*
D22*
X36950000Y-26150000D03*
X36450000Y-26150000D03*
X35950000Y-26150000D03*
X35450000Y-26150000D03*
X34950000Y-26150000D03*
X34450000Y-26150000D03*
X33950000Y-26150000D03*
X33450000Y-26150000D03*
D21*
X32750000Y-26850000D03*
X32750000Y-27350000D03*
X32750000Y-27850000D03*
X32750000Y-28350000D03*
X32750000Y-28850000D03*
X32750000Y-29350000D03*
X32750000Y-29850000D03*
X32750000Y-30350000D03*
D22*
X33450000Y-31050000D03*
X33950000Y-31050000D03*
X34450000Y-31050000D03*
X34950000Y-31050000D03*
X35450000Y-31050000D03*
X35950000Y-31050000D03*
X36450000Y-31050000D03*
X36950000Y-31050000D03*
D23*
X35200000Y-28600000D03*
%TD*%
D10*
%TO.C,R5*%
X48390000Y-35000000D03*
X49410000Y-35000000D03*
%TD*%
D24*
%TO.C,C2*%
X40025000Y-29375000D03*
X40025000Y-30925000D03*
%TD*%
D25*
%TO.C,J1*%
X26750000Y-33200000D03*
X26750000Y-32400000D03*
D26*
X26750000Y-31750000D03*
X26750000Y-31250000D03*
X26750000Y-30750000D03*
X26750000Y-30250000D03*
X26750000Y-29750000D03*
X26750000Y-29250000D03*
X26750000Y-28750000D03*
X26750000Y-28250000D03*
D25*
X26750000Y-27600000D03*
X26750000Y-26800000D03*
D27*
X25600000Y-35620000D03*
X25600000Y-24380000D03*
D28*
X21600000Y-35620000D03*
X21600000Y-24380000D03*
%TD*%
D19*
%TO.C,C14*%
X39145000Y-31900000D03*
X40105000Y-31900000D03*
%TD*%
D29*
%TO.C,C17*%
X53250000Y-31730000D03*
X53250000Y-30770000D03*
%TD*%
D30*
%TO.C,D1*%
X41300000Y-35000000D03*
X43400000Y-35000000D03*
%TD*%
D31*
%TO.C,MIC2*%
X51625000Y-24575000D03*
X51625000Y-23225000D03*
X50775000Y-23225000D03*
X50775000Y-24575000D03*
D32*
X51200000Y-25625000D03*
D33*
X52425000Y-23900000D03*
D32*
X51200000Y-22175000D03*
D33*
X49975000Y-23900000D03*
%TD*%
D19*
%TO.C,C19*%
X44820000Y-26800000D03*
X45780000Y-26800000D03*
%TD*%
D16*
%TO.C,C13*%
X35800000Y-24920000D03*
X35800000Y-24280000D03*
%TD*%
D34*
%TO.C,U6*%
X27900000Y-22450000D03*
X27900000Y-23750000D03*
X29900000Y-23100000D03*
%TD*%
D10*
%TO.C,R8*%
X46790000Y-26800000D03*
X47810000Y-26800000D03*
%TD*%
D35*
%TO.C,C4*%
X29500000Y-28175000D03*
X29500000Y-26625000D03*
%TD*%
%TO.C,C3*%
X40025000Y-28325000D03*
X40025000Y-26775000D03*
%TD*%
D36*
%TO.C,R7*%
X53250000Y-33660000D03*
X53250000Y-32640000D03*
%TD*%
D10*
%TO.C,R12*%
X50640000Y-36400000D03*
X51660000Y-36400000D03*
%TD*%
D19*
%TO.C,C22*%
X39520000Y-36800000D03*
X40480000Y-36800000D03*
%TD*%
%TO.C,C26*%
X63020000Y-38000000D03*
X63980000Y-38000000D03*
%TD*%
D37*
%TO.C,L2*%
X43125000Y-27575000D03*
X41675000Y-27575000D03*
%TD*%
D31*
%TO.C,MIC1*%
X46725000Y-24575000D03*
X46725000Y-23225000D03*
X45875000Y-23225000D03*
X45875000Y-24575000D03*
D32*
X46300000Y-25625000D03*
D33*
X47525000Y-23900000D03*
D32*
X46300000Y-22175000D03*
D33*
X45075000Y-23900000D03*
%TD*%
D38*
%TO.C,C23*%
X36350000Y-36800000D03*
X38250000Y-36800000D03*
%TD*%
D16*
%TO.C,R3*%
X32500000Y-24920000D03*
X32500000Y-24280000D03*
%TD*%
D24*
%TO.C,C10*%
X34600000Y-33325000D03*
X34600000Y-34875000D03*
%TD*%
%TO.C,C9*%
X33400000Y-33325000D03*
X33400000Y-34875000D03*
%TD*%
D39*
%TO.C,D2*%
X28050000Y-32750000D03*
X28750000Y-32750000D03*
%TD*%
D24*
%TO.C,C1*%
X29500000Y-29250000D03*
X29500000Y-30800000D03*
%TD*%
D35*
%TO.C,C18*%
X53300000Y-29575000D03*
X53300000Y-28025000D03*
%TD*%
D40*
%TO.C,U5*%
X44450000Y-28795000D03*
X44450000Y-30065000D03*
X44450000Y-31335000D03*
X44450000Y-32605000D03*
X51950000Y-32605000D03*
X51950000Y-31335000D03*
X51950000Y-30065000D03*
X51950000Y-28795000D03*
D41*
X48200000Y-30700000D03*
%TD*%
D10*
%TO.C,R9*%
X51590000Y-26800000D03*
X52610000Y-26800000D03*
%TD*%
D19*
%TO.C,C15*%
X39145000Y-25800000D03*
X40105000Y-25800000D03*
%TD*%
D29*
%TO.C,C16*%
X30750000Y-28155000D03*
X30750000Y-27195000D03*
%TD*%
D24*
%TO.C,C5*%
X30700000Y-29875000D03*
X30700000Y-31425000D03*
%TD*%
D16*
%TO.C,R4*%
X33100000Y-24920000D03*
X33100000Y-24280000D03*
%TD*%
M02*
