M48
; DRILL file KiCad 10.0.6 date 2026-09-09T07:02:48
; FORMAT={-:-/ absolute / metric / decimal}
; #@! TF.CreationDate,2026-09-09T07:02:48-07:00
; #@! TF.GenerationSoftware,Kicad,Pcbnew,10.0.6
; #@! TF.FileFunction,Plated,1,4,PTH
FMAT,2
METRIC
; #@! TA.AperFunction,Plated,PTH,ViaDrill
T1C0.200
; #@! TA.AperFunction,Plated,PTH,ViaDrill
T2C0.304
; #@! TA.AperFunction,Plated,PTH,ComponentDrill
T3C0.600
%
G90
G05
T1
X25.175Y-36.5
X25.75Y-23.45
X27.47Y-29.72
X27.56Y-30.34
X27.596Y-34.309
X27.65Y-29.04
X28.05Y-27.05
X28.093Y-28.609
X28.1Y-32.35
X28.15Y-30.95
X28.225Y-23.075
X28.599Y-26.305
X28.71Y-29.96
X28.834Y-34.452
X28.85Y-25.5
X29.95Y-26.175
X30.0Y-31.3
X30.026Y-33.11
X30.13Y-36.244
X30.5Y-25.95
X30.544Y-22.168
X30.6Y-35.55
X30.75Y-26.5
X30.79Y-34.957
X30.95Y-28.85
X31.434Y-32.194
X31.892Y-33.033
X31.917Y-29.436
X32.0Y-26.45
X32.15Y-27.35
X33.182Y-31.418
X33.7Y-24.25
X34.262Y-32.457
X34.3Y-35.9
X34.725Y-37.925
X34.95Y-25.525
X35.4Y-35.575
X35.451Y-33.711
X35.6Y-23.6
X35.75Y-34.65
X36.141Y-32.532
X36.3Y-24.28
X36.329Y-22.184
X36.948Y-25.27
X36.95Y-31.5
X37.458Y-37.592
X37.525Y-33.1
X37.884Y-23.347
X38.5Y-26.4
X38.65Y-33.1
X38.874Y-29.272
X39.193Y-25.05
X39.499Y-34.215
X39.603Y-35.645
X40.75Y-31.9
X41.005Y-26.65
X42.35Y-32.9
X42.45Y-29.25
X42.5Y-32.05
X42.5Y-33.75
X43.087Y-29.298
X43.6Y-22.6
X43.6Y-29.75
X43.796Y-26.515
X43.825Y-36.05
X44.416Y-25.445
X44.54Y-23.081
X44.55Y-30.7
X44.9Y-34.15
X45.092Y-35.661
X45.145Y-31.145
X45.385Y-29.13
X45.45Y-28.425
X45.764Y-35.635
X45.937Y-35.0
X46.638Y-36.257
X47.281Y-27.726
X47.9Y-26.0
X48.05Y-37.45
X48.925Y-25.0
X48.94Y-23.576
X49.093Y-26.273
X49.624Y-21.983
X50.253Y-27.818
X51.0Y-32.5
X51.269Y-30.273
X51.438Y-32.093
X51.662Y-34.046
X51.662Y-37.816
X52.275Y-22.55
X52.369Y-27.823
X52.8Y-26.0
X53.04Y-37.073
X53.55Y-38.35
X54.291Y-34.232
X54.85Y-34.5
X54.942Y-37.636
X55.767Y-26.119
X56.175Y-36.0
X56.85Y-37.597
X57.1Y-34.65
X58.181Y-33.614
X58.475Y-28.175
X58.702Y-35.094
X58.95Y-33.5
X59.4Y-32.5
X60.325Y-30.75
X60.424Y-34.043
X60.621Y-33.396
X61.25Y-37.4
X61.351Y-27.696
X62.15Y-38.05
X62.7Y-30.1
X62.82Y-31.25
X62.832Y-31.886
X62.839Y-29.493
X62.929Y-25.998
X63.0Y-38.45
X63.492Y-35.978
X64.2Y-31.2
X64.25Y-26.5
X64.392Y-31.85
X64.4Y-38.05
X64.95Y-34.85
X64.95Y-35.65
X65.058Y-29.895
X65.058Y-33.273
X65.15Y-33.975
T2
X34.0Y-27.4
X34.0Y-28.6
X34.0Y-29.8
X35.2Y-27.4
X35.2Y-28.6
X35.2Y-29.8
X36.4Y-27.4
X36.4Y-28.6
X36.4Y-29.8
T3
X21.0Y-24.38G85X22.2Y-24.38
G05
X21.0Y-35.62G85X22.2Y-35.62
G05
X25.2Y-24.38G85X26.0Y-24.38
G05
X25.2Y-35.62G85X26.0Y-35.62
G05
M30
