  0
SECTION
  2
HEADER
  9
$ANGBASE
  50
0.0
  9
$ANGDIR
  70
1
  9
$MEASUREMENT
  70
1
  0
ENDSEC
  0
SECTION
  2
TABLES
  0
TABLE
  2
LTYPE
  70
4
  0
LTYPE
  5
40F
  2
CONTINUOUS
  70
0
  3
Solid line
  72
65
  73
0
  40
0.0
  0
LTYPE
  5
410
  2
DASHDOT
 70
0
  3
Dash Dot ____ _ ____ _
 72
65
 73
4
 40
2.0
 49
1.25
 49
-0.25
 49
0.25
 49
-0.25
  0
LTYPE
  5
411
  2
DASHED
 70
0
  3
Dashed __ __ __ __ __
 72
65
 73
2
 40
0.75
 49
0.5
 49
-0.25
  0
LTYPE
  5
43B
  2
DOTTED
 70
0
  3
Dotted .  .  .  .
 72
65
 73
2
 40
0.2
 49
0.0
 49
-0.2
  0
ENDTAB
  0
TABLE
  2
STYLE
  70
4
  0
STYLE
  2
KICAD
  70
0
  40
0
  41
1
  42
1
  50
0
  71
0
  3
isocp.shx
  0
STYLE
  2
KICADB
  70
0
  40
0
  41
1
  42
1
  50
0
  71
0
  3
isocp.shx
  0
STYLE
  2
KICADI
  70
0
  40
0
  41
1
  42
1
  50
15
  71
0
  3
isocp.shx
  0
STYLE
  2
KICADBI
  70
0
  40
0
  41
1
  42
1
  50
15
  71
0
  3
isocp.shx
  0
ENDTAB
  0
TABLE
  2
LAYER
  70
1
  0
LAYER
  2
BLACK
  70
0
  62
7
  6
CONTINUOUS
  0
ENDTAB
  0
ENDSEC
  0
SECTION
  2
ENTITIES
0
LINE
8
BLACK
6
CONTINUOUS
10
63.7999999999999972
20
-21.
11
58.5
21
-21.
0
LINE
8
BLACK
6
CONTINUOUS
10
65.7999999999999972
20
-22.3000000000000007
11
65.
21
-21.5
0
LINE
8
BLACK
6
CONTINUOUS
10
58.5
20
-39.
11
63.7999999999999972
21
-39.
0
LINE
8
BLACK
6
CONTINUOUS
10
58.5
20
-21.
11
28.5
21
-21.
0
LINE
8
BLACK
6
CONTINUOUS
10
20.
20
-25.379999999999999
11
26.1999999999999993
21
-25.379999999999999
0
LINE
8
BLACK
6
CONTINUOUS
10
24.5
20
-38.2999999999999972
11
28.5
21
-39.
0
LINE
8
BLACK
6
CONTINUOUS
10
28.5
20
-39.
11
58.5
21
-39.
0
LINE
8
BLACK
6
CONTINUOUS
10
20.
20
-34.6199999999999974
11
20.5
21
-35.7999999999999972
0
LINE
8
BLACK
6
CONTINUOUS
10
20.5
20
-24.1999999999999993
11
20.
21
-25.379999999999999
0
LINE
8
BLACK
6
CONTINUOUS
10
21.5
20
-36.6999999999999957
11
24.5
21
-38.2999999999999972
0
LINE
8
BLACK
6
CONTINUOUS
10
65.7999999999999972
20
-37.6999999999999957
11
65.7999999999999972
21
-22.3000000000000007
0
LINE
8
BLACK
6
CONTINUOUS
10
21.5
20
-23.3000000000000007
11
20.5
21
-24.1999999999999993
0
LINE
8
BLACK
6
CONTINUOUS
10
65.
20
-38.5
11
65.7999999999999972
21
-37.6999999999999957
0
LINE
8
BLACK
6
CONTINUOUS
10
26.1999999999999993
20
-25.379999999999999
11
26.1999999999999993
21
-34.6199999999999974
0
LINE
8
BLACK
6
CONTINUOUS
10
20.5
20
-35.7999999999999972
11
21.5
21
-36.6999999999999957
0
LINE
8
BLACK
6
CONTINUOUS
10
63.7999999999999972
20
-39.
11
65.
21
-38.5
0
LINE
8
BLACK
6
CONTINUOUS
10
26.1999999999999993
20
-34.6199999999999974
11
20.
21
-34.6199999999999974
0
LINE
8
BLACK
6
CONTINUOUS
10
65.
20
-21.5
11
63.7999999999999972
21
-21.
0
LINE
8
BLACK
6
CONTINUOUS
10
24.5
20
-21.6999999999999993
11
21.5
21
-23.3000000000000007
0
LINE
8
BLACK
6
CONTINUOUS
10
28.5
20
-21.
11
24.5
21
-21.6999999999999993
  0
ENDSEC
  0
EOF
